%TF.GenerationSoftware,KiCad,Pcbnew,7.0.9*%
%TF.CreationDate,2023-11-15T15:13:36+00:00*%
%TF.ProjectId,analog,616e616c-6f67-42e6-9b69-6361645f7063,1*%
%TF.SameCoordinates,Original*%
%TF.FileFunction,Drillmap*%
%TF.FilePolarity,Positive*%
%FSLAX45Y45*%
G04 Gerber Fmt 4.5, Leading zero omitted, Abs format (unit mm)*
G04 Created by KiCad (PCBNEW 7.0.9) date 2023-11-15 15:13:36*
%MOMM*%
%LPD*%
G01*
G04 APERTURE LIST*
%ADD10C,0.100000*%
%ADD11C,0.200000*%
%ADD12C,0.175000*%
%ADD13C,0.400000*%
G04 APERTURE END LIST*
D10*
X8380000Y-1580000D02*
X1780000Y-1580000D01*
X8380000Y-8580000D02*
G75*
G03*
X8580000Y-8380000I-10J200010D01*
G01*
X8580000Y-1780000D02*
X8580000Y-8380000D01*
X8380000Y-8580000D02*
X1780000Y-8580000D01*
X1580000Y-8380000D02*
G75*
G03*
X1780000Y-8580000I199996J-4D01*
G01*
X1580000Y-8380000D02*
X1580000Y-1780000D01*
X1780000Y-1580000D02*
G75*
G03*
X1580000Y-1780000I0J-200000D01*
G01*
X8580000Y-1780000D02*
G75*
G03*
X8380000Y-1580000I-200000J0D01*
G01*
D11*
D10*
X4758500Y-2125000D02*
X4823500Y-2190000D01*
X4823500Y-2125000D02*
X4758500Y-2190000D01*
X5336500Y-2125000D02*
X5401500Y-2190000D01*
X5401500Y-2125000D02*
X5336500Y-2190000D01*
D12*
X2754498Y-6826250D02*
G75*
G03*
X2754498Y-6826250I-87500J0D01*
G01*
X3770498Y-6826250D02*
G75*
G03*
X3770498Y-6826250I-87500J0D01*
G01*
X4659500Y-6826250D02*
G75*
G03*
X4659500Y-6826250I-87500J0D01*
G01*
X5675500Y-6826250D02*
G75*
G03*
X5675500Y-6826250I-87500J0D01*
G01*
X6564500Y-6826250D02*
G75*
G03*
X6564500Y-6826250I-87500J0D01*
G01*
X7580500Y-6826250D02*
G75*
G03*
X7580500Y-6826250I-87500J0D01*
G01*
D13*
X1980000Y-1780000D02*
X1980000Y-2180000D01*
X1780000Y-1980000D02*
X2180000Y-1980000D01*
X1980000Y-7980000D02*
X1980000Y-8380000D01*
X1780000Y-8180000D02*
X2180000Y-8180000D01*
X8180000Y-1780000D02*
X8180000Y-2180000D01*
X7980000Y-1980000D02*
X8380000Y-1980000D01*
X8180000Y-7980000D02*
X8180000Y-8380000D01*
X7980000Y-8180000D02*
X8380000Y-8180000D01*
D11*
X1835777Y-8896484D02*
X1835777Y-8696484D01*
X1835777Y-8696484D02*
X1883396Y-8696484D01*
X1883396Y-8696484D02*
X1911967Y-8706008D01*
X1911967Y-8706008D02*
X1931015Y-8725055D01*
X1931015Y-8725055D02*
X1940539Y-8744103D01*
X1940539Y-8744103D02*
X1950062Y-8782198D01*
X1950062Y-8782198D02*
X1950062Y-8810770D01*
X1950062Y-8810770D02*
X1940539Y-8848865D01*
X1940539Y-8848865D02*
X1931015Y-8867912D01*
X1931015Y-8867912D02*
X1911967Y-8886960D01*
X1911967Y-8886960D02*
X1883396Y-8896484D01*
X1883396Y-8896484D02*
X1835777Y-8896484D01*
X2035777Y-8896484D02*
X2035777Y-8763150D01*
X2035777Y-8801246D02*
X2045301Y-8782198D01*
X2045301Y-8782198D02*
X2054824Y-8772674D01*
X2054824Y-8772674D02*
X2073872Y-8763150D01*
X2073872Y-8763150D02*
X2092920Y-8763150D01*
X2159586Y-8896484D02*
X2159586Y-8763150D01*
X2159586Y-8696484D02*
X2150063Y-8706008D01*
X2150063Y-8706008D02*
X2159586Y-8715531D01*
X2159586Y-8715531D02*
X2169110Y-8706008D01*
X2169110Y-8706008D02*
X2159586Y-8696484D01*
X2159586Y-8696484D02*
X2159586Y-8715531D01*
X2283396Y-8896484D02*
X2264348Y-8886960D01*
X2264348Y-8886960D02*
X2254824Y-8867912D01*
X2254824Y-8867912D02*
X2254824Y-8696484D01*
X2388158Y-8896484D02*
X2369110Y-8886960D01*
X2369110Y-8886960D02*
X2359586Y-8867912D01*
X2359586Y-8867912D02*
X2359586Y-8696484D01*
X2616729Y-8896484D02*
X2616729Y-8696484D01*
X2616729Y-8696484D02*
X2683396Y-8839341D01*
X2683396Y-8839341D02*
X2750063Y-8696484D01*
X2750063Y-8696484D02*
X2750063Y-8896484D01*
X2931015Y-8896484D02*
X2931015Y-8791722D01*
X2931015Y-8791722D02*
X2921491Y-8772674D01*
X2921491Y-8772674D02*
X2902443Y-8763150D01*
X2902443Y-8763150D02*
X2864348Y-8763150D01*
X2864348Y-8763150D02*
X2845301Y-8772674D01*
X2931015Y-8886960D02*
X2911967Y-8896484D01*
X2911967Y-8896484D02*
X2864348Y-8896484D01*
X2864348Y-8896484D02*
X2845301Y-8886960D01*
X2845301Y-8886960D02*
X2835777Y-8867912D01*
X2835777Y-8867912D02*
X2835777Y-8848865D01*
X2835777Y-8848865D02*
X2845301Y-8829817D01*
X2845301Y-8829817D02*
X2864348Y-8820293D01*
X2864348Y-8820293D02*
X2911967Y-8820293D01*
X2911967Y-8820293D02*
X2931015Y-8810770D01*
X3026253Y-8763150D02*
X3026253Y-8963150D01*
X3026253Y-8772674D02*
X3045301Y-8763150D01*
X3045301Y-8763150D02*
X3083396Y-8763150D01*
X3083396Y-8763150D02*
X3102443Y-8772674D01*
X3102443Y-8772674D02*
X3111967Y-8782198D01*
X3111967Y-8782198D02*
X3121491Y-8801246D01*
X3121491Y-8801246D02*
X3121491Y-8858389D01*
X3121491Y-8858389D02*
X3111967Y-8877436D01*
X3111967Y-8877436D02*
X3102443Y-8886960D01*
X3102443Y-8886960D02*
X3083396Y-8896484D01*
X3083396Y-8896484D02*
X3045301Y-8896484D01*
X3045301Y-8896484D02*
X3026253Y-8886960D01*
X3207205Y-8877436D02*
X3216729Y-8886960D01*
X3216729Y-8886960D02*
X3207205Y-8896484D01*
X3207205Y-8896484D02*
X3197682Y-8886960D01*
X3197682Y-8886960D02*
X3207205Y-8877436D01*
X3207205Y-8877436D02*
X3207205Y-8896484D01*
X3207205Y-8772674D02*
X3216729Y-8782198D01*
X3216729Y-8782198D02*
X3207205Y-8791722D01*
X3207205Y-8791722D02*
X3197682Y-8782198D01*
X3197682Y-8782198D02*
X3207205Y-8772674D01*
X3207205Y-8772674D02*
X3207205Y-8791722D01*
D10*
X1510000Y-9192500D02*
X1575000Y-9257500D01*
X1575000Y-9192500D02*
X1510000Y-9257500D01*
D11*
X1873872Y-9116484D02*
X1892920Y-9116484D01*
X1892920Y-9116484D02*
X1911967Y-9126008D01*
X1911967Y-9126008D02*
X1921491Y-9135531D01*
X1921491Y-9135531D02*
X1931015Y-9154579D01*
X1931015Y-9154579D02*
X1940539Y-9192674D01*
X1940539Y-9192674D02*
X1940539Y-9240293D01*
X1940539Y-9240293D02*
X1931015Y-9278389D01*
X1931015Y-9278389D02*
X1921491Y-9297436D01*
X1921491Y-9297436D02*
X1911967Y-9306960D01*
X1911967Y-9306960D02*
X1892920Y-9316484D01*
X1892920Y-9316484D02*
X1873872Y-9316484D01*
X1873872Y-9316484D02*
X1854824Y-9306960D01*
X1854824Y-9306960D02*
X1845301Y-9297436D01*
X1845301Y-9297436D02*
X1835777Y-9278389D01*
X1835777Y-9278389D02*
X1826253Y-9240293D01*
X1826253Y-9240293D02*
X1826253Y-9192674D01*
X1826253Y-9192674D02*
X1835777Y-9154579D01*
X1835777Y-9154579D02*
X1845301Y-9135531D01*
X1845301Y-9135531D02*
X1854824Y-9126008D01*
X1854824Y-9126008D02*
X1873872Y-9116484D01*
X2026253Y-9297436D02*
X2035777Y-9306960D01*
X2035777Y-9306960D02*
X2026253Y-9316484D01*
X2026253Y-9316484D02*
X2016729Y-9306960D01*
X2016729Y-9306960D02*
X2026253Y-9297436D01*
X2026253Y-9297436D02*
X2026253Y-9316484D01*
X2207205Y-9116484D02*
X2169110Y-9116484D01*
X2169110Y-9116484D02*
X2150063Y-9126008D01*
X2150063Y-9126008D02*
X2140539Y-9135531D01*
X2140539Y-9135531D02*
X2121491Y-9164103D01*
X2121491Y-9164103D02*
X2111967Y-9202198D01*
X2111967Y-9202198D02*
X2111967Y-9278389D01*
X2111967Y-9278389D02*
X2121491Y-9297436D01*
X2121491Y-9297436D02*
X2131015Y-9306960D01*
X2131015Y-9306960D02*
X2150063Y-9316484D01*
X2150063Y-9316484D02*
X2188158Y-9316484D01*
X2188158Y-9316484D02*
X2207205Y-9306960D01*
X2207205Y-9306960D02*
X2216729Y-9297436D01*
X2216729Y-9297436D02*
X2226253Y-9278389D01*
X2226253Y-9278389D02*
X2226253Y-9230770D01*
X2226253Y-9230770D02*
X2216729Y-9211722D01*
X2216729Y-9211722D02*
X2207205Y-9202198D01*
X2207205Y-9202198D02*
X2188158Y-9192674D01*
X2188158Y-9192674D02*
X2150063Y-9192674D01*
X2150063Y-9192674D02*
X2131015Y-9202198D01*
X2131015Y-9202198D02*
X2121491Y-9211722D01*
X2121491Y-9211722D02*
X2111967Y-9230770D01*
X2407205Y-9116484D02*
X2311967Y-9116484D01*
X2311967Y-9116484D02*
X2302444Y-9211722D01*
X2302444Y-9211722D02*
X2311967Y-9202198D01*
X2311967Y-9202198D02*
X2331015Y-9192674D01*
X2331015Y-9192674D02*
X2378634Y-9192674D01*
X2378634Y-9192674D02*
X2397682Y-9202198D01*
X2397682Y-9202198D02*
X2407205Y-9211722D01*
X2407205Y-9211722D02*
X2416729Y-9230770D01*
X2416729Y-9230770D02*
X2416729Y-9278389D01*
X2416729Y-9278389D02*
X2407205Y-9297436D01*
X2407205Y-9297436D02*
X2397682Y-9306960D01*
X2397682Y-9306960D02*
X2378634Y-9316484D01*
X2378634Y-9316484D02*
X2331015Y-9316484D01*
X2331015Y-9316484D02*
X2311967Y-9306960D01*
X2311967Y-9306960D02*
X2302444Y-9297436D01*
X2540539Y-9116484D02*
X2559586Y-9116484D01*
X2559586Y-9116484D02*
X2578634Y-9126008D01*
X2578634Y-9126008D02*
X2588158Y-9135531D01*
X2588158Y-9135531D02*
X2597682Y-9154579D01*
X2597682Y-9154579D02*
X2607205Y-9192674D01*
X2607205Y-9192674D02*
X2607205Y-9240293D01*
X2607205Y-9240293D02*
X2597682Y-9278389D01*
X2597682Y-9278389D02*
X2588158Y-9297436D01*
X2588158Y-9297436D02*
X2578634Y-9306960D01*
X2578634Y-9306960D02*
X2559586Y-9316484D01*
X2559586Y-9316484D02*
X2540539Y-9316484D01*
X2540539Y-9316484D02*
X2521491Y-9306960D01*
X2521491Y-9306960D02*
X2511967Y-9297436D01*
X2511967Y-9297436D02*
X2502444Y-9278389D01*
X2502444Y-9278389D02*
X2492920Y-9240293D01*
X2492920Y-9240293D02*
X2492920Y-9192674D01*
X2492920Y-9192674D02*
X2502444Y-9154579D01*
X2502444Y-9154579D02*
X2511967Y-9135531D01*
X2511967Y-9135531D02*
X2521491Y-9126008D01*
X2521491Y-9126008D02*
X2540539Y-9116484D01*
X2692920Y-9316484D02*
X2692920Y-9183150D01*
X2692920Y-9202198D02*
X2702444Y-9192674D01*
X2702444Y-9192674D02*
X2721491Y-9183150D01*
X2721491Y-9183150D02*
X2750063Y-9183150D01*
X2750063Y-9183150D02*
X2769110Y-9192674D01*
X2769110Y-9192674D02*
X2778634Y-9211722D01*
X2778634Y-9211722D02*
X2778634Y-9316484D01*
X2778634Y-9211722D02*
X2788158Y-9192674D01*
X2788158Y-9192674D02*
X2807205Y-9183150D01*
X2807205Y-9183150D02*
X2835777Y-9183150D01*
X2835777Y-9183150D02*
X2854824Y-9192674D01*
X2854824Y-9192674D02*
X2864348Y-9211722D01*
X2864348Y-9211722D02*
X2864348Y-9316484D01*
X2959586Y-9316484D02*
X2959586Y-9183150D01*
X2959586Y-9202198D02*
X2969110Y-9192674D01*
X2969110Y-9192674D02*
X2988158Y-9183150D01*
X2988158Y-9183150D02*
X3016729Y-9183150D01*
X3016729Y-9183150D02*
X3035777Y-9192674D01*
X3035777Y-9192674D02*
X3045301Y-9211722D01*
X3045301Y-9211722D02*
X3045301Y-9316484D01*
X3045301Y-9211722D02*
X3054824Y-9192674D01*
X3054824Y-9192674D02*
X3073872Y-9183150D01*
X3073872Y-9183150D02*
X3102443Y-9183150D01*
X3102443Y-9183150D02*
X3121491Y-9192674D01*
X3121491Y-9192674D02*
X3131015Y-9211722D01*
X3131015Y-9211722D02*
X3131015Y-9316484D01*
X3521491Y-9106960D02*
X3350063Y-9364103D01*
X3778634Y-9116484D02*
X3797682Y-9116484D01*
X3797682Y-9116484D02*
X3816729Y-9126008D01*
X3816729Y-9126008D02*
X3826253Y-9135531D01*
X3826253Y-9135531D02*
X3835777Y-9154579D01*
X3835777Y-9154579D02*
X3845301Y-9192674D01*
X3845301Y-9192674D02*
X3845301Y-9240293D01*
X3845301Y-9240293D02*
X3835777Y-9278389D01*
X3835777Y-9278389D02*
X3826253Y-9297436D01*
X3826253Y-9297436D02*
X3816729Y-9306960D01*
X3816729Y-9306960D02*
X3797682Y-9316484D01*
X3797682Y-9316484D02*
X3778634Y-9316484D01*
X3778634Y-9316484D02*
X3759586Y-9306960D01*
X3759586Y-9306960D02*
X3750063Y-9297436D01*
X3750063Y-9297436D02*
X3740539Y-9278389D01*
X3740539Y-9278389D02*
X3731015Y-9240293D01*
X3731015Y-9240293D02*
X3731015Y-9192674D01*
X3731015Y-9192674D02*
X3740539Y-9154579D01*
X3740539Y-9154579D02*
X3750063Y-9135531D01*
X3750063Y-9135531D02*
X3759586Y-9126008D01*
X3759586Y-9126008D02*
X3778634Y-9116484D01*
X3931015Y-9297436D02*
X3940539Y-9306960D01*
X3940539Y-9306960D02*
X3931015Y-9316484D01*
X3931015Y-9316484D02*
X3921491Y-9306960D01*
X3921491Y-9306960D02*
X3931015Y-9297436D01*
X3931015Y-9297436D02*
X3931015Y-9316484D01*
X4064348Y-9116484D02*
X4083396Y-9116484D01*
X4083396Y-9116484D02*
X4102444Y-9126008D01*
X4102444Y-9126008D02*
X4111967Y-9135531D01*
X4111967Y-9135531D02*
X4121491Y-9154579D01*
X4121491Y-9154579D02*
X4131015Y-9192674D01*
X4131015Y-9192674D02*
X4131015Y-9240293D01*
X4131015Y-9240293D02*
X4121491Y-9278389D01*
X4121491Y-9278389D02*
X4111967Y-9297436D01*
X4111967Y-9297436D02*
X4102444Y-9306960D01*
X4102444Y-9306960D02*
X4083396Y-9316484D01*
X4083396Y-9316484D02*
X4064348Y-9316484D01*
X4064348Y-9316484D02*
X4045301Y-9306960D01*
X4045301Y-9306960D02*
X4035777Y-9297436D01*
X4035777Y-9297436D02*
X4026253Y-9278389D01*
X4026253Y-9278389D02*
X4016729Y-9240293D01*
X4016729Y-9240293D02*
X4016729Y-9192674D01*
X4016729Y-9192674D02*
X4026253Y-9154579D01*
X4026253Y-9154579D02*
X4035777Y-9135531D01*
X4035777Y-9135531D02*
X4045301Y-9126008D01*
X4045301Y-9126008D02*
X4064348Y-9116484D01*
X4207206Y-9135531D02*
X4216729Y-9126008D01*
X4216729Y-9126008D02*
X4235777Y-9116484D01*
X4235777Y-9116484D02*
X4283396Y-9116484D01*
X4283396Y-9116484D02*
X4302444Y-9126008D01*
X4302444Y-9126008D02*
X4311968Y-9135531D01*
X4311968Y-9135531D02*
X4321491Y-9154579D01*
X4321491Y-9154579D02*
X4321491Y-9173627D01*
X4321491Y-9173627D02*
X4311968Y-9202198D01*
X4311968Y-9202198D02*
X4197682Y-9316484D01*
X4197682Y-9316484D02*
X4321491Y-9316484D01*
X4502444Y-9116484D02*
X4407206Y-9116484D01*
X4407206Y-9116484D02*
X4397682Y-9211722D01*
X4397682Y-9211722D02*
X4407206Y-9202198D01*
X4407206Y-9202198D02*
X4426253Y-9192674D01*
X4426253Y-9192674D02*
X4473872Y-9192674D01*
X4473872Y-9192674D02*
X4492920Y-9202198D01*
X4492920Y-9202198D02*
X4502444Y-9211722D01*
X4502444Y-9211722D02*
X4511968Y-9230770D01*
X4511968Y-9230770D02*
X4511968Y-9278389D01*
X4511968Y-9278389D02*
X4502444Y-9297436D01*
X4502444Y-9297436D02*
X4492920Y-9306960D01*
X4492920Y-9306960D02*
X4473872Y-9316484D01*
X4473872Y-9316484D02*
X4426253Y-9316484D01*
X4426253Y-9316484D02*
X4407206Y-9306960D01*
X4407206Y-9306960D02*
X4397682Y-9297436D01*
X4683396Y-9116484D02*
X4645301Y-9116484D01*
X4645301Y-9116484D02*
X4626253Y-9126008D01*
X4626253Y-9126008D02*
X4616729Y-9135531D01*
X4616729Y-9135531D02*
X4597682Y-9164103D01*
X4597682Y-9164103D02*
X4588158Y-9202198D01*
X4588158Y-9202198D02*
X4588158Y-9278389D01*
X4588158Y-9278389D02*
X4597682Y-9297436D01*
X4597682Y-9297436D02*
X4607206Y-9306960D01*
X4607206Y-9306960D02*
X4626253Y-9316484D01*
X4626253Y-9316484D02*
X4664349Y-9316484D01*
X4664349Y-9316484D02*
X4683396Y-9306960D01*
X4683396Y-9306960D02*
X4692920Y-9297436D01*
X4692920Y-9297436D02*
X4702444Y-9278389D01*
X4702444Y-9278389D02*
X4702444Y-9230770D01*
X4702444Y-9230770D02*
X4692920Y-9211722D01*
X4692920Y-9211722D02*
X4683396Y-9202198D01*
X4683396Y-9202198D02*
X4664349Y-9192674D01*
X4664349Y-9192674D02*
X4626253Y-9192674D01*
X4626253Y-9192674D02*
X4607206Y-9202198D01*
X4607206Y-9202198D02*
X4597682Y-9211722D01*
X4597682Y-9211722D02*
X4588158Y-9230770D01*
X4778634Y-9116484D02*
X4778634Y-9154579D01*
X4854825Y-9116484D02*
X4854825Y-9154579D01*
X5150063Y-9392674D02*
X5140539Y-9383150D01*
X5140539Y-9383150D02*
X5121491Y-9354579D01*
X5121491Y-9354579D02*
X5111968Y-9335531D01*
X5111968Y-9335531D02*
X5102444Y-9306960D01*
X5102444Y-9306960D02*
X5092920Y-9259341D01*
X5092920Y-9259341D02*
X5092920Y-9221246D01*
X5092920Y-9221246D02*
X5102444Y-9173627D01*
X5102444Y-9173627D02*
X5111968Y-9145055D01*
X5111968Y-9145055D02*
X5121491Y-9126008D01*
X5121491Y-9126008D02*
X5140539Y-9097436D01*
X5140539Y-9097436D02*
X5150063Y-9087912D01*
X5216730Y-9135531D02*
X5226253Y-9126008D01*
X5226253Y-9126008D02*
X5245301Y-9116484D01*
X5245301Y-9116484D02*
X5292920Y-9116484D01*
X5292920Y-9116484D02*
X5311968Y-9126008D01*
X5311968Y-9126008D02*
X5321491Y-9135531D01*
X5321491Y-9135531D02*
X5331015Y-9154579D01*
X5331015Y-9154579D02*
X5331015Y-9173627D01*
X5331015Y-9173627D02*
X5321491Y-9202198D01*
X5321491Y-9202198D02*
X5207206Y-9316484D01*
X5207206Y-9316484D02*
X5331015Y-9316484D01*
X5569111Y-9316484D02*
X5569111Y-9116484D01*
X5654825Y-9316484D02*
X5654825Y-9211722D01*
X5654825Y-9211722D02*
X5645301Y-9192674D01*
X5645301Y-9192674D02*
X5626253Y-9183150D01*
X5626253Y-9183150D02*
X5597682Y-9183150D01*
X5597682Y-9183150D02*
X5578634Y-9192674D01*
X5578634Y-9192674D02*
X5569111Y-9202198D01*
X5778634Y-9316484D02*
X5759587Y-9306960D01*
X5759587Y-9306960D02*
X5750063Y-9297436D01*
X5750063Y-9297436D02*
X5740539Y-9278389D01*
X5740539Y-9278389D02*
X5740539Y-9221246D01*
X5740539Y-9221246D02*
X5750063Y-9202198D01*
X5750063Y-9202198D02*
X5759587Y-9192674D01*
X5759587Y-9192674D02*
X5778634Y-9183150D01*
X5778634Y-9183150D02*
X5807206Y-9183150D01*
X5807206Y-9183150D02*
X5826253Y-9192674D01*
X5826253Y-9192674D02*
X5835777Y-9202198D01*
X5835777Y-9202198D02*
X5845301Y-9221246D01*
X5845301Y-9221246D02*
X5845301Y-9278389D01*
X5845301Y-9278389D02*
X5835777Y-9297436D01*
X5835777Y-9297436D02*
X5826253Y-9306960D01*
X5826253Y-9306960D02*
X5807206Y-9316484D01*
X5807206Y-9316484D02*
X5778634Y-9316484D01*
X5959587Y-9316484D02*
X5940539Y-9306960D01*
X5940539Y-9306960D02*
X5931015Y-9287912D01*
X5931015Y-9287912D02*
X5931015Y-9116484D01*
X6111968Y-9306960D02*
X6092920Y-9316484D01*
X6092920Y-9316484D02*
X6054825Y-9316484D01*
X6054825Y-9316484D02*
X6035777Y-9306960D01*
X6035777Y-9306960D02*
X6026253Y-9287912D01*
X6026253Y-9287912D02*
X6026253Y-9211722D01*
X6026253Y-9211722D02*
X6035777Y-9192674D01*
X6035777Y-9192674D02*
X6054825Y-9183150D01*
X6054825Y-9183150D02*
X6092920Y-9183150D01*
X6092920Y-9183150D02*
X6111968Y-9192674D01*
X6111968Y-9192674D02*
X6121491Y-9211722D01*
X6121491Y-9211722D02*
X6121491Y-9230770D01*
X6121491Y-9230770D02*
X6026253Y-9249817D01*
X6197682Y-9306960D02*
X6216730Y-9316484D01*
X6216730Y-9316484D02*
X6254825Y-9316484D01*
X6254825Y-9316484D02*
X6273872Y-9306960D01*
X6273872Y-9306960D02*
X6283396Y-9287912D01*
X6283396Y-9287912D02*
X6283396Y-9278389D01*
X6283396Y-9278389D02*
X6273872Y-9259341D01*
X6273872Y-9259341D02*
X6254825Y-9249817D01*
X6254825Y-9249817D02*
X6226253Y-9249817D01*
X6226253Y-9249817D02*
X6207206Y-9240293D01*
X6207206Y-9240293D02*
X6197682Y-9221246D01*
X6197682Y-9221246D02*
X6197682Y-9211722D01*
X6197682Y-9211722D02*
X6207206Y-9192674D01*
X6207206Y-9192674D02*
X6226253Y-9183150D01*
X6226253Y-9183150D02*
X6254825Y-9183150D01*
X6254825Y-9183150D02*
X6273872Y-9192674D01*
X6350063Y-9392674D02*
X6359587Y-9383150D01*
X6359587Y-9383150D02*
X6378634Y-9354579D01*
X6378634Y-9354579D02*
X6388158Y-9335531D01*
X6388158Y-9335531D02*
X6397682Y-9306960D01*
X6397682Y-9306960D02*
X6407206Y-9259341D01*
X6407206Y-9259341D02*
X6407206Y-9221246D01*
X6407206Y-9221246D02*
X6397682Y-9173627D01*
X6397682Y-9173627D02*
X6388158Y-9145055D01*
X6388158Y-9145055D02*
X6378634Y-9126008D01*
X6378634Y-9126008D02*
X6359587Y-9097436D01*
X6359587Y-9097436D02*
X6350063Y-9087912D01*
X6711968Y-9392674D02*
X6702444Y-9383150D01*
X6702444Y-9383150D02*
X6683396Y-9354579D01*
X6683396Y-9354579D02*
X6673872Y-9335531D01*
X6673872Y-9335531D02*
X6664349Y-9306960D01*
X6664349Y-9306960D02*
X6654825Y-9259341D01*
X6654825Y-9259341D02*
X6654825Y-9221246D01*
X6654825Y-9221246D02*
X6664349Y-9173627D01*
X6664349Y-9173627D02*
X6673872Y-9145055D01*
X6673872Y-9145055D02*
X6683396Y-9126008D01*
X6683396Y-9126008D02*
X6702444Y-9097436D01*
X6702444Y-9097436D02*
X6711968Y-9087912D01*
X6788158Y-9183150D02*
X6788158Y-9316484D01*
X6788158Y-9202198D02*
X6797682Y-9192674D01*
X6797682Y-9192674D02*
X6816730Y-9183150D01*
X6816730Y-9183150D02*
X6845301Y-9183150D01*
X6845301Y-9183150D02*
X6864349Y-9192674D01*
X6864349Y-9192674D02*
X6873872Y-9211722D01*
X6873872Y-9211722D02*
X6873872Y-9316484D01*
X6997682Y-9316484D02*
X6978634Y-9306960D01*
X6978634Y-9306960D02*
X6969111Y-9297436D01*
X6969111Y-9297436D02*
X6959587Y-9278389D01*
X6959587Y-9278389D02*
X6959587Y-9221246D01*
X6959587Y-9221246D02*
X6969111Y-9202198D01*
X6969111Y-9202198D02*
X6978634Y-9192674D01*
X6978634Y-9192674D02*
X6997682Y-9183150D01*
X6997682Y-9183150D02*
X7026253Y-9183150D01*
X7026253Y-9183150D02*
X7045301Y-9192674D01*
X7045301Y-9192674D02*
X7054825Y-9202198D01*
X7054825Y-9202198D02*
X7064349Y-9221246D01*
X7064349Y-9221246D02*
X7064349Y-9278389D01*
X7064349Y-9278389D02*
X7054825Y-9297436D01*
X7054825Y-9297436D02*
X7045301Y-9306960D01*
X7045301Y-9306960D02*
X7026253Y-9316484D01*
X7026253Y-9316484D02*
X6997682Y-9316484D01*
X7121492Y-9183150D02*
X7197682Y-9183150D01*
X7150063Y-9116484D02*
X7150063Y-9287912D01*
X7150063Y-9287912D02*
X7159587Y-9306960D01*
X7159587Y-9306960D02*
X7178634Y-9316484D01*
X7178634Y-9316484D02*
X7197682Y-9316484D01*
X7416730Y-9183150D02*
X7416730Y-9383150D01*
X7416730Y-9192674D02*
X7435777Y-9183150D01*
X7435777Y-9183150D02*
X7473873Y-9183150D01*
X7473873Y-9183150D02*
X7492920Y-9192674D01*
X7492920Y-9192674D02*
X7502444Y-9202198D01*
X7502444Y-9202198D02*
X7511968Y-9221246D01*
X7511968Y-9221246D02*
X7511968Y-9278389D01*
X7511968Y-9278389D02*
X7502444Y-9297436D01*
X7502444Y-9297436D02*
X7492920Y-9306960D01*
X7492920Y-9306960D02*
X7473873Y-9316484D01*
X7473873Y-9316484D02*
X7435777Y-9316484D01*
X7435777Y-9316484D02*
X7416730Y-9306960D01*
X7626253Y-9316484D02*
X7607206Y-9306960D01*
X7607206Y-9306960D02*
X7597682Y-9287912D01*
X7597682Y-9287912D02*
X7597682Y-9116484D01*
X7788158Y-9316484D02*
X7788158Y-9211722D01*
X7788158Y-9211722D02*
X7778634Y-9192674D01*
X7778634Y-9192674D02*
X7759587Y-9183150D01*
X7759587Y-9183150D02*
X7721492Y-9183150D01*
X7721492Y-9183150D02*
X7702444Y-9192674D01*
X7788158Y-9306960D02*
X7769111Y-9316484D01*
X7769111Y-9316484D02*
X7721492Y-9316484D01*
X7721492Y-9316484D02*
X7702444Y-9306960D01*
X7702444Y-9306960D02*
X7692920Y-9287912D01*
X7692920Y-9287912D02*
X7692920Y-9268865D01*
X7692920Y-9268865D02*
X7702444Y-9249817D01*
X7702444Y-9249817D02*
X7721492Y-9240293D01*
X7721492Y-9240293D02*
X7769111Y-9240293D01*
X7769111Y-9240293D02*
X7788158Y-9230770D01*
X7854825Y-9183150D02*
X7931015Y-9183150D01*
X7883396Y-9116484D02*
X7883396Y-9287912D01*
X7883396Y-9287912D02*
X7892920Y-9306960D01*
X7892920Y-9306960D02*
X7911968Y-9316484D01*
X7911968Y-9316484D02*
X7931015Y-9316484D01*
X8073873Y-9306960D02*
X8054825Y-9316484D01*
X8054825Y-9316484D02*
X8016730Y-9316484D01*
X8016730Y-9316484D02*
X7997682Y-9306960D01*
X7997682Y-9306960D02*
X7988158Y-9287912D01*
X7988158Y-9287912D02*
X7988158Y-9211722D01*
X7988158Y-9211722D02*
X7997682Y-9192674D01*
X7997682Y-9192674D02*
X8016730Y-9183150D01*
X8016730Y-9183150D02*
X8054825Y-9183150D01*
X8054825Y-9183150D02*
X8073873Y-9192674D01*
X8073873Y-9192674D02*
X8083396Y-9211722D01*
X8083396Y-9211722D02*
X8083396Y-9230770D01*
X8083396Y-9230770D02*
X7988158Y-9249817D01*
X8254825Y-9316484D02*
X8254825Y-9116484D01*
X8254825Y-9306960D02*
X8235777Y-9316484D01*
X8235777Y-9316484D02*
X8197682Y-9316484D01*
X8197682Y-9316484D02*
X8178634Y-9306960D01*
X8178634Y-9306960D02*
X8169111Y-9297436D01*
X8169111Y-9297436D02*
X8159587Y-9278389D01*
X8159587Y-9278389D02*
X8159587Y-9221246D01*
X8159587Y-9221246D02*
X8169111Y-9202198D01*
X8169111Y-9202198D02*
X8178634Y-9192674D01*
X8178634Y-9192674D02*
X8197682Y-9183150D01*
X8197682Y-9183150D02*
X8235777Y-9183150D01*
X8235777Y-9183150D02*
X8254825Y-9192674D01*
X8331015Y-9392674D02*
X8340539Y-9383150D01*
X8340539Y-9383150D02*
X8359587Y-9354579D01*
X8359587Y-9354579D02*
X8369111Y-9335531D01*
X8369111Y-9335531D02*
X8378634Y-9306960D01*
X8378634Y-9306960D02*
X8388158Y-9259341D01*
X8388158Y-9259341D02*
X8388158Y-9221246D01*
X8388158Y-9221246D02*
X8378634Y-9173627D01*
X8378634Y-9173627D02*
X8369111Y-9145055D01*
X8369111Y-9145055D02*
X8359587Y-9126008D01*
X8359587Y-9126008D02*
X8340539Y-9097436D01*
X8340539Y-9097436D02*
X8331015Y-9087912D01*
D12*
X1575000Y-9489000D02*
G75*
G03*
X1575000Y-9489000I-87500J0D01*
G01*
D11*
X1940539Y-9580484D02*
X1826253Y-9580484D01*
X1883396Y-9580484D02*
X1883396Y-9380484D01*
X1883396Y-9380484D02*
X1864348Y-9409055D01*
X1864348Y-9409055D02*
X1845301Y-9428103D01*
X1845301Y-9428103D02*
X1826253Y-9437627D01*
X2026253Y-9561436D02*
X2035777Y-9570960D01*
X2035777Y-9570960D02*
X2026253Y-9580484D01*
X2026253Y-9580484D02*
X2016729Y-9570960D01*
X2016729Y-9570960D02*
X2026253Y-9561436D01*
X2026253Y-9561436D02*
X2026253Y-9580484D01*
X2102444Y-9380484D02*
X2235777Y-9380484D01*
X2235777Y-9380484D02*
X2150063Y-9580484D01*
X2407205Y-9380484D02*
X2311967Y-9380484D01*
X2311967Y-9380484D02*
X2302444Y-9475722D01*
X2302444Y-9475722D02*
X2311967Y-9466198D01*
X2311967Y-9466198D02*
X2331015Y-9456674D01*
X2331015Y-9456674D02*
X2378634Y-9456674D01*
X2378634Y-9456674D02*
X2397682Y-9466198D01*
X2397682Y-9466198D02*
X2407205Y-9475722D01*
X2407205Y-9475722D02*
X2416729Y-9494770D01*
X2416729Y-9494770D02*
X2416729Y-9542389D01*
X2416729Y-9542389D02*
X2407205Y-9561436D01*
X2407205Y-9561436D02*
X2397682Y-9570960D01*
X2397682Y-9570960D02*
X2378634Y-9580484D01*
X2378634Y-9580484D02*
X2331015Y-9580484D01*
X2331015Y-9580484D02*
X2311967Y-9570960D01*
X2311967Y-9570960D02*
X2302444Y-9561436D01*
X2540539Y-9380484D02*
X2559586Y-9380484D01*
X2559586Y-9380484D02*
X2578634Y-9390008D01*
X2578634Y-9390008D02*
X2588158Y-9399531D01*
X2588158Y-9399531D02*
X2597682Y-9418579D01*
X2597682Y-9418579D02*
X2607205Y-9456674D01*
X2607205Y-9456674D02*
X2607205Y-9504293D01*
X2607205Y-9504293D02*
X2597682Y-9542389D01*
X2597682Y-9542389D02*
X2588158Y-9561436D01*
X2588158Y-9561436D02*
X2578634Y-9570960D01*
X2578634Y-9570960D02*
X2559586Y-9580484D01*
X2559586Y-9580484D02*
X2540539Y-9580484D01*
X2540539Y-9580484D02*
X2521491Y-9570960D01*
X2521491Y-9570960D02*
X2511967Y-9561436D01*
X2511967Y-9561436D02*
X2502444Y-9542389D01*
X2502444Y-9542389D02*
X2492920Y-9504293D01*
X2492920Y-9504293D02*
X2492920Y-9456674D01*
X2492920Y-9456674D02*
X2502444Y-9418579D01*
X2502444Y-9418579D02*
X2511967Y-9399531D01*
X2511967Y-9399531D02*
X2521491Y-9390008D01*
X2521491Y-9390008D02*
X2540539Y-9380484D01*
X2692920Y-9580484D02*
X2692920Y-9447150D01*
X2692920Y-9466198D02*
X2702444Y-9456674D01*
X2702444Y-9456674D02*
X2721491Y-9447150D01*
X2721491Y-9447150D02*
X2750063Y-9447150D01*
X2750063Y-9447150D02*
X2769110Y-9456674D01*
X2769110Y-9456674D02*
X2778634Y-9475722D01*
X2778634Y-9475722D02*
X2778634Y-9580484D01*
X2778634Y-9475722D02*
X2788158Y-9456674D01*
X2788158Y-9456674D02*
X2807205Y-9447150D01*
X2807205Y-9447150D02*
X2835777Y-9447150D01*
X2835777Y-9447150D02*
X2854824Y-9456674D01*
X2854824Y-9456674D02*
X2864348Y-9475722D01*
X2864348Y-9475722D02*
X2864348Y-9580484D01*
X2959586Y-9580484D02*
X2959586Y-9447150D01*
X2959586Y-9466198D02*
X2969110Y-9456674D01*
X2969110Y-9456674D02*
X2988158Y-9447150D01*
X2988158Y-9447150D02*
X3016729Y-9447150D01*
X3016729Y-9447150D02*
X3035777Y-9456674D01*
X3035777Y-9456674D02*
X3045301Y-9475722D01*
X3045301Y-9475722D02*
X3045301Y-9580484D01*
X3045301Y-9475722D02*
X3054824Y-9456674D01*
X3054824Y-9456674D02*
X3073872Y-9447150D01*
X3073872Y-9447150D02*
X3102443Y-9447150D01*
X3102443Y-9447150D02*
X3121491Y-9456674D01*
X3121491Y-9456674D02*
X3131015Y-9475722D01*
X3131015Y-9475722D02*
X3131015Y-9580484D01*
X3521491Y-9370960D02*
X3350063Y-9628103D01*
X3778634Y-9380484D02*
X3797682Y-9380484D01*
X3797682Y-9380484D02*
X3816729Y-9390008D01*
X3816729Y-9390008D02*
X3826253Y-9399531D01*
X3826253Y-9399531D02*
X3835777Y-9418579D01*
X3835777Y-9418579D02*
X3845301Y-9456674D01*
X3845301Y-9456674D02*
X3845301Y-9504293D01*
X3845301Y-9504293D02*
X3835777Y-9542389D01*
X3835777Y-9542389D02*
X3826253Y-9561436D01*
X3826253Y-9561436D02*
X3816729Y-9570960D01*
X3816729Y-9570960D02*
X3797682Y-9580484D01*
X3797682Y-9580484D02*
X3778634Y-9580484D01*
X3778634Y-9580484D02*
X3759586Y-9570960D01*
X3759586Y-9570960D02*
X3750063Y-9561436D01*
X3750063Y-9561436D02*
X3740539Y-9542389D01*
X3740539Y-9542389D02*
X3731015Y-9504293D01*
X3731015Y-9504293D02*
X3731015Y-9456674D01*
X3731015Y-9456674D02*
X3740539Y-9418579D01*
X3740539Y-9418579D02*
X3750063Y-9399531D01*
X3750063Y-9399531D02*
X3759586Y-9390008D01*
X3759586Y-9390008D02*
X3778634Y-9380484D01*
X3931015Y-9561436D02*
X3940539Y-9570960D01*
X3940539Y-9570960D02*
X3931015Y-9580484D01*
X3931015Y-9580484D02*
X3921491Y-9570960D01*
X3921491Y-9570960D02*
X3931015Y-9561436D01*
X3931015Y-9561436D02*
X3931015Y-9580484D01*
X4064348Y-9380484D02*
X4083396Y-9380484D01*
X4083396Y-9380484D02*
X4102444Y-9390008D01*
X4102444Y-9390008D02*
X4111967Y-9399531D01*
X4111967Y-9399531D02*
X4121491Y-9418579D01*
X4121491Y-9418579D02*
X4131015Y-9456674D01*
X4131015Y-9456674D02*
X4131015Y-9504293D01*
X4131015Y-9504293D02*
X4121491Y-9542389D01*
X4121491Y-9542389D02*
X4111967Y-9561436D01*
X4111967Y-9561436D02*
X4102444Y-9570960D01*
X4102444Y-9570960D02*
X4083396Y-9580484D01*
X4083396Y-9580484D02*
X4064348Y-9580484D01*
X4064348Y-9580484D02*
X4045301Y-9570960D01*
X4045301Y-9570960D02*
X4035777Y-9561436D01*
X4035777Y-9561436D02*
X4026253Y-9542389D01*
X4026253Y-9542389D02*
X4016729Y-9504293D01*
X4016729Y-9504293D02*
X4016729Y-9456674D01*
X4016729Y-9456674D02*
X4026253Y-9418579D01*
X4026253Y-9418579D02*
X4035777Y-9399531D01*
X4035777Y-9399531D02*
X4045301Y-9390008D01*
X4045301Y-9390008D02*
X4064348Y-9380484D01*
X4302444Y-9380484D02*
X4264348Y-9380484D01*
X4264348Y-9380484D02*
X4245301Y-9390008D01*
X4245301Y-9390008D02*
X4235777Y-9399531D01*
X4235777Y-9399531D02*
X4216729Y-9428103D01*
X4216729Y-9428103D02*
X4207206Y-9466198D01*
X4207206Y-9466198D02*
X4207206Y-9542389D01*
X4207206Y-9542389D02*
X4216729Y-9561436D01*
X4216729Y-9561436D02*
X4226253Y-9570960D01*
X4226253Y-9570960D02*
X4245301Y-9580484D01*
X4245301Y-9580484D02*
X4283396Y-9580484D01*
X4283396Y-9580484D02*
X4302444Y-9570960D01*
X4302444Y-9570960D02*
X4311968Y-9561436D01*
X4311968Y-9561436D02*
X4321491Y-9542389D01*
X4321491Y-9542389D02*
X4321491Y-9494770D01*
X4321491Y-9494770D02*
X4311968Y-9475722D01*
X4311968Y-9475722D02*
X4302444Y-9466198D01*
X4302444Y-9466198D02*
X4283396Y-9456674D01*
X4283396Y-9456674D02*
X4245301Y-9456674D01*
X4245301Y-9456674D02*
X4226253Y-9466198D01*
X4226253Y-9466198D02*
X4216729Y-9475722D01*
X4216729Y-9475722D02*
X4207206Y-9494770D01*
X4435777Y-9466198D02*
X4416729Y-9456674D01*
X4416729Y-9456674D02*
X4407206Y-9447150D01*
X4407206Y-9447150D02*
X4397682Y-9428103D01*
X4397682Y-9428103D02*
X4397682Y-9418579D01*
X4397682Y-9418579D02*
X4407206Y-9399531D01*
X4407206Y-9399531D02*
X4416729Y-9390008D01*
X4416729Y-9390008D02*
X4435777Y-9380484D01*
X4435777Y-9380484D02*
X4473872Y-9380484D01*
X4473872Y-9380484D02*
X4492920Y-9390008D01*
X4492920Y-9390008D02*
X4502444Y-9399531D01*
X4502444Y-9399531D02*
X4511968Y-9418579D01*
X4511968Y-9418579D02*
X4511968Y-9428103D01*
X4511968Y-9428103D02*
X4502444Y-9447150D01*
X4502444Y-9447150D02*
X4492920Y-9456674D01*
X4492920Y-9456674D02*
X4473872Y-9466198D01*
X4473872Y-9466198D02*
X4435777Y-9466198D01*
X4435777Y-9466198D02*
X4416729Y-9475722D01*
X4416729Y-9475722D02*
X4407206Y-9485246D01*
X4407206Y-9485246D02*
X4397682Y-9504293D01*
X4397682Y-9504293D02*
X4397682Y-9542389D01*
X4397682Y-9542389D02*
X4407206Y-9561436D01*
X4407206Y-9561436D02*
X4416729Y-9570960D01*
X4416729Y-9570960D02*
X4435777Y-9580484D01*
X4435777Y-9580484D02*
X4473872Y-9580484D01*
X4473872Y-9580484D02*
X4492920Y-9570960D01*
X4492920Y-9570960D02*
X4502444Y-9561436D01*
X4502444Y-9561436D02*
X4511968Y-9542389D01*
X4511968Y-9542389D02*
X4511968Y-9504293D01*
X4511968Y-9504293D02*
X4502444Y-9485246D01*
X4502444Y-9485246D02*
X4492920Y-9475722D01*
X4492920Y-9475722D02*
X4473872Y-9466198D01*
X4607206Y-9580484D02*
X4645301Y-9580484D01*
X4645301Y-9580484D02*
X4664349Y-9570960D01*
X4664349Y-9570960D02*
X4673872Y-9561436D01*
X4673872Y-9561436D02*
X4692920Y-9532865D01*
X4692920Y-9532865D02*
X4702444Y-9494770D01*
X4702444Y-9494770D02*
X4702444Y-9418579D01*
X4702444Y-9418579D02*
X4692920Y-9399531D01*
X4692920Y-9399531D02*
X4683396Y-9390008D01*
X4683396Y-9390008D02*
X4664349Y-9380484D01*
X4664349Y-9380484D02*
X4626253Y-9380484D01*
X4626253Y-9380484D02*
X4607206Y-9390008D01*
X4607206Y-9390008D02*
X4597682Y-9399531D01*
X4597682Y-9399531D02*
X4588158Y-9418579D01*
X4588158Y-9418579D02*
X4588158Y-9466198D01*
X4588158Y-9466198D02*
X4597682Y-9485246D01*
X4597682Y-9485246D02*
X4607206Y-9494770D01*
X4607206Y-9494770D02*
X4626253Y-9504293D01*
X4626253Y-9504293D02*
X4664349Y-9504293D01*
X4664349Y-9504293D02*
X4683396Y-9494770D01*
X4683396Y-9494770D02*
X4692920Y-9485246D01*
X4692920Y-9485246D02*
X4702444Y-9466198D01*
X4778634Y-9380484D02*
X4778634Y-9418579D01*
X4854825Y-9380484D02*
X4854825Y-9418579D01*
X5150063Y-9656674D02*
X5140539Y-9647150D01*
X5140539Y-9647150D02*
X5121491Y-9618579D01*
X5121491Y-9618579D02*
X5111968Y-9599531D01*
X5111968Y-9599531D02*
X5102444Y-9570960D01*
X5102444Y-9570960D02*
X5092920Y-9523341D01*
X5092920Y-9523341D02*
X5092920Y-9485246D01*
X5092920Y-9485246D02*
X5102444Y-9437627D01*
X5102444Y-9437627D02*
X5111968Y-9409055D01*
X5111968Y-9409055D02*
X5121491Y-9390008D01*
X5121491Y-9390008D02*
X5140539Y-9361436D01*
X5140539Y-9361436D02*
X5150063Y-9351912D01*
X5311968Y-9380484D02*
X5273872Y-9380484D01*
X5273872Y-9380484D02*
X5254825Y-9390008D01*
X5254825Y-9390008D02*
X5245301Y-9399531D01*
X5245301Y-9399531D02*
X5226253Y-9428103D01*
X5226253Y-9428103D02*
X5216730Y-9466198D01*
X5216730Y-9466198D02*
X5216730Y-9542389D01*
X5216730Y-9542389D02*
X5226253Y-9561436D01*
X5226253Y-9561436D02*
X5235777Y-9570960D01*
X5235777Y-9570960D02*
X5254825Y-9580484D01*
X5254825Y-9580484D02*
X5292920Y-9580484D01*
X5292920Y-9580484D02*
X5311968Y-9570960D01*
X5311968Y-9570960D02*
X5321491Y-9561436D01*
X5321491Y-9561436D02*
X5331015Y-9542389D01*
X5331015Y-9542389D02*
X5331015Y-9494770D01*
X5331015Y-9494770D02*
X5321491Y-9475722D01*
X5321491Y-9475722D02*
X5311968Y-9466198D01*
X5311968Y-9466198D02*
X5292920Y-9456674D01*
X5292920Y-9456674D02*
X5254825Y-9456674D01*
X5254825Y-9456674D02*
X5235777Y-9466198D01*
X5235777Y-9466198D02*
X5226253Y-9475722D01*
X5226253Y-9475722D02*
X5216730Y-9494770D01*
X5569111Y-9580484D02*
X5569111Y-9380484D01*
X5654825Y-9580484D02*
X5654825Y-9475722D01*
X5654825Y-9475722D02*
X5645301Y-9456674D01*
X5645301Y-9456674D02*
X5626253Y-9447150D01*
X5626253Y-9447150D02*
X5597682Y-9447150D01*
X5597682Y-9447150D02*
X5578634Y-9456674D01*
X5578634Y-9456674D02*
X5569111Y-9466198D01*
X5778634Y-9580484D02*
X5759587Y-9570960D01*
X5759587Y-9570960D02*
X5750063Y-9561436D01*
X5750063Y-9561436D02*
X5740539Y-9542389D01*
X5740539Y-9542389D02*
X5740539Y-9485246D01*
X5740539Y-9485246D02*
X5750063Y-9466198D01*
X5750063Y-9466198D02*
X5759587Y-9456674D01*
X5759587Y-9456674D02*
X5778634Y-9447150D01*
X5778634Y-9447150D02*
X5807206Y-9447150D01*
X5807206Y-9447150D02*
X5826253Y-9456674D01*
X5826253Y-9456674D02*
X5835777Y-9466198D01*
X5835777Y-9466198D02*
X5845301Y-9485246D01*
X5845301Y-9485246D02*
X5845301Y-9542389D01*
X5845301Y-9542389D02*
X5835777Y-9561436D01*
X5835777Y-9561436D02*
X5826253Y-9570960D01*
X5826253Y-9570960D02*
X5807206Y-9580484D01*
X5807206Y-9580484D02*
X5778634Y-9580484D01*
X5959587Y-9580484D02*
X5940539Y-9570960D01*
X5940539Y-9570960D02*
X5931015Y-9551912D01*
X5931015Y-9551912D02*
X5931015Y-9380484D01*
X6111968Y-9570960D02*
X6092920Y-9580484D01*
X6092920Y-9580484D02*
X6054825Y-9580484D01*
X6054825Y-9580484D02*
X6035777Y-9570960D01*
X6035777Y-9570960D02*
X6026253Y-9551912D01*
X6026253Y-9551912D02*
X6026253Y-9475722D01*
X6026253Y-9475722D02*
X6035777Y-9456674D01*
X6035777Y-9456674D02*
X6054825Y-9447150D01*
X6054825Y-9447150D02*
X6092920Y-9447150D01*
X6092920Y-9447150D02*
X6111968Y-9456674D01*
X6111968Y-9456674D02*
X6121491Y-9475722D01*
X6121491Y-9475722D02*
X6121491Y-9494770D01*
X6121491Y-9494770D02*
X6026253Y-9513817D01*
X6197682Y-9570960D02*
X6216730Y-9580484D01*
X6216730Y-9580484D02*
X6254825Y-9580484D01*
X6254825Y-9580484D02*
X6273872Y-9570960D01*
X6273872Y-9570960D02*
X6283396Y-9551912D01*
X6283396Y-9551912D02*
X6283396Y-9542389D01*
X6283396Y-9542389D02*
X6273872Y-9523341D01*
X6273872Y-9523341D02*
X6254825Y-9513817D01*
X6254825Y-9513817D02*
X6226253Y-9513817D01*
X6226253Y-9513817D02*
X6207206Y-9504293D01*
X6207206Y-9504293D02*
X6197682Y-9485246D01*
X6197682Y-9485246D02*
X6197682Y-9475722D01*
X6197682Y-9475722D02*
X6207206Y-9456674D01*
X6207206Y-9456674D02*
X6226253Y-9447150D01*
X6226253Y-9447150D02*
X6254825Y-9447150D01*
X6254825Y-9447150D02*
X6273872Y-9456674D01*
X6350063Y-9656674D02*
X6359587Y-9647150D01*
X6359587Y-9647150D02*
X6378634Y-9618579D01*
X6378634Y-9618579D02*
X6388158Y-9599531D01*
X6388158Y-9599531D02*
X6397682Y-9570960D01*
X6397682Y-9570960D02*
X6407206Y-9523341D01*
X6407206Y-9523341D02*
X6407206Y-9485246D01*
X6407206Y-9485246D02*
X6397682Y-9437627D01*
X6397682Y-9437627D02*
X6388158Y-9409055D01*
X6388158Y-9409055D02*
X6378634Y-9390008D01*
X6378634Y-9390008D02*
X6359587Y-9361436D01*
X6359587Y-9361436D02*
X6350063Y-9351912D01*
X6711968Y-9656674D02*
X6702444Y-9647150D01*
X6702444Y-9647150D02*
X6683396Y-9618579D01*
X6683396Y-9618579D02*
X6673872Y-9599531D01*
X6673872Y-9599531D02*
X6664349Y-9570960D01*
X6664349Y-9570960D02*
X6654825Y-9523341D01*
X6654825Y-9523341D02*
X6654825Y-9485246D01*
X6654825Y-9485246D02*
X6664349Y-9437627D01*
X6664349Y-9437627D02*
X6673872Y-9409055D01*
X6673872Y-9409055D02*
X6683396Y-9390008D01*
X6683396Y-9390008D02*
X6702444Y-9361436D01*
X6702444Y-9361436D02*
X6711968Y-9351912D01*
X6788158Y-9447150D02*
X6788158Y-9580484D01*
X6788158Y-9466198D02*
X6797682Y-9456674D01*
X6797682Y-9456674D02*
X6816730Y-9447150D01*
X6816730Y-9447150D02*
X6845301Y-9447150D01*
X6845301Y-9447150D02*
X6864349Y-9456674D01*
X6864349Y-9456674D02*
X6873872Y-9475722D01*
X6873872Y-9475722D02*
X6873872Y-9580484D01*
X6997682Y-9580484D02*
X6978634Y-9570960D01*
X6978634Y-9570960D02*
X6969111Y-9561436D01*
X6969111Y-9561436D02*
X6959587Y-9542389D01*
X6959587Y-9542389D02*
X6959587Y-9485246D01*
X6959587Y-9485246D02*
X6969111Y-9466198D01*
X6969111Y-9466198D02*
X6978634Y-9456674D01*
X6978634Y-9456674D02*
X6997682Y-9447150D01*
X6997682Y-9447150D02*
X7026253Y-9447150D01*
X7026253Y-9447150D02*
X7045301Y-9456674D01*
X7045301Y-9456674D02*
X7054825Y-9466198D01*
X7054825Y-9466198D02*
X7064349Y-9485246D01*
X7064349Y-9485246D02*
X7064349Y-9542389D01*
X7064349Y-9542389D02*
X7054825Y-9561436D01*
X7054825Y-9561436D02*
X7045301Y-9570960D01*
X7045301Y-9570960D02*
X7026253Y-9580484D01*
X7026253Y-9580484D02*
X6997682Y-9580484D01*
X7121492Y-9447150D02*
X7197682Y-9447150D01*
X7150063Y-9380484D02*
X7150063Y-9551912D01*
X7150063Y-9551912D02*
X7159587Y-9570960D01*
X7159587Y-9570960D02*
X7178634Y-9580484D01*
X7178634Y-9580484D02*
X7197682Y-9580484D01*
X7416730Y-9447150D02*
X7416730Y-9647150D01*
X7416730Y-9456674D02*
X7435777Y-9447150D01*
X7435777Y-9447150D02*
X7473873Y-9447150D01*
X7473873Y-9447150D02*
X7492920Y-9456674D01*
X7492920Y-9456674D02*
X7502444Y-9466198D01*
X7502444Y-9466198D02*
X7511968Y-9485246D01*
X7511968Y-9485246D02*
X7511968Y-9542389D01*
X7511968Y-9542389D02*
X7502444Y-9561436D01*
X7502444Y-9561436D02*
X7492920Y-9570960D01*
X7492920Y-9570960D02*
X7473873Y-9580484D01*
X7473873Y-9580484D02*
X7435777Y-9580484D01*
X7435777Y-9580484D02*
X7416730Y-9570960D01*
X7626253Y-9580484D02*
X7607206Y-9570960D01*
X7607206Y-9570960D02*
X7597682Y-9551912D01*
X7597682Y-9551912D02*
X7597682Y-9380484D01*
X7788158Y-9580484D02*
X7788158Y-9475722D01*
X7788158Y-9475722D02*
X7778634Y-9456674D01*
X7778634Y-9456674D02*
X7759587Y-9447150D01*
X7759587Y-9447150D02*
X7721492Y-9447150D01*
X7721492Y-9447150D02*
X7702444Y-9456674D01*
X7788158Y-9570960D02*
X7769111Y-9580484D01*
X7769111Y-9580484D02*
X7721492Y-9580484D01*
X7721492Y-9580484D02*
X7702444Y-9570960D01*
X7702444Y-9570960D02*
X7692920Y-9551912D01*
X7692920Y-9551912D02*
X7692920Y-9532865D01*
X7692920Y-9532865D02*
X7702444Y-9513817D01*
X7702444Y-9513817D02*
X7721492Y-9504293D01*
X7721492Y-9504293D02*
X7769111Y-9504293D01*
X7769111Y-9504293D02*
X7788158Y-9494770D01*
X7854825Y-9447150D02*
X7931015Y-9447150D01*
X7883396Y-9380484D02*
X7883396Y-9551912D01*
X7883396Y-9551912D02*
X7892920Y-9570960D01*
X7892920Y-9570960D02*
X7911968Y-9580484D01*
X7911968Y-9580484D02*
X7931015Y-9580484D01*
X8073873Y-9570960D02*
X8054825Y-9580484D01*
X8054825Y-9580484D02*
X8016730Y-9580484D01*
X8016730Y-9580484D02*
X7997682Y-9570960D01*
X7997682Y-9570960D02*
X7988158Y-9551912D01*
X7988158Y-9551912D02*
X7988158Y-9475722D01*
X7988158Y-9475722D02*
X7997682Y-9456674D01*
X7997682Y-9456674D02*
X8016730Y-9447150D01*
X8016730Y-9447150D02*
X8054825Y-9447150D01*
X8054825Y-9447150D02*
X8073873Y-9456674D01*
X8073873Y-9456674D02*
X8083396Y-9475722D01*
X8083396Y-9475722D02*
X8083396Y-9494770D01*
X8083396Y-9494770D02*
X7988158Y-9513817D01*
X8254825Y-9580484D02*
X8254825Y-9380484D01*
X8254825Y-9570960D02*
X8235777Y-9580484D01*
X8235777Y-9580484D02*
X8197682Y-9580484D01*
X8197682Y-9580484D02*
X8178634Y-9570960D01*
X8178634Y-9570960D02*
X8169111Y-9561436D01*
X8169111Y-9561436D02*
X8159587Y-9542389D01*
X8159587Y-9542389D02*
X8159587Y-9485246D01*
X8159587Y-9485246D02*
X8169111Y-9466198D01*
X8169111Y-9466198D02*
X8178634Y-9456674D01*
X8178634Y-9456674D02*
X8197682Y-9447150D01*
X8197682Y-9447150D02*
X8235777Y-9447150D01*
X8235777Y-9447150D02*
X8254825Y-9456674D01*
X8331015Y-9656674D02*
X8340539Y-9647150D01*
X8340539Y-9647150D02*
X8359587Y-9618579D01*
X8359587Y-9618579D02*
X8369111Y-9599531D01*
X8369111Y-9599531D02*
X8378634Y-9570960D01*
X8378634Y-9570960D02*
X8388158Y-9523341D01*
X8388158Y-9523341D02*
X8388158Y-9485246D01*
X8388158Y-9485246D02*
X8378634Y-9437627D01*
X8378634Y-9437627D02*
X8369111Y-9409055D01*
X8369111Y-9409055D02*
X8359587Y-9390008D01*
X8359587Y-9390008D02*
X8340539Y-9361436D01*
X8340539Y-9361436D02*
X8331015Y-9351912D01*
X1475000Y-9684000D02*
X1475000Y-9884000D01*
X1375000Y-9784000D02*
X1575000Y-9784000D01*
X1921491Y-9742150D02*
X1921491Y-9875484D01*
X1873872Y-9665960D02*
X1826253Y-9808817D01*
X1826253Y-9808817D02*
X1950062Y-9808817D01*
X2026253Y-9856436D02*
X2035777Y-9865960D01*
X2035777Y-9865960D02*
X2026253Y-9875484D01*
X2026253Y-9875484D02*
X2016729Y-9865960D01*
X2016729Y-9865960D02*
X2026253Y-9856436D01*
X2026253Y-9856436D02*
X2026253Y-9875484D01*
X2159586Y-9675484D02*
X2178634Y-9675484D01*
X2178634Y-9675484D02*
X2197682Y-9685008D01*
X2197682Y-9685008D02*
X2207205Y-9694531D01*
X2207205Y-9694531D02*
X2216729Y-9713579D01*
X2216729Y-9713579D02*
X2226253Y-9751674D01*
X2226253Y-9751674D02*
X2226253Y-9799293D01*
X2226253Y-9799293D02*
X2216729Y-9837389D01*
X2216729Y-9837389D02*
X2207205Y-9856436D01*
X2207205Y-9856436D02*
X2197682Y-9865960D01*
X2197682Y-9865960D02*
X2178634Y-9875484D01*
X2178634Y-9875484D02*
X2159586Y-9875484D01*
X2159586Y-9875484D02*
X2140539Y-9865960D01*
X2140539Y-9865960D02*
X2131015Y-9856436D01*
X2131015Y-9856436D02*
X2121491Y-9837389D01*
X2121491Y-9837389D02*
X2111967Y-9799293D01*
X2111967Y-9799293D02*
X2111967Y-9751674D01*
X2111967Y-9751674D02*
X2121491Y-9713579D01*
X2121491Y-9713579D02*
X2131015Y-9694531D01*
X2131015Y-9694531D02*
X2140539Y-9685008D01*
X2140539Y-9685008D02*
X2159586Y-9675484D01*
X2350063Y-9675484D02*
X2369110Y-9675484D01*
X2369110Y-9675484D02*
X2388158Y-9685008D01*
X2388158Y-9685008D02*
X2397682Y-9694531D01*
X2397682Y-9694531D02*
X2407205Y-9713579D01*
X2407205Y-9713579D02*
X2416729Y-9751674D01*
X2416729Y-9751674D02*
X2416729Y-9799293D01*
X2416729Y-9799293D02*
X2407205Y-9837389D01*
X2407205Y-9837389D02*
X2397682Y-9856436D01*
X2397682Y-9856436D02*
X2388158Y-9865960D01*
X2388158Y-9865960D02*
X2369110Y-9875484D01*
X2369110Y-9875484D02*
X2350063Y-9875484D01*
X2350063Y-9875484D02*
X2331015Y-9865960D01*
X2331015Y-9865960D02*
X2321491Y-9856436D01*
X2321491Y-9856436D02*
X2311967Y-9837389D01*
X2311967Y-9837389D02*
X2302444Y-9799293D01*
X2302444Y-9799293D02*
X2302444Y-9751674D01*
X2302444Y-9751674D02*
X2311967Y-9713579D01*
X2311967Y-9713579D02*
X2321491Y-9694531D01*
X2321491Y-9694531D02*
X2331015Y-9685008D01*
X2331015Y-9685008D02*
X2350063Y-9675484D01*
X2540539Y-9675484D02*
X2559586Y-9675484D01*
X2559586Y-9675484D02*
X2578634Y-9685008D01*
X2578634Y-9685008D02*
X2588158Y-9694531D01*
X2588158Y-9694531D02*
X2597682Y-9713579D01*
X2597682Y-9713579D02*
X2607205Y-9751674D01*
X2607205Y-9751674D02*
X2607205Y-9799293D01*
X2607205Y-9799293D02*
X2597682Y-9837389D01*
X2597682Y-9837389D02*
X2588158Y-9856436D01*
X2588158Y-9856436D02*
X2578634Y-9865960D01*
X2578634Y-9865960D02*
X2559586Y-9875484D01*
X2559586Y-9875484D02*
X2540539Y-9875484D01*
X2540539Y-9875484D02*
X2521491Y-9865960D01*
X2521491Y-9865960D02*
X2511967Y-9856436D01*
X2511967Y-9856436D02*
X2502444Y-9837389D01*
X2502444Y-9837389D02*
X2492920Y-9799293D01*
X2492920Y-9799293D02*
X2492920Y-9751674D01*
X2492920Y-9751674D02*
X2502444Y-9713579D01*
X2502444Y-9713579D02*
X2511967Y-9694531D01*
X2511967Y-9694531D02*
X2521491Y-9685008D01*
X2521491Y-9685008D02*
X2540539Y-9675484D01*
X2692920Y-9875484D02*
X2692920Y-9742150D01*
X2692920Y-9761198D02*
X2702444Y-9751674D01*
X2702444Y-9751674D02*
X2721491Y-9742150D01*
X2721491Y-9742150D02*
X2750063Y-9742150D01*
X2750063Y-9742150D02*
X2769110Y-9751674D01*
X2769110Y-9751674D02*
X2778634Y-9770722D01*
X2778634Y-9770722D02*
X2778634Y-9875484D01*
X2778634Y-9770722D02*
X2788158Y-9751674D01*
X2788158Y-9751674D02*
X2807205Y-9742150D01*
X2807205Y-9742150D02*
X2835777Y-9742150D01*
X2835777Y-9742150D02*
X2854824Y-9751674D01*
X2854824Y-9751674D02*
X2864348Y-9770722D01*
X2864348Y-9770722D02*
X2864348Y-9875484D01*
X2959586Y-9875484D02*
X2959586Y-9742150D01*
X2959586Y-9761198D02*
X2969110Y-9751674D01*
X2969110Y-9751674D02*
X2988158Y-9742150D01*
X2988158Y-9742150D02*
X3016729Y-9742150D01*
X3016729Y-9742150D02*
X3035777Y-9751674D01*
X3035777Y-9751674D02*
X3045301Y-9770722D01*
X3045301Y-9770722D02*
X3045301Y-9875484D01*
X3045301Y-9770722D02*
X3054824Y-9751674D01*
X3054824Y-9751674D02*
X3073872Y-9742150D01*
X3073872Y-9742150D02*
X3102443Y-9742150D01*
X3102443Y-9742150D02*
X3121491Y-9751674D01*
X3121491Y-9751674D02*
X3131015Y-9770722D01*
X3131015Y-9770722D02*
X3131015Y-9875484D01*
X3521491Y-9665960D02*
X3350063Y-9923103D01*
X3778634Y-9675484D02*
X3797682Y-9675484D01*
X3797682Y-9675484D02*
X3816729Y-9685008D01*
X3816729Y-9685008D02*
X3826253Y-9694531D01*
X3826253Y-9694531D02*
X3835777Y-9713579D01*
X3835777Y-9713579D02*
X3845301Y-9751674D01*
X3845301Y-9751674D02*
X3845301Y-9799293D01*
X3845301Y-9799293D02*
X3835777Y-9837389D01*
X3835777Y-9837389D02*
X3826253Y-9856436D01*
X3826253Y-9856436D02*
X3816729Y-9865960D01*
X3816729Y-9865960D02*
X3797682Y-9875484D01*
X3797682Y-9875484D02*
X3778634Y-9875484D01*
X3778634Y-9875484D02*
X3759586Y-9865960D01*
X3759586Y-9865960D02*
X3750063Y-9856436D01*
X3750063Y-9856436D02*
X3740539Y-9837389D01*
X3740539Y-9837389D02*
X3731015Y-9799293D01*
X3731015Y-9799293D02*
X3731015Y-9751674D01*
X3731015Y-9751674D02*
X3740539Y-9713579D01*
X3740539Y-9713579D02*
X3750063Y-9694531D01*
X3750063Y-9694531D02*
X3759586Y-9685008D01*
X3759586Y-9685008D02*
X3778634Y-9675484D01*
X3931015Y-9856436D02*
X3940539Y-9865960D01*
X3940539Y-9865960D02*
X3931015Y-9875484D01*
X3931015Y-9875484D02*
X3921491Y-9865960D01*
X3921491Y-9865960D02*
X3931015Y-9856436D01*
X3931015Y-9856436D02*
X3931015Y-9875484D01*
X4131015Y-9875484D02*
X4016729Y-9875484D01*
X4073872Y-9875484D02*
X4073872Y-9675484D01*
X4073872Y-9675484D02*
X4054825Y-9704055D01*
X4054825Y-9704055D02*
X4035777Y-9723103D01*
X4035777Y-9723103D02*
X4016729Y-9732627D01*
X4311968Y-9675484D02*
X4216729Y-9675484D01*
X4216729Y-9675484D02*
X4207206Y-9770722D01*
X4207206Y-9770722D02*
X4216729Y-9761198D01*
X4216729Y-9761198D02*
X4235777Y-9751674D01*
X4235777Y-9751674D02*
X4283396Y-9751674D01*
X4283396Y-9751674D02*
X4302444Y-9761198D01*
X4302444Y-9761198D02*
X4311968Y-9770722D01*
X4311968Y-9770722D02*
X4321491Y-9789770D01*
X4321491Y-9789770D02*
X4321491Y-9837389D01*
X4321491Y-9837389D02*
X4311968Y-9856436D01*
X4311968Y-9856436D02*
X4302444Y-9865960D01*
X4302444Y-9865960D02*
X4283396Y-9875484D01*
X4283396Y-9875484D02*
X4235777Y-9875484D01*
X4235777Y-9875484D02*
X4216729Y-9865960D01*
X4216729Y-9865960D02*
X4207206Y-9856436D01*
X4388158Y-9675484D02*
X4521491Y-9675484D01*
X4521491Y-9675484D02*
X4435777Y-9875484D01*
X4692920Y-9675484D02*
X4597682Y-9675484D01*
X4597682Y-9675484D02*
X4588158Y-9770722D01*
X4588158Y-9770722D02*
X4597682Y-9761198D01*
X4597682Y-9761198D02*
X4616729Y-9751674D01*
X4616729Y-9751674D02*
X4664349Y-9751674D01*
X4664349Y-9751674D02*
X4683396Y-9761198D01*
X4683396Y-9761198D02*
X4692920Y-9770722D01*
X4692920Y-9770722D02*
X4702444Y-9789770D01*
X4702444Y-9789770D02*
X4702444Y-9837389D01*
X4702444Y-9837389D02*
X4692920Y-9856436D01*
X4692920Y-9856436D02*
X4683396Y-9865960D01*
X4683396Y-9865960D02*
X4664349Y-9875484D01*
X4664349Y-9875484D02*
X4616729Y-9875484D01*
X4616729Y-9875484D02*
X4597682Y-9865960D01*
X4597682Y-9865960D02*
X4588158Y-9856436D01*
X4778634Y-9675484D02*
X4778634Y-9713579D01*
X4854825Y-9675484D02*
X4854825Y-9713579D01*
X5150063Y-9951674D02*
X5140539Y-9942150D01*
X5140539Y-9942150D02*
X5121491Y-9913579D01*
X5121491Y-9913579D02*
X5111968Y-9894531D01*
X5111968Y-9894531D02*
X5102444Y-9865960D01*
X5102444Y-9865960D02*
X5092920Y-9818341D01*
X5092920Y-9818341D02*
X5092920Y-9780246D01*
X5092920Y-9780246D02*
X5102444Y-9732627D01*
X5102444Y-9732627D02*
X5111968Y-9704055D01*
X5111968Y-9704055D02*
X5121491Y-9685008D01*
X5121491Y-9685008D02*
X5140539Y-9656436D01*
X5140539Y-9656436D02*
X5150063Y-9646912D01*
X5311968Y-9742150D02*
X5311968Y-9875484D01*
X5264349Y-9665960D02*
X5216730Y-9808817D01*
X5216730Y-9808817D02*
X5340539Y-9808817D01*
X5569111Y-9875484D02*
X5569111Y-9675484D01*
X5654825Y-9875484D02*
X5654825Y-9770722D01*
X5654825Y-9770722D02*
X5645301Y-9751674D01*
X5645301Y-9751674D02*
X5626253Y-9742150D01*
X5626253Y-9742150D02*
X5597682Y-9742150D01*
X5597682Y-9742150D02*
X5578634Y-9751674D01*
X5578634Y-9751674D02*
X5569111Y-9761198D01*
X5778634Y-9875484D02*
X5759587Y-9865960D01*
X5759587Y-9865960D02*
X5750063Y-9856436D01*
X5750063Y-9856436D02*
X5740539Y-9837389D01*
X5740539Y-9837389D02*
X5740539Y-9780246D01*
X5740539Y-9780246D02*
X5750063Y-9761198D01*
X5750063Y-9761198D02*
X5759587Y-9751674D01*
X5759587Y-9751674D02*
X5778634Y-9742150D01*
X5778634Y-9742150D02*
X5807206Y-9742150D01*
X5807206Y-9742150D02*
X5826253Y-9751674D01*
X5826253Y-9751674D02*
X5835777Y-9761198D01*
X5835777Y-9761198D02*
X5845301Y-9780246D01*
X5845301Y-9780246D02*
X5845301Y-9837389D01*
X5845301Y-9837389D02*
X5835777Y-9856436D01*
X5835777Y-9856436D02*
X5826253Y-9865960D01*
X5826253Y-9865960D02*
X5807206Y-9875484D01*
X5807206Y-9875484D02*
X5778634Y-9875484D01*
X5959587Y-9875484D02*
X5940539Y-9865960D01*
X5940539Y-9865960D02*
X5931015Y-9846912D01*
X5931015Y-9846912D02*
X5931015Y-9675484D01*
X6111968Y-9865960D02*
X6092920Y-9875484D01*
X6092920Y-9875484D02*
X6054825Y-9875484D01*
X6054825Y-9875484D02*
X6035777Y-9865960D01*
X6035777Y-9865960D02*
X6026253Y-9846912D01*
X6026253Y-9846912D02*
X6026253Y-9770722D01*
X6026253Y-9770722D02*
X6035777Y-9751674D01*
X6035777Y-9751674D02*
X6054825Y-9742150D01*
X6054825Y-9742150D02*
X6092920Y-9742150D01*
X6092920Y-9742150D02*
X6111968Y-9751674D01*
X6111968Y-9751674D02*
X6121491Y-9770722D01*
X6121491Y-9770722D02*
X6121491Y-9789770D01*
X6121491Y-9789770D02*
X6026253Y-9808817D01*
X6197682Y-9865960D02*
X6216730Y-9875484D01*
X6216730Y-9875484D02*
X6254825Y-9875484D01*
X6254825Y-9875484D02*
X6273872Y-9865960D01*
X6273872Y-9865960D02*
X6283396Y-9846912D01*
X6283396Y-9846912D02*
X6283396Y-9837389D01*
X6283396Y-9837389D02*
X6273872Y-9818341D01*
X6273872Y-9818341D02*
X6254825Y-9808817D01*
X6254825Y-9808817D02*
X6226253Y-9808817D01*
X6226253Y-9808817D02*
X6207206Y-9799293D01*
X6207206Y-9799293D02*
X6197682Y-9780246D01*
X6197682Y-9780246D02*
X6197682Y-9770722D01*
X6197682Y-9770722D02*
X6207206Y-9751674D01*
X6207206Y-9751674D02*
X6226253Y-9742150D01*
X6226253Y-9742150D02*
X6254825Y-9742150D01*
X6254825Y-9742150D02*
X6273872Y-9751674D01*
X6350063Y-9951674D02*
X6359587Y-9942150D01*
X6359587Y-9942150D02*
X6378634Y-9913579D01*
X6378634Y-9913579D02*
X6388158Y-9894531D01*
X6388158Y-9894531D02*
X6397682Y-9865960D01*
X6397682Y-9865960D02*
X6407206Y-9818341D01*
X6407206Y-9818341D02*
X6407206Y-9780246D01*
X6407206Y-9780246D02*
X6397682Y-9732627D01*
X6397682Y-9732627D02*
X6388158Y-9704055D01*
X6388158Y-9704055D02*
X6378634Y-9685008D01*
X6378634Y-9685008D02*
X6359587Y-9656436D01*
X6359587Y-9656436D02*
X6350063Y-9646912D01*
X6711968Y-9951674D02*
X6702444Y-9942150D01*
X6702444Y-9942150D02*
X6683396Y-9913579D01*
X6683396Y-9913579D02*
X6673872Y-9894531D01*
X6673872Y-9894531D02*
X6664349Y-9865960D01*
X6664349Y-9865960D02*
X6654825Y-9818341D01*
X6654825Y-9818341D02*
X6654825Y-9780246D01*
X6654825Y-9780246D02*
X6664349Y-9732627D01*
X6664349Y-9732627D02*
X6673872Y-9704055D01*
X6673872Y-9704055D02*
X6683396Y-9685008D01*
X6683396Y-9685008D02*
X6702444Y-9656436D01*
X6702444Y-9656436D02*
X6711968Y-9646912D01*
X6788158Y-9742150D02*
X6788158Y-9875484D01*
X6788158Y-9761198D02*
X6797682Y-9751674D01*
X6797682Y-9751674D02*
X6816730Y-9742150D01*
X6816730Y-9742150D02*
X6845301Y-9742150D01*
X6845301Y-9742150D02*
X6864349Y-9751674D01*
X6864349Y-9751674D02*
X6873872Y-9770722D01*
X6873872Y-9770722D02*
X6873872Y-9875484D01*
X6997682Y-9875484D02*
X6978634Y-9865960D01*
X6978634Y-9865960D02*
X6969111Y-9856436D01*
X6969111Y-9856436D02*
X6959587Y-9837389D01*
X6959587Y-9837389D02*
X6959587Y-9780246D01*
X6959587Y-9780246D02*
X6969111Y-9761198D01*
X6969111Y-9761198D02*
X6978634Y-9751674D01*
X6978634Y-9751674D02*
X6997682Y-9742150D01*
X6997682Y-9742150D02*
X7026253Y-9742150D01*
X7026253Y-9742150D02*
X7045301Y-9751674D01*
X7045301Y-9751674D02*
X7054825Y-9761198D01*
X7054825Y-9761198D02*
X7064349Y-9780246D01*
X7064349Y-9780246D02*
X7064349Y-9837389D01*
X7064349Y-9837389D02*
X7054825Y-9856436D01*
X7054825Y-9856436D02*
X7045301Y-9865960D01*
X7045301Y-9865960D02*
X7026253Y-9875484D01*
X7026253Y-9875484D02*
X6997682Y-9875484D01*
X7121492Y-9742150D02*
X7197682Y-9742150D01*
X7150063Y-9675484D02*
X7150063Y-9846912D01*
X7150063Y-9846912D02*
X7159587Y-9865960D01*
X7159587Y-9865960D02*
X7178634Y-9875484D01*
X7178634Y-9875484D02*
X7197682Y-9875484D01*
X7416730Y-9742150D02*
X7416730Y-9942150D01*
X7416730Y-9751674D02*
X7435777Y-9742150D01*
X7435777Y-9742150D02*
X7473873Y-9742150D01*
X7473873Y-9742150D02*
X7492920Y-9751674D01*
X7492920Y-9751674D02*
X7502444Y-9761198D01*
X7502444Y-9761198D02*
X7511968Y-9780246D01*
X7511968Y-9780246D02*
X7511968Y-9837389D01*
X7511968Y-9837389D02*
X7502444Y-9856436D01*
X7502444Y-9856436D02*
X7492920Y-9865960D01*
X7492920Y-9865960D02*
X7473873Y-9875484D01*
X7473873Y-9875484D02*
X7435777Y-9875484D01*
X7435777Y-9875484D02*
X7416730Y-9865960D01*
X7626253Y-9875484D02*
X7607206Y-9865960D01*
X7607206Y-9865960D02*
X7597682Y-9846912D01*
X7597682Y-9846912D02*
X7597682Y-9675484D01*
X7788158Y-9875484D02*
X7788158Y-9770722D01*
X7788158Y-9770722D02*
X7778634Y-9751674D01*
X7778634Y-9751674D02*
X7759587Y-9742150D01*
X7759587Y-9742150D02*
X7721492Y-9742150D01*
X7721492Y-9742150D02*
X7702444Y-9751674D01*
X7788158Y-9865960D02*
X7769111Y-9875484D01*
X7769111Y-9875484D02*
X7721492Y-9875484D01*
X7721492Y-9875484D02*
X7702444Y-9865960D01*
X7702444Y-9865960D02*
X7692920Y-9846912D01*
X7692920Y-9846912D02*
X7692920Y-9827865D01*
X7692920Y-9827865D02*
X7702444Y-9808817D01*
X7702444Y-9808817D02*
X7721492Y-9799293D01*
X7721492Y-9799293D02*
X7769111Y-9799293D01*
X7769111Y-9799293D02*
X7788158Y-9789770D01*
X7854825Y-9742150D02*
X7931015Y-9742150D01*
X7883396Y-9675484D02*
X7883396Y-9846912D01*
X7883396Y-9846912D02*
X7892920Y-9865960D01*
X7892920Y-9865960D02*
X7911968Y-9875484D01*
X7911968Y-9875484D02*
X7931015Y-9875484D01*
X8073873Y-9865960D02*
X8054825Y-9875484D01*
X8054825Y-9875484D02*
X8016730Y-9875484D01*
X8016730Y-9875484D02*
X7997682Y-9865960D01*
X7997682Y-9865960D02*
X7988158Y-9846912D01*
X7988158Y-9846912D02*
X7988158Y-9770722D01*
X7988158Y-9770722D02*
X7997682Y-9751674D01*
X7997682Y-9751674D02*
X8016730Y-9742150D01*
X8016730Y-9742150D02*
X8054825Y-9742150D01*
X8054825Y-9742150D02*
X8073873Y-9751674D01*
X8073873Y-9751674D02*
X8083396Y-9770722D01*
X8083396Y-9770722D02*
X8083396Y-9789770D01*
X8083396Y-9789770D02*
X7988158Y-9808817D01*
X8254825Y-9875484D02*
X8254825Y-9675484D01*
X8254825Y-9865960D02*
X8235777Y-9875484D01*
X8235777Y-9875484D02*
X8197682Y-9875484D01*
X8197682Y-9875484D02*
X8178634Y-9865960D01*
X8178634Y-9865960D02*
X8169111Y-9856436D01*
X8169111Y-9856436D02*
X8159587Y-9837389D01*
X8159587Y-9837389D02*
X8159587Y-9780246D01*
X8159587Y-9780246D02*
X8169111Y-9761198D01*
X8169111Y-9761198D02*
X8178634Y-9751674D01*
X8178634Y-9751674D02*
X8197682Y-9742150D01*
X8197682Y-9742150D02*
X8235777Y-9742150D01*
X8235777Y-9742150D02*
X8254825Y-9751674D01*
X8331015Y-9951674D02*
X8340539Y-9942150D01*
X8340539Y-9942150D02*
X8359587Y-9913579D01*
X8359587Y-9913579D02*
X8369111Y-9894531D01*
X8369111Y-9894531D02*
X8378634Y-9865960D01*
X8378634Y-9865960D02*
X8388158Y-9818341D01*
X8388158Y-9818341D02*
X8388158Y-9780246D01*
X8388158Y-9780246D02*
X8378634Y-9732627D01*
X8378634Y-9732627D02*
X8369111Y-9704055D01*
X8369111Y-9704055D02*
X8359587Y-9685008D01*
X8359587Y-9685008D02*
X8340539Y-9656436D01*
X8340539Y-9656436D02*
X8331015Y-9646912D01*
M02*
