M48
; DRILL file {KiCad 7.0.9} date Wed 15 Nov 2023 15:13:34 GMT
; FORMAT={-:-/ absolute / metric / decimal}
; #@! TF.CreationDate,2023-11-15T15:13:34+00:00
; #@! TF.GenerationSoftware,Kicad,Pcbnew,7.0.9
; #@! TF.FileFunction,Plated,1,2,PTH
FMAT,2
METRIC
; #@! TA.AperFunction,Plated,PTH,ViaDrill
T1C0.400
; #@! TA.AperFunction,Plated,PTH,ComponentDrill
T2C0.600
%
G90
G05
T1
X25.4Y-72.231
X26.987Y-54.769
X26.987Y-76.2
X29.369Y-50.8
X29.369Y-64.294
X34.131Y-69.056
X34.2Y-50.8
X35.719Y-75.0
X39.3Y-25.8
X40.163Y-31.35
X43.337Y-36.906
X44.45Y-72.231
X45.244Y-73.025
X46.831Y-26.987
X48.419Y-64.294
X53.181Y-69.056
X53.975Y-29.369
X54.769Y-26.987
X54.769Y-75.0
X56.356Y-33.337
X58.539Y-34.727
X58.737Y-42.862
X61.436Y-27.781
X61.971Y-37.843
X62.706Y-42.069
X63.5Y-72.231
X64.294Y-73.025
X65.087Y-45.244
X65.087Y-54.769
X67.469Y-64.294
X67.469Y-50.8
X68.056Y-38.688
X68.056Y-40.688
X68.256Y-35.061
X68.8Y-31.2
X69.056Y-39.688
X70.056Y-38.688
X70.056Y-40.688
X71.438Y-45.244
X72.231Y-69.056
X72.3Y-50.8
X73.819Y-53.975
X73.819Y-55.017
X73.819Y-56.356
X73.819Y-75.0
X74.33Y-40.71
X74.8Y-31.2
X75.406Y-76.2
X76.2Y-34.131
X76.234Y-75.0
X77.589Y-41.275
X77.787Y-70.644
X78.581Y-53.975
T2
X46.48Y-17.625G85X46.48Y-18.225
G05
X46.48Y-21.555G85X46.48Y-22.655
G05
X55.12Y-17.625G85X55.12Y-18.225
G05
X55.12Y-21.555G85X55.12Y-22.655
G05
T0
M30
