%TF.GenerationSoftware,KiCad,Pcbnew,7.0.9*%
%TF.CreationDate,2023-11-15T15:13:36+00:00*%
%TF.ProjectId,analog,616e616c-6f67-42e6-9b69-6361645f7063,1*%
%TF.SameCoordinates,Original*%
%TF.FileFunction,Drillmap*%
%TF.FilePolarity,Positive*%
%FSLAX45Y45*%
G04 Gerber Fmt 4.5, Leading zero omitted, Abs format (unit mm)*
G04 Created by KiCad (PCBNEW 7.0.9) date 2023-11-15 15:13:36*
%MOMM*%
%LPD*%
G01*
G04 APERTURE LIST*
%ADD10C,0.100000*%
%ADD11C,0.200000*%
G04 APERTURE END LIST*
D10*
X8380000Y-1580000D02*
X1780000Y-1580000D01*
X8380000Y-8580000D02*
G75*
G03*
X8580000Y-8380000I-10J200010D01*
G01*
X8580000Y-1780000D02*
X8580000Y-8380000D01*
X8380000Y-8580000D02*
X1780000Y-8580000D01*
X1580000Y-8380000D02*
G75*
G03*
X1780000Y-8580000I199996J-4D01*
G01*
X1580000Y-8380000D02*
X1580000Y-1780000D01*
X1780000Y-1580000D02*
G75*
G03*
X1580000Y-1780000I0J-200000D01*
G01*
X8580000Y-1780000D02*
G75*
G03*
X8380000Y-1580000I-200000J0D01*
G01*
D11*
D10*
X2520000Y-7203125D02*
X2560000Y-7243125D01*
X2560000Y-7203125D02*
X2520000Y-7243125D01*
X2678750Y-5456875D02*
X2718750Y-5496875D01*
X2718750Y-5456875D02*
X2678750Y-5496875D01*
X2678750Y-7600000D02*
X2718750Y-7640000D01*
X2718750Y-7600000D02*
X2678750Y-7640000D01*
X2916873Y-5060000D02*
X2956873Y-5100000D01*
X2956873Y-5060000D02*
X2916873Y-5100000D01*
X2916875Y-6409375D02*
X2956875Y-6449375D01*
X2956875Y-6409375D02*
X2916875Y-6449375D01*
X3393125Y-6885625D02*
X3433125Y-6925625D01*
X3433125Y-6885625D02*
X3393125Y-6925625D01*
X3400000Y-5060000D02*
X3440000Y-5100000D01*
X3440000Y-5060000D02*
X3400000Y-5100000D01*
X3551875Y-7480000D02*
X3591875Y-7520000D01*
X3591875Y-7480000D02*
X3551875Y-7520000D01*
X3910000Y-2560000D02*
X3950000Y-2600000D01*
X3950000Y-2560000D02*
X3910000Y-2600000D01*
X3996250Y-3115000D02*
X4036250Y-3155000D01*
X4036250Y-3115000D02*
X3996250Y-3155000D01*
X4313750Y-3670625D02*
X4353750Y-3710625D01*
X4353750Y-3670625D02*
X4313750Y-3710625D01*
X4425000Y-7203125D02*
X4465000Y-7243125D01*
X4465000Y-7203125D02*
X4425000Y-7243125D01*
X4504375Y-7282500D02*
X4544375Y-7322500D01*
X4544375Y-7282500D02*
X4504375Y-7322500D01*
X4663125Y-2678750D02*
X4703125Y-2718750D01*
X4703125Y-2678750D02*
X4663125Y-2718750D01*
X4821875Y-6409375D02*
X4861875Y-6449375D01*
X4861875Y-6409375D02*
X4821875Y-6449375D01*
X5298125Y-6885625D02*
X5338125Y-6925625D01*
X5338125Y-6885625D02*
X5298125Y-6925625D01*
X5377500Y-2916875D02*
X5417500Y-2956875D01*
X5417500Y-2916875D02*
X5377500Y-2956875D01*
X5456875Y-2678750D02*
X5496875Y-2718750D01*
X5496875Y-2678750D02*
X5456875Y-2718750D01*
X5456875Y-7480000D02*
X5496875Y-7520000D01*
X5496875Y-7480000D02*
X5456875Y-7520000D01*
X5615625Y-3313750D02*
X5655625Y-3353750D01*
X5655625Y-3313750D02*
X5615625Y-3353750D01*
X5833907Y-3452655D02*
X5873907Y-3492655D01*
X5873907Y-3452655D02*
X5833907Y-3492655D01*
X5853750Y-4266250D02*
X5893750Y-4306250D01*
X5893750Y-4266250D02*
X5853750Y-4306250D01*
X6123625Y-2758125D02*
X6163625Y-2798125D01*
X6163625Y-2758125D02*
X6123625Y-2798125D01*
X6177065Y-3764341D02*
X6217065Y-3804341D01*
X6217065Y-3764341D02*
X6177065Y-3804341D01*
X6250625Y-4186875D02*
X6290625Y-4226875D01*
X6290625Y-4186875D02*
X6250625Y-4226875D01*
X6330000Y-7203125D02*
X6370000Y-7243125D01*
X6370000Y-7203125D02*
X6330000Y-7243125D01*
X6409375Y-7282500D02*
X6449375Y-7322500D01*
X6449375Y-7282500D02*
X6409375Y-7322500D01*
X6488750Y-4504375D02*
X6528750Y-4544375D01*
X6528750Y-4504375D02*
X6488750Y-4544375D01*
X6488750Y-5456875D02*
X6528750Y-5496875D01*
X6528750Y-5456875D02*
X6488750Y-5496875D01*
X6726875Y-6409375D02*
X6766875Y-6449375D01*
X6766875Y-6409375D02*
X6726875Y-6449375D01*
X6726876Y-5060000D02*
X6766876Y-5100000D01*
X6766876Y-5060000D02*
X6726876Y-5100000D01*
X6785625Y-3848750D02*
X6825625Y-3888750D01*
X6825625Y-3848750D02*
X6785625Y-3888750D01*
X6785625Y-4048750D02*
X6825625Y-4088750D01*
X6825625Y-4048750D02*
X6785625Y-4088750D01*
X6805625Y-3486138D02*
X6845625Y-3526138D01*
X6845625Y-3486138D02*
X6805625Y-3526138D01*
X6860000Y-3100000D02*
X6900000Y-3140000D01*
X6900000Y-3100000D02*
X6860000Y-3140000D01*
X6885625Y-3948750D02*
X6925625Y-3988750D01*
X6925625Y-3948750D02*
X6885625Y-3988750D01*
X6985625Y-3848750D02*
X7025625Y-3888750D01*
X7025625Y-3848750D02*
X6985625Y-3888750D01*
X6985625Y-4048750D02*
X7025625Y-4088750D01*
X7025625Y-4048750D02*
X6985625Y-4088750D01*
X7123750Y-4504375D02*
X7163750Y-4544375D01*
X7163750Y-4504375D02*
X7123750Y-4544375D01*
X7203125Y-6885625D02*
X7243125Y-6925625D01*
X7243125Y-6885625D02*
X7203125Y-6925625D01*
X7210000Y-5060000D02*
X7250000Y-5100000D01*
X7250000Y-5060000D02*
X7210000Y-5100000D01*
X7361875Y-5377500D02*
X7401875Y-5417500D01*
X7401875Y-5377500D02*
X7361875Y-5417500D01*
X7361875Y-5481710D02*
X7401875Y-5521710D01*
X7401875Y-5481710D02*
X7361875Y-5521710D01*
X7361875Y-5615625D02*
X7401875Y-5655625D01*
X7401875Y-5615625D02*
X7361875Y-5655625D01*
X7361875Y-7480000D02*
X7401875Y-7520000D01*
X7401875Y-7480000D02*
X7361875Y-7520000D01*
X7413001Y-4050968D02*
X7453001Y-4090968D01*
X7453001Y-4050968D02*
X7413001Y-4090968D01*
X7460000Y-3100000D02*
X7500000Y-3140000D01*
X7500000Y-3100000D02*
X7460000Y-3140000D01*
X7520625Y-7600000D02*
X7560625Y-7640000D01*
X7560625Y-7600000D02*
X7520625Y-7640000D01*
X7600000Y-3393125D02*
X7640000Y-3433125D01*
X7640000Y-3393125D02*
X7600000Y-3433125D01*
X7603404Y-7480000D02*
X7643404Y-7520000D01*
X7643404Y-7480000D02*
X7603404Y-7520000D01*
X7738908Y-4107499D02*
X7778908Y-4147499D01*
X7778908Y-4107499D02*
X7738908Y-4147499D01*
X7758750Y-7044375D02*
X7798750Y-7084375D01*
X7798750Y-7044375D02*
X7758750Y-7084375D01*
X7838125Y-5377500D02*
X7878125Y-5417500D01*
X7878125Y-5377500D02*
X7838125Y-5417500D01*
X4678000Y-1792500D02*
G75*
G03*
X4678000Y-1792500I-30000J0D01*
G01*
X4618000Y-1762500D02*
X4618000Y-1822500D01*
X4618000Y-1822500D02*
G75*
G03*
X4678000Y-1822500I30000J0D01*
G01*
X4678000Y-1822500D02*
X4678000Y-1762500D01*
X4678000Y-1762500D02*
G75*
G03*
X4618000Y-1762500I-30000J0D01*
G01*
X4678000Y-2210500D02*
G75*
G03*
X4678000Y-2210500I-30000J0D01*
G01*
X4618000Y-2155500D02*
X4618000Y-2265500D01*
X4618000Y-2265500D02*
G75*
G03*
X4678000Y-2265500I30000J0D01*
G01*
X4678000Y-2265500D02*
X4678000Y-2155500D01*
X4678000Y-2155500D02*
G75*
G03*
X4618000Y-2155500I-30000J0D01*
G01*
X5542000Y-1792500D02*
G75*
G03*
X5542000Y-1792500I-30000J0D01*
G01*
X5482000Y-1762500D02*
X5482000Y-1822500D01*
X5482000Y-1822500D02*
G75*
G03*
X5542000Y-1822500I30000J0D01*
G01*
X5542000Y-1822500D02*
X5542000Y-1762500D01*
X5542000Y-1762500D02*
G75*
G03*
X5482000Y-1762500I-30000J0D01*
G01*
X5542000Y-2210500D02*
G75*
G03*
X5542000Y-2210500I-30000J0D01*
G01*
X5482000Y-2155500D02*
X5482000Y-2265500D01*
X5482000Y-2265500D02*
G75*
G03*
X5542000Y-2265500I30000J0D01*
G01*
X5542000Y-2265500D02*
X5542000Y-2155500D01*
X5542000Y-2155500D02*
G75*
G03*
X5482000Y-2155500I-30000J0D01*
G01*
D11*
X1835777Y-8896484D02*
X1835777Y-8696484D01*
X1835777Y-8696484D02*
X1883396Y-8696484D01*
X1883396Y-8696484D02*
X1911967Y-8706008D01*
X1911967Y-8706008D02*
X1931015Y-8725055D01*
X1931015Y-8725055D02*
X1940539Y-8744103D01*
X1940539Y-8744103D02*
X1950062Y-8782198D01*
X1950062Y-8782198D02*
X1950062Y-8810770D01*
X1950062Y-8810770D02*
X1940539Y-8848865D01*
X1940539Y-8848865D02*
X1931015Y-8867912D01*
X1931015Y-8867912D02*
X1911967Y-8886960D01*
X1911967Y-8886960D02*
X1883396Y-8896484D01*
X1883396Y-8896484D02*
X1835777Y-8896484D01*
X2035777Y-8896484D02*
X2035777Y-8763150D01*
X2035777Y-8801246D02*
X2045301Y-8782198D01*
X2045301Y-8782198D02*
X2054824Y-8772674D01*
X2054824Y-8772674D02*
X2073872Y-8763150D01*
X2073872Y-8763150D02*
X2092920Y-8763150D01*
X2159586Y-8896484D02*
X2159586Y-8763150D01*
X2159586Y-8696484D02*
X2150063Y-8706008D01*
X2150063Y-8706008D02*
X2159586Y-8715531D01*
X2159586Y-8715531D02*
X2169110Y-8706008D01*
X2169110Y-8706008D02*
X2159586Y-8696484D01*
X2159586Y-8696484D02*
X2159586Y-8715531D01*
X2283396Y-8896484D02*
X2264348Y-8886960D01*
X2264348Y-8886960D02*
X2254824Y-8867912D01*
X2254824Y-8867912D02*
X2254824Y-8696484D01*
X2388158Y-8896484D02*
X2369110Y-8886960D01*
X2369110Y-8886960D02*
X2359586Y-8867912D01*
X2359586Y-8867912D02*
X2359586Y-8696484D01*
X2616729Y-8896484D02*
X2616729Y-8696484D01*
X2616729Y-8696484D02*
X2683396Y-8839341D01*
X2683396Y-8839341D02*
X2750063Y-8696484D01*
X2750063Y-8696484D02*
X2750063Y-8896484D01*
X2931015Y-8896484D02*
X2931015Y-8791722D01*
X2931015Y-8791722D02*
X2921491Y-8772674D01*
X2921491Y-8772674D02*
X2902443Y-8763150D01*
X2902443Y-8763150D02*
X2864348Y-8763150D01*
X2864348Y-8763150D02*
X2845301Y-8772674D01*
X2931015Y-8886960D02*
X2911967Y-8896484D01*
X2911967Y-8896484D02*
X2864348Y-8896484D01*
X2864348Y-8896484D02*
X2845301Y-8886960D01*
X2845301Y-8886960D02*
X2835777Y-8867912D01*
X2835777Y-8867912D02*
X2835777Y-8848865D01*
X2835777Y-8848865D02*
X2845301Y-8829817D01*
X2845301Y-8829817D02*
X2864348Y-8820293D01*
X2864348Y-8820293D02*
X2911967Y-8820293D01*
X2911967Y-8820293D02*
X2931015Y-8810770D01*
X3026253Y-8763150D02*
X3026253Y-8963150D01*
X3026253Y-8772674D02*
X3045301Y-8763150D01*
X3045301Y-8763150D02*
X3083396Y-8763150D01*
X3083396Y-8763150D02*
X3102443Y-8772674D01*
X3102443Y-8772674D02*
X3111967Y-8782198D01*
X3111967Y-8782198D02*
X3121491Y-8801246D01*
X3121491Y-8801246D02*
X3121491Y-8858389D01*
X3121491Y-8858389D02*
X3111967Y-8877436D01*
X3111967Y-8877436D02*
X3102443Y-8886960D01*
X3102443Y-8886960D02*
X3083396Y-8896484D01*
X3083396Y-8896484D02*
X3045301Y-8896484D01*
X3045301Y-8896484D02*
X3026253Y-8886960D01*
X3207205Y-8877436D02*
X3216729Y-8886960D01*
X3216729Y-8886960D02*
X3207205Y-8896484D01*
X3207205Y-8896484D02*
X3197682Y-8886960D01*
X3197682Y-8886960D02*
X3207205Y-8877436D01*
X3207205Y-8877436D02*
X3207205Y-8896484D01*
X3207205Y-8772674D02*
X3216729Y-8782198D01*
X3216729Y-8782198D02*
X3207205Y-8791722D01*
X3207205Y-8791722D02*
X3197682Y-8782198D01*
X3197682Y-8782198D02*
X3207205Y-8772674D01*
X3207205Y-8772674D02*
X3207205Y-8791722D01*
D10*
X1535000Y-9205000D02*
X1575000Y-9245000D01*
X1575000Y-9205000D02*
X1535000Y-9245000D01*
D11*
X1873872Y-9116484D02*
X1892920Y-9116484D01*
X1892920Y-9116484D02*
X1911967Y-9126008D01*
X1911967Y-9126008D02*
X1921491Y-9135531D01*
X1921491Y-9135531D02*
X1931015Y-9154579D01*
X1931015Y-9154579D02*
X1940539Y-9192674D01*
X1940539Y-9192674D02*
X1940539Y-9240293D01*
X1940539Y-9240293D02*
X1931015Y-9278389D01*
X1931015Y-9278389D02*
X1921491Y-9297436D01*
X1921491Y-9297436D02*
X1911967Y-9306960D01*
X1911967Y-9306960D02*
X1892920Y-9316484D01*
X1892920Y-9316484D02*
X1873872Y-9316484D01*
X1873872Y-9316484D02*
X1854824Y-9306960D01*
X1854824Y-9306960D02*
X1845301Y-9297436D01*
X1845301Y-9297436D02*
X1835777Y-9278389D01*
X1835777Y-9278389D02*
X1826253Y-9240293D01*
X1826253Y-9240293D02*
X1826253Y-9192674D01*
X1826253Y-9192674D02*
X1835777Y-9154579D01*
X1835777Y-9154579D02*
X1845301Y-9135531D01*
X1845301Y-9135531D02*
X1854824Y-9126008D01*
X1854824Y-9126008D02*
X1873872Y-9116484D01*
X2026253Y-9297436D02*
X2035777Y-9306960D01*
X2035777Y-9306960D02*
X2026253Y-9316484D01*
X2026253Y-9316484D02*
X2016729Y-9306960D01*
X2016729Y-9306960D02*
X2026253Y-9297436D01*
X2026253Y-9297436D02*
X2026253Y-9316484D01*
X2207205Y-9183150D02*
X2207205Y-9316484D01*
X2159586Y-9106960D02*
X2111967Y-9249817D01*
X2111967Y-9249817D02*
X2235777Y-9249817D01*
X2350063Y-9116484D02*
X2369110Y-9116484D01*
X2369110Y-9116484D02*
X2388158Y-9126008D01*
X2388158Y-9126008D02*
X2397682Y-9135531D01*
X2397682Y-9135531D02*
X2407205Y-9154579D01*
X2407205Y-9154579D02*
X2416729Y-9192674D01*
X2416729Y-9192674D02*
X2416729Y-9240293D01*
X2416729Y-9240293D02*
X2407205Y-9278389D01*
X2407205Y-9278389D02*
X2397682Y-9297436D01*
X2397682Y-9297436D02*
X2388158Y-9306960D01*
X2388158Y-9306960D02*
X2369110Y-9316484D01*
X2369110Y-9316484D02*
X2350063Y-9316484D01*
X2350063Y-9316484D02*
X2331015Y-9306960D01*
X2331015Y-9306960D02*
X2321491Y-9297436D01*
X2321491Y-9297436D02*
X2311967Y-9278389D01*
X2311967Y-9278389D02*
X2302444Y-9240293D01*
X2302444Y-9240293D02*
X2302444Y-9192674D01*
X2302444Y-9192674D02*
X2311967Y-9154579D01*
X2311967Y-9154579D02*
X2321491Y-9135531D01*
X2321491Y-9135531D02*
X2331015Y-9126008D01*
X2331015Y-9126008D02*
X2350063Y-9116484D01*
X2540539Y-9116484D02*
X2559586Y-9116484D01*
X2559586Y-9116484D02*
X2578634Y-9126008D01*
X2578634Y-9126008D02*
X2588158Y-9135531D01*
X2588158Y-9135531D02*
X2597682Y-9154579D01*
X2597682Y-9154579D02*
X2607205Y-9192674D01*
X2607205Y-9192674D02*
X2607205Y-9240293D01*
X2607205Y-9240293D02*
X2597682Y-9278389D01*
X2597682Y-9278389D02*
X2588158Y-9297436D01*
X2588158Y-9297436D02*
X2578634Y-9306960D01*
X2578634Y-9306960D02*
X2559586Y-9316484D01*
X2559586Y-9316484D02*
X2540539Y-9316484D01*
X2540539Y-9316484D02*
X2521491Y-9306960D01*
X2521491Y-9306960D02*
X2511967Y-9297436D01*
X2511967Y-9297436D02*
X2502444Y-9278389D01*
X2502444Y-9278389D02*
X2492920Y-9240293D01*
X2492920Y-9240293D02*
X2492920Y-9192674D01*
X2492920Y-9192674D02*
X2502444Y-9154579D01*
X2502444Y-9154579D02*
X2511967Y-9135531D01*
X2511967Y-9135531D02*
X2521491Y-9126008D01*
X2521491Y-9126008D02*
X2540539Y-9116484D01*
X2692920Y-9316484D02*
X2692920Y-9183150D01*
X2692920Y-9202198D02*
X2702444Y-9192674D01*
X2702444Y-9192674D02*
X2721491Y-9183150D01*
X2721491Y-9183150D02*
X2750063Y-9183150D01*
X2750063Y-9183150D02*
X2769110Y-9192674D01*
X2769110Y-9192674D02*
X2778634Y-9211722D01*
X2778634Y-9211722D02*
X2778634Y-9316484D01*
X2778634Y-9211722D02*
X2788158Y-9192674D01*
X2788158Y-9192674D02*
X2807205Y-9183150D01*
X2807205Y-9183150D02*
X2835777Y-9183150D01*
X2835777Y-9183150D02*
X2854824Y-9192674D01*
X2854824Y-9192674D02*
X2864348Y-9211722D01*
X2864348Y-9211722D02*
X2864348Y-9316484D01*
X2959586Y-9316484D02*
X2959586Y-9183150D01*
X2959586Y-9202198D02*
X2969110Y-9192674D01*
X2969110Y-9192674D02*
X2988158Y-9183150D01*
X2988158Y-9183150D02*
X3016729Y-9183150D01*
X3016729Y-9183150D02*
X3035777Y-9192674D01*
X3035777Y-9192674D02*
X3045301Y-9211722D01*
X3045301Y-9211722D02*
X3045301Y-9316484D01*
X3045301Y-9211722D02*
X3054824Y-9192674D01*
X3054824Y-9192674D02*
X3073872Y-9183150D01*
X3073872Y-9183150D02*
X3102443Y-9183150D01*
X3102443Y-9183150D02*
X3121491Y-9192674D01*
X3121491Y-9192674D02*
X3131015Y-9211722D01*
X3131015Y-9211722D02*
X3131015Y-9316484D01*
X3521491Y-9106960D02*
X3350063Y-9364103D01*
X3778634Y-9116484D02*
X3797682Y-9116484D01*
X3797682Y-9116484D02*
X3816729Y-9126008D01*
X3816729Y-9126008D02*
X3826253Y-9135531D01*
X3826253Y-9135531D02*
X3835777Y-9154579D01*
X3835777Y-9154579D02*
X3845301Y-9192674D01*
X3845301Y-9192674D02*
X3845301Y-9240293D01*
X3845301Y-9240293D02*
X3835777Y-9278389D01*
X3835777Y-9278389D02*
X3826253Y-9297436D01*
X3826253Y-9297436D02*
X3816729Y-9306960D01*
X3816729Y-9306960D02*
X3797682Y-9316484D01*
X3797682Y-9316484D02*
X3778634Y-9316484D01*
X3778634Y-9316484D02*
X3759586Y-9306960D01*
X3759586Y-9306960D02*
X3750063Y-9297436D01*
X3750063Y-9297436D02*
X3740539Y-9278389D01*
X3740539Y-9278389D02*
X3731015Y-9240293D01*
X3731015Y-9240293D02*
X3731015Y-9192674D01*
X3731015Y-9192674D02*
X3740539Y-9154579D01*
X3740539Y-9154579D02*
X3750063Y-9135531D01*
X3750063Y-9135531D02*
X3759586Y-9126008D01*
X3759586Y-9126008D02*
X3778634Y-9116484D01*
X3931015Y-9297436D02*
X3940539Y-9306960D01*
X3940539Y-9306960D02*
X3931015Y-9316484D01*
X3931015Y-9316484D02*
X3921491Y-9306960D01*
X3921491Y-9306960D02*
X3931015Y-9297436D01*
X3931015Y-9297436D02*
X3931015Y-9316484D01*
X4064348Y-9116484D02*
X4083396Y-9116484D01*
X4083396Y-9116484D02*
X4102444Y-9126008D01*
X4102444Y-9126008D02*
X4111967Y-9135531D01*
X4111967Y-9135531D02*
X4121491Y-9154579D01*
X4121491Y-9154579D02*
X4131015Y-9192674D01*
X4131015Y-9192674D02*
X4131015Y-9240293D01*
X4131015Y-9240293D02*
X4121491Y-9278389D01*
X4121491Y-9278389D02*
X4111967Y-9297436D01*
X4111967Y-9297436D02*
X4102444Y-9306960D01*
X4102444Y-9306960D02*
X4083396Y-9316484D01*
X4083396Y-9316484D02*
X4064348Y-9316484D01*
X4064348Y-9316484D02*
X4045301Y-9306960D01*
X4045301Y-9306960D02*
X4035777Y-9297436D01*
X4035777Y-9297436D02*
X4026253Y-9278389D01*
X4026253Y-9278389D02*
X4016729Y-9240293D01*
X4016729Y-9240293D02*
X4016729Y-9192674D01*
X4016729Y-9192674D02*
X4026253Y-9154579D01*
X4026253Y-9154579D02*
X4035777Y-9135531D01*
X4035777Y-9135531D02*
X4045301Y-9126008D01*
X4045301Y-9126008D02*
X4064348Y-9116484D01*
X4321491Y-9316484D02*
X4207206Y-9316484D01*
X4264348Y-9316484D02*
X4264348Y-9116484D01*
X4264348Y-9116484D02*
X4245301Y-9145055D01*
X4245301Y-9145055D02*
X4226253Y-9164103D01*
X4226253Y-9164103D02*
X4207206Y-9173627D01*
X4502444Y-9116484D02*
X4407206Y-9116484D01*
X4407206Y-9116484D02*
X4397682Y-9211722D01*
X4397682Y-9211722D02*
X4407206Y-9202198D01*
X4407206Y-9202198D02*
X4426253Y-9192674D01*
X4426253Y-9192674D02*
X4473872Y-9192674D01*
X4473872Y-9192674D02*
X4492920Y-9202198D01*
X4492920Y-9202198D02*
X4502444Y-9211722D01*
X4502444Y-9211722D02*
X4511968Y-9230770D01*
X4511968Y-9230770D02*
X4511968Y-9278389D01*
X4511968Y-9278389D02*
X4502444Y-9297436D01*
X4502444Y-9297436D02*
X4492920Y-9306960D01*
X4492920Y-9306960D02*
X4473872Y-9316484D01*
X4473872Y-9316484D02*
X4426253Y-9316484D01*
X4426253Y-9316484D02*
X4407206Y-9306960D01*
X4407206Y-9306960D02*
X4397682Y-9297436D01*
X4578634Y-9116484D02*
X4711968Y-9116484D01*
X4711968Y-9116484D02*
X4626253Y-9316484D01*
X4778634Y-9116484D02*
X4778634Y-9154579D01*
X4854825Y-9116484D02*
X4854825Y-9154579D01*
X5150063Y-9392674D02*
X5140539Y-9383150D01*
X5140539Y-9383150D02*
X5121491Y-9354579D01*
X5121491Y-9354579D02*
X5111968Y-9335531D01*
X5111968Y-9335531D02*
X5102444Y-9306960D01*
X5102444Y-9306960D02*
X5092920Y-9259341D01*
X5092920Y-9259341D02*
X5092920Y-9221246D01*
X5092920Y-9221246D02*
X5102444Y-9173627D01*
X5102444Y-9173627D02*
X5111968Y-9145055D01*
X5111968Y-9145055D02*
X5121491Y-9126008D01*
X5121491Y-9126008D02*
X5140539Y-9097436D01*
X5140539Y-9097436D02*
X5150063Y-9087912D01*
X5321491Y-9116484D02*
X5226253Y-9116484D01*
X5226253Y-9116484D02*
X5216730Y-9211722D01*
X5216730Y-9211722D02*
X5226253Y-9202198D01*
X5226253Y-9202198D02*
X5245301Y-9192674D01*
X5245301Y-9192674D02*
X5292920Y-9192674D01*
X5292920Y-9192674D02*
X5311968Y-9202198D01*
X5311968Y-9202198D02*
X5321491Y-9211722D01*
X5321491Y-9211722D02*
X5331015Y-9230770D01*
X5331015Y-9230770D02*
X5331015Y-9278389D01*
X5331015Y-9278389D02*
X5321491Y-9297436D01*
X5321491Y-9297436D02*
X5311968Y-9306960D01*
X5311968Y-9306960D02*
X5292920Y-9316484D01*
X5292920Y-9316484D02*
X5245301Y-9316484D01*
X5245301Y-9316484D02*
X5226253Y-9306960D01*
X5226253Y-9306960D02*
X5216730Y-9297436D01*
X5397682Y-9116484D02*
X5521491Y-9116484D01*
X5521491Y-9116484D02*
X5454825Y-9192674D01*
X5454825Y-9192674D02*
X5483396Y-9192674D01*
X5483396Y-9192674D02*
X5502444Y-9202198D01*
X5502444Y-9202198D02*
X5511968Y-9211722D01*
X5511968Y-9211722D02*
X5521491Y-9230770D01*
X5521491Y-9230770D02*
X5521491Y-9278389D01*
X5521491Y-9278389D02*
X5511968Y-9297436D01*
X5511968Y-9297436D02*
X5502444Y-9306960D01*
X5502444Y-9306960D02*
X5483396Y-9316484D01*
X5483396Y-9316484D02*
X5426253Y-9316484D01*
X5426253Y-9316484D02*
X5407206Y-9306960D01*
X5407206Y-9306960D02*
X5397682Y-9297436D01*
X5759587Y-9316484D02*
X5759587Y-9116484D01*
X5845301Y-9316484D02*
X5845301Y-9211722D01*
X5845301Y-9211722D02*
X5835777Y-9192674D01*
X5835777Y-9192674D02*
X5816730Y-9183150D01*
X5816730Y-9183150D02*
X5788158Y-9183150D01*
X5788158Y-9183150D02*
X5769110Y-9192674D01*
X5769110Y-9192674D02*
X5759587Y-9202198D01*
X5969110Y-9316484D02*
X5950063Y-9306960D01*
X5950063Y-9306960D02*
X5940539Y-9297436D01*
X5940539Y-9297436D02*
X5931015Y-9278389D01*
X5931015Y-9278389D02*
X5931015Y-9221246D01*
X5931015Y-9221246D02*
X5940539Y-9202198D01*
X5940539Y-9202198D02*
X5950063Y-9192674D01*
X5950063Y-9192674D02*
X5969110Y-9183150D01*
X5969110Y-9183150D02*
X5997682Y-9183150D01*
X5997682Y-9183150D02*
X6016730Y-9192674D01*
X6016730Y-9192674D02*
X6026253Y-9202198D01*
X6026253Y-9202198D02*
X6035777Y-9221246D01*
X6035777Y-9221246D02*
X6035777Y-9278389D01*
X6035777Y-9278389D02*
X6026253Y-9297436D01*
X6026253Y-9297436D02*
X6016730Y-9306960D01*
X6016730Y-9306960D02*
X5997682Y-9316484D01*
X5997682Y-9316484D02*
X5969110Y-9316484D01*
X6150063Y-9316484D02*
X6131015Y-9306960D01*
X6131015Y-9306960D02*
X6121491Y-9287912D01*
X6121491Y-9287912D02*
X6121491Y-9116484D01*
X6302444Y-9306960D02*
X6283396Y-9316484D01*
X6283396Y-9316484D02*
X6245301Y-9316484D01*
X6245301Y-9316484D02*
X6226253Y-9306960D01*
X6226253Y-9306960D02*
X6216730Y-9287912D01*
X6216730Y-9287912D02*
X6216730Y-9211722D01*
X6216730Y-9211722D02*
X6226253Y-9192674D01*
X6226253Y-9192674D02*
X6245301Y-9183150D01*
X6245301Y-9183150D02*
X6283396Y-9183150D01*
X6283396Y-9183150D02*
X6302444Y-9192674D01*
X6302444Y-9192674D02*
X6311968Y-9211722D01*
X6311968Y-9211722D02*
X6311968Y-9230770D01*
X6311968Y-9230770D02*
X6216730Y-9249817D01*
X6388158Y-9306960D02*
X6407206Y-9316484D01*
X6407206Y-9316484D02*
X6445301Y-9316484D01*
X6445301Y-9316484D02*
X6464349Y-9306960D01*
X6464349Y-9306960D02*
X6473872Y-9287912D01*
X6473872Y-9287912D02*
X6473872Y-9278389D01*
X6473872Y-9278389D02*
X6464349Y-9259341D01*
X6464349Y-9259341D02*
X6445301Y-9249817D01*
X6445301Y-9249817D02*
X6416730Y-9249817D01*
X6416730Y-9249817D02*
X6397682Y-9240293D01*
X6397682Y-9240293D02*
X6388158Y-9221246D01*
X6388158Y-9221246D02*
X6388158Y-9211722D01*
X6388158Y-9211722D02*
X6397682Y-9192674D01*
X6397682Y-9192674D02*
X6416730Y-9183150D01*
X6416730Y-9183150D02*
X6445301Y-9183150D01*
X6445301Y-9183150D02*
X6464349Y-9192674D01*
X6540539Y-9392674D02*
X6550063Y-9383150D01*
X6550063Y-9383150D02*
X6569111Y-9354579D01*
X6569111Y-9354579D02*
X6578634Y-9335531D01*
X6578634Y-9335531D02*
X6588158Y-9306960D01*
X6588158Y-9306960D02*
X6597682Y-9259341D01*
X6597682Y-9259341D02*
X6597682Y-9221246D01*
X6597682Y-9221246D02*
X6588158Y-9173627D01*
X6588158Y-9173627D02*
X6578634Y-9145055D01*
X6578634Y-9145055D02*
X6569111Y-9126008D01*
X6569111Y-9126008D02*
X6550063Y-9097436D01*
X6550063Y-9097436D02*
X6540539Y-9087912D01*
D10*
X1575000Y-9489000D02*
G75*
G03*
X1575000Y-9489000I-30000J0D01*
G01*
D11*
X1873872Y-9380484D02*
X1892920Y-9380484D01*
X1892920Y-9380484D02*
X1911967Y-9390008D01*
X1911967Y-9390008D02*
X1921491Y-9399531D01*
X1921491Y-9399531D02*
X1931015Y-9418579D01*
X1931015Y-9418579D02*
X1940539Y-9456674D01*
X1940539Y-9456674D02*
X1940539Y-9504293D01*
X1940539Y-9504293D02*
X1931015Y-9542389D01*
X1931015Y-9542389D02*
X1921491Y-9561436D01*
X1921491Y-9561436D02*
X1911967Y-9570960D01*
X1911967Y-9570960D02*
X1892920Y-9580484D01*
X1892920Y-9580484D02*
X1873872Y-9580484D01*
X1873872Y-9580484D02*
X1854824Y-9570960D01*
X1854824Y-9570960D02*
X1845301Y-9561436D01*
X1845301Y-9561436D02*
X1835777Y-9542389D01*
X1835777Y-9542389D02*
X1826253Y-9504293D01*
X1826253Y-9504293D02*
X1826253Y-9456674D01*
X1826253Y-9456674D02*
X1835777Y-9418579D01*
X1835777Y-9418579D02*
X1845301Y-9399531D01*
X1845301Y-9399531D02*
X1854824Y-9390008D01*
X1854824Y-9390008D02*
X1873872Y-9380484D01*
X2026253Y-9561436D02*
X2035777Y-9570960D01*
X2035777Y-9570960D02*
X2026253Y-9580484D01*
X2026253Y-9580484D02*
X2016729Y-9570960D01*
X2016729Y-9570960D02*
X2026253Y-9561436D01*
X2026253Y-9561436D02*
X2026253Y-9580484D01*
X2207205Y-9380484D02*
X2169110Y-9380484D01*
X2169110Y-9380484D02*
X2150063Y-9390008D01*
X2150063Y-9390008D02*
X2140539Y-9399531D01*
X2140539Y-9399531D02*
X2121491Y-9428103D01*
X2121491Y-9428103D02*
X2111967Y-9466198D01*
X2111967Y-9466198D02*
X2111967Y-9542389D01*
X2111967Y-9542389D02*
X2121491Y-9561436D01*
X2121491Y-9561436D02*
X2131015Y-9570960D01*
X2131015Y-9570960D02*
X2150063Y-9580484D01*
X2150063Y-9580484D02*
X2188158Y-9580484D01*
X2188158Y-9580484D02*
X2207205Y-9570960D01*
X2207205Y-9570960D02*
X2216729Y-9561436D01*
X2216729Y-9561436D02*
X2226253Y-9542389D01*
X2226253Y-9542389D02*
X2226253Y-9494770D01*
X2226253Y-9494770D02*
X2216729Y-9475722D01*
X2216729Y-9475722D02*
X2207205Y-9466198D01*
X2207205Y-9466198D02*
X2188158Y-9456674D01*
X2188158Y-9456674D02*
X2150063Y-9456674D01*
X2150063Y-9456674D02*
X2131015Y-9466198D01*
X2131015Y-9466198D02*
X2121491Y-9475722D01*
X2121491Y-9475722D02*
X2111967Y-9494770D01*
X2350063Y-9380484D02*
X2369110Y-9380484D01*
X2369110Y-9380484D02*
X2388158Y-9390008D01*
X2388158Y-9390008D02*
X2397682Y-9399531D01*
X2397682Y-9399531D02*
X2407205Y-9418579D01*
X2407205Y-9418579D02*
X2416729Y-9456674D01*
X2416729Y-9456674D02*
X2416729Y-9504293D01*
X2416729Y-9504293D02*
X2407205Y-9542389D01*
X2407205Y-9542389D02*
X2397682Y-9561436D01*
X2397682Y-9561436D02*
X2388158Y-9570960D01*
X2388158Y-9570960D02*
X2369110Y-9580484D01*
X2369110Y-9580484D02*
X2350063Y-9580484D01*
X2350063Y-9580484D02*
X2331015Y-9570960D01*
X2331015Y-9570960D02*
X2321491Y-9561436D01*
X2321491Y-9561436D02*
X2311967Y-9542389D01*
X2311967Y-9542389D02*
X2302444Y-9504293D01*
X2302444Y-9504293D02*
X2302444Y-9456674D01*
X2302444Y-9456674D02*
X2311967Y-9418579D01*
X2311967Y-9418579D02*
X2321491Y-9399531D01*
X2321491Y-9399531D02*
X2331015Y-9390008D01*
X2331015Y-9390008D02*
X2350063Y-9380484D01*
X2540539Y-9380484D02*
X2559586Y-9380484D01*
X2559586Y-9380484D02*
X2578634Y-9390008D01*
X2578634Y-9390008D02*
X2588158Y-9399531D01*
X2588158Y-9399531D02*
X2597682Y-9418579D01*
X2597682Y-9418579D02*
X2607205Y-9456674D01*
X2607205Y-9456674D02*
X2607205Y-9504293D01*
X2607205Y-9504293D02*
X2597682Y-9542389D01*
X2597682Y-9542389D02*
X2588158Y-9561436D01*
X2588158Y-9561436D02*
X2578634Y-9570960D01*
X2578634Y-9570960D02*
X2559586Y-9580484D01*
X2559586Y-9580484D02*
X2540539Y-9580484D01*
X2540539Y-9580484D02*
X2521491Y-9570960D01*
X2521491Y-9570960D02*
X2511967Y-9561436D01*
X2511967Y-9561436D02*
X2502444Y-9542389D01*
X2502444Y-9542389D02*
X2492920Y-9504293D01*
X2492920Y-9504293D02*
X2492920Y-9456674D01*
X2492920Y-9456674D02*
X2502444Y-9418579D01*
X2502444Y-9418579D02*
X2511967Y-9399531D01*
X2511967Y-9399531D02*
X2521491Y-9390008D01*
X2521491Y-9390008D02*
X2540539Y-9380484D01*
X2692920Y-9580484D02*
X2692920Y-9447150D01*
X2692920Y-9466198D02*
X2702444Y-9456674D01*
X2702444Y-9456674D02*
X2721491Y-9447150D01*
X2721491Y-9447150D02*
X2750063Y-9447150D01*
X2750063Y-9447150D02*
X2769110Y-9456674D01*
X2769110Y-9456674D02*
X2778634Y-9475722D01*
X2778634Y-9475722D02*
X2778634Y-9580484D01*
X2778634Y-9475722D02*
X2788158Y-9456674D01*
X2788158Y-9456674D02*
X2807205Y-9447150D01*
X2807205Y-9447150D02*
X2835777Y-9447150D01*
X2835777Y-9447150D02*
X2854824Y-9456674D01*
X2854824Y-9456674D02*
X2864348Y-9475722D01*
X2864348Y-9475722D02*
X2864348Y-9580484D01*
X2959586Y-9580484D02*
X2959586Y-9447150D01*
X2959586Y-9466198D02*
X2969110Y-9456674D01*
X2969110Y-9456674D02*
X2988158Y-9447150D01*
X2988158Y-9447150D02*
X3016729Y-9447150D01*
X3016729Y-9447150D02*
X3035777Y-9456674D01*
X3035777Y-9456674D02*
X3045301Y-9475722D01*
X3045301Y-9475722D02*
X3045301Y-9580484D01*
X3045301Y-9475722D02*
X3054824Y-9456674D01*
X3054824Y-9456674D02*
X3073872Y-9447150D01*
X3073872Y-9447150D02*
X3102443Y-9447150D01*
X3102443Y-9447150D02*
X3121491Y-9456674D01*
X3121491Y-9456674D02*
X3131015Y-9475722D01*
X3131015Y-9475722D02*
X3131015Y-9580484D01*
X3521491Y-9370960D02*
X3350063Y-9628103D01*
X3778634Y-9380484D02*
X3797682Y-9380484D01*
X3797682Y-9380484D02*
X3816729Y-9390008D01*
X3816729Y-9390008D02*
X3826253Y-9399531D01*
X3826253Y-9399531D02*
X3835777Y-9418579D01*
X3835777Y-9418579D02*
X3845301Y-9456674D01*
X3845301Y-9456674D02*
X3845301Y-9504293D01*
X3845301Y-9504293D02*
X3835777Y-9542389D01*
X3835777Y-9542389D02*
X3826253Y-9561436D01*
X3826253Y-9561436D02*
X3816729Y-9570960D01*
X3816729Y-9570960D02*
X3797682Y-9580484D01*
X3797682Y-9580484D02*
X3778634Y-9580484D01*
X3778634Y-9580484D02*
X3759586Y-9570960D01*
X3759586Y-9570960D02*
X3750063Y-9561436D01*
X3750063Y-9561436D02*
X3740539Y-9542389D01*
X3740539Y-9542389D02*
X3731015Y-9504293D01*
X3731015Y-9504293D02*
X3731015Y-9456674D01*
X3731015Y-9456674D02*
X3740539Y-9418579D01*
X3740539Y-9418579D02*
X3750063Y-9399531D01*
X3750063Y-9399531D02*
X3759586Y-9390008D01*
X3759586Y-9390008D02*
X3778634Y-9380484D01*
X3931015Y-9561436D02*
X3940539Y-9570960D01*
X3940539Y-9570960D02*
X3931015Y-9580484D01*
X3931015Y-9580484D02*
X3921491Y-9570960D01*
X3921491Y-9570960D02*
X3931015Y-9561436D01*
X3931015Y-9561436D02*
X3931015Y-9580484D01*
X4064348Y-9380484D02*
X4083396Y-9380484D01*
X4083396Y-9380484D02*
X4102444Y-9390008D01*
X4102444Y-9390008D02*
X4111967Y-9399531D01*
X4111967Y-9399531D02*
X4121491Y-9418579D01*
X4121491Y-9418579D02*
X4131015Y-9456674D01*
X4131015Y-9456674D02*
X4131015Y-9504293D01*
X4131015Y-9504293D02*
X4121491Y-9542389D01*
X4121491Y-9542389D02*
X4111967Y-9561436D01*
X4111967Y-9561436D02*
X4102444Y-9570960D01*
X4102444Y-9570960D02*
X4083396Y-9580484D01*
X4083396Y-9580484D02*
X4064348Y-9580484D01*
X4064348Y-9580484D02*
X4045301Y-9570960D01*
X4045301Y-9570960D02*
X4035777Y-9561436D01*
X4035777Y-9561436D02*
X4026253Y-9542389D01*
X4026253Y-9542389D02*
X4016729Y-9504293D01*
X4016729Y-9504293D02*
X4016729Y-9456674D01*
X4016729Y-9456674D02*
X4026253Y-9418579D01*
X4026253Y-9418579D02*
X4035777Y-9399531D01*
X4035777Y-9399531D02*
X4045301Y-9390008D01*
X4045301Y-9390008D02*
X4064348Y-9380484D01*
X4207206Y-9399531D02*
X4216729Y-9390008D01*
X4216729Y-9390008D02*
X4235777Y-9380484D01*
X4235777Y-9380484D02*
X4283396Y-9380484D01*
X4283396Y-9380484D02*
X4302444Y-9390008D01*
X4302444Y-9390008D02*
X4311968Y-9399531D01*
X4311968Y-9399531D02*
X4321491Y-9418579D01*
X4321491Y-9418579D02*
X4321491Y-9437627D01*
X4321491Y-9437627D02*
X4311968Y-9466198D01*
X4311968Y-9466198D02*
X4197682Y-9580484D01*
X4197682Y-9580484D02*
X4321491Y-9580484D01*
X4388158Y-9380484D02*
X4511968Y-9380484D01*
X4511968Y-9380484D02*
X4445301Y-9456674D01*
X4445301Y-9456674D02*
X4473872Y-9456674D01*
X4473872Y-9456674D02*
X4492920Y-9466198D01*
X4492920Y-9466198D02*
X4502444Y-9475722D01*
X4502444Y-9475722D02*
X4511968Y-9494770D01*
X4511968Y-9494770D02*
X4511968Y-9542389D01*
X4511968Y-9542389D02*
X4502444Y-9561436D01*
X4502444Y-9561436D02*
X4492920Y-9570960D01*
X4492920Y-9570960D02*
X4473872Y-9580484D01*
X4473872Y-9580484D02*
X4416729Y-9580484D01*
X4416729Y-9580484D02*
X4397682Y-9570960D01*
X4397682Y-9570960D02*
X4388158Y-9561436D01*
X4683396Y-9380484D02*
X4645301Y-9380484D01*
X4645301Y-9380484D02*
X4626253Y-9390008D01*
X4626253Y-9390008D02*
X4616729Y-9399531D01*
X4616729Y-9399531D02*
X4597682Y-9428103D01*
X4597682Y-9428103D02*
X4588158Y-9466198D01*
X4588158Y-9466198D02*
X4588158Y-9542389D01*
X4588158Y-9542389D02*
X4597682Y-9561436D01*
X4597682Y-9561436D02*
X4607206Y-9570960D01*
X4607206Y-9570960D02*
X4626253Y-9580484D01*
X4626253Y-9580484D02*
X4664349Y-9580484D01*
X4664349Y-9580484D02*
X4683396Y-9570960D01*
X4683396Y-9570960D02*
X4692920Y-9561436D01*
X4692920Y-9561436D02*
X4702444Y-9542389D01*
X4702444Y-9542389D02*
X4702444Y-9494770D01*
X4702444Y-9494770D02*
X4692920Y-9475722D01*
X4692920Y-9475722D02*
X4683396Y-9466198D01*
X4683396Y-9466198D02*
X4664349Y-9456674D01*
X4664349Y-9456674D02*
X4626253Y-9456674D01*
X4626253Y-9456674D02*
X4607206Y-9466198D01*
X4607206Y-9466198D02*
X4597682Y-9475722D01*
X4597682Y-9475722D02*
X4588158Y-9494770D01*
X4778634Y-9380484D02*
X4778634Y-9418579D01*
X4854825Y-9380484D02*
X4854825Y-9418579D01*
X5150063Y-9656674D02*
X5140539Y-9647150D01*
X5140539Y-9647150D02*
X5121491Y-9618579D01*
X5121491Y-9618579D02*
X5111968Y-9599531D01*
X5111968Y-9599531D02*
X5102444Y-9570960D01*
X5102444Y-9570960D02*
X5092920Y-9523341D01*
X5092920Y-9523341D02*
X5092920Y-9485246D01*
X5092920Y-9485246D02*
X5102444Y-9437627D01*
X5102444Y-9437627D02*
X5111968Y-9409055D01*
X5111968Y-9409055D02*
X5121491Y-9390008D01*
X5121491Y-9390008D02*
X5140539Y-9361436D01*
X5140539Y-9361436D02*
X5150063Y-9351912D01*
X5264349Y-9380484D02*
X5283396Y-9380484D01*
X5283396Y-9380484D02*
X5302444Y-9390008D01*
X5302444Y-9390008D02*
X5311968Y-9399531D01*
X5311968Y-9399531D02*
X5321491Y-9418579D01*
X5321491Y-9418579D02*
X5331015Y-9456674D01*
X5331015Y-9456674D02*
X5331015Y-9504293D01*
X5331015Y-9504293D02*
X5321491Y-9542389D01*
X5321491Y-9542389D02*
X5311968Y-9561436D01*
X5311968Y-9561436D02*
X5302444Y-9570960D01*
X5302444Y-9570960D02*
X5283396Y-9580484D01*
X5283396Y-9580484D02*
X5264349Y-9580484D01*
X5264349Y-9580484D02*
X5245301Y-9570960D01*
X5245301Y-9570960D02*
X5235777Y-9561436D01*
X5235777Y-9561436D02*
X5226253Y-9542389D01*
X5226253Y-9542389D02*
X5216730Y-9504293D01*
X5216730Y-9504293D02*
X5216730Y-9456674D01*
X5216730Y-9456674D02*
X5226253Y-9418579D01*
X5226253Y-9418579D02*
X5235777Y-9399531D01*
X5235777Y-9399531D02*
X5245301Y-9390008D01*
X5245301Y-9390008D02*
X5264349Y-9380484D01*
X5569111Y-9580484D02*
X5569111Y-9380484D01*
X5654825Y-9580484D02*
X5654825Y-9475722D01*
X5654825Y-9475722D02*
X5645301Y-9456674D01*
X5645301Y-9456674D02*
X5626253Y-9447150D01*
X5626253Y-9447150D02*
X5597682Y-9447150D01*
X5597682Y-9447150D02*
X5578634Y-9456674D01*
X5578634Y-9456674D02*
X5569111Y-9466198D01*
X5778634Y-9580484D02*
X5759587Y-9570960D01*
X5759587Y-9570960D02*
X5750063Y-9561436D01*
X5750063Y-9561436D02*
X5740539Y-9542389D01*
X5740539Y-9542389D02*
X5740539Y-9485246D01*
X5740539Y-9485246D02*
X5750063Y-9466198D01*
X5750063Y-9466198D02*
X5759587Y-9456674D01*
X5759587Y-9456674D02*
X5778634Y-9447150D01*
X5778634Y-9447150D02*
X5807206Y-9447150D01*
X5807206Y-9447150D02*
X5826253Y-9456674D01*
X5826253Y-9456674D02*
X5835777Y-9466198D01*
X5835777Y-9466198D02*
X5845301Y-9485246D01*
X5845301Y-9485246D02*
X5845301Y-9542389D01*
X5845301Y-9542389D02*
X5835777Y-9561436D01*
X5835777Y-9561436D02*
X5826253Y-9570960D01*
X5826253Y-9570960D02*
X5807206Y-9580484D01*
X5807206Y-9580484D02*
X5778634Y-9580484D01*
X5959587Y-9580484D02*
X5940539Y-9570960D01*
X5940539Y-9570960D02*
X5931015Y-9551912D01*
X5931015Y-9551912D02*
X5931015Y-9380484D01*
X6111968Y-9570960D02*
X6092920Y-9580484D01*
X6092920Y-9580484D02*
X6054825Y-9580484D01*
X6054825Y-9580484D02*
X6035777Y-9570960D01*
X6035777Y-9570960D02*
X6026253Y-9551912D01*
X6026253Y-9551912D02*
X6026253Y-9475722D01*
X6026253Y-9475722D02*
X6035777Y-9456674D01*
X6035777Y-9456674D02*
X6054825Y-9447150D01*
X6054825Y-9447150D02*
X6092920Y-9447150D01*
X6092920Y-9447150D02*
X6111968Y-9456674D01*
X6111968Y-9456674D02*
X6121491Y-9475722D01*
X6121491Y-9475722D02*
X6121491Y-9494770D01*
X6121491Y-9494770D02*
X6026253Y-9513817D01*
X6197682Y-9570960D02*
X6216730Y-9580484D01*
X6216730Y-9580484D02*
X6254825Y-9580484D01*
X6254825Y-9580484D02*
X6273872Y-9570960D01*
X6273872Y-9570960D02*
X6283396Y-9551912D01*
X6283396Y-9551912D02*
X6283396Y-9542389D01*
X6283396Y-9542389D02*
X6273872Y-9523341D01*
X6273872Y-9523341D02*
X6254825Y-9513817D01*
X6254825Y-9513817D02*
X6226253Y-9513817D01*
X6226253Y-9513817D02*
X6207206Y-9504293D01*
X6207206Y-9504293D02*
X6197682Y-9485246D01*
X6197682Y-9485246D02*
X6197682Y-9475722D01*
X6197682Y-9475722D02*
X6207206Y-9456674D01*
X6207206Y-9456674D02*
X6226253Y-9447150D01*
X6226253Y-9447150D02*
X6254825Y-9447150D01*
X6254825Y-9447150D02*
X6273872Y-9456674D01*
X6521492Y-9504293D02*
X6673873Y-9504293D01*
X6597682Y-9580484D02*
X6597682Y-9428103D01*
X7007206Y-9447150D02*
X7007206Y-9580484D01*
X6959587Y-9370960D02*
X6911968Y-9513817D01*
X6911968Y-9513817D02*
X7035777Y-9513817D01*
X7254825Y-9570960D02*
X7273873Y-9580484D01*
X7273873Y-9580484D02*
X7311968Y-9580484D01*
X7311968Y-9580484D02*
X7331015Y-9570960D01*
X7331015Y-9570960D02*
X7340539Y-9551912D01*
X7340539Y-9551912D02*
X7340539Y-9542389D01*
X7340539Y-9542389D02*
X7331015Y-9523341D01*
X7331015Y-9523341D02*
X7311968Y-9513817D01*
X7311968Y-9513817D02*
X7283396Y-9513817D01*
X7283396Y-9513817D02*
X7264349Y-9504293D01*
X7264349Y-9504293D02*
X7254825Y-9485246D01*
X7254825Y-9485246D02*
X7254825Y-9475722D01*
X7254825Y-9475722D02*
X7264349Y-9456674D01*
X7264349Y-9456674D02*
X7283396Y-9447150D01*
X7283396Y-9447150D02*
X7311968Y-9447150D01*
X7311968Y-9447150D02*
X7331015Y-9456674D01*
X7454825Y-9580484D02*
X7435777Y-9570960D01*
X7435777Y-9570960D02*
X7426254Y-9551912D01*
X7426254Y-9551912D02*
X7426254Y-9380484D01*
X7559587Y-9580484D02*
X7540539Y-9570960D01*
X7540539Y-9570960D02*
X7531015Y-9561436D01*
X7531015Y-9561436D02*
X7521492Y-9542389D01*
X7521492Y-9542389D02*
X7521492Y-9485246D01*
X7521492Y-9485246D02*
X7531015Y-9466198D01*
X7531015Y-9466198D02*
X7540539Y-9456674D01*
X7540539Y-9456674D02*
X7559587Y-9447150D01*
X7559587Y-9447150D02*
X7588158Y-9447150D01*
X7588158Y-9447150D02*
X7607206Y-9456674D01*
X7607206Y-9456674D02*
X7616730Y-9466198D01*
X7616730Y-9466198D02*
X7626254Y-9485246D01*
X7626254Y-9485246D02*
X7626254Y-9542389D01*
X7626254Y-9542389D02*
X7616730Y-9561436D01*
X7616730Y-9561436D02*
X7607206Y-9570960D01*
X7607206Y-9570960D02*
X7588158Y-9580484D01*
X7588158Y-9580484D02*
X7559587Y-9580484D01*
X7683396Y-9447150D02*
X7759587Y-9447150D01*
X7711968Y-9380484D02*
X7711968Y-9551912D01*
X7711968Y-9551912D02*
X7721492Y-9570960D01*
X7721492Y-9570960D02*
X7740539Y-9580484D01*
X7740539Y-9580484D02*
X7759587Y-9580484D01*
X7816730Y-9570960D02*
X7835777Y-9580484D01*
X7835777Y-9580484D02*
X7873873Y-9580484D01*
X7873873Y-9580484D02*
X7892920Y-9570960D01*
X7892920Y-9570960D02*
X7902444Y-9551912D01*
X7902444Y-9551912D02*
X7902444Y-9542389D01*
X7902444Y-9542389D02*
X7892920Y-9523341D01*
X7892920Y-9523341D02*
X7873873Y-9513817D01*
X7873873Y-9513817D02*
X7845301Y-9513817D01*
X7845301Y-9513817D02*
X7826254Y-9504293D01*
X7826254Y-9504293D02*
X7816730Y-9485246D01*
X7816730Y-9485246D02*
X7816730Y-9475722D01*
X7816730Y-9475722D02*
X7826254Y-9456674D01*
X7826254Y-9456674D02*
X7845301Y-9447150D01*
X7845301Y-9447150D02*
X7873873Y-9447150D01*
X7873873Y-9447150D02*
X7892920Y-9456674D01*
X7969111Y-9656674D02*
X7978635Y-9647150D01*
X7978635Y-9647150D02*
X7997682Y-9618579D01*
X7997682Y-9618579D02*
X8007206Y-9599531D01*
X8007206Y-9599531D02*
X8016730Y-9570960D01*
X8016730Y-9570960D02*
X8026254Y-9523341D01*
X8026254Y-9523341D02*
X8026254Y-9485246D01*
X8026254Y-9485246D02*
X8016730Y-9437627D01*
X8016730Y-9437627D02*
X8007206Y-9409055D01*
X8007206Y-9409055D02*
X7997682Y-9390008D01*
X7997682Y-9390008D02*
X7978635Y-9361436D01*
X7978635Y-9361436D02*
X7969111Y-9351912D01*
M02*
