G04 #@! TF.GenerationSoftware,KiCad,Pcbnew,7.0.9*
G04 #@! TF.CreationDate,2023-11-15T15:13:26+00:00*
G04 #@! TF.ProjectId,analog,616e616c-6f67-42e6-9b69-6361645f7063,1*
G04 #@! TF.SameCoordinates,Original*
G04 #@! TF.FileFunction,Profile,NP*
%FSLAX46Y46*%
G04 Gerber Fmt 4.6, Leading zero omitted, Abs format (unit mm)*
G04 Created by KiCad (PCBNEW 7.0.9) date 2023-11-15 15:13:26*
%MOMM*%
%LPD*%
G01*
G04 APERTURE LIST*
G04 #@! TA.AperFunction,Profile*
%ADD10C,0.100000*%
G04 #@! TD*
G04 APERTURE END LIST*
D10*
X83800000Y-15800000D02*
X17800000Y-15800000D01*
X83800000Y-85800000D02*
G75*
G03*
X85800000Y-83800000I-100J2000100D01*
G01*
X85800000Y-17800000D02*
X85800000Y-83800000D01*
X83800000Y-85800000D02*
X17800000Y-85800000D01*
X15800000Y-83800000D02*
G75*
G03*
X17800000Y-85800000I1999960J-40D01*
G01*
X15800000Y-83800000D02*
X15800000Y-17800000D01*
X17800000Y-15800000D02*
G75*
G03*
X15800000Y-17800000I0J-2000000D01*
G01*
X85800000Y-17800000D02*
G75*
G03*
X83800000Y-15800000I-2000000J0D01*
G01*
X71549999Y-72639657D02*
X71549999Y-74045341D01*
X70644452Y-74842499D02*
X69055548Y-74842499D01*
X69055548Y-71842500D02*
X70644453Y-71842500D01*
X68150001Y-74045341D02*
X68150001Y-72639657D01*
X71550000Y-74045341D02*
G75*
G03*
X71599485Y-74262219I499989J-2D01*
G01*
X70896711Y-74910798D02*
G75*
G03*
X71599483Y-74262218I252259J431700D01*
G01*
X71599484Y-72422779D02*
G75*
G03*
X71549999Y-72639656I450505J-216876D01*
G01*
X71599484Y-72422779D02*
G75*
G03*
X70896711Y-71774202I-450515J216877D01*
G01*
X70644453Y-71842500D02*
G75*
G03*
X70896711Y-71774201I-3J500009D01*
G01*
X70896711Y-74910798D02*
G75*
G03*
X70644452Y-74842499I-252261J-431710D01*
G01*
X68803289Y-71774200D02*
G75*
G03*
X69055547Y-71842499I252261J431710D01*
G01*
X69055548Y-74842500D02*
G75*
G03*
X68803290Y-74910798I2J-500010D01*
G01*
X68100520Y-74262221D02*
G75*
G03*
X68803289Y-74910796I450510J-216879D01*
G01*
X68100517Y-74262219D02*
G75*
G03*
X68150001Y-74045342I-450877J216959D01*
G01*
X68803289Y-71774200D02*
G75*
G03*
X68100516Y-72422779I-252259J-431700D01*
G01*
X68149976Y-72639657D02*
G75*
G03*
X68100516Y-72422779I-499976J57D01*
G01*
X33449999Y-72639657D02*
X33449999Y-74045341D01*
X32544452Y-74842499D02*
X30955548Y-74842499D01*
X30955548Y-71842500D02*
X32544453Y-71842500D01*
X30050001Y-74045341D02*
X30050001Y-72639657D01*
X33450000Y-74045341D02*
G75*
G03*
X33499485Y-74262219I499989J-2D01*
G01*
X32796711Y-74910798D02*
G75*
G03*
X33499483Y-74262218I252259J431700D01*
G01*
X33499484Y-72422779D02*
G75*
G03*
X33449999Y-72639656I450505J-216876D01*
G01*
X33499484Y-72422779D02*
G75*
G03*
X32796711Y-71774202I-450515J216877D01*
G01*
X32544453Y-71842500D02*
G75*
G03*
X32796711Y-71774201I-3J500009D01*
G01*
X32796711Y-74910798D02*
G75*
G03*
X32544452Y-74842499I-252261J-431710D01*
G01*
X30703289Y-71774200D02*
G75*
G03*
X30955547Y-71842499I252261J431710D01*
G01*
X30955548Y-74842500D02*
G75*
G03*
X30703290Y-74910798I2J-500010D01*
G01*
X30000520Y-74262221D02*
G75*
G03*
X30703289Y-74910796I450510J-216879D01*
G01*
X30000517Y-74262219D02*
G75*
G03*
X30050001Y-74045342I-450877J216959D01*
G01*
X30703289Y-71774200D02*
G75*
G03*
X30000516Y-72422779I-252259J-431700D01*
G01*
X30049976Y-72639657D02*
G75*
G03*
X30000516Y-72422779I-499976J57D01*
G01*
X52499999Y-72639657D02*
X52499999Y-74045341D01*
X51594452Y-74842499D02*
X50005548Y-74842499D01*
X50005548Y-71842500D02*
X51594453Y-71842500D01*
X49100001Y-74045341D02*
X49100001Y-72639657D01*
X52500000Y-74045341D02*
G75*
G03*
X52549485Y-74262219I499989J-2D01*
G01*
X51846711Y-74910798D02*
G75*
G03*
X52549483Y-74262218I252259J431700D01*
G01*
X52549484Y-72422779D02*
G75*
G03*
X52499999Y-72639656I450505J-216876D01*
G01*
X52549484Y-72422779D02*
G75*
G03*
X51846711Y-71774202I-450515J216877D01*
G01*
X51594453Y-71842500D02*
G75*
G03*
X51846711Y-71774201I-3J500009D01*
G01*
X51846711Y-74910798D02*
G75*
G03*
X51594452Y-74842499I-252261J-431710D01*
G01*
X49753289Y-71774200D02*
G75*
G03*
X50005547Y-71842499I252261J431710D01*
G01*
X50005548Y-74842500D02*
G75*
G03*
X49753290Y-74910798I2J-500010D01*
G01*
X49050520Y-74262221D02*
G75*
G03*
X49753289Y-74910796I450510J-216879D01*
G01*
X49050517Y-74262219D02*
G75*
G03*
X49100001Y-74045342I-450877J216959D01*
G01*
X49753289Y-71774200D02*
G75*
G03*
X49050516Y-72422779I-252259J-431700D01*
G01*
X49099976Y-72639657D02*
G75*
G03*
X49050516Y-72422779I-499976J57D01*
G01*
M02*
