G04 #@! TF.GenerationSoftware,KiCad,Pcbnew,7.0.9*
G04 #@! TF.CreationDate,2023-11-15T15:13:26+00:00*
G04 #@! TF.ProjectId,analog,616e616c-6f67-42e6-9b69-6361645f7063,1*
G04 #@! TF.SameCoordinates,Original*
G04 #@! TF.FileFunction,Soldermask,Bot*
G04 #@! TF.FilePolarity,Negative*
%FSLAX46Y46*%
G04 Gerber Fmt 4.6, Leading zero omitted, Abs format (unit mm)*
G04 Created by KiCad (PCBNEW 7.0.9) date 2023-11-15 15:13:26*
%MOMM*%
%LPD*%
G01*
G04 APERTURE LIST*
G04 Aperture macros list*
%AMRoundRect*
0 Rectangle with rounded corners*
0 $1 Rounding radius*
0 $2 $3 $4 $5 $6 $7 $8 $9 X,Y pos of 4 corners*
0 Add a 4 corners polygon primitive as box body*
4,1,4,$2,$3,$4,$5,$6,$7,$8,$9,$2,$3,0*
0 Add four circle primitives for the rounded corners*
1,1,$1+$1,$2,$3*
1,1,$1+$1,$4,$5*
1,1,$1+$1,$6,$7*
1,1,$1+$1,$8,$9*
0 Add four rect primitives between the rounded corners*
20,1,$1+$1,$2,$3,$4,$5,0*
20,1,$1+$1,$4,$5,$6,$7,0*
20,1,$1+$1,$6,$7,$8,$9,0*
20,1,$1+$1,$8,$9,$2,$3,0*%
%AMFreePoly0*
4,1,18,-0.410000,0.593000,-0.403758,0.624380,-0.385983,0.650983,-0.359380,0.668758,-0.328000,0.675000,0.328000,0.675000,0.359380,0.668758,0.385983,0.650983,0.403758,0.624380,0.410000,0.593000,0.410000,-0.593000,0.403758,-0.624380,0.385983,-0.650983,0.359380,-0.668758,0.328000,-0.675000,0.000000,-0.675000,-0.410000,-0.265000,-0.410000,0.593000,-0.410000,0.593000,$1*%
G04 Aperture macros list end*
%ADD10C,1.750000*%
%ADD11RoundRect,0.150000X0.150000X-0.587500X0.150000X0.587500X-0.150000X0.587500X-0.150000X-0.587500X0*%
%ADD12C,4.000000*%
%ADD13RoundRect,0.150000X-0.150000X0.650000X-0.150000X-0.650000X0.150000X-0.650000X0.150000X0.650000X0*%
%ADD14RoundRect,0.140000X0.170000X-0.140000X0.170000X0.140000X-0.170000X0.140000X-0.170000X-0.140000X0*%
%ADD15RoundRect,0.250000X-0.375000X-0.625000X0.375000X-0.625000X0.375000X0.625000X-0.375000X0.625000X0*%
%ADD16RoundRect,0.140000X-0.170000X0.140000X-0.170000X-0.140000X0.170000X-0.140000X0.170000X0.140000X0*%
%ADD17RoundRect,0.135000X-0.135000X-0.185000X0.135000X-0.185000X0.135000X0.185000X-0.135000X0.185000X0*%
%ADD18RoundRect,0.140000X0.140000X0.170000X-0.140000X0.170000X-0.140000X-0.170000X0.140000X-0.170000X0*%
%ADD19R,1.500000X0.900000*%
%ADD20RoundRect,0.225000X-0.225000X-0.250000X0.225000X-0.250000X0.225000X0.250000X-0.225000X0.250000X0*%
%ADD21RoundRect,0.135000X0.135000X0.185000X-0.135000X0.185000X-0.135000X-0.185000X0.135000X-0.185000X0*%
%ADD22R,1.200000X1.400000*%
%ADD23R,0.650000X0.400000*%
%ADD24RoundRect,0.150000X0.150000X-0.512500X0.150000X0.512500X-0.150000X0.512500X-0.150000X-0.512500X0*%
%ADD25RoundRect,0.135000X0.185000X-0.135000X0.185000X0.135000X-0.185000X0.135000X-0.185000X-0.135000X0*%
%ADD26RoundRect,0.150000X0.475000X0.150000X-0.475000X0.150000X-0.475000X-0.150000X0.475000X-0.150000X0*%
%ADD27R,1.000000X1.700000*%
%ADD28RoundRect,0.140000X-0.140000X-0.170000X0.140000X-0.170000X0.140000X0.170000X-0.140000X0.170000X0*%
%ADD29RoundRect,0.082000X0.593000X-0.328000X0.593000X0.328000X-0.593000X0.328000X-0.593000X-0.328000X0*%
%ADD30FreePoly0,90.000000*%
%ADD31C,0.650000*%
%ADD32R,0.600000X1.450000*%
%ADD33R,0.300000X1.450000*%
%ADD34O,1.000000X1.600000*%
%ADD35O,1.000000X2.100000*%
%ADD36RoundRect,0.135000X-0.185000X0.135000X-0.185000X-0.135000X0.185000X-0.135000X0.185000X0.135000X0*%
%ADD37RoundRect,0.050000X-0.050000X0.387500X-0.050000X-0.387500X0.050000X-0.387500X0.050000X0.387500X0*%
%ADD38RoundRect,0.050000X-0.387500X0.050000X-0.387500X-0.050000X0.387500X-0.050000X0.387500X0.050000X0*%
%ADD39R,3.200000X3.200000*%
G04 APERTURE END LIST*
D10*
X64770000Y-68262500D03*
X74930000Y-68262500D03*
D11*
X68900000Y-67325000D03*
X70800000Y-67325000D03*
X69850000Y-69200000D03*
D12*
X19800000Y-19800000D03*
X81800000Y-19800000D03*
D10*
X45720000Y-68262500D03*
X55880000Y-68262500D03*
D11*
X49850000Y-67325000D03*
X51750000Y-67325000D03*
X50800000Y-69200000D03*
D12*
X19800000Y-81800000D03*
X81800000Y-81800000D03*
D10*
X26669984Y-68262500D03*
X36829984Y-68262500D03*
D11*
X30799984Y-67325000D03*
X32699984Y-67325000D03*
X31749984Y-69200000D03*
D13*
X57626250Y-25768750D03*
X58896250Y-25768750D03*
X60166250Y-25768750D03*
X61436250Y-25768750D03*
X61436250Y-32968750D03*
X60166250Y-32968750D03*
X58896250Y-32968750D03*
X57626250Y-32968750D03*
D14*
X49579995Y-65567500D03*
X49579995Y-64607500D03*
D15*
X42400000Y-25800000D03*
X45200000Y-25800000D03*
D16*
X46505346Y-71773806D03*
X46505346Y-72733806D03*
D17*
X66049358Y-32800000D03*
X67069358Y-32800000D03*
D18*
X61285000Y-42862500D03*
X60325000Y-42862500D03*
D19*
X29300000Y-52450000D03*
X29300000Y-49150000D03*
X34200000Y-49150000D03*
X34200000Y-52450000D03*
D16*
X70056250Y-44450000D03*
X70056250Y-45410000D03*
D18*
X61285000Y-44251557D03*
X60325000Y-44251557D03*
D20*
X41768750Y-38493750D03*
X43318750Y-38493750D03*
D18*
X76670543Y-40084366D03*
X75710543Y-40084366D03*
X70056250Y-35061382D03*
X69096250Y-35061382D03*
D17*
X74290000Y-32800000D03*
X75310000Y-32800000D03*
D21*
X48928750Y-26193750D03*
X47908750Y-26193750D03*
D22*
X76143750Y-38406250D03*
X76143750Y-36206250D03*
X77843750Y-36206250D03*
X77843750Y-38406250D03*
D23*
X70800000Y-54367102D03*
X70800000Y-55017102D03*
X70800000Y-55667102D03*
X68900000Y-55667102D03*
X68900000Y-54367102D03*
D16*
X65682825Y-50320000D03*
X65682825Y-51280000D03*
D18*
X60011250Y-38298427D03*
X59051250Y-38298427D03*
D24*
X43350000Y-35662500D03*
X41450000Y-35662500D03*
X42400000Y-33387500D03*
D14*
X69850000Y-65567500D03*
X69850000Y-64607500D03*
D25*
X71070005Y-65597500D03*
X71070005Y-64577500D03*
D26*
X51975000Y-28418750D03*
X51975000Y-29368750D03*
X51975000Y-30318750D03*
X49625000Y-30318750D03*
X49625000Y-29368750D03*
X49625000Y-28418750D03*
D25*
X77540316Y-72692500D03*
X77540316Y-71672500D03*
D18*
X57632335Y-34593750D03*
X56672335Y-34593750D03*
D14*
X50800000Y-65567500D03*
X50800000Y-64607500D03*
D18*
X60011250Y-37107801D03*
X59051250Y-37107801D03*
X60011250Y-35917175D03*
X59051250Y-35917175D03*
D16*
X66456250Y-44450000D03*
X66456250Y-45410000D03*
D27*
X70700000Y-31200000D03*
X70700000Y-24900000D03*
X66900000Y-31200000D03*
X66900000Y-24900000D03*
D17*
X59815000Y-40277929D03*
X60835000Y-40277929D03*
D16*
X65555346Y-71773806D03*
X65555346Y-72733806D03*
D18*
X42402768Y-31800000D03*
X41442768Y-31800000D03*
D21*
X69310000Y-32800000D03*
X68290000Y-32800000D03*
X71550642Y-32800000D03*
X70530642Y-32800000D03*
D27*
X72900000Y-24900000D03*
X72900000Y-31200000D03*
X76700000Y-24900000D03*
X76700000Y-31200000D03*
D23*
X76356250Y-72692500D03*
X76356250Y-73342500D03*
X76356250Y-73992500D03*
X74456250Y-73992500D03*
X74456250Y-72692500D03*
D28*
X66456250Y-35061382D03*
X67416250Y-35061382D03*
X77307500Y-34131250D03*
X78267500Y-34131250D03*
D29*
X67125000Y-72592500D03*
X67125000Y-74092500D03*
X72575000Y-72592500D03*
D30*
X72575000Y-74092500D03*
D14*
X68629995Y-65567500D03*
X68629995Y-64607500D03*
D17*
X52671250Y-26193750D03*
X53691250Y-26193750D03*
D31*
X47910000Y-21575000D03*
X53690000Y-21575000D03*
D32*
X47550000Y-23020000D03*
X48350000Y-23020000D03*
D33*
X49550000Y-23020000D03*
X50550000Y-23020000D03*
X51050000Y-23020000D03*
X52050000Y-23020000D03*
D32*
X53250000Y-23020000D03*
X54050000Y-23020000D03*
X54050000Y-23020000D03*
X53250000Y-23020000D03*
D33*
X52550000Y-23020000D03*
X51550000Y-23020000D03*
X50050000Y-23020000D03*
X49050000Y-23020000D03*
D32*
X48350000Y-23020000D03*
X47550000Y-23020000D03*
D34*
X46480000Y-17925000D03*
D35*
X46480000Y-22105000D03*
D34*
X55120000Y-17925000D03*
D35*
X55120000Y-22105000D03*
D36*
X74737261Y-37957920D03*
X74737261Y-38977920D03*
D28*
X75710543Y-41274992D03*
X76670543Y-41274992D03*
X75710543Y-42490618D03*
X76670543Y-42490618D03*
D37*
X66456250Y-36250000D03*
X66856250Y-36250000D03*
X67256250Y-36250000D03*
X67656250Y-36250000D03*
X68056250Y-36250000D03*
X68456250Y-36250000D03*
X68856250Y-36250000D03*
X69256250Y-36250000D03*
X69656250Y-36250000D03*
X70056250Y-36250000D03*
X70456250Y-36250000D03*
X70856250Y-36250000D03*
X71256250Y-36250000D03*
X71656250Y-36250000D03*
D38*
X72493750Y-37087500D03*
X72493750Y-37487500D03*
X72493750Y-37887500D03*
X72493750Y-38287500D03*
X72493750Y-38687500D03*
X72493750Y-39087500D03*
X72493750Y-39487500D03*
X72493750Y-39887500D03*
X72493750Y-40287500D03*
X72493750Y-40687500D03*
X72493750Y-41087500D03*
X72493750Y-41487500D03*
X72493750Y-41887500D03*
X72493750Y-42287500D03*
D37*
X71656250Y-43125000D03*
X71256250Y-43125000D03*
X70856250Y-43125000D03*
X70456250Y-43125000D03*
X70056250Y-43125000D03*
X69656250Y-43125000D03*
X69256250Y-43125000D03*
X68856250Y-43125000D03*
X68456250Y-43125000D03*
X68056250Y-43125000D03*
X67656250Y-43125000D03*
X67256250Y-43125000D03*
X66856250Y-43125000D03*
X66456250Y-43125000D03*
D38*
X65618750Y-42287500D03*
X65618750Y-41887500D03*
X65618750Y-41487500D03*
X65618750Y-41087500D03*
X65618750Y-40687500D03*
X65618750Y-40287500D03*
X65618750Y-39887500D03*
X65618750Y-39487500D03*
X65618750Y-39087500D03*
X65618750Y-38687500D03*
X65618750Y-38287500D03*
X65618750Y-37887500D03*
X65618750Y-37487500D03*
X65618750Y-37087500D03*
D39*
X69056250Y-39687500D03*
D16*
X27780361Y-50320000D03*
X27780361Y-51280000D03*
D17*
X59815000Y-41503222D03*
X60835000Y-41503222D03*
D29*
X29025000Y-72592500D03*
X29025000Y-74092500D03*
X34475000Y-72592500D03*
D30*
X34475000Y-74092500D03*
D25*
X52020005Y-65597500D03*
X52020005Y-64577500D03*
D16*
X27455346Y-71773806D03*
X27455346Y-72733806D03*
D17*
X71910483Y-54099332D03*
X72930483Y-54099332D03*
D19*
X67400000Y-52450000D03*
X67400000Y-49150000D03*
X72300000Y-49150000D03*
X72300000Y-52450000D03*
D29*
X48075000Y-72592500D03*
X48075000Y-74092500D03*
X53525000Y-72592500D03*
D30*
X53525000Y-74092500D03*
D14*
X30529995Y-65567500D03*
X30529995Y-64607500D03*
D25*
X32970005Y-65597500D03*
X32970005Y-64577500D03*
D28*
X41452008Y-37267151D03*
X42412008Y-37267151D03*
D14*
X31750000Y-65567500D03*
X31750000Y-64607500D03*
M02*
