G04 #@! TF.GenerationSoftware,KiCad,Pcbnew,7.0.9*
G04 #@! TF.CreationDate,2023-11-15T15:13:25+00:00*
G04 #@! TF.ProjectId,analog,616e616c-6f67-42e6-9b69-6361645f7063,1*
G04 #@! TF.SameCoordinates,Original*
G04 #@! TF.FileFunction,Copper,L1,Top*
G04 #@! TF.FilePolarity,Positive*
%FSLAX46Y46*%
G04 Gerber Fmt 4.6, Leading zero omitted, Abs format (unit mm)*
G04 Created by KiCad (PCBNEW 7.0.9) date 2023-11-15 15:13:25*
%MOMM*%
%LPD*%
G01*
G04 APERTURE LIST*
G04 #@! TA.AperFunction,ComponentPad*
%ADD10O,1.000000X1.600000*%
G04 #@! TD*
G04 #@! TA.AperFunction,ComponentPad*
%ADD11O,1.000000X2.100000*%
G04 #@! TD*
G04 #@! TA.AperFunction,ViaPad*
%ADD12C,0.800000*%
G04 #@! TD*
G04 #@! TA.AperFunction,Conductor*
%ADD13C,0.400000*%
G04 #@! TD*
G04 #@! TA.AperFunction,Conductor*
%ADD14C,0.200000*%
G04 #@! TD*
G04 APERTURE END LIST*
D10*
X46480000Y-17925000D03*
D11*
X46480000Y-22105000D03*
D10*
X55120000Y-17925000D03*
D11*
X55120000Y-22105000D03*
D12*
X73818750Y-75000000D03*
X68256250Y-35061382D03*
X65087500Y-45243750D03*
X29368750Y-64293750D03*
X72231250Y-69056250D03*
X77589085Y-41274992D03*
X71437500Y-45243750D03*
X68056250Y-40687500D03*
X58737500Y-42862500D03*
X44450000Y-72231250D03*
X77787500Y-70643750D03*
X35718750Y-75000000D03*
X70056250Y-38687500D03*
X61436250Y-27781250D03*
X43337500Y-36906250D03*
X56356250Y-33337500D03*
X76234040Y-75000000D03*
X68800000Y-31200000D03*
X34200000Y-50800000D03*
X58539069Y-34726549D03*
X67468750Y-64293750D03*
X54768750Y-75000000D03*
X54768750Y-26987500D03*
X34131250Y-69056250D03*
X29368732Y-50800000D03*
X68056250Y-38687500D03*
X48418750Y-64293750D03*
X73818750Y-56356250D03*
X53181250Y-69056250D03*
X69056250Y-39687500D03*
X74800000Y-31200000D03*
X76200000Y-34131250D03*
X40162500Y-31350000D03*
X63500000Y-72231250D03*
X25400000Y-72231250D03*
X46831250Y-26987500D03*
X67468764Y-50800000D03*
X72300000Y-50800000D03*
X70056250Y-40687500D03*
X53975000Y-29368750D03*
X73818750Y-53975000D03*
X45243750Y-73025000D03*
X26987500Y-54768750D03*
X26987500Y-76200000D03*
X39300000Y-25800000D03*
X65087500Y-54768750D03*
X75406250Y-76200000D03*
X64293750Y-73025000D03*
X62706250Y-42068750D03*
X61970653Y-37843408D03*
X74330009Y-40709685D03*
X73818750Y-55017102D03*
X78581250Y-53975000D03*
D13*
X63301573Y-76200000D02*
X64293750Y-76200000D01*
X26987500Y-54768750D02*
X65087500Y-54768750D01*
X23018750Y-54768750D02*
X23018750Y-73025000D01*
X44251557Y-76200000D02*
X45243750Y-75207807D01*
X44251557Y-76200000D02*
X45243750Y-76200000D01*
X64293750Y-75207823D02*
X64293750Y-73025000D01*
X26737500Y-25800000D02*
X23018750Y-29518750D01*
X23018750Y-73025000D02*
X26193750Y-76200000D01*
X26193750Y-76200000D02*
X26987500Y-76200000D01*
X23018750Y-50800000D02*
X23018750Y-53975000D01*
X45243750Y-76200000D02*
X63301573Y-76200000D01*
X23018750Y-29518750D02*
X23018750Y-50800000D01*
X23018750Y-53975000D02*
X23018750Y-54768750D01*
X64293750Y-76200000D02*
X75406250Y-76200000D01*
X23812500Y-54768750D02*
X26987500Y-54768750D01*
X63301573Y-76200000D02*
X64293750Y-75207823D01*
X23018750Y-53975000D02*
X23812500Y-54768750D01*
X26987500Y-76200000D02*
X44251557Y-76200000D01*
X45243750Y-75207807D02*
X45243750Y-73025000D01*
X39300000Y-25800000D02*
X26737500Y-25800000D01*
D14*
X61912500Y-37901561D02*
X61970653Y-37843408D01*
X72231250Y-43656250D02*
X74330009Y-41557491D01*
X62706250Y-42068750D02*
X61912500Y-41275000D01*
X64293750Y-43656250D02*
X72231250Y-43656250D01*
X74330009Y-41557491D02*
X74330009Y-40709685D01*
X61912500Y-41275000D02*
X61912500Y-37901561D01*
X62706250Y-42068750D02*
X64293750Y-43656250D01*
X77539148Y-55017102D02*
X78581250Y-53975000D01*
X73818750Y-55017102D02*
X77539148Y-55017102D01*
G04 #@! TA.AperFunction,Conductor*
G36*
X83802019Y-15800633D02*
G01*
X83837198Y-15802938D01*
X83883708Y-15805986D01*
X84065459Y-15818985D01*
X84073100Y-15820015D01*
X84166738Y-15838641D01*
X84189420Y-15843153D01*
X84215023Y-15848722D01*
X84333666Y-15874531D01*
X84340383Y-15876395D01*
X84459437Y-15916809D01*
X84556671Y-15953076D01*
X84591741Y-15966157D01*
X84597499Y-15968643D01*
X84712952Y-16025578D01*
X84834906Y-16092170D01*
X84839634Y-16095032D01*
X84896571Y-16133076D01*
X84946649Y-16166537D01*
X84949358Y-16168454D01*
X85058652Y-16250271D01*
X85062345Y-16253265D01*
X85159502Y-16338469D01*
X85162448Y-16341228D01*
X85258769Y-16437549D01*
X85261526Y-16440492D01*
X85346729Y-16537648D01*
X85349732Y-16541353D01*
X85401564Y-16610592D01*
X85431543Y-16650639D01*
X85433461Y-16653349D01*
X85504962Y-16760357D01*
X85507828Y-16765091D01*
X85574421Y-16887047D01*
X85631355Y-17002499D01*
X85633841Y-17008257D01*
X85670212Y-17105768D01*
X85683196Y-17140578D01*
X85688289Y-17155581D01*
X85723597Y-17259596D01*
X85725472Y-17266352D01*
X85756846Y-17410579D01*
X85779980Y-17526880D01*
X85781015Y-17534560D01*
X85794017Y-17716350D01*
X85799367Y-17797966D01*
X85799500Y-17802023D01*
X85799500Y-83797970D01*
X85799367Y-83802029D01*
X85794013Y-83883649D01*
X85781002Y-84065430D01*
X85779968Y-84073108D01*
X85756830Y-84189415D01*
X85725451Y-84333634D01*
X85723576Y-84340389D01*
X85683166Y-84459422D01*
X85633816Y-84591720D01*
X85631330Y-84597478D01*
X85574392Y-84712933D01*
X85507794Y-84834893D01*
X85504927Y-84839627D01*
X85433442Y-84946609D01*
X85431524Y-84949318D01*
X85349709Y-85058610D01*
X85346688Y-85062335D01*
X85261496Y-85159478D01*
X85258722Y-85162439D01*
X85162439Y-85258722D01*
X85159478Y-85261496D01*
X85062335Y-85346688D01*
X85058610Y-85349709D01*
X84949318Y-85431524D01*
X84946609Y-85433442D01*
X84839627Y-85504927D01*
X84834893Y-85507794D01*
X84712933Y-85574392D01*
X84597478Y-85631330D01*
X84591720Y-85633816D01*
X84459422Y-85683166D01*
X84340389Y-85723576D01*
X84333634Y-85725451D01*
X84189415Y-85756830D01*
X84073108Y-85779968D01*
X84065430Y-85781002D01*
X83883649Y-85794013D01*
X83815454Y-85798486D01*
X83802026Y-85799367D01*
X83797970Y-85799500D01*
X17802035Y-85799500D01*
X17797980Y-85799367D01*
X17716374Y-85794020D01*
X17534563Y-85781020D01*
X17526882Y-85779986D01*
X17410580Y-85756854D01*
X17266349Y-85725480D01*
X17259594Y-85723606D01*
X17140571Y-85683205D01*
X17140466Y-85683166D01*
X17115206Y-85673744D01*
X17008256Y-85633855D01*
X17002497Y-85631369D01*
X16887042Y-85574434D01*
X16765085Y-85507841D01*
X16760350Y-85504975D01*
X16653335Y-85433470D01*
X16650625Y-85431552D01*
X16541356Y-85349755D01*
X16537631Y-85346735D01*
X16440483Y-85261540D01*
X16437521Y-85258765D01*
X16341233Y-85162477D01*
X16338466Y-85159524D01*
X16253263Y-85062367D01*
X16250243Y-85058642D01*
X16168446Y-84949373D01*
X16166528Y-84946663D01*
X16095023Y-84839647D01*
X16092157Y-84834913D01*
X16025565Y-84712957D01*
X16012619Y-84686704D01*
X15968624Y-84597489D01*
X15966148Y-84591755D01*
X15916796Y-84459433D01*
X15876385Y-84340381D01*
X15874522Y-84333669D01*
X15843152Y-84189452D01*
X15820009Y-84073099D01*
X15818980Y-84065456D01*
X15805981Y-83883649D01*
X15801359Y-83813107D01*
X15800633Y-83802020D01*
X15800500Y-83797965D01*
X15800500Y-81875373D01*
X17545723Y-81875373D01*
X17575881Y-82175160D01*
X17575882Y-82175162D01*
X17645728Y-82468252D01*
X17645733Y-82468266D01*
X17754020Y-82749427D01*
X17754024Y-82749436D01*
X17898825Y-83013665D01*
X17898829Y-83013671D01*
X18077551Y-83256234D01*
X18077554Y-83256238D01*
X18077561Y-83256245D01*
X18287019Y-83472823D01*
X18523478Y-83659553D01*
X18523480Y-83659554D01*
X18523485Y-83659558D01*
X18782730Y-83813109D01*
X19060128Y-83930736D01*
X19350729Y-84010340D01*
X19649347Y-84050500D01*
X19649351Y-84050500D01*
X19875252Y-84050500D01*
X20039164Y-84039526D01*
X20100634Y-84035412D01*
X20395903Y-83975396D01*
X20680537Y-83876560D01*
X20949459Y-83740668D01*
X21197869Y-83570144D01*
X21421333Y-83368032D01*
X21615865Y-83137939D01*
X21777993Y-82883970D01*
X21904823Y-82610658D01*
X21994093Y-82322879D01*
X22044209Y-82025770D01*
X22049237Y-81875373D01*
X79545723Y-81875373D01*
X79575881Y-82175160D01*
X79575882Y-82175162D01*
X79645728Y-82468252D01*
X79645733Y-82468266D01*
X79754020Y-82749427D01*
X79754024Y-82749436D01*
X79898825Y-83013665D01*
X79898829Y-83013671D01*
X80077551Y-83256234D01*
X80077554Y-83256238D01*
X80077561Y-83256245D01*
X80287019Y-83472823D01*
X80523478Y-83659553D01*
X80523480Y-83659554D01*
X80523485Y-83659558D01*
X80782730Y-83813109D01*
X81060128Y-83930736D01*
X81350729Y-84010340D01*
X81649347Y-84050500D01*
X81649351Y-84050500D01*
X81875252Y-84050500D01*
X82039164Y-84039526D01*
X82100634Y-84035412D01*
X82395903Y-83975396D01*
X82680537Y-83876560D01*
X82949459Y-83740668D01*
X83197869Y-83570144D01*
X83421333Y-83368032D01*
X83615865Y-83137939D01*
X83777993Y-82883970D01*
X83904823Y-82610658D01*
X83994093Y-82322879D01*
X84044209Y-82025770D01*
X84054277Y-81724631D01*
X84024118Y-81424838D01*
X83954269Y-81131739D01*
X83845977Y-80850566D01*
X83701175Y-80586335D01*
X83522446Y-80343762D01*
X83312980Y-80127176D01*
X83189742Y-80029856D01*
X83076521Y-79940446D01*
X83076517Y-79940443D01*
X83076515Y-79940442D01*
X82817270Y-79786891D01*
X82539872Y-79669264D01*
X82539863Y-79669261D01*
X82249272Y-79589660D01*
X82174616Y-79579620D01*
X81950653Y-79549500D01*
X81724756Y-79549500D01*
X81724748Y-79549500D01*
X81499368Y-79564587D01*
X81499359Y-79564589D01*
X81204094Y-79624604D01*
X80919464Y-79723439D01*
X80919459Y-79723441D01*
X80650546Y-79859328D01*
X80402125Y-80029860D01*
X80178665Y-80231969D01*
X79984132Y-80462064D01*
X79822006Y-80716030D01*
X79822005Y-80716032D01*
X79695181Y-80989333D01*
X79695177Y-80989342D01*
X79695176Y-80989346D01*
X79605907Y-81277118D01*
X79555791Y-81574230D01*
X79545723Y-81875373D01*
X22049237Y-81875373D01*
X22054277Y-81724631D01*
X22024118Y-81424838D01*
X21954269Y-81131739D01*
X21845977Y-80850566D01*
X21701175Y-80586335D01*
X21522446Y-80343762D01*
X21312980Y-80127176D01*
X21189742Y-80029856D01*
X21076521Y-79940446D01*
X21076517Y-79940443D01*
X21076515Y-79940442D01*
X20817270Y-79786891D01*
X20539872Y-79669264D01*
X20539863Y-79669261D01*
X20249272Y-79589660D01*
X20174616Y-79579620D01*
X19950653Y-79549500D01*
X19724756Y-79549500D01*
X19724748Y-79549500D01*
X19499368Y-79564587D01*
X19499359Y-79564589D01*
X19204094Y-79624604D01*
X18919464Y-79723439D01*
X18919459Y-79723441D01*
X18650546Y-79859328D01*
X18402125Y-80029860D01*
X18178665Y-80231969D01*
X17984132Y-80462064D01*
X17822006Y-80716030D01*
X17822005Y-80716032D01*
X17695181Y-80989333D01*
X17695177Y-80989342D01*
X17695176Y-80989346D01*
X17605907Y-81277118D01*
X17555791Y-81574230D01*
X17545723Y-81875373D01*
X15800500Y-81875373D01*
X15800500Y-73067605D01*
X22314392Y-73067605D01*
X22325571Y-73128612D01*
X22326134Y-73132313D01*
X22333609Y-73193870D01*
X22333610Y-73193874D01*
X22337201Y-73203343D01*
X22343224Y-73224946D01*
X22345054Y-73234930D01*
X22370509Y-73291490D01*
X22371939Y-73294941D01*
X22393932Y-73352930D01*
X22393933Y-73352931D01*
X22399686Y-73361266D01*
X22410711Y-73380813D01*
X22414870Y-73390055D01*
X22414874Y-73390060D01*
X22453121Y-73438878D01*
X22455341Y-73441896D01*
X22490562Y-73492924D01*
X22490566Y-73492928D01*
X22490567Y-73492929D01*
X22537000Y-73534064D01*
X22539691Y-73536598D01*
X25682149Y-76679056D01*
X25684685Y-76681750D01*
X25721360Y-76723148D01*
X25725820Y-76728182D01*
X25776856Y-76763410D01*
X25779872Y-76765630D01*
X25806240Y-76786287D01*
X25828693Y-76803878D01*
X25835595Y-76806984D01*
X25837932Y-76808036D01*
X25857483Y-76819063D01*
X25865820Y-76824818D01*
X25923808Y-76846809D01*
X25927246Y-76848234D01*
X25983818Y-76873695D01*
X25993792Y-76875522D01*
X26015406Y-76881548D01*
X26024877Y-76885140D01*
X26086423Y-76892613D01*
X26090120Y-76893175D01*
X26151144Y-76904358D01*
X26206127Y-76901031D01*
X26213053Y-76900613D01*
X26216798Y-76900500D01*
X26379344Y-76900500D01*
X26446383Y-76920185D01*
X26452229Y-76924182D01*
X26534765Y-76984148D01*
X26534770Y-76984151D01*
X26707692Y-77061142D01*
X26707697Y-77061144D01*
X26892854Y-77100500D01*
X26892855Y-77100500D01*
X27082144Y-77100500D01*
X27082146Y-77100500D01*
X27267303Y-77061144D01*
X27440230Y-76984151D01*
X27455820Y-76972823D01*
X27522771Y-76924182D01*
X27588577Y-76900702D01*
X27595656Y-76900500D01*
X44209185Y-76900500D01*
X44228509Y-76900500D01*
X44232254Y-76900613D01*
X44240073Y-76901085D01*
X44294163Y-76904358D01*
X44304133Y-76902531D01*
X44326484Y-76900500D01*
X45201378Y-76900500D01*
X63259201Y-76900500D01*
X63278525Y-76900500D01*
X63282270Y-76900613D01*
X63290089Y-76901085D01*
X63344179Y-76904358D01*
X63354149Y-76902531D01*
X63376500Y-76900500D01*
X64251378Y-76900500D01*
X74798094Y-76900500D01*
X74865133Y-76920185D01*
X74870979Y-76924182D01*
X74953515Y-76984148D01*
X74953520Y-76984151D01*
X75126442Y-77061142D01*
X75126447Y-77061144D01*
X75311604Y-77100500D01*
X75311605Y-77100500D01*
X75500894Y-77100500D01*
X75500896Y-77100500D01*
X75686053Y-77061144D01*
X75858980Y-76984151D01*
X76012121Y-76872888D01*
X76138783Y-76732216D01*
X76233429Y-76568284D01*
X76291924Y-76388256D01*
X76311710Y-76200000D01*
X76291924Y-76011744D01*
X76233429Y-75831716D01*
X76138783Y-75667784D01*
X76012121Y-75527112D01*
X76012120Y-75527111D01*
X75858984Y-75415851D01*
X75858979Y-75415848D01*
X75686057Y-75338857D01*
X75686052Y-75338855D01*
X75540251Y-75307865D01*
X75500896Y-75299500D01*
X75311604Y-75299500D01*
X75279147Y-75306398D01*
X75126447Y-75338855D01*
X75126442Y-75338857D01*
X74953520Y-75415848D01*
X74953515Y-75415851D01*
X74870979Y-75475818D01*
X74805173Y-75499298D01*
X74798094Y-75499500D01*
X65103946Y-75499500D01*
X65036907Y-75479815D01*
X64991152Y-75427011D01*
X64980850Y-75360555D01*
X64986365Y-75315132D01*
X64986928Y-75311428D01*
X64998107Y-75250429D01*
X64994363Y-75188530D01*
X64994250Y-75184786D01*
X64994250Y-74445613D01*
X68047623Y-74445613D01*
X68055437Y-74573581D01*
X68055438Y-74573585D01*
X68095261Y-74695459D01*
X68164521Y-74803357D01*
X68258743Y-74890312D01*
X68258745Y-74890313D01*
X68258747Y-74890315D01*
X68332217Y-74929546D01*
X68371843Y-74950706D01*
X68496515Y-74980638D01*
X68624706Y-74978176D01*
X68748136Y-74943477D01*
X68760674Y-74936178D01*
X68761015Y-74936094D01*
X68801163Y-74912619D01*
X68805996Y-74910073D01*
X68810741Y-74907835D01*
X68813746Y-74906419D01*
X68817256Y-74904948D01*
X68904109Y-74868573D01*
X68911829Y-74865924D01*
X68939161Y-74858521D01*
X68947165Y-74856912D01*
X69044881Y-74843917D01*
X69050463Y-74843423D01*
X69052538Y-74843240D01*
X69057997Y-74842999D01*
X70641717Y-74842999D01*
X70647171Y-74843239D01*
X70655631Y-74843986D01*
X70677944Y-74846952D01*
X70752818Y-74856909D01*
X70760808Y-74858514D01*
X70788131Y-74865910D01*
X70795860Y-74868560D01*
X70886255Y-74906419D01*
X70886752Y-74906627D01*
X70890102Y-74908206D01*
X70893737Y-74909920D01*
X70898594Y-74912477D01*
X70940761Y-74937133D01*
X70941900Y-74937634D01*
X70951879Y-74943443D01*
X71075301Y-74978138D01*
X71193994Y-74980417D01*
X71203478Y-74980600D01*
X71203478Y-74980599D01*
X71203482Y-74980600D01*
X71328144Y-74950670D01*
X71441235Y-74890280D01*
X71535451Y-74803332D01*
X71604705Y-74695442D01*
X71644525Y-74573577D01*
X71652338Y-74445611D01*
X71652337Y-74445608D01*
X71627641Y-74319813D01*
X71627640Y-74319807D01*
X71600916Y-74264052D01*
X71599112Y-74259905D01*
X71598865Y-74259276D01*
X71595083Y-74249639D01*
X71569243Y-74175766D01*
X71567324Y-74169101D01*
X71561415Y-74143210D01*
X71560250Y-74136350D01*
X71551442Y-74058156D01*
X71550673Y-74047893D01*
X71550499Y-74043256D01*
X71550499Y-72641976D01*
X71550673Y-72637339D01*
X71550775Y-72635964D01*
X71551497Y-72626344D01*
X71560234Y-72548782D01*
X71561394Y-72541954D01*
X71567381Y-72515726D01*
X71569293Y-72509087D01*
X71594920Y-72435823D01*
X71599019Y-72425378D01*
X71600809Y-72421264D01*
X71627679Y-72365203D01*
X71652378Y-72239390D01*
X71652377Y-72239380D01*
X71644564Y-72111414D01*
X71644563Y-72111411D01*
X71624747Y-72050765D01*
X71604741Y-71989540D01*
X71604740Y-71989538D01*
X71604739Y-71989535D01*
X71535482Y-71881643D01*
X71535481Y-71881641D01*
X71441258Y-71794687D01*
X71441256Y-71794685D01*
X71328158Y-71734292D01*
X71203486Y-71704360D01*
X71203483Y-71704360D01*
X71203479Y-71704359D01*
X71075293Y-71706822D01*
X70951860Y-71741520D01*
X70950966Y-71741899D01*
X70898844Y-71772374D01*
X70893998Y-71774927D01*
X70886273Y-71778571D01*
X70796051Y-71816357D01*
X70788291Y-71819019D01*
X70760651Y-71826500D01*
X70752617Y-71828115D01*
X70656172Y-71840940D01*
X70646900Y-71841759D01*
X70641442Y-71842000D01*
X69107410Y-71842000D01*
X69107407Y-71841999D01*
X69058284Y-71841999D01*
X69052829Y-71841759D01*
X69044368Y-71841012D01*
X68947205Y-71828090D01*
X68939171Y-71826476D01*
X68911871Y-71819087D01*
X68904110Y-71816424D01*
X68813245Y-71778369D01*
X68809942Y-71776812D01*
X68806232Y-71775062D01*
X68801392Y-71772511D01*
X68760252Y-71748456D01*
X68759014Y-71747899D01*
X68748121Y-71741558D01*
X68624699Y-71706863D01*
X68496521Y-71704400D01*
X68371856Y-71734330D01*
X68258767Y-71794718D01*
X68258763Y-71794721D01*
X68164554Y-71881663D01*
X68164548Y-71881671D01*
X68095295Y-71989556D01*
X68055478Y-72111416D01*
X68055476Y-72111425D01*
X68047662Y-72239380D01*
X68047663Y-72239385D01*
X68047663Y-72239387D01*
X68069792Y-72352111D01*
X68072361Y-72365193D01*
X68099080Y-72420940D01*
X68100890Y-72425100D01*
X68104951Y-72435453D01*
X68130687Y-72509001D01*
X68132614Y-72515690D01*
X68138618Y-72542000D01*
X68139784Y-72548866D01*
X68148530Y-72626588D01*
X68149326Y-72637182D01*
X68149501Y-72641832D01*
X68149501Y-74043021D01*
X68149327Y-74047660D01*
X68148508Y-74058580D01*
X68139741Y-74136345D01*
X68138577Y-74143196D01*
X68132670Y-74169086D01*
X68130747Y-74175766D01*
X68104823Y-74249900D01*
X68101145Y-74259276D01*
X68099336Y-74263436D01*
X68072322Y-74319796D01*
X68072322Y-74319797D01*
X68047623Y-74445608D01*
X68047623Y-74445613D01*
X64994250Y-74445613D01*
X64994250Y-73640391D01*
X65013935Y-73573352D01*
X65026102Y-73557417D01*
X65026283Y-73557216D01*
X65120929Y-73393284D01*
X65179424Y-73213256D01*
X65199210Y-73025000D01*
X65179424Y-72836744D01*
X65120929Y-72656716D01*
X65026283Y-72492784D01*
X64899621Y-72352112D01*
X64830809Y-72302117D01*
X64746484Y-72240851D01*
X64746479Y-72240848D01*
X64573557Y-72163857D01*
X64573552Y-72163855D01*
X64427751Y-72132865D01*
X64388396Y-72124500D01*
X64199104Y-72124500D01*
X64166647Y-72131398D01*
X64013947Y-72163855D01*
X64013942Y-72163857D01*
X63841020Y-72240848D01*
X63841015Y-72240851D01*
X63687879Y-72352111D01*
X63561216Y-72492785D01*
X63466571Y-72656715D01*
X63466568Y-72656722D01*
X63408077Y-72836740D01*
X63408076Y-72836744D01*
X63388290Y-73025000D01*
X63408076Y-73213256D01*
X63408077Y-73213259D01*
X63466568Y-73393277D01*
X63466571Y-73393284D01*
X63561216Y-73557215D01*
X63561398Y-73557417D01*
X63561466Y-73557559D01*
X63565035Y-73562471D01*
X63564136Y-73563123D01*
X63591629Y-73620408D01*
X63593250Y-73640391D01*
X63593250Y-74866304D01*
X63573565Y-74933343D01*
X63556931Y-74953985D01*
X63047735Y-75463181D01*
X62986412Y-75496666D01*
X62960054Y-75499500D01*
X46053944Y-75499500D01*
X45986905Y-75479815D01*
X45941150Y-75427011D01*
X45930848Y-75360555D01*
X45936363Y-75315131D01*
X45936927Y-75311427D01*
X45941174Y-75288246D01*
X45948108Y-75250413D01*
X45944995Y-75198968D01*
X45944363Y-75188503D01*
X45944250Y-75184758D01*
X45944250Y-74445613D01*
X48997623Y-74445613D01*
X49005437Y-74573581D01*
X49005438Y-74573585D01*
X49045261Y-74695459D01*
X49114521Y-74803357D01*
X49208743Y-74890312D01*
X49208745Y-74890313D01*
X49208747Y-74890315D01*
X49282217Y-74929546D01*
X49321843Y-74950706D01*
X49446515Y-74980638D01*
X49574706Y-74978176D01*
X49698136Y-74943477D01*
X49710674Y-74936178D01*
X49711015Y-74936094D01*
X49751163Y-74912619D01*
X49755996Y-74910073D01*
X49760741Y-74907835D01*
X49763746Y-74906419D01*
X49767256Y-74904948D01*
X49854109Y-74868573D01*
X49861829Y-74865924D01*
X49889161Y-74858521D01*
X49897165Y-74856912D01*
X49994881Y-74843917D01*
X50000463Y-74843423D01*
X50002538Y-74843240D01*
X50007997Y-74842999D01*
X51591717Y-74842999D01*
X51597171Y-74843239D01*
X51605631Y-74843986D01*
X51627944Y-74846952D01*
X51702818Y-74856909D01*
X51710808Y-74858514D01*
X51738131Y-74865910D01*
X51745860Y-74868560D01*
X51836255Y-74906419D01*
X51836752Y-74906627D01*
X51840102Y-74908206D01*
X51843737Y-74909920D01*
X51848594Y-74912477D01*
X51890761Y-74937133D01*
X51891900Y-74937634D01*
X51901879Y-74943443D01*
X52025301Y-74978138D01*
X52143994Y-74980417D01*
X52153478Y-74980600D01*
X52153478Y-74980599D01*
X52153482Y-74980600D01*
X52278144Y-74950670D01*
X52391235Y-74890280D01*
X52485451Y-74803332D01*
X52554705Y-74695442D01*
X52594525Y-74573577D01*
X52602338Y-74445611D01*
X52602337Y-74445608D01*
X52577641Y-74319813D01*
X52577640Y-74319807D01*
X52550916Y-74264052D01*
X52549112Y-74259905D01*
X52548865Y-74259276D01*
X52545083Y-74249639D01*
X52519243Y-74175766D01*
X52517324Y-74169101D01*
X52511415Y-74143210D01*
X52510250Y-74136350D01*
X52501442Y-74058156D01*
X52500673Y-74047893D01*
X52500499Y-74043256D01*
X52500499Y-72641976D01*
X52500673Y-72637339D01*
X52500775Y-72635964D01*
X52501497Y-72626344D01*
X52510234Y-72548782D01*
X52511394Y-72541954D01*
X52517381Y-72515726D01*
X52519293Y-72509087D01*
X52544920Y-72435823D01*
X52549019Y-72425378D01*
X52550809Y-72421264D01*
X52577679Y-72365203D01*
X52602378Y-72239390D01*
X52602377Y-72239380D01*
X52594564Y-72111414D01*
X52594563Y-72111411D01*
X52574747Y-72050765D01*
X52554741Y-71989540D01*
X52554740Y-71989538D01*
X52554739Y-71989535D01*
X52485482Y-71881643D01*
X52485481Y-71881641D01*
X52391258Y-71794687D01*
X52391256Y-71794685D01*
X52278158Y-71734292D01*
X52153486Y-71704360D01*
X52153483Y-71704360D01*
X52153479Y-71704359D01*
X52025293Y-71706822D01*
X51901860Y-71741520D01*
X51900966Y-71741899D01*
X51848844Y-71772374D01*
X51843998Y-71774927D01*
X51836273Y-71778571D01*
X51746051Y-71816357D01*
X51738291Y-71819019D01*
X51710651Y-71826500D01*
X51702617Y-71828115D01*
X51606172Y-71840940D01*
X51596900Y-71841759D01*
X51591442Y-71842000D01*
X50057410Y-71842000D01*
X50057407Y-71841999D01*
X50008284Y-71841999D01*
X50002829Y-71841759D01*
X49994368Y-71841012D01*
X49897205Y-71828090D01*
X49889171Y-71826476D01*
X49861871Y-71819087D01*
X49854110Y-71816424D01*
X49763245Y-71778369D01*
X49759942Y-71776812D01*
X49756232Y-71775062D01*
X49751392Y-71772511D01*
X49710252Y-71748456D01*
X49709014Y-71747899D01*
X49698121Y-71741558D01*
X49574699Y-71706863D01*
X49446521Y-71704400D01*
X49321856Y-71734330D01*
X49208767Y-71794718D01*
X49208763Y-71794721D01*
X49114554Y-71881663D01*
X49114548Y-71881671D01*
X49045295Y-71989556D01*
X49005478Y-72111416D01*
X49005476Y-72111425D01*
X48997662Y-72239380D01*
X48997663Y-72239385D01*
X48997663Y-72239387D01*
X49019792Y-72352111D01*
X49022361Y-72365193D01*
X49049080Y-72420940D01*
X49050890Y-72425100D01*
X49054951Y-72435453D01*
X49080687Y-72509001D01*
X49082614Y-72515690D01*
X49088618Y-72542000D01*
X49089784Y-72548866D01*
X49098530Y-72626588D01*
X49099326Y-72637182D01*
X49099501Y-72641832D01*
X49099501Y-74043021D01*
X49099327Y-74047660D01*
X49098508Y-74058580D01*
X49089741Y-74136345D01*
X49088577Y-74143196D01*
X49082670Y-74169086D01*
X49080747Y-74175766D01*
X49054823Y-74249900D01*
X49051145Y-74259276D01*
X49049336Y-74263436D01*
X49022322Y-74319796D01*
X49022322Y-74319797D01*
X48997623Y-74445608D01*
X48997623Y-74445613D01*
X45944250Y-74445613D01*
X45944250Y-73640391D01*
X45963935Y-73573352D01*
X45976102Y-73557417D01*
X45976283Y-73557216D01*
X46070929Y-73393284D01*
X46129424Y-73213256D01*
X46149210Y-73025000D01*
X46129424Y-72836744D01*
X46070929Y-72656716D01*
X45976283Y-72492784D01*
X45849621Y-72352112D01*
X45780809Y-72302117D01*
X45696484Y-72240851D01*
X45696479Y-72240848D01*
X45523557Y-72163857D01*
X45523552Y-72163855D01*
X45377751Y-72132865D01*
X45338396Y-72124500D01*
X45149104Y-72124500D01*
X45116647Y-72131398D01*
X44963947Y-72163855D01*
X44963942Y-72163857D01*
X44791020Y-72240848D01*
X44791015Y-72240851D01*
X44637879Y-72352111D01*
X44511216Y-72492785D01*
X44416571Y-72656715D01*
X44416568Y-72656722D01*
X44358077Y-72836740D01*
X44358076Y-72836744D01*
X44338290Y-73025000D01*
X44358076Y-73213256D01*
X44358077Y-73213259D01*
X44416568Y-73393277D01*
X44416571Y-73393284D01*
X44511216Y-73557215D01*
X44511398Y-73557417D01*
X44511466Y-73557559D01*
X44515035Y-73562471D01*
X44514136Y-73563123D01*
X44541629Y-73620408D01*
X44543250Y-73640391D01*
X44543250Y-74866288D01*
X44523565Y-74933327D01*
X44506931Y-74953969D01*
X43997719Y-75463181D01*
X43936396Y-75496666D01*
X43910038Y-75499500D01*
X27595656Y-75499500D01*
X27528617Y-75479815D01*
X27522771Y-75475818D01*
X27440234Y-75415851D01*
X27440229Y-75415848D01*
X27267307Y-75338857D01*
X27267302Y-75338855D01*
X27121501Y-75307865D01*
X27082146Y-75299500D01*
X26892854Y-75299500D01*
X26860397Y-75306398D01*
X26707697Y-75338855D01*
X26707692Y-75338857D01*
X26534765Y-75415850D01*
X26531883Y-75417515D01*
X26530005Y-75417970D01*
X26528834Y-75418492D01*
X26528738Y-75418277D01*
X26463982Y-75433982D01*
X26397957Y-75411124D01*
X26382211Y-75397804D01*
X25430020Y-74445613D01*
X29947623Y-74445613D01*
X29955437Y-74573581D01*
X29955438Y-74573585D01*
X29995261Y-74695459D01*
X30064521Y-74803357D01*
X30158743Y-74890312D01*
X30158745Y-74890313D01*
X30158747Y-74890315D01*
X30232217Y-74929546D01*
X30271843Y-74950706D01*
X30396515Y-74980638D01*
X30524706Y-74978176D01*
X30648136Y-74943477D01*
X30660674Y-74936178D01*
X30661015Y-74936094D01*
X30701163Y-74912619D01*
X30705996Y-74910073D01*
X30710741Y-74907835D01*
X30713746Y-74906419D01*
X30717256Y-74904948D01*
X30804109Y-74868573D01*
X30811829Y-74865924D01*
X30839161Y-74858521D01*
X30847165Y-74856912D01*
X30944881Y-74843917D01*
X30950463Y-74843423D01*
X30952538Y-74843240D01*
X30957997Y-74842999D01*
X32541717Y-74842999D01*
X32547171Y-74843239D01*
X32555631Y-74843986D01*
X32577944Y-74846952D01*
X32652818Y-74856909D01*
X32660808Y-74858514D01*
X32688131Y-74865910D01*
X32695860Y-74868560D01*
X32786255Y-74906419D01*
X32786752Y-74906627D01*
X32790102Y-74908206D01*
X32793737Y-74909920D01*
X32798594Y-74912477D01*
X32840761Y-74937133D01*
X32841900Y-74937634D01*
X32851879Y-74943443D01*
X32975301Y-74978138D01*
X33093994Y-74980417D01*
X33103478Y-74980600D01*
X33103478Y-74980599D01*
X33103482Y-74980600D01*
X33228144Y-74950670D01*
X33341235Y-74890280D01*
X33435451Y-74803332D01*
X33504705Y-74695442D01*
X33544525Y-74573577D01*
X33552338Y-74445611D01*
X33552337Y-74445608D01*
X33527641Y-74319813D01*
X33527640Y-74319807D01*
X33500916Y-74264052D01*
X33499112Y-74259905D01*
X33498865Y-74259276D01*
X33495083Y-74249639D01*
X33469243Y-74175766D01*
X33467324Y-74169101D01*
X33461415Y-74143210D01*
X33460250Y-74136350D01*
X33451442Y-74058156D01*
X33450673Y-74047893D01*
X33450499Y-74043256D01*
X33450499Y-72641976D01*
X33450673Y-72637339D01*
X33450775Y-72635964D01*
X33451497Y-72626344D01*
X33460234Y-72548782D01*
X33461394Y-72541954D01*
X33467381Y-72515726D01*
X33469293Y-72509087D01*
X33494920Y-72435823D01*
X33499019Y-72425378D01*
X33500809Y-72421264D01*
X33527679Y-72365203D01*
X33552378Y-72239390D01*
X33552377Y-72239380D01*
X33544564Y-72111414D01*
X33544563Y-72111411D01*
X33524747Y-72050765D01*
X33504741Y-71989540D01*
X33504740Y-71989538D01*
X33504739Y-71989535D01*
X33435482Y-71881643D01*
X33435481Y-71881641D01*
X33341258Y-71794687D01*
X33341256Y-71794685D01*
X33228158Y-71734292D01*
X33103486Y-71704360D01*
X33103483Y-71704360D01*
X33103479Y-71704359D01*
X32975293Y-71706822D01*
X32851860Y-71741520D01*
X32850966Y-71741899D01*
X32798844Y-71772374D01*
X32793998Y-71774927D01*
X32786273Y-71778571D01*
X32696051Y-71816357D01*
X32688291Y-71819019D01*
X32660651Y-71826500D01*
X32652617Y-71828115D01*
X32556172Y-71840940D01*
X32546900Y-71841759D01*
X32541442Y-71842000D01*
X31007410Y-71842000D01*
X31007407Y-71841999D01*
X30958284Y-71841999D01*
X30952829Y-71841759D01*
X30944368Y-71841012D01*
X30847205Y-71828090D01*
X30839171Y-71826476D01*
X30811871Y-71819087D01*
X30804110Y-71816424D01*
X30713245Y-71778369D01*
X30709942Y-71776812D01*
X30706232Y-71775062D01*
X30701392Y-71772511D01*
X30660252Y-71748456D01*
X30659014Y-71747899D01*
X30648121Y-71741558D01*
X30524699Y-71706863D01*
X30396521Y-71704400D01*
X30271856Y-71734330D01*
X30158767Y-71794718D01*
X30158763Y-71794721D01*
X30064554Y-71881663D01*
X30064548Y-71881671D01*
X29995295Y-71989556D01*
X29955478Y-72111416D01*
X29955476Y-72111425D01*
X29947662Y-72239380D01*
X29947663Y-72239385D01*
X29947663Y-72239387D01*
X29969792Y-72352111D01*
X29972361Y-72365193D01*
X29999080Y-72420940D01*
X30000890Y-72425100D01*
X30004951Y-72435453D01*
X30030687Y-72509001D01*
X30032614Y-72515690D01*
X30038618Y-72542000D01*
X30039784Y-72548866D01*
X30048530Y-72626588D01*
X30049326Y-72637182D01*
X30049501Y-72641832D01*
X30049501Y-74043021D01*
X30049327Y-74047660D01*
X30048508Y-74058580D01*
X30039741Y-74136345D01*
X30038577Y-74143196D01*
X30032670Y-74169086D01*
X30030747Y-74175766D01*
X30004823Y-74249900D01*
X30001145Y-74259276D01*
X29999336Y-74263436D01*
X29972322Y-74319796D01*
X29972322Y-74319797D01*
X29947623Y-74445608D01*
X29947623Y-74445613D01*
X25430020Y-74445613D01*
X23755569Y-72771162D01*
X23722084Y-72709839D01*
X23719250Y-72683481D01*
X23719250Y-68208702D01*
X25540644Y-68208702D01*
X25550871Y-68423401D01*
X25576503Y-68529057D01*
X25601547Y-68632290D01*
X25690838Y-68827810D01*
X25755293Y-68918324D01*
X25815519Y-69002900D01*
X25815524Y-69002906D01*
X25971078Y-69151225D01*
X25971080Y-69151226D01*
X25971081Y-69151227D01*
X26151904Y-69267435D01*
X26351452Y-69347322D01*
X26456982Y-69367661D01*
X26562511Y-69388000D01*
X26562512Y-69388000D01*
X26723596Y-69388000D01*
X26723602Y-69388000D01*
X26883955Y-69372688D01*
X27090193Y-69312131D01*
X27281243Y-69213638D01*
X27450201Y-69080768D01*
X27590960Y-68918324D01*
X27698432Y-68732177D01*
X27768734Y-68529054D01*
X27799323Y-68316297D01*
X27789096Y-68101596D01*
X27738421Y-67892710D01*
X27649130Y-67697190D01*
X27524450Y-67522101D01*
X27524448Y-67522099D01*
X27524443Y-67522093D01*
X27368889Y-67373774D01*
X27188064Y-67257565D01*
X26988514Y-67177677D01*
X26777457Y-67137000D01*
X26777456Y-67137000D01*
X26616366Y-67137000D01*
X26456013Y-67152312D01*
X26456009Y-67152313D01*
X26249777Y-67212868D01*
X26058720Y-67311364D01*
X25889769Y-67444229D01*
X25889766Y-67444233D01*
X25749005Y-67606678D01*
X25641537Y-67792819D01*
X25571235Y-67995942D01*
X25571234Y-67995944D01*
X25540645Y-68208700D01*
X25540644Y-68208702D01*
X23719250Y-68208702D01*
X23719250Y-66484500D01*
X29971984Y-66484500D01*
X29971984Y-70040500D01*
X33527984Y-70040500D01*
X33527984Y-68208702D01*
X35700644Y-68208702D01*
X35710871Y-68423401D01*
X35736503Y-68529057D01*
X35761547Y-68632290D01*
X35850838Y-68827810D01*
X35915293Y-68918324D01*
X35975519Y-69002900D01*
X35975524Y-69002906D01*
X36131078Y-69151225D01*
X36131080Y-69151226D01*
X36131081Y-69151227D01*
X36311904Y-69267435D01*
X36511452Y-69347322D01*
X36616982Y-69367661D01*
X36722511Y-69388000D01*
X36722512Y-69388000D01*
X36883596Y-69388000D01*
X36883602Y-69388000D01*
X37043955Y-69372688D01*
X37250193Y-69312131D01*
X37441243Y-69213638D01*
X37610201Y-69080768D01*
X37750960Y-68918324D01*
X37858432Y-68732177D01*
X37928734Y-68529054D01*
X37959323Y-68316297D01*
X37954198Y-68208702D01*
X44590660Y-68208702D01*
X44600887Y-68423401D01*
X44626519Y-68529057D01*
X44651563Y-68632290D01*
X44740854Y-68827810D01*
X44805309Y-68918324D01*
X44865535Y-69002900D01*
X44865540Y-69002906D01*
X45021094Y-69151225D01*
X45021096Y-69151226D01*
X45021097Y-69151227D01*
X45201920Y-69267435D01*
X45401468Y-69347322D01*
X45506998Y-69367661D01*
X45612527Y-69388000D01*
X45612528Y-69388000D01*
X45773612Y-69388000D01*
X45773618Y-69388000D01*
X45933971Y-69372688D01*
X46140209Y-69312131D01*
X46331259Y-69213638D01*
X46500217Y-69080768D01*
X46640976Y-68918324D01*
X46748448Y-68732177D01*
X46818750Y-68529054D01*
X46849339Y-68316297D01*
X46839112Y-68101596D01*
X46788437Y-67892710D01*
X46699146Y-67697190D01*
X46574466Y-67522101D01*
X46574464Y-67522099D01*
X46574459Y-67522093D01*
X46418905Y-67373774D01*
X46238080Y-67257565D01*
X46038530Y-67177677D01*
X45827473Y-67137000D01*
X45827472Y-67137000D01*
X45666382Y-67137000D01*
X45506029Y-67152312D01*
X45506025Y-67152313D01*
X45299793Y-67212868D01*
X45108736Y-67311364D01*
X44939785Y-67444229D01*
X44939782Y-67444233D01*
X44799021Y-67606678D01*
X44691553Y-67792819D01*
X44621251Y-67995942D01*
X44621250Y-67995944D01*
X44590661Y-68208700D01*
X44590660Y-68208702D01*
X37954198Y-68208702D01*
X37949096Y-68101596D01*
X37898421Y-67892710D01*
X37809130Y-67697190D01*
X37684450Y-67522101D01*
X37684448Y-67522099D01*
X37684443Y-67522093D01*
X37528889Y-67373774D01*
X37348064Y-67257565D01*
X37148514Y-67177677D01*
X36937457Y-67137000D01*
X36937456Y-67137000D01*
X36776366Y-67137000D01*
X36616013Y-67152312D01*
X36616009Y-67152313D01*
X36409777Y-67212868D01*
X36218720Y-67311364D01*
X36049769Y-67444229D01*
X36049766Y-67444233D01*
X35909005Y-67606678D01*
X35801537Y-67792819D01*
X35731235Y-67995942D01*
X35731234Y-67995944D01*
X35700645Y-68208700D01*
X35700644Y-68208702D01*
X33527984Y-68208702D01*
X33527984Y-66484500D01*
X49022000Y-66484500D01*
X49022000Y-70040500D01*
X52578000Y-70040500D01*
X52578000Y-68208702D01*
X54750660Y-68208702D01*
X54760887Y-68423401D01*
X54786519Y-68529057D01*
X54811563Y-68632290D01*
X54900854Y-68827810D01*
X54965309Y-68918324D01*
X55025535Y-69002900D01*
X55025540Y-69002906D01*
X55181094Y-69151225D01*
X55181096Y-69151226D01*
X55181097Y-69151227D01*
X55361920Y-69267435D01*
X55561468Y-69347322D01*
X55666998Y-69367661D01*
X55772527Y-69388000D01*
X55772528Y-69388000D01*
X55933612Y-69388000D01*
X55933618Y-69388000D01*
X56093971Y-69372688D01*
X56300209Y-69312131D01*
X56491259Y-69213638D01*
X56660217Y-69080768D01*
X56800976Y-68918324D01*
X56908448Y-68732177D01*
X56978750Y-68529054D01*
X57009339Y-68316297D01*
X57004214Y-68208702D01*
X63640660Y-68208702D01*
X63650887Y-68423401D01*
X63676519Y-68529057D01*
X63701563Y-68632290D01*
X63790854Y-68827810D01*
X63855309Y-68918324D01*
X63915535Y-69002900D01*
X63915540Y-69002906D01*
X64071094Y-69151225D01*
X64071096Y-69151226D01*
X64071097Y-69151227D01*
X64251920Y-69267435D01*
X64451468Y-69347322D01*
X64556998Y-69367661D01*
X64662527Y-69388000D01*
X64662528Y-69388000D01*
X64823612Y-69388000D01*
X64823618Y-69388000D01*
X64983971Y-69372688D01*
X65190209Y-69312131D01*
X65381259Y-69213638D01*
X65550217Y-69080768D01*
X65690976Y-68918324D01*
X65798448Y-68732177D01*
X65868750Y-68529054D01*
X65899339Y-68316297D01*
X65889112Y-68101596D01*
X65838437Y-67892710D01*
X65749146Y-67697190D01*
X65624466Y-67522101D01*
X65624464Y-67522099D01*
X65624459Y-67522093D01*
X65468905Y-67373774D01*
X65288080Y-67257565D01*
X65088530Y-67177677D01*
X64877473Y-67137000D01*
X64877472Y-67137000D01*
X64716382Y-67137000D01*
X64556029Y-67152312D01*
X64556025Y-67152313D01*
X64349793Y-67212868D01*
X64158736Y-67311364D01*
X63989785Y-67444229D01*
X63989782Y-67444233D01*
X63849021Y-67606678D01*
X63741553Y-67792819D01*
X63671251Y-67995942D01*
X63671250Y-67995944D01*
X63640661Y-68208700D01*
X63640660Y-68208702D01*
X57004214Y-68208702D01*
X56999112Y-68101596D01*
X56948437Y-67892710D01*
X56859146Y-67697190D01*
X56734466Y-67522101D01*
X56734464Y-67522099D01*
X56734459Y-67522093D01*
X56578905Y-67373774D01*
X56398080Y-67257565D01*
X56198530Y-67177677D01*
X55987473Y-67137000D01*
X55987472Y-67137000D01*
X55826382Y-67137000D01*
X55666029Y-67152312D01*
X55666025Y-67152313D01*
X55459793Y-67212868D01*
X55268736Y-67311364D01*
X55099785Y-67444229D01*
X55099782Y-67444233D01*
X54959021Y-67606678D01*
X54851553Y-67792819D01*
X54781251Y-67995942D01*
X54781250Y-67995944D01*
X54750661Y-68208700D01*
X54750660Y-68208702D01*
X52578000Y-68208702D01*
X52578000Y-66484500D01*
X68072000Y-66484500D01*
X68072000Y-70040500D01*
X71628000Y-70040500D01*
X71628000Y-68208702D01*
X73800660Y-68208702D01*
X73810887Y-68423401D01*
X73836519Y-68529057D01*
X73861563Y-68632290D01*
X73950854Y-68827810D01*
X74015309Y-68918324D01*
X74075535Y-69002900D01*
X74075540Y-69002906D01*
X74231094Y-69151225D01*
X74231096Y-69151226D01*
X74231097Y-69151227D01*
X74411920Y-69267435D01*
X74611468Y-69347322D01*
X74716998Y-69367661D01*
X74822527Y-69388000D01*
X74822528Y-69388000D01*
X74983612Y-69388000D01*
X74983618Y-69388000D01*
X75143971Y-69372688D01*
X75350209Y-69312131D01*
X75541259Y-69213638D01*
X75710217Y-69080768D01*
X75850976Y-68918324D01*
X75958448Y-68732177D01*
X76028750Y-68529054D01*
X76059339Y-68316297D01*
X76049112Y-68101596D01*
X75998437Y-67892710D01*
X75909146Y-67697190D01*
X75784466Y-67522101D01*
X75784464Y-67522099D01*
X75784459Y-67522093D01*
X75628905Y-67373774D01*
X75448080Y-67257565D01*
X75248530Y-67177677D01*
X75037473Y-67137000D01*
X75037472Y-67137000D01*
X74876382Y-67137000D01*
X74716029Y-67152312D01*
X74716025Y-67152313D01*
X74509793Y-67212868D01*
X74318736Y-67311364D01*
X74149785Y-67444229D01*
X74149782Y-67444233D01*
X74009021Y-67606678D01*
X73901553Y-67792819D01*
X73831251Y-67995942D01*
X73831250Y-67995944D01*
X73800661Y-68208700D01*
X73800660Y-68208702D01*
X71628000Y-68208702D01*
X71628000Y-66484500D01*
X68072000Y-66484500D01*
X52578000Y-66484500D01*
X49022000Y-66484500D01*
X33527984Y-66484500D01*
X29971984Y-66484500D01*
X23719250Y-66484500D01*
X23719250Y-55593250D01*
X23738935Y-55526211D01*
X23791739Y-55480456D01*
X23843250Y-55469250D01*
X26379344Y-55469250D01*
X26446383Y-55488935D01*
X26452229Y-55492932D01*
X26534765Y-55552898D01*
X26534770Y-55552901D01*
X26707692Y-55629892D01*
X26707697Y-55629894D01*
X26892854Y-55669250D01*
X26892855Y-55669250D01*
X27082144Y-55669250D01*
X27082146Y-55669250D01*
X27267303Y-55629894D01*
X27440230Y-55552901D01*
X27476966Y-55526211D01*
X27522771Y-55492932D01*
X27588577Y-55469452D01*
X27595656Y-55469250D01*
X64479344Y-55469250D01*
X64546383Y-55488935D01*
X64552229Y-55492932D01*
X64634765Y-55552898D01*
X64634770Y-55552901D01*
X64807692Y-55629892D01*
X64807697Y-55629894D01*
X64992854Y-55669250D01*
X64992855Y-55669250D01*
X65182144Y-55669250D01*
X65182146Y-55669250D01*
X65367303Y-55629894D01*
X65540230Y-55552901D01*
X65693371Y-55441638D01*
X65820033Y-55300966D01*
X65914679Y-55137034D01*
X65953648Y-55017102D01*
X72913290Y-55017102D01*
X72933076Y-55205358D01*
X72933077Y-55205361D01*
X72991568Y-55385379D01*
X72991571Y-55385386D01*
X73086217Y-55549318D01*
X73194205Y-55669250D01*
X73212879Y-55689990D01*
X73366015Y-55801250D01*
X73366020Y-55801253D01*
X73538942Y-55878244D01*
X73538947Y-55878246D01*
X73724104Y-55917602D01*
X73724105Y-55917602D01*
X73913394Y-55917602D01*
X73913396Y-55917602D01*
X74098553Y-55878246D01*
X74271480Y-55801253D01*
X74424621Y-55689990D01*
X74452859Y-55658629D01*
X74512345Y-55621981D01*
X74545008Y-55617602D01*
X77495720Y-55617602D01*
X77503818Y-55618132D01*
X77539148Y-55622784D01*
X77539149Y-55622784D01*
X77591402Y-55615904D01*
X77695910Y-55602146D01*
X77841989Y-55541638D01*
X77967430Y-55445384D01*
X77989132Y-55417100D01*
X77994466Y-55411017D01*
X78493666Y-54911819D01*
X78554989Y-54878334D01*
X78581347Y-54875500D01*
X78675894Y-54875500D01*
X78675896Y-54875500D01*
X78861053Y-54836144D01*
X79033980Y-54759151D01*
X79187121Y-54647888D01*
X79313783Y-54507216D01*
X79408429Y-54343284D01*
X79466924Y-54163256D01*
X79486710Y-53975000D01*
X79466924Y-53786744D01*
X79408429Y-53606716D01*
X79313783Y-53442784D01*
X79187121Y-53302112D01*
X79187120Y-53302111D01*
X79033984Y-53190851D01*
X79033979Y-53190848D01*
X78861057Y-53113857D01*
X78861052Y-53113855D01*
X78715251Y-53082865D01*
X78675896Y-53074500D01*
X78486604Y-53074500D01*
X78454147Y-53081398D01*
X78301447Y-53113855D01*
X78301442Y-53113857D01*
X78128520Y-53190848D01*
X78128515Y-53190851D01*
X77975379Y-53302111D01*
X77848716Y-53442785D01*
X77754071Y-53606715D01*
X77754068Y-53606722D01*
X77695577Y-53786740D01*
X77695576Y-53786744D01*
X77678015Y-53953831D01*
X77675790Y-53975002D01*
X77675790Y-53979862D01*
X77656105Y-54046901D01*
X77639471Y-54067543D01*
X77326732Y-54380283D01*
X77265409Y-54413768D01*
X77239051Y-54416602D01*
X74545008Y-54416602D01*
X74477969Y-54396917D01*
X74452859Y-54375575D01*
X74424621Y-54344214D01*
X74424614Y-54344208D01*
X74271484Y-54232953D01*
X74271479Y-54232950D01*
X74098557Y-54155959D01*
X74098552Y-54155957D01*
X73952751Y-54124967D01*
X73913396Y-54116602D01*
X73724104Y-54116602D01*
X73691647Y-54123500D01*
X73538947Y-54155957D01*
X73538942Y-54155959D01*
X73366020Y-54232950D01*
X73366015Y-54232953D01*
X73212879Y-54344213D01*
X73086216Y-54484887D01*
X72991571Y-54648817D01*
X72991568Y-54648824D01*
X72955722Y-54759148D01*
X72933076Y-54828846D01*
X72913290Y-55017102D01*
X65953648Y-55017102D01*
X65973174Y-54957006D01*
X65992960Y-54768750D01*
X65973174Y-54580494D01*
X65914679Y-54400466D01*
X65820033Y-54236534D01*
X65693371Y-54095862D01*
X65693370Y-54095861D01*
X65540234Y-53984601D01*
X65540229Y-53984598D01*
X65367307Y-53907607D01*
X65367302Y-53907605D01*
X65221501Y-53876615D01*
X65182146Y-53868250D01*
X64992854Y-53868250D01*
X64960397Y-53875148D01*
X64807697Y-53907605D01*
X64807692Y-53907607D01*
X64634770Y-53984598D01*
X64634765Y-53984601D01*
X64552229Y-54044568D01*
X64486423Y-54068048D01*
X64479344Y-54068250D01*
X27595656Y-54068250D01*
X27528617Y-54048565D01*
X27522771Y-54044568D01*
X27440234Y-53984601D01*
X27440229Y-53984598D01*
X27267307Y-53907607D01*
X27267302Y-53907605D01*
X27121501Y-53876615D01*
X27082146Y-53868250D01*
X26892854Y-53868250D01*
X26860397Y-53875148D01*
X26707697Y-53907605D01*
X26707692Y-53907607D01*
X26534770Y-53984598D01*
X26534765Y-53984601D01*
X26452229Y-54044568D01*
X26386423Y-54068048D01*
X26379344Y-54068250D01*
X24154019Y-54068250D01*
X24086980Y-54048565D01*
X24066338Y-54031931D01*
X23755569Y-53721162D01*
X23722084Y-53659839D01*
X23719250Y-53633481D01*
X23719250Y-37843408D01*
X61065193Y-37843408D01*
X61084979Y-38031664D01*
X61084980Y-38031667D01*
X61143471Y-38211685D01*
X61143474Y-38211692D01*
X61238120Y-38375624D01*
X61280149Y-38422301D01*
X61310379Y-38485292D01*
X61312000Y-38505274D01*
X61312000Y-41231571D01*
X61311469Y-41239669D01*
X61308910Y-41259109D01*
X61306818Y-41274999D01*
X61306818Y-41275000D01*
X61312000Y-41314360D01*
X61327455Y-41431760D01*
X61327456Y-41431762D01*
X61387964Y-41577841D01*
X61484218Y-41703282D01*
X61512495Y-41724980D01*
X61518585Y-41730320D01*
X61648597Y-41860332D01*
X61764471Y-41976206D01*
X61797956Y-42037529D01*
X61800790Y-42063887D01*
X61800790Y-42068747D01*
X61800790Y-42068750D01*
X61820576Y-42257006D01*
X61820577Y-42257009D01*
X61879068Y-42437027D01*
X61879071Y-42437034D01*
X61973717Y-42600966D01*
X62100379Y-42741638D01*
X62253515Y-42852898D01*
X62253520Y-42852901D01*
X62426442Y-42929892D01*
X62426447Y-42929894D01*
X62611604Y-42969250D01*
X62706153Y-42969250D01*
X62773192Y-42988935D01*
X62793834Y-43005569D01*
X63838419Y-44050154D01*
X63843770Y-44056255D01*
X63865468Y-44084532D01*
X63990909Y-44180786D01*
X64136988Y-44241294D01*
X64215369Y-44251613D01*
X64293749Y-44261932D01*
X64293750Y-44261932D01*
X64329079Y-44257280D01*
X64337178Y-44256750D01*
X72187822Y-44256750D01*
X72195920Y-44257280D01*
X72231250Y-44261932D01*
X72231251Y-44261932D01*
X72283504Y-44255052D01*
X72388012Y-44241294D01*
X72534091Y-44180786D01*
X72659532Y-44084532D01*
X72681234Y-44056248D01*
X72686560Y-44050173D01*
X74723925Y-42012809D01*
X74730015Y-42007468D01*
X74758291Y-41985773D01*
X74824201Y-41899878D01*
X74854545Y-41860332D01*
X74915053Y-41714253D01*
X74935691Y-41557491D01*
X74931039Y-41522160D01*
X74930509Y-41514062D01*
X74930509Y-41436137D01*
X74950194Y-41369098D01*
X74962359Y-41353165D01*
X74990329Y-41322101D01*
X75062542Y-41241901D01*
X75157188Y-41077969D01*
X75215683Y-40897941D01*
X75235469Y-40709685D01*
X75215683Y-40521429D01*
X75157188Y-40341401D01*
X75062542Y-40177469D01*
X74935880Y-40036797D01*
X74935879Y-40036796D01*
X74782743Y-39925536D01*
X74782738Y-39925533D01*
X74609816Y-39848542D01*
X74609811Y-39848540D01*
X74464010Y-39817550D01*
X74424655Y-39809185D01*
X74235363Y-39809185D01*
X74202906Y-39816083D01*
X74050206Y-39848540D01*
X74050201Y-39848542D01*
X73877279Y-39925533D01*
X73877274Y-39925536D01*
X73724138Y-40036796D01*
X73597475Y-40177470D01*
X73502830Y-40341400D01*
X73502827Y-40341407D01*
X73444336Y-40521425D01*
X73444335Y-40521429D01*
X73424549Y-40709685D01*
X73444335Y-40897941D01*
X73444336Y-40897944D01*
X73502827Y-41077962D01*
X73502830Y-41077969D01*
X73597475Y-41241900D01*
X73612970Y-41259109D01*
X73643200Y-41322101D01*
X73634574Y-41391436D01*
X73608501Y-41429762D01*
X72018834Y-43019431D01*
X71957511Y-43052916D01*
X71931153Y-43055750D01*
X64593847Y-43055750D01*
X64526808Y-43036065D01*
X64506166Y-43019431D01*
X63648029Y-42161294D01*
X63614544Y-42099971D01*
X63611710Y-42073613D01*
X63611710Y-42068752D01*
X63611710Y-42068750D01*
X63591924Y-41880494D01*
X63533429Y-41700466D01*
X63438783Y-41536534D01*
X63312121Y-41395862D01*
X63312120Y-41395861D01*
X63158984Y-41284601D01*
X63158979Y-41284598D01*
X62986057Y-41207607D01*
X62986052Y-41207605D01*
X62840251Y-41176615D01*
X62800896Y-41168250D01*
X62800895Y-41168250D01*
X62706347Y-41168250D01*
X62639308Y-41148565D01*
X62618666Y-41131931D01*
X62549319Y-41062584D01*
X62515834Y-41001261D01*
X62513000Y-40974903D01*
X62513000Y-38625629D01*
X62532685Y-38558590D01*
X62564117Y-38525309D01*
X62576524Y-38516296D01*
X62703186Y-38375624D01*
X62797832Y-38211692D01*
X62856327Y-38031664D01*
X62876113Y-37843408D01*
X62856327Y-37655152D01*
X62797832Y-37475124D01*
X62703186Y-37311192D01*
X62576524Y-37170520D01*
X62576523Y-37170519D01*
X62423387Y-37059259D01*
X62423382Y-37059256D01*
X62250460Y-36982265D01*
X62250455Y-36982263D01*
X62104654Y-36951273D01*
X62065299Y-36942908D01*
X61876007Y-36942908D01*
X61843550Y-36949806D01*
X61690850Y-36982263D01*
X61690845Y-36982265D01*
X61517923Y-37059256D01*
X61517918Y-37059259D01*
X61364782Y-37170519D01*
X61238119Y-37311193D01*
X61143474Y-37475123D01*
X61143471Y-37475130D01*
X61084980Y-37655148D01*
X61084979Y-37655152D01*
X61065193Y-37843408D01*
X23719250Y-37843408D01*
X23719250Y-29860269D01*
X23738935Y-29793230D01*
X23755569Y-29772588D01*
X26991338Y-26536819D01*
X27052661Y-26503334D01*
X27079019Y-26500500D01*
X38691844Y-26500500D01*
X38758883Y-26520185D01*
X38764729Y-26524182D01*
X38847265Y-26584148D01*
X38847270Y-26584151D01*
X39020192Y-26661142D01*
X39020197Y-26661144D01*
X39205354Y-26700500D01*
X39205355Y-26700500D01*
X39394644Y-26700500D01*
X39394646Y-26700500D01*
X39579803Y-26661144D01*
X39752730Y-26584151D01*
X39905871Y-26472888D01*
X40032533Y-26332216D01*
X40127179Y-26168284D01*
X40185674Y-25988256D01*
X40205460Y-25800000D01*
X40185674Y-25611744D01*
X40127179Y-25431716D01*
X40032533Y-25267784D01*
X39905871Y-25127112D01*
X39905870Y-25127111D01*
X39752734Y-25015851D01*
X39752729Y-25015848D01*
X39579807Y-24938857D01*
X39579802Y-24938855D01*
X39434001Y-24907865D01*
X39394646Y-24899500D01*
X39205354Y-24899500D01*
X39172897Y-24906398D01*
X39020197Y-24938855D01*
X39020192Y-24938857D01*
X38847270Y-25015848D01*
X38847265Y-25015851D01*
X38764729Y-25075818D01*
X38698923Y-25099298D01*
X38691844Y-25099500D01*
X26760548Y-25099500D01*
X26756803Y-25099387D01*
X26694896Y-25095642D01*
X26694889Y-25095642D01*
X26633886Y-25106821D01*
X26630185Y-25107384D01*
X26568628Y-25114859D01*
X26568621Y-25114861D01*
X26559147Y-25118454D01*
X26537549Y-25124475D01*
X26527569Y-25126304D01*
X26471019Y-25151755D01*
X26467560Y-25153188D01*
X26409571Y-25175181D01*
X26409566Y-25175184D01*
X26401222Y-25180943D01*
X26381687Y-25191961D01*
X26372447Y-25196120D01*
X26372445Y-25196121D01*
X26323636Y-25234359D01*
X26320622Y-25236576D01*
X26269570Y-25271817D01*
X26269568Y-25271818D01*
X26228442Y-25318240D01*
X26225875Y-25320966D01*
X22539716Y-29007125D01*
X22536990Y-29009692D01*
X22490568Y-29050818D01*
X22455336Y-29101859D01*
X22453118Y-29104874D01*
X22414874Y-29153689D01*
X22414869Y-29153698D01*
X22410710Y-29162938D01*
X22399692Y-29182473D01*
X22393937Y-29190811D01*
X22393933Y-29190817D01*
X22393932Y-29190820D01*
X22393930Y-29190824D01*
X22393929Y-29190827D01*
X22371939Y-29248805D01*
X22370507Y-29252263D01*
X22345055Y-29308818D01*
X22343227Y-29318792D01*
X22337203Y-29340403D01*
X22333610Y-29349877D01*
X22333609Y-29349878D01*
X22326134Y-29411435D01*
X22325571Y-29415136D01*
X22314392Y-29476140D01*
X22314392Y-29476145D01*
X22318137Y-29538052D01*
X22318250Y-29541797D01*
X22318250Y-53951951D01*
X22318137Y-53955696D01*
X22314392Y-54017604D01*
X22314392Y-54017606D01*
X22316219Y-54027575D01*
X22318250Y-54049927D01*
X22318250Y-73001951D01*
X22318137Y-73005696D01*
X22314392Y-73067603D01*
X22314392Y-73067605D01*
X15800500Y-73067605D01*
X15800500Y-22705713D01*
X45480000Y-22705713D01*
X45495418Y-22857338D01*
X45556299Y-23051381D01*
X45556304Y-23051391D01*
X45655005Y-23229215D01*
X45655005Y-23229216D01*
X45787478Y-23383530D01*
X45787479Y-23383531D01*
X45948304Y-23508018D01*
X46130907Y-23597589D01*
X46230000Y-23623244D01*
X46230000Y-22821110D01*
X46254457Y-22860610D01*
X46343962Y-22928201D01*
X46451840Y-22958895D01*
X46563521Y-22948546D01*
X46663922Y-22898552D01*
X46730000Y-22826069D01*
X46730000Y-23628365D01*
X46731944Y-23628069D01*
X46731945Y-23628069D01*
X46922660Y-23557436D01*
X46922664Y-23557434D01*
X47095267Y-23449850D01*
X47242668Y-23309735D01*
X47242669Y-23309733D01*
X47358856Y-23142804D01*
X47439059Y-22955907D01*
X47480000Y-22756690D01*
X47480000Y-22205384D01*
X47499685Y-22138345D01*
X47552489Y-22092590D01*
X47621647Y-22082646D01*
X47651454Y-22090823D01*
X47759764Y-22135687D01*
X47872280Y-22150500D01*
X47872287Y-22150500D01*
X47947713Y-22150500D01*
X47947720Y-22150500D01*
X48060236Y-22135687D01*
X48200233Y-22077698D01*
X48320451Y-21985451D01*
X48412698Y-21865233D01*
X48470687Y-21725236D01*
X48490466Y-21575000D01*
X53109534Y-21575000D01*
X53129312Y-21725234D01*
X53129313Y-21725236D01*
X53165710Y-21813107D01*
X53187302Y-21865233D01*
X53279549Y-21985451D01*
X53399767Y-22077698D01*
X53539764Y-22135687D01*
X53652280Y-22150500D01*
X53652287Y-22150500D01*
X53727713Y-22150500D01*
X53727720Y-22150500D01*
X53840236Y-22135687D01*
X53948547Y-22090823D01*
X54018017Y-22083354D01*
X54080496Y-22114629D01*
X54116148Y-22174718D01*
X54120000Y-22205384D01*
X54120000Y-22705713D01*
X54135418Y-22857338D01*
X54196299Y-23051381D01*
X54196304Y-23051391D01*
X54295005Y-23229215D01*
X54295005Y-23229216D01*
X54427478Y-23383530D01*
X54427479Y-23383531D01*
X54588304Y-23508018D01*
X54770907Y-23597589D01*
X54870000Y-23623244D01*
X54870000Y-22821110D01*
X54894457Y-22860610D01*
X54983962Y-22928201D01*
X55091840Y-22958895D01*
X55203521Y-22948546D01*
X55303922Y-22898552D01*
X55370000Y-22826069D01*
X55370000Y-23628366D01*
X55371944Y-23628069D01*
X55371945Y-23628069D01*
X55562660Y-23557436D01*
X55562664Y-23557434D01*
X55735267Y-23449850D01*
X55882668Y-23309735D01*
X55882669Y-23309733D01*
X55998856Y-23142804D01*
X56079059Y-22955907D01*
X56120000Y-22756690D01*
X56120000Y-22355000D01*
X55420000Y-22355000D01*
X55420000Y-21855000D01*
X56120000Y-21855000D01*
X56120000Y-21504286D01*
X56104581Y-21352661D01*
X56043700Y-21158618D01*
X56043695Y-21158608D01*
X55944994Y-20980784D01*
X55944994Y-20980783D01*
X55812521Y-20826469D01*
X55812520Y-20826468D01*
X55651695Y-20701981D01*
X55469093Y-20612411D01*
X55370000Y-20586753D01*
X55370000Y-21388889D01*
X55345543Y-21349390D01*
X55256038Y-21281799D01*
X55148160Y-21251105D01*
X55036479Y-21261454D01*
X54936078Y-21311448D01*
X54870000Y-21383930D01*
X54870000Y-20581633D01*
X54868053Y-20581931D01*
X54868047Y-20581933D01*
X54677342Y-20652562D01*
X54677335Y-20652565D01*
X54504732Y-20760149D01*
X54357331Y-20900264D01*
X54357330Y-20900266D01*
X54241142Y-21067197D01*
X54241140Y-21067200D01*
X54237760Y-21075078D01*
X54193232Y-21128921D01*
X54126663Y-21150142D01*
X54059189Y-21132005D01*
X54048332Y-21124556D01*
X53980233Y-21072302D01*
X53980232Y-21072301D01*
X53980230Y-21072300D01*
X53889731Y-21034814D01*
X53840236Y-21014313D01*
X53826171Y-21012461D01*
X53727727Y-20999500D01*
X53727720Y-20999500D01*
X53652280Y-20999500D01*
X53652272Y-20999500D01*
X53539764Y-21014313D01*
X53539763Y-21014313D01*
X53399770Y-21072300D01*
X53399767Y-21072301D01*
X53399767Y-21072302D01*
X53279549Y-21164549D01*
X53189580Y-21281799D01*
X53187300Y-21284770D01*
X53129313Y-21424763D01*
X53129312Y-21424765D01*
X53109534Y-21574999D01*
X53109534Y-21575000D01*
X48490466Y-21575000D01*
X48470687Y-21424764D01*
X48412698Y-21284767D01*
X48320451Y-21164549D01*
X48200233Y-21072302D01*
X48200229Y-21072300D01*
X48136801Y-21046027D01*
X48060236Y-21014313D01*
X48046171Y-21012461D01*
X47947727Y-20999500D01*
X47947720Y-20999500D01*
X47872280Y-20999500D01*
X47872272Y-20999500D01*
X47759764Y-21014313D01*
X47759763Y-21014313D01*
X47619769Y-21072300D01*
X47597821Y-21089142D01*
X47548743Y-21126800D01*
X47483575Y-21151994D01*
X47415131Y-21137956D01*
X47365141Y-21089142D01*
X47364839Y-21088602D01*
X47304994Y-20980784D01*
X47304994Y-20980783D01*
X47172521Y-20826469D01*
X47172520Y-20826468D01*
X47011695Y-20701981D01*
X46829093Y-20612411D01*
X46730000Y-20586753D01*
X46730000Y-21388889D01*
X46705543Y-21349390D01*
X46616038Y-21281799D01*
X46508160Y-21251105D01*
X46396479Y-21261454D01*
X46296078Y-21311448D01*
X46230000Y-21383930D01*
X46230000Y-20581633D01*
X46228053Y-20581931D01*
X46228047Y-20581933D01*
X46037342Y-20652562D01*
X46037335Y-20652565D01*
X45864732Y-20760149D01*
X45717331Y-20900264D01*
X45717330Y-20900266D01*
X45601143Y-21067195D01*
X45520940Y-21254092D01*
X45480000Y-21453309D01*
X45480000Y-21855000D01*
X46180000Y-21855000D01*
X46180000Y-22355000D01*
X45480000Y-22355000D01*
X45480000Y-22705713D01*
X15800500Y-22705713D01*
X15800500Y-19875373D01*
X17545723Y-19875373D01*
X17575881Y-20175160D01*
X17575882Y-20175162D01*
X17645728Y-20468252D01*
X17645733Y-20468266D01*
X17754020Y-20749427D01*
X17754024Y-20749436D01*
X17898825Y-21013665D01*
X17898829Y-21013671D01*
X17990403Y-21137956D01*
X18077554Y-21256238D01*
X18077561Y-21256245D01*
X18287019Y-21472823D01*
X18523478Y-21659553D01*
X18523480Y-21659554D01*
X18523485Y-21659558D01*
X18782730Y-21813109D01*
X19060128Y-21930736D01*
X19350729Y-22010340D01*
X19649347Y-22050500D01*
X19649351Y-22050500D01*
X19875252Y-22050500D01*
X20039164Y-22039526D01*
X20100634Y-22035412D01*
X20395903Y-21975396D01*
X20680537Y-21876560D01*
X20949459Y-21740668D01*
X21197869Y-21570144D01*
X21421333Y-21368032D01*
X21615865Y-21137939D01*
X21777993Y-20883970D01*
X21904823Y-20610658D01*
X21994093Y-20322879D01*
X22044209Y-20025770D01*
X22049237Y-19875373D01*
X79545723Y-19875373D01*
X79575881Y-20175160D01*
X79575882Y-20175162D01*
X79645728Y-20468252D01*
X79645733Y-20468266D01*
X79754020Y-20749427D01*
X79754024Y-20749436D01*
X79898825Y-21013665D01*
X79898829Y-21013671D01*
X79990403Y-21137956D01*
X80077554Y-21256238D01*
X80077561Y-21256245D01*
X80287019Y-21472823D01*
X80523478Y-21659553D01*
X80523480Y-21659554D01*
X80523485Y-21659558D01*
X80782730Y-21813109D01*
X81060128Y-21930736D01*
X81350729Y-22010340D01*
X81649347Y-22050500D01*
X81649351Y-22050500D01*
X81875252Y-22050500D01*
X82039164Y-22039526D01*
X82100634Y-22035412D01*
X82395903Y-21975396D01*
X82680537Y-21876560D01*
X82949459Y-21740668D01*
X83197869Y-21570144D01*
X83421333Y-21368032D01*
X83615865Y-21137939D01*
X83777993Y-20883970D01*
X83904823Y-20610658D01*
X83994093Y-20322879D01*
X84044209Y-20025770D01*
X84054277Y-19724631D01*
X84024118Y-19424838D01*
X83954269Y-19131739D01*
X83845977Y-18850566D01*
X83701175Y-18586335D01*
X83522446Y-18343762D01*
X83312980Y-18127176D01*
X83189742Y-18029856D01*
X83076521Y-17940446D01*
X83076517Y-17940443D01*
X83076515Y-17940442D01*
X82817270Y-17786891D01*
X82539872Y-17669264D01*
X82539863Y-17669261D01*
X82249272Y-17589660D01*
X82134954Y-17574286D01*
X81950653Y-17549500D01*
X81724756Y-17549500D01*
X81724748Y-17549500D01*
X81499368Y-17564587D01*
X81499359Y-17564589D01*
X81204094Y-17624604D01*
X80919464Y-17723439D01*
X80919459Y-17723441D01*
X80650546Y-17859328D01*
X80402125Y-18029860D01*
X80178665Y-18231969D01*
X79984132Y-18462064D01*
X79822006Y-18716030D01*
X79822005Y-18716032D01*
X79711795Y-18953531D01*
X79695177Y-18989342D01*
X79695176Y-18989346D01*
X79605907Y-19277118D01*
X79555791Y-19574230D01*
X79545723Y-19875373D01*
X22049237Y-19875373D01*
X22054277Y-19724631D01*
X22024118Y-19424838D01*
X21954269Y-19131739D01*
X21845977Y-18850566D01*
X21701175Y-18586335D01*
X21522446Y-18343762D01*
X21456634Y-18275713D01*
X45480000Y-18275713D01*
X45495418Y-18427338D01*
X45556299Y-18621381D01*
X45556304Y-18621391D01*
X45655005Y-18799215D01*
X45655005Y-18799216D01*
X45787478Y-18953530D01*
X45787479Y-18953531D01*
X45948304Y-19078018D01*
X46130907Y-19167589D01*
X46230000Y-19193244D01*
X46230000Y-18391110D01*
X46254457Y-18430610D01*
X46343962Y-18498201D01*
X46451840Y-18528895D01*
X46563521Y-18518546D01*
X46663922Y-18468552D01*
X46730000Y-18396069D01*
X46730000Y-19198366D01*
X46731944Y-19198069D01*
X46731945Y-19198069D01*
X46922660Y-19127436D01*
X46922664Y-19127434D01*
X47095267Y-19019850D01*
X47242668Y-18879735D01*
X47242669Y-18879733D01*
X47358856Y-18712804D01*
X47439059Y-18525907D01*
X47480000Y-18326690D01*
X47480000Y-18275713D01*
X54120000Y-18275713D01*
X54135418Y-18427338D01*
X54196299Y-18621381D01*
X54196304Y-18621391D01*
X54295005Y-18799215D01*
X54295005Y-18799216D01*
X54427478Y-18953530D01*
X54427479Y-18953531D01*
X54588304Y-19078018D01*
X54770907Y-19167589D01*
X54870000Y-19193244D01*
X54870000Y-18391110D01*
X54894457Y-18430610D01*
X54983962Y-18498201D01*
X55091840Y-18528895D01*
X55203521Y-18518546D01*
X55303922Y-18468552D01*
X55370000Y-18396069D01*
X55370000Y-19198365D01*
X55371944Y-19198069D01*
X55371945Y-19198069D01*
X55562660Y-19127436D01*
X55562664Y-19127434D01*
X55735267Y-19019850D01*
X55882668Y-18879735D01*
X55882669Y-18879733D01*
X55998856Y-18712804D01*
X56079059Y-18525907D01*
X56120000Y-18326690D01*
X56120000Y-18175000D01*
X55420000Y-18175000D01*
X55420000Y-17675000D01*
X56120000Y-17675000D01*
X56120000Y-17574286D01*
X56104581Y-17422661D01*
X56043700Y-17228618D01*
X56043695Y-17228608D01*
X55944994Y-17050784D01*
X55944994Y-17050783D01*
X55812521Y-16896469D01*
X55812520Y-16896468D01*
X55651695Y-16771981D01*
X55469093Y-16682411D01*
X55370000Y-16656753D01*
X55370000Y-17458889D01*
X55345543Y-17419390D01*
X55256038Y-17351799D01*
X55148160Y-17321105D01*
X55036479Y-17331454D01*
X54936078Y-17381448D01*
X54870000Y-17453930D01*
X54870000Y-16651633D01*
X54868053Y-16651931D01*
X54868047Y-16651933D01*
X54677342Y-16722562D01*
X54677335Y-16722565D01*
X54504732Y-16830149D01*
X54357331Y-16970264D01*
X54357330Y-16970266D01*
X54241143Y-17137195D01*
X54160940Y-17324092D01*
X54120000Y-17523309D01*
X54120000Y-17675000D01*
X54820000Y-17675000D01*
X54820000Y-18175000D01*
X54120000Y-18175000D01*
X54120000Y-18275713D01*
X47480000Y-18275713D01*
X47480000Y-18175000D01*
X46780000Y-18175000D01*
X46780000Y-17675000D01*
X47480000Y-17675000D01*
X47480000Y-17574286D01*
X47464581Y-17422661D01*
X47403700Y-17228618D01*
X47403695Y-17228608D01*
X47304994Y-17050784D01*
X47304994Y-17050783D01*
X47172521Y-16896469D01*
X47172520Y-16896468D01*
X47011695Y-16771981D01*
X46829093Y-16682411D01*
X46730000Y-16656753D01*
X46730000Y-17458889D01*
X46705543Y-17419390D01*
X46616038Y-17351799D01*
X46508160Y-17321105D01*
X46396479Y-17331454D01*
X46296078Y-17381448D01*
X46230000Y-17453930D01*
X46230000Y-16651633D01*
X46228053Y-16651931D01*
X46228047Y-16651933D01*
X46037342Y-16722562D01*
X46037335Y-16722565D01*
X45864732Y-16830149D01*
X45717331Y-16970264D01*
X45717330Y-16970266D01*
X45601143Y-17137195D01*
X45520940Y-17324092D01*
X45480000Y-17523309D01*
X45480000Y-17675000D01*
X46180000Y-17675000D01*
X46180000Y-18175000D01*
X45480000Y-18175000D01*
X45480000Y-18275713D01*
X21456634Y-18275713D01*
X21312980Y-18127176D01*
X21189742Y-18029856D01*
X21076521Y-17940446D01*
X21076517Y-17940443D01*
X21076515Y-17940442D01*
X20817270Y-17786891D01*
X20539872Y-17669264D01*
X20539863Y-17669261D01*
X20249272Y-17589660D01*
X20134954Y-17574286D01*
X19950653Y-17549500D01*
X19724756Y-17549500D01*
X19724748Y-17549500D01*
X19499368Y-17564587D01*
X19499359Y-17564589D01*
X19204094Y-17624604D01*
X18919464Y-17723439D01*
X18919459Y-17723441D01*
X18650546Y-17859328D01*
X18402125Y-18029860D01*
X18178665Y-18231969D01*
X17984132Y-18462064D01*
X17822006Y-18716030D01*
X17822005Y-18716032D01*
X17711795Y-18953531D01*
X17695177Y-18989342D01*
X17695176Y-18989346D01*
X17605907Y-19277118D01*
X17555791Y-19574230D01*
X17545723Y-19875373D01*
X15800500Y-19875373D01*
X15800500Y-17802035D01*
X15800633Y-17797980D01*
X15802393Y-17771103D01*
X15805989Y-17716244D01*
X15818986Y-17534536D01*
X15820014Y-17526903D01*
X15843153Y-17410579D01*
X15844118Y-17406141D01*
X15874533Y-17266323D01*
X15876392Y-17259625D01*
X15916815Y-17140543D01*
X15966159Y-17008251D01*
X15968633Y-17002520D01*
X16025583Y-16887036D01*
X16092179Y-16765076D01*
X16095019Y-16760384D01*
X16166563Y-16653311D01*
X16168428Y-16650676D01*
X16250291Y-16541321D01*
X16253244Y-16537678D01*
X16338503Y-16440459D01*
X16341198Y-16437581D01*
X16437581Y-16341198D01*
X16440459Y-16338503D01*
X16537678Y-16253244D01*
X16541321Y-16250291D01*
X16650676Y-16168428D01*
X16653311Y-16166563D01*
X16760384Y-16095019D01*
X16765076Y-16092179D01*
X16887036Y-16025583D01*
X17002520Y-15968633D01*
X17008251Y-15966159D01*
X17140543Y-15916815D01*
X17259625Y-15876392D01*
X17266323Y-15874533D01*
X17410579Y-15843153D01*
X17416728Y-15841929D01*
X17526903Y-15820014D01*
X17534536Y-15818986D01*
X17716244Y-15805989D01*
X17769211Y-15802517D01*
X17797981Y-15800633D01*
X17802036Y-15800500D01*
X83797964Y-15800500D01*
X83802019Y-15800633D01*
G37*
G04 #@! TD.AperFunction*
M02*
