G04 #@! TF.GenerationSoftware,KiCad,Pcbnew,7.0.9*
G04 #@! TF.CreationDate,2023-11-15T15:13:25+00:00*
G04 #@! TF.ProjectId,analog,616e616c-6f67-42e6-9b69-6361645f7063,1*
G04 #@! TF.SameCoordinates,Original*
G04 #@! TF.FileFunction,Copper,L2,Bot*
G04 #@! TF.FilePolarity,Positive*
%FSLAX46Y46*%
G04 Gerber Fmt 4.6, Leading zero omitted, Abs format (unit mm)*
G04 Created by KiCad (PCBNEW 7.0.9) date 2023-11-15 15:13:25*
%MOMM*%
%LPD*%
G01*
G04 APERTURE LIST*
G04 Aperture macros list*
%AMRoundRect*
0 Rectangle with rounded corners*
0 $1 Rounding radius*
0 $2 $3 $4 $5 $6 $7 $8 $9 X,Y pos of 4 corners*
0 Add a 4 corners polygon primitive as box body*
4,1,4,$2,$3,$4,$5,$6,$7,$8,$9,$2,$3,0*
0 Add four circle primitives for the rounded corners*
1,1,$1+$1,$2,$3*
1,1,$1+$1,$4,$5*
1,1,$1+$1,$6,$7*
1,1,$1+$1,$8,$9*
0 Add four rect primitives between the rounded corners*
20,1,$1+$1,$2,$3,$4,$5,0*
20,1,$1+$1,$4,$5,$6,$7,0*
20,1,$1+$1,$6,$7,$8,$9,0*
20,1,$1+$1,$8,$9,$2,$3,0*%
%AMFreePoly0*
4,1,18,-0.410000,0.593000,-0.403758,0.624380,-0.385983,0.650983,-0.359380,0.668758,-0.328000,0.675000,0.328000,0.675000,0.359380,0.668758,0.385983,0.650983,0.403758,0.624380,0.410000,0.593000,0.410000,-0.593000,0.403758,-0.624380,0.385983,-0.650983,0.359380,-0.668758,0.328000,-0.675000,0.000000,-0.675000,-0.410000,-0.265000,-0.410000,0.593000,-0.410000,0.593000,$1*%
G04 Aperture macros list end*
G04 #@! TA.AperFunction,SMDPad,CuDef*
%ADD10RoundRect,0.150000X0.150000X-0.587500X0.150000X0.587500X-0.150000X0.587500X-0.150000X-0.587500X0*%
G04 #@! TD*
G04 #@! TA.AperFunction,SMDPad,CuDef*
%ADD11RoundRect,0.150000X-0.150000X0.650000X-0.150000X-0.650000X0.150000X-0.650000X0.150000X0.650000X0*%
G04 #@! TD*
G04 #@! TA.AperFunction,SMDPad,CuDef*
%ADD12RoundRect,0.140000X0.170000X-0.140000X0.170000X0.140000X-0.170000X0.140000X-0.170000X-0.140000X0*%
G04 #@! TD*
G04 #@! TA.AperFunction,SMDPad,CuDef*
%ADD13RoundRect,0.250000X-0.375000X-0.625000X0.375000X-0.625000X0.375000X0.625000X-0.375000X0.625000X0*%
G04 #@! TD*
G04 #@! TA.AperFunction,SMDPad,CuDef*
%ADD14RoundRect,0.140000X-0.170000X0.140000X-0.170000X-0.140000X0.170000X-0.140000X0.170000X0.140000X0*%
G04 #@! TD*
G04 #@! TA.AperFunction,SMDPad,CuDef*
%ADD15RoundRect,0.135000X-0.135000X-0.185000X0.135000X-0.185000X0.135000X0.185000X-0.135000X0.185000X0*%
G04 #@! TD*
G04 #@! TA.AperFunction,SMDPad,CuDef*
%ADD16RoundRect,0.140000X0.140000X0.170000X-0.140000X0.170000X-0.140000X-0.170000X0.140000X-0.170000X0*%
G04 #@! TD*
G04 #@! TA.AperFunction,SMDPad,CuDef*
%ADD17R,1.500000X0.900000*%
G04 #@! TD*
G04 #@! TA.AperFunction,SMDPad,CuDef*
%ADD18RoundRect,0.225000X-0.225000X-0.250000X0.225000X-0.250000X0.225000X0.250000X-0.225000X0.250000X0*%
G04 #@! TD*
G04 #@! TA.AperFunction,SMDPad,CuDef*
%ADD19RoundRect,0.135000X0.135000X0.185000X-0.135000X0.185000X-0.135000X-0.185000X0.135000X-0.185000X0*%
G04 #@! TD*
G04 #@! TA.AperFunction,SMDPad,CuDef*
%ADD20R,1.200000X1.400000*%
G04 #@! TD*
G04 #@! TA.AperFunction,SMDPad,CuDef*
%ADD21R,0.650000X0.400000*%
G04 #@! TD*
G04 #@! TA.AperFunction,SMDPad,CuDef*
%ADD22RoundRect,0.150000X0.150000X-0.512500X0.150000X0.512500X-0.150000X0.512500X-0.150000X-0.512500X0*%
G04 #@! TD*
G04 #@! TA.AperFunction,SMDPad,CuDef*
%ADD23RoundRect,0.135000X0.185000X-0.135000X0.185000X0.135000X-0.185000X0.135000X-0.185000X-0.135000X0*%
G04 #@! TD*
G04 #@! TA.AperFunction,SMDPad,CuDef*
%ADD24RoundRect,0.150000X0.475000X0.150000X-0.475000X0.150000X-0.475000X-0.150000X0.475000X-0.150000X0*%
G04 #@! TD*
G04 #@! TA.AperFunction,SMDPad,CuDef*
%ADD25R,1.000000X1.700000*%
G04 #@! TD*
G04 #@! TA.AperFunction,SMDPad,CuDef*
%ADD26RoundRect,0.140000X-0.140000X-0.170000X0.140000X-0.170000X0.140000X0.170000X-0.140000X0.170000X0*%
G04 #@! TD*
G04 #@! TA.AperFunction,SMDPad,CuDef*
%ADD27RoundRect,0.082000X0.593000X-0.328000X0.593000X0.328000X-0.593000X0.328000X-0.593000X-0.328000X0*%
G04 #@! TD*
G04 #@! TA.AperFunction,SMDPad,CuDef*
%ADD28FreePoly0,90.000000*%
G04 #@! TD*
G04 #@! TA.AperFunction,SMDPad,CuDef*
%ADD29R,0.600000X1.450000*%
G04 #@! TD*
G04 #@! TA.AperFunction,SMDPad,CuDef*
%ADD30R,0.300000X1.450000*%
G04 #@! TD*
G04 #@! TA.AperFunction,ComponentPad*
%ADD31O,1.000000X1.600000*%
G04 #@! TD*
G04 #@! TA.AperFunction,ComponentPad*
%ADD32O,1.000000X2.100000*%
G04 #@! TD*
G04 #@! TA.AperFunction,SMDPad,CuDef*
%ADD33RoundRect,0.135000X-0.185000X0.135000X-0.185000X-0.135000X0.185000X-0.135000X0.185000X0.135000X0*%
G04 #@! TD*
G04 #@! TA.AperFunction,SMDPad,CuDef*
%ADD34RoundRect,0.050000X-0.050000X0.387500X-0.050000X-0.387500X0.050000X-0.387500X0.050000X0.387500X0*%
G04 #@! TD*
G04 #@! TA.AperFunction,SMDPad,CuDef*
%ADD35RoundRect,0.050000X-0.387500X0.050000X-0.387500X-0.050000X0.387500X-0.050000X0.387500X0.050000X0*%
G04 #@! TD*
G04 #@! TA.AperFunction,SMDPad,CuDef*
%ADD36R,3.200000X3.200000*%
G04 #@! TD*
G04 #@! TA.AperFunction,ViaPad*
%ADD37C,0.800000*%
G04 #@! TD*
G04 #@! TA.AperFunction,Conductor*
%ADD38C,0.200000*%
G04 #@! TD*
G04 #@! TA.AperFunction,Conductor*
%ADD39C,0.400000*%
G04 #@! TD*
G04 APERTURE END LIST*
D10*
X68900000Y-67325000D03*
X70800000Y-67325000D03*
X69850000Y-69200000D03*
X49850000Y-67325000D03*
X51750000Y-67325000D03*
X50800000Y-69200000D03*
X30799984Y-67325000D03*
X32699984Y-67325000D03*
X31749984Y-69200000D03*
D11*
X57626250Y-25768750D03*
X58896250Y-25768750D03*
X60166250Y-25768750D03*
X61436250Y-25768750D03*
X61436250Y-32968750D03*
X60166250Y-32968750D03*
X58896250Y-32968750D03*
X57626250Y-32968750D03*
D12*
X49579995Y-65567500D03*
X49579995Y-64607500D03*
D13*
X42400000Y-25800000D03*
X45200000Y-25800000D03*
D14*
X46505346Y-71773806D03*
X46505346Y-72733806D03*
D15*
X66049358Y-32800000D03*
X67069358Y-32800000D03*
D16*
X61285000Y-42862500D03*
X60325000Y-42862500D03*
D17*
X29300000Y-52450000D03*
X29300000Y-49150000D03*
X34200000Y-49150000D03*
X34200000Y-52450000D03*
D14*
X70056250Y-44450000D03*
X70056250Y-45410000D03*
D16*
X61285000Y-44251557D03*
X60325000Y-44251557D03*
D18*
X41768750Y-38493750D03*
X43318750Y-38493750D03*
D16*
X76670543Y-40084366D03*
X75710543Y-40084366D03*
X70056250Y-35061382D03*
X69096250Y-35061382D03*
D15*
X74290000Y-32800000D03*
X75310000Y-32800000D03*
D19*
X48928750Y-26193750D03*
X47908750Y-26193750D03*
D20*
X76143750Y-38406250D03*
X76143750Y-36206250D03*
X77843750Y-36206250D03*
X77843750Y-38406250D03*
D21*
X70800000Y-54367102D03*
X70800000Y-55017102D03*
X70800000Y-55667102D03*
X68900000Y-55667102D03*
X68900000Y-54367102D03*
D14*
X65682825Y-50320000D03*
X65682825Y-51280000D03*
D16*
X60011250Y-38298427D03*
X59051250Y-38298427D03*
D22*
X43350000Y-35662500D03*
X41450000Y-35662500D03*
X42400000Y-33387500D03*
D12*
X69850000Y-65567500D03*
X69850000Y-64607500D03*
D23*
X71070005Y-65597500D03*
X71070005Y-64577500D03*
D24*
X51975000Y-28418750D03*
X51975000Y-29368750D03*
X51975000Y-30318750D03*
X49625000Y-30318750D03*
X49625000Y-29368750D03*
X49625000Y-28418750D03*
D23*
X77540316Y-72692500D03*
X77540316Y-71672500D03*
D16*
X57632335Y-34593750D03*
X56672335Y-34593750D03*
D12*
X50800000Y-65567500D03*
X50800000Y-64607500D03*
D16*
X60011250Y-37107801D03*
X59051250Y-37107801D03*
X60011250Y-35917175D03*
X59051250Y-35917175D03*
D14*
X66456250Y-44450000D03*
X66456250Y-45410000D03*
D25*
X70700000Y-31200000D03*
X70700000Y-24900000D03*
X66900000Y-31200000D03*
X66900000Y-24900000D03*
D15*
X59815000Y-40277929D03*
X60835000Y-40277929D03*
D14*
X65555346Y-71773806D03*
X65555346Y-72733806D03*
D16*
X42402768Y-31800000D03*
X41442768Y-31800000D03*
D19*
X69310000Y-32800000D03*
X68290000Y-32800000D03*
X71550642Y-32800000D03*
X70530642Y-32800000D03*
D25*
X72900000Y-24900000D03*
X72900000Y-31200000D03*
X76700000Y-24900000D03*
X76700000Y-31200000D03*
D21*
X76356250Y-72692500D03*
X76356250Y-73342500D03*
X76356250Y-73992500D03*
X74456250Y-73992500D03*
X74456250Y-72692500D03*
D26*
X66456250Y-35061382D03*
X67416250Y-35061382D03*
X77307500Y-34131250D03*
X78267500Y-34131250D03*
D27*
X67125000Y-72592500D03*
X67125000Y-74092500D03*
X72575000Y-72592500D03*
D28*
X72575000Y-74092500D03*
D12*
X68629995Y-65567500D03*
X68629995Y-64607500D03*
D15*
X52671250Y-26193750D03*
X53691250Y-26193750D03*
D29*
X47550000Y-23020000D03*
X48350000Y-23020000D03*
D30*
X49550000Y-23020000D03*
X50550000Y-23020000D03*
X51050000Y-23020000D03*
X52050000Y-23020000D03*
D29*
X53250000Y-23020000D03*
X54050000Y-23020000D03*
X54050000Y-23020000D03*
X53250000Y-23020000D03*
D30*
X52550000Y-23020000D03*
X51550000Y-23020000D03*
X50050000Y-23020000D03*
X49050000Y-23020000D03*
D29*
X48350000Y-23020000D03*
X47550000Y-23020000D03*
D31*
X46480000Y-17925000D03*
D32*
X46480000Y-22105000D03*
D31*
X55120000Y-17925000D03*
D32*
X55120000Y-22105000D03*
D33*
X74737261Y-37957920D03*
X74737261Y-38977920D03*
D26*
X75710543Y-41274992D03*
X76670543Y-41274992D03*
X75710543Y-42490618D03*
X76670543Y-42490618D03*
D34*
X66456250Y-36250000D03*
X66856250Y-36250000D03*
X67256250Y-36250000D03*
X67656250Y-36250000D03*
X68056250Y-36250000D03*
X68456250Y-36250000D03*
X68856250Y-36250000D03*
X69256250Y-36250000D03*
X69656250Y-36250000D03*
X70056250Y-36250000D03*
X70456250Y-36250000D03*
X70856250Y-36250000D03*
X71256250Y-36250000D03*
X71656250Y-36250000D03*
D35*
X72493750Y-37087500D03*
X72493750Y-37487500D03*
X72493750Y-37887500D03*
X72493750Y-38287500D03*
X72493750Y-38687500D03*
X72493750Y-39087500D03*
X72493750Y-39487500D03*
X72493750Y-39887500D03*
X72493750Y-40287500D03*
X72493750Y-40687500D03*
X72493750Y-41087500D03*
X72493750Y-41487500D03*
X72493750Y-41887500D03*
X72493750Y-42287500D03*
D34*
X71656250Y-43125000D03*
X71256250Y-43125000D03*
X70856250Y-43125000D03*
X70456250Y-43125000D03*
X70056250Y-43125000D03*
X69656250Y-43125000D03*
X69256250Y-43125000D03*
X68856250Y-43125000D03*
X68456250Y-43125000D03*
X68056250Y-43125000D03*
X67656250Y-43125000D03*
X67256250Y-43125000D03*
X66856250Y-43125000D03*
X66456250Y-43125000D03*
D35*
X65618750Y-42287500D03*
X65618750Y-41887500D03*
X65618750Y-41487500D03*
X65618750Y-41087500D03*
X65618750Y-40687500D03*
X65618750Y-40287500D03*
X65618750Y-39887500D03*
X65618750Y-39487500D03*
X65618750Y-39087500D03*
X65618750Y-38687500D03*
X65618750Y-38287500D03*
X65618750Y-37887500D03*
X65618750Y-37487500D03*
X65618750Y-37087500D03*
D36*
X69056250Y-39687500D03*
D14*
X27780361Y-50320000D03*
X27780361Y-51280000D03*
D15*
X59815000Y-41503222D03*
X60835000Y-41503222D03*
D27*
X29025000Y-72592500D03*
X29025000Y-74092500D03*
X34475000Y-72592500D03*
D28*
X34475000Y-74092500D03*
D23*
X52020005Y-65597500D03*
X52020005Y-64577500D03*
D14*
X27455346Y-71773806D03*
X27455346Y-72733806D03*
D15*
X71910483Y-54099332D03*
X72930483Y-54099332D03*
D17*
X67400000Y-52450000D03*
X67400000Y-49150000D03*
X72300000Y-49150000D03*
X72300000Y-52450000D03*
D27*
X48075000Y-72592500D03*
X48075000Y-74092500D03*
X53525000Y-72592500D03*
D28*
X53525000Y-74092500D03*
D12*
X30529995Y-65567500D03*
X30529995Y-64607500D03*
D23*
X32970005Y-65597500D03*
X32970005Y-64577500D03*
D26*
X41452008Y-37267151D03*
X42412008Y-37267151D03*
D12*
X31750000Y-65567500D03*
X31750000Y-64607500D03*
D37*
X73818750Y-75000000D03*
X68256250Y-35061382D03*
X65087500Y-45243750D03*
X29368750Y-64293750D03*
X72231250Y-69056250D03*
X77589085Y-41274992D03*
X71437500Y-45243750D03*
X68056250Y-40687500D03*
X58737500Y-42862500D03*
X44450000Y-72231250D03*
X77787500Y-70643750D03*
X35718750Y-75000000D03*
X70056250Y-38687500D03*
X61436250Y-27781250D03*
X43337500Y-36906250D03*
X56356250Y-33337500D03*
X76234040Y-75000000D03*
X68800000Y-31200000D03*
X34200000Y-50800000D03*
X58539069Y-34726549D03*
X67468750Y-64293750D03*
X54768750Y-75000000D03*
X54768750Y-26987500D03*
X34131250Y-69056250D03*
X29368732Y-50800000D03*
X68056250Y-38687500D03*
X48418750Y-64293750D03*
X73818750Y-56356250D03*
X53181250Y-69056250D03*
X69056250Y-39687500D03*
X74800000Y-31200000D03*
X76200000Y-34131250D03*
X40162500Y-31350000D03*
X63500000Y-72231250D03*
X25400000Y-72231250D03*
X46831250Y-26987500D03*
X67468764Y-50800000D03*
X72300000Y-50800000D03*
X70056250Y-40687500D03*
X53975000Y-29368750D03*
X73818750Y-53975000D03*
X45243750Y-73025000D03*
X26987500Y-54768750D03*
X26987500Y-76200000D03*
X39300000Y-25800000D03*
X65087500Y-54768750D03*
X75406250Y-76200000D03*
X64293750Y-73025000D03*
X62706250Y-42068750D03*
X61970653Y-37843408D03*
X74330009Y-40709685D03*
X73818750Y-55017102D03*
X78581250Y-53975000D03*
D38*
X63479691Y-42287500D02*
X61515634Y-44251557D01*
D39*
X41450000Y-37265143D02*
X41452008Y-37267151D01*
D38*
X75130543Y-40694992D02*
X75710543Y-41274992D01*
X60011250Y-37107801D02*
X60011250Y-38298427D01*
X70056250Y-35061382D02*
X70056250Y-34294392D01*
X66675000Y-38100000D02*
X66675000Y-39687500D01*
X30800000Y-67325000D02*
X30800000Y-65837505D01*
D39*
X46037500Y-70643750D02*
X47625000Y-69056250D01*
D38*
X66475000Y-39887500D02*
X66675000Y-39687500D01*
D39*
X65087500Y-70643750D02*
X66675000Y-69056250D01*
X29682500Y-65567500D02*
X30529995Y-65567500D01*
D38*
X70056250Y-36250000D02*
X70056250Y-35061382D01*
D39*
X67782500Y-65567500D02*
X68629995Y-65567500D01*
D38*
X61515634Y-44251557D02*
X61285000Y-44251557D01*
X57632335Y-32974835D02*
X57626250Y-32968750D01*
X74661593Y-39887500D02*
X75130543Y-40356450D01*
X66456250Y-43125000D02*
X66456250Y-42287500D01*
D39*
X26987500Y-70643750D02*
X28575000Y-69056250D01*
D38*
X66675000Y-40481250D02*
X66675000Y-41275000D01*
D39*
X47625000Y-66675000D02*
X48732500Y-65567500D01*
D38*
X71437500Y-41275000D02*
X71437500Y-39687500D01*
X66456250Y-37087500D02*
X66675000Y-37306250D01*
X57632335Y-38582335D02*
X57632351Y-38582335D01*
X75130543Y-40356450D02*
X75130543Y-40694992D01*
D39*
X61285000Y-44561556D02*
X61285000Y-44251557D01*
D38*
X65618750Y-39887500D02*
X62790949Y-39887500D01*
X66675000Y-39687500D02*
X66675000Y-40481250D01*
X60011250Y-38612185D02*
X60011250Y-38298427D01*
X63879691Y-41887500D02*
X63479691Y-42287500D01*
D39*
X26193750Y-70643750D02*
X26987500Y-70643750D01*
D38*
X71637500Y-39887500D02*
X71437500Y-39687500D01*
X66675000Y-41275000D02*
X67468750Y-42068750D01*
X71437500Y-39687500D02*
X71437500Y-38100000D01*
X72493750Y-39887500D02*
X71637500Y-39887500D01*
X49840937Y-67315937D02*
X49850000Y-67325000D01*
D39*
X41450000Y-35662500D02*
X41450000Y-37265143D01*
X66675000Y-66675000D02*
X67782500Y-65567500D01*
D38*
X70643750Y-37306250D02*
X69850000Y-37306250D01*
X66493750Y-41887500D02*
X65618750Y-41887500D01*
X66456250Y-36250000D02*
X66456250Y-37087500D01*
X66675000Y-37306250D02*
X67468750Y-37306250D01*
X69850000Y-37306250D02*
X67468750Y-37306250D01*
X71550642Y-32800000D02*
X74290000Y-32800000D01*
X66456250Y-35061382D02*
X66456250Y-36250000D01*
X70056250Y-36250000D02*
X70056250Y-37100000D01*
X65618750Y-40287500D02*
X66481250Y-40287500D01*
D39*
X41452008Y-37267151D02*
X41452008Y-38177008D01*
D38*
X70056250Y-37100000D02*
X69850000Y-37306250D01*
X70056250Y-43125000D02*
X70056250Y-42275000D01*
X49850000Y-65837505D02*
X49579995Y-65567500D01*
X30800000Y-65837505D02*
X30529995Y-65567500D01*
X70056250Y-42275000D02*
X69850000Y-42068750D01*
X65618750Y-42287500D02*
X66456250Y-42287500D01*
X71437500Y-38100000D02*
X70643750Y-37306250D01*
X66456250Y-43125000D02*
X66456250Y-44450000D01*
X67468750Y-42068750D02*
X69850000Y-42068750D01*
D39*
X24606250Y-69056250D02*
X26193750Y-70643750D01*
D38*
X66481250Y-40287500D02*
X66675000Y-40481250D01*
D39*
X28181250Y-38493750D02*
X41768750Y-38493750D01*
D38*
X63190949Y-40287500D02*
X62790949Y-39887500D01*
X67468750Y-37306250D02*
X66675000Y-38100000D01*
D39*
X28575000Y-69056250D02*
X28575000Y-66675000D01*
X46037500Y-45243750D02*
X60602806Y-45243750D01*
D38*
X68900000Y-65837505D02*
X68629995Y-65567500D01*
D39*
X28575000Y-66675000D02*
X29682500Y-65567500D01*
D38*
X69850000Y-42068750D02*
X70643750Y-42068750D01*
X70056250Y-34294392D02*
X71550642Y-32800000D01*
X65618750Y-42287500D02*
X63479691Y-42287500D01*
X65618750Y-39887500D02*
X66475000Y-39887500D01*
X68890937Y-67315937D02*
X68900000Y-67325000D01*
D39*
X41452008Y-38177008D02*
X41768750Y-38493750D01*
D38*
X62790949Y-39887500D02*
X60011250Y-37107801D01*
D39*
X41768750Y-40975000D02*
X41768750Y-38493750D01*
D38*
X65618750Y-40287500D02*
X63190949Y-40287500D01*
X66456250Y-42287500D02*
X66675000Y-42068750D01*
D39*
X24606250Y-42068750D02*
X24606250Y-69056250D01*
D38*
X57632335Y-38582335D02*
X57632335Y-34593750D01*
X57632335Y-34593750D02*
X57632335Y-32974835D01*
X72493750Y-39887500D02*
X74661593Y-39887500D01*
D39*
X26987500Y-70643750D02*
X46037500Y-70643750D01*
X48732500Y-65567500D02*
X49579995Y-65567500D01*
D38*
X70056250Y-44450000D02*
X70056250Y-43125000D01*
D39*
X66675000Y-69056250D02*
X66675000Y-66675000D01*
D38*
X66675000Y-42068750D02*
X67468750Y-42068750D01*
X68900000Y-67325000D02*
X68900000Y-65837505D01*
D39*
X46037500Y-45243750D02*
X41768750Y-40975000D01*
D38*
X59134382Y-39489053D02*
X60011250Y-38612185D01*
X58539069Y-39489053D02*
X59134382Y-39489053D01*
X49850000Y-67325000D02*
X49850000Y-65837505D01*
X57632351Y-38582335D02*
X58539069Y-39489053D01*
X30800000Y-65576563D02*
X30790937Y-65567500D01*
D39*
X60602806Y-45243750D02*
X61285000Y-44561556D01*
D38*
X65618750Y-41887500D02*
X63879691Y-41887500D01*
X70643750Y-42068750D02*
X71437500Y-41275000D01*
D39*
X47625000Y-69056250D02*
X47625000Y-66675000D01*
X46037500Y-70643750D02*
X65087500Y-70643750D01*
D38*
X66675000Y-42068750D02*
X66493750Y-41887500D01*
D39*
X24606250Y-42068750D02*
X28181250Y-38493750D01*
D38*
X56356250Y-34277665D02*
X56356250Y-33337500D01*
X73482500Y-75000000D02*
X73818750Y-75000000D01*
X50800000Y-65567500D02*
X50539995Y-65567500D01*
D39*
X43350000Y-35662500D02*
X43350000Y-36893750D01*
D38*
X35382500Y-75000000D02*
X35718750Y-75000000D01*
D39*
X27780361Y-50320000D02*
X28888732Y-50320000D01*
D38*
X50539995Y-65567500D02*
X49579995Y-64607500D01*
X53037500Y-69200000D02*
X53181250Y-69056250D01*
X77307500Y-34131250D02*
X76200000Y-34131250D01*
X25857444Y-71773806D02*
X25400000Y-72231250D01*
X72575000Y-74092500D02*
X73482500Y-75000000D01*
X73694418Y-54099332D02*
X73818750Y-53975000D01*
D39*
X60325000Y-44251557D02*
X60126557Y-44251557D01*
D38*
X53525000Y-74092500D02*
X54432500Y-75000000D01*
D39*
X43318750Y-38493750D02*
X43318750Y-36925000D01*
D38*
X69850000Y-65567500D02*
X69589995Y-65567500D01*
D39*
X47395000Y-23020000D02*
X46480000Y-22105000D01*
D38*
X70056250Y-45410000D02*
X71271250Y-45410000D01*
X76670543Y-42490618D02*
X76670543Y-41274992D01*
X61436250Y-25768750D02*
X61436250Y-27781250D01*
X31750000Y-69200000D02*
X33987500Y-69200000D01*
X77843750Y-38911159D02*
X77843750Y-38406250D01*
X67416250Y-35061382D02*
X68256250Y-35061382D01*
X56672335Y-34593750D02*
X56356250Y-34277665D01*
D39*
X60126557Y-44251557D02*
X58737500Y-42862500D01*
D38*
X59051250Y-37107801D02*
X59051250Y-35917175D01*
D39*
X66988764Y-50320000D02*
X67468764Y-50800000D01*
D38*
X59051250Y-35238730D02*
X58539069Y-34726549D01*
D39*
X41442768Y-31800000D02*
X40612500Y-31800000D01*
D38*
X50800000Y-65567500D02*
X50800000Y-65566563D01*
X77540316Y-70890934D02*
X77787500Y-70643750D01*
X76143750Y-36206250D02*
X76143750Y-36456250D01*
X34200000Y-49150000D02*
X34200000Y-50800000D01*
X75502830Y-34131250D02*
X76200000Y-34131250D01*
X30529995Y-64607500D02*
X29682500Y-64607500D01*
X70700000Y-31200000D02*
X68800000Y-31200000D01*
X34475000Y-74092500D02*
X35382500Y-75000000D01*
X47115000Y-26987500D02*
X46831250Y-26987500D01*
X47908750Y-26193750D02*
X47115000Y-26987500D01*
X69850000Y-65567500D02*
X69850000Y-65566563D01*
X70800000Y-55667102D02*
X73129602Y-55667102D01*
X46505346Y-71773806D02*
X44907444Y-71773806D01*
X72900000Y-31200000D02*
X74800000Y-31200000D01*
D39*
X60325000Y-44251557D02*
X60325000Y-42862500D01*
D38*
X76670543Y-40084366D02*
X77843750Y-38911159D01*
X54432500Y-75000000D02*
X54768750Y-75000000D01*
X73651187Y-35982893D02*
X75502830Y-34131250D01*
D39*
X46480000Y-22105000D02*
X46480000Y-17925000D01*
D38*
X31489995Y-65567500D02*
X30529995Y-64607500D01*
X65253750Y-45410000D02*
X65087500Y-45243750D01*
X66456250Y-45410000D02*
X65253750Y-45410000D01*
D39*
X65682825Y-50320000D02*
X66988764Y-50320000D01*
D38*
X76356250Y-73992500D02*
X76356250Y-74877790D01*
X44907444Y-71773806D02*
X44450000Y-72231250D01*
D39*
X54050000Y-23020000D02*
X54205000Y-23020000D01*
D38*
X71271250Y-45410000D02*
X71437500Y-45243750D01*
D39*
X43350000Y-36893750D02*
X43337500Y-36906250D01*
D38*
X76143750Y-36456250D02*
X77843750Y-38156250D01*
X31750000Y-65567500D02*
X31489995Y-65567500D01*
X70700000Y-24900000D02*
X70700000Y-31200000D01*
X29682500Y-64607500D02*
X29368750Y-64293750D01*
X76670543Y-41274992D02*
X77589085Y-41274992D01*
X76356250Y-74877790D02*
X76234040Y-75000000D01*
X59051250Y-38298427D02*
X59051250Y-37107801D01*
X77540316Y-71672500D02*
X77540316Y-70890934D01*
X73651187Y-38495627D02*
X73651187Y-35982893D01*
X33987500Y-69200000D02*
X34131250Y-69056250D01*
X72900000Y-31200000D02*
X72900000Y-24900000D01*
X72493750Y-38687500D02*
X73459314Y-38687500D01*
X67782500Y-64607500D02*
X67468750Y-64293750D01*
D39*
X43318750Y-36925000D02*
X43337500Y-36906250D01*
D38*
X76670543Y-40084366D02*
X76670543Y-41274992D01*
D39*
X28888732Y-50320000D02*
X29368732Y-50800000D01*
D38*
X69589995Y-65567500D02*
X68629995Y-64607500D01*
D39*
X42976599Y-37267151D02*
X43337500Y-36906250D01*
D38*
X76670543Y-39959446D02*
X76837340Y-39959446D01*
X54485000Y-26987500D02*
X54768750Y-26987500D01*
X65555346Y-71773806D02*
X63957444Y-71773806D01*
X49579995Y-64607500D02*
X48732500Y-64607500D01*
D39*
X54205000Y-23020000D02*
X55120000Y-22105000D01*
D38*
X63957444Y-71773806D02*
X63500000Y-72231250D01*
X73459314Y-38687500D02*
X73651187Y-38495627D01*
D39*
X55120000Y-22105000D02*
X55120000Y-17925000D01*
D38*
X73129602Y-55667102D02*
X73818750Y-56356250D01*
X68629995Y-64607500D02*
X67782500Y-64607500D01*
X72087500Y-69200000D02*
X72231250Y-69056250D01*
X72300000Y-49150000D02*
X72300000Y-50800000D01*
X31750000Y-65567500D02*
X31750000Y-65566563D01*
X72930483Y-54099332D02*
X73694418Y-54099332D01*
X51975000Y-29368750D02*
X53975000Y-29368750D01*
D39*
X47550000Y-23020000D02*
X47395000Y-23020000D01*
D38*
X53691250Y-26193750D02*
X54485000Y-26987500D01*
X48732500Y-64607500D02*
X48418750Y-64293750D01*
X77843750Y-38156250D02*
X77843750Y-38406250D01*
D39*
X42412008Y-37267151D02*
X42976599Y-37267151D01*
X46480000Y-17925000D02*
X55120000Y-17925000D01*
D38*
X59051250Y-35917175D02*
X59051250Y-35238730D01*
X69850000Y-69200000D02*
X72087500Y-69200000D01*
X27455346Y-71773806D02*
X25857444Y-71773806D01*
D39*
X40612500Y-31800000D02*
X40162500Y-31350000D01*
X60325000Y-42862500D02*
X58737500Y-42862500D01*
D38*
X50800000Y-69200000D02*
X53037500Y-69200000D01*
X69096250Y-35061382D02*
X68256250Y-35061382D01*
D39*
X68900000Y-54367102D02*
X68498352Y-54768750D01*
X28883694Y-72733806D02*
X29025000Y-72592500D01*
X45534944Y-72733806D02*
X46505346Y-72733806D01*
X27780361Y-51280000D02*
X28130000Y-51280000D01*
X75406250Y-73642500D02*
X74456250Y-72692500D01*
X27455346Y-75732154D02*
X27455346Y-72733806D01*
X65555346Y-72733806D02*
X66983694Y-72733806D01*
X44834018Y-29368750D02*
X42400000Y-26934732D01*
X26987500Y-52072861D02*
X26987500Y-54768750D01*
X44834018Y-29368750D02*
X49625000Y-29368750D01*
X27455346Y-72733806D02*
X28883694Y-72733806D01*
X64584944Y-72733806D02*
X64293750Y-73025000D01*
X75406250Y-76200000D02*
X75406250Y-73642500D01*
X42400000Y-26934732D02*
X42400000Y-25800000D01*
X28130000Y-51280000D02*
X29300000Y-52450000D01*
X65555346Y-72733806D02*
X64584944Y-72733806D01*
X26987500Y-76200000D02*
X27455346Y-75732154D01*
X42400000Y-31802768D02*
X42402768Y-31800000D01*
X68498352Y-54768750D02*
X65087500Y-54768750D01*
X66983694Y-72733806D02*
X67125000Y-72592500D01*
X66230000Y-51280000D02*
X67400000Y-52450000D01*
X27780361Y-51280000D02*
X26987500Y-52072861D01*
X42400000Y-25800000D02*
X39300000Y-25800000D01*
X45243750Y-73025000D02*
X45534944Y-72733806D01*
X42400000Y-33387500D02*
X42400000Y-31802768D01*
X65087500Y-54768750D02*
X65682825Y-54173425D01*
X42402768Y-31800000D02*
X44834018Y-29368750D01*
X65682825Y-51280000D02*
X66230000Y-51280000D01*
X46505346Y-72733806D02*
X47933694Y-72733806D01*
X65682825Y-54173425D02*
X65682825Y-51280000D01*
X47933694Y-72733806D02*
X48075000Y-72592500D01*
D38*
X71070005Y-64577500D02*
X71070005Y-64337607D01*
X69880000Y-64577500D02*
X71070005Y-64577500D01*
X71070005Y-64337607D02*
X71907612Y-63500000D01*
X75406250Y-63500000D02*
X76993750Y-61912500D01*
X76993750Y-61912500D02*
X76993750Y-47625000D01*
X71907612Y-63500000D02*
X75406250Y-63500000D01*
X75406250Y-46037500D02*
X69056250Y-46037500D01*
X76993750Y-47625000D02*
X75406250Y-46037500D01*
X68056250Y-45037500D02*
X68056250Y-43125000D01*
X69850000Y-64607500D02*
X69880000Y-64577500D01*
X69056250Y-46037500D02*
X68056250Y-45037500D01*
X69056250Y-46831250D02*
X74612500Y-46831250D01*
X76200000Y-61118750D02*
X74612500Y-62706250D01*
X50830000Y-64577500D02*
X50800000Y-64607500D01*
X67656250Y-45431250D02*
X69056250Y-46831250D01*
X76200000Y-48418750D02*
X76200000Y-61118750D01*
X52020005Y-64577500D02*
X52020005Y-64337607D01*
X52020005Y-64337607D02*
X53651362Y-62706250D01*
X67656250Y-43125000D02*
X67656250Y-45431250D01*
X74612500Y-62706250D02*
X53651362Y-62706250D01*
X74612500Y-46831250D02*
X76200000Y-48418750D01*
X50800000Y-64607500D02*
X51990005Y-64607500D01*
X51990005Y-64607500D02*
X52020005Y-64577500D01*
X67256250Y-45825000D02*
X67256250Y-43125000D01*
X75406250Y-49212500D02*
X73818750Y-47625000D01*
X31750000Y-64607500D02*
X32940005Y-64607500D01*
X32970005Y-64337607D02*
X35395112Y-61912500D01*
X35395112Y-61912500D02*
X73818750Y-61912500D01*
X32940005Y-64607500D02*
X32970005Y-64577500D01*
X75406250Y-60325000D02*
X75406250Y-49212500D01*
X32700112Y-64607500D02*
X32730112Y-64577500D01*
X73818750Y-47625000D02*
X69056250Y-47625000D01*
X32970005Y-64577500D02*
X32970005Y-64337607D01*
X73818750Y-61912500D02*
X75406250Y-60325000D01*
X69056250Y-47625000D02*
X67256250Y-45825000D01*
X65618750Y-39487500D02*
X63614745Y-39487500D01*
X63614745Y-39487500D02*
X61970653Y-37843408D01*
X60044420Y-35917175D02*
X60011250Y-35917175D01*
X61970653Y-37843408D02*
X60044420Y-35917175D01*
X74330009Y-40709685D02*
X73907824Y-40287500D01*
X74330009Y-40709685D02*
X74565236Y-40709685D01*
X75130543Y-41910618D02*
X75710543Y-42490618D01*
X73907824Y-40287500D02*
X72493750Y-40287500D01*
X63287500Y-41487500D02*
X62706250Y-42068750D01*
X74565236Y-40709685D02*
X75130543Y-41274992D01*
X75130543Y-41274992D02*
X75130543Y-41910618D01*
X65618750Y-41487500D02*
X63287500Y-41487500D01*
X61285000Y-42862500D02*
X61912500Y-42862500D01*
X61912500Y-42862500D02*
X62706250Y-42068750D01*
X74051187Y-38661313D02*
X73625000Y-39087500D01*
X75406250Y-34925000D02*
X74051187Y-36280063D01*
X76993750Y-34925000D02*
X75406250Y-34925000D01*
X73625000Y-39087500D02*
X72493750Y-39087500D01*
X77843750Y-36206250D02*
X78267500Y-35782500D01*
X74051187Y-36280063D02*
X74051187Y-38661313D01*
X77843750Y-35775000D02*
X76993750Y-34925000D01*
X78267500Y-35782500D02*
X78267500Y-34131250D01*
X77843750Y-36206250D02*
X77843750Y-35775000D01*
X75710543Y-38839457D02*
X76143750Y-38406250D01*
X74737261Y-37957920D02*
X75695420Y-37957920D01*
X75710543Y-40084366D02*
X75710543Y-38839457D01*
X75695420Y-37957920D02*
X76143750Y-38406250D01*
X68951648Y-55667102D02*
X69850000Y-54768750D01*
X69850000Y-53975000D02*
X71375000Y-52450000D01*
X71375000Y-52450000D02*
X72300000Y-52450000D01*
X69850000Y-54768750D02*
X69850000Y-53975000D01*
X68900000Y-55667102D02*
X68951648Y-55667102D01*
X49150000Y-52450000D02*
X52450000Y-49150000D01*
X34200000Y-52450000D02*
X49150000Y-52450000D01*
X52450000Y-49150000D02*
X67400000Y-49150000D01*
D39*
X48350000Y-24250000D02*
X46800000Y-25800000D01*
X52196093Y-21196288D02*
X49385950Y-21196288D01*
X53250000Y-23020000D02*
X53250000Y-22250195D01*
X53250000Y-22250195D02*
X52196093Y-21196288D01*
X48350000Y-22232238D02*
X48350000Y-23020000D01*
X48350000Y-23020000D02*
X48350000Y-24250000D01*
X49385950Y-21196288D02*
X48350000Y-22232238D01*
X46800000Y-25800000D02*
X45200000Y-25800000D01*
D38*
X48928750Y-26193750D02*
X49550000Y-25572500D01*
X49550000Y-25572500D02*
X49550000Y-23020000D01*
X51662500Y-28418750D02*
X51025000Y-27781250D01*
X51243816Y-21872557D02*
X50813053Y-21872557D01*
X51025000Y-24516226D02*
X51025000Y-27781250D01*
X59815000Y-40277929D02*
X59334999Y-40277929D01*
X51025000Y-27781250D02*
X51025000Y-38006800D01*
X51550000Y-23991226D02*
X51025000Y-24516226D01*
X59334999Y-40277929D02*
X58947352Y-40665576D01*
X51550000Y-23020000D02*
X51550000Y-22178741D01*
X50813053Y-21872557D02*
X50550000Y-22135610D01*
X51975000Y-28418750D02*
X51662500Y-28418750D01*
X51025000Y-38006800D02*
X53683776Y-40665576D01*
X51550000Y-22178741D02*
X51243816Y-21872557D01*
X51550000Y-23020000D02*
X51550000Y-23991226D01*
X50550000Y-22135610D02*
X50550000Y-23020000D01*
X58947352Y-40665576D02*
X53683776Y-40665576D01*
X50050000Y-23020000D02*
X50050000Y-23875540D01*
X50050000Y-23875540D02*
X50575000Y-24400540D01*
X50575000Y-24400540D02*
X50575000Y-27781250D01*
X58947352Y-41115575D02*
X53497375Y-41115575D01*
X49625000Y-28418750D02*
X49937500Y-28418750D01*
X59334999Y-41503222D02*
X58947352Y-41115575D01*
X51050000Y-23020000D02*
X51050000Y-23925540D01*
X50575000Y-27781250D02*
X50575000Y-38193200D01*
X50575000Y-38193200D02*
X53497375Y-41115575D01*
X51050000Y-23925540D02*
X50575000Y-24400540D01*
X49937500Y-28418750D02*
X50575000Y-27781250D01*
X59815000Y-41503222D02*
X59334999Y-41503222D01*
X52550000Y-23020000D02*
X52550000Y-26072500D01*
X52550000Y-26072500D02*
X52671250Y-26193750D01*
X67125000Y-74092500D02*
X61392500Y-74092500D01*
X59892500Y-72592500D02*
X53525000Y-72592500D01*
X61392500Y-74092500D02*
X59892500Y-72592500D01*
X72575000Y-72592500D02*
X73056250Y-72592500D01*
X73056250Y-72592500D02*
X74456250Y-73992500D01*
X48075000Y-74092500D02*
X42342500Y-74092500D01*
X40842500Y-72592500D02*
X34475000Y-72592500D01*
X42342500Y-74092500D02*
X40842500Y-72592500D01*
X61244571Y-40687500D02*
X60835000Y-40277929D01*
X65618750Y-40687500D02*
X61244571Y-40687500D01*
X70830112Y-67294888D02*
X70800000Y-67325000D01*
X70800000Y-67325000D02*
X70800000Y-65867505D01*
X70800000Y-65867505D02*
X71070005Y-65597500D01*
X51780112Y-67294888D02*
X51750000Y-67325000D01*
X51750000Y-65867505D02*
X52020005Y-65597500D01*
X51750000Y-67325000D02*
X51750000Y-65867505D01*
X32700000Y-67325000D02*
X32700000Y-65867505D01*
X32700000Y-65627612D02*
X32730112Y-65597500D01*
X32700000Y-65867505D02*
X32970005Y-65597500D01*
X76356250Y-72692500D02*
X77540316Y-72692500D01*
X69310000Y-32800000D02*
X70530642Y-32800000D01*
X70800000Y-54367102D02*
X71067770Y-54099332D01*
X71067770Y-54099332D02*
X71910483Y-54099332D01*
X74227681Y-39487500D02*
X74737261Y-38977920D01*
X72493750Y-39487500D02*
X74227681Y-39487500D01*
X61250722Y-41087500D02*
X60835000Y-41503222D01*
X65618750Y-41087500D02*
X61250722Y-41087500D01*
X66049358Y-32800000D02*
X66049358Y-32050642D01*
X66900000Y-31200000D02*
X66900000Y-24900000D01*
X66049358Y-32050642D02*
X66900000Y-31200000D01*
X72493750Y-41887500D02*
X73605605Y-41887500D01*
X75374349Y-43656244D02*
X78184398Y-43656244D01*
X73605605Y-41887500D02*
X75374349Y-43656244D01*
X79375000Y-72231250D02*
X78263750Y-73342500D01*
X79375000Y-44846846D02*
X79375000Y-72231250D01*
X78184398Y-43656244D02*
X79375000Y-44846846D01*
X78263750Y-73342500D02*
X76356250Y-73342500D01*
X75310000Y-32590000D02*
X76700000Y-31200000D01*
X76700000Y-31200000D02*
X76700000Y-24900000D01*
X79375000Y-33535899D02*
X78639101Y-32800000D01*
X75384409Y-43100618D02*
X77761882Y-43100618D01*
X79375000Y-41487500D02*
X79375000Y-33535899D01*
X78639101Y-32800000D02*
X75310000Y-32800000D01*
X75310000Y-32800000D02*
X75310000Y-32590000D01*
X77761882Y-43100618D02*
X79375000Y-41487500D01*
X73771291Y-41487500D02*
X75384409Y-43100618D01*
X72493750Y-41487500D02*
X73771291Y-41487500D01*
X59531250Y-22225000D02*
X57626250Y-24130000D01*
X62706250Y-22225000D02*
X59531250Y-22225000D01*
X67069358Y-33340016D02*
X67069358Y-32800000D01*
X64693750Y-34800000D02*
X64693750Y-34131236D01*
X65618750Y-37087500D02*
X64693750Y-36162500D01*
X65362514Y-34131236D02*
X66278138Y-34131236D01*
X66278138Y-34131236D02*
X67069358Y-33340016D01*
X64693750Y-34131236D02*
X64693750Y-33337500D01*
X64693750Y-24212500D02*
X62706250Y-22225000D01*
X57626250Y-24130000D02*
X57626250Y-25768750D01*
X64693750Y-33337500D02*
X64693750Y-24212500D01*
X64693750Y-34800000D02*
X65362514Y-34131236D01*
X67069358Y-32800000D02*
X68290000Y-32800000D01*
X64693750Y-36162500D02*
X64693750Y-34800000D01*
X75207833Y-44251557D02*
X77589085Y-44251557D01*
X70800000Y-55017102D02*
X73818750Y-55017102D01*
X73243776Y-42287500D02*
X75207833Y-44251557D01*
X72493750Y-42287500D02*
X73243776Y-42287500D01*
X77589085Y-44251557D02*
X78581250Y-45243722D01*
X78581250Y-45243722D02*
X78581250Y-53975000D01*
X58896250Y-33779762D02*
X58896250Y-32968750D01*
X65618750Y-39087500D02*
X64203988Y-39087500D01*
X64203988Y-39087500D02*
X58896250Y-33779762D01*
X60166250Y-34452019D02*
X60166250Y-32968750D01*
X65618750Y-38687500D02*
X64401731Y-38687500D01*
X64401731Y-38687500D02*
X60166250Y-34452019D01*
X61436250Y-35136654D02*
X61436250Y-32968750D01*
X65618750Y-38287500D02*
X64587096Y-38287500D01*
X64587096Y-38287500D02*
X61436250Y-35136654D01*
X62706250Y-23812500D02*
X61118750Y-23812500D01*
X63826021Y-36960739D02*
X63826021Y-24932271D01*
X64752782Y-37887500D02*
X63826021Y-36960739D01*
X60166250Y-24765000D02*
X60166250Y-25768750D01*
X65618750Y-37887500D02*
X64752782Y-37887500D01*
X61118750Y-23812500D02*
X60166250Y-24765000D01*
X63826021Y-24932271D02*
X62706250Y-23812500D01*
X58896250Y-24447500D02*
X58896250Y-25768750D01*
X64937092Y-37487500D02*
X64293750Y-36844158D01*
X65618750Y-37487500D02*
X64937092Y-37487500D01*
X64293750Y-36844158D02*
X64293750Y-24606250D01*
X62706250Y-23018750D02*
X60325000Y-23018750D01*
X64293750Y-24606250D02*
X62706250Y-23018750D01*
X60325000Y-23018750D02*
X58896250Y-24447500D01*
G04 #@! TA.AperFunction,Conductor*
G36*
X45654894Y-71363935D02*
G01*
X45700649Y-71416739D01*
X45710593Y-71485897D01*
X45706931Y-71502845D01*
X45700841Y-71523806D01*
X46631346Y-71523806D01*
X46698385Y-71543491D01*
X46744140Y-71596295D01*
X46755346Y-71647806D01*
X46755346Y-71829306D01*
X46735661Y-71896345D01*
X46682857Y-71942100D01*
X46631346Y-71953306D01*
X46270654Y-71953306D01*
X46234354Y-71956162D01*
X46234348Y-71956163D01*
X46078956Y-72001309D01*
X46078951Y-72001312D01*
X46070112Y-72006538D01*
X46006994Y-72023806D01*
X45677252Y-72023806D01*
X45674915Y-72025550D01*
X45631749Y-72033306D01*
X45557992Y-72033306D01*
X45554247Y-72033193D01*
X45492340Y-72029448D01*
X45492333Y-72029448D01*
X45431330Y-72040627D01*
X45427629Y-72041190D01*
X45366072Y-72048665D01*
X45366065Y-72048667D01*
X45356591Y-72052260D01*
X45334993Y-72058281D01*
X45325013Y-72060110D01*
X45268463Y-72085561D01*
X45265004Y-72086994D01*
X45207018Y-72108986D01*
X45204517Y-72110299D01*
X45201776Y-72110974D01*
X45200003Y-72111647D01*
X45199921Y-72111431D01*
X45155422Y-72122398D01*
X45155572Y-72123820D01*
X45149105Y-72124499D01*
X44963947Y-72163855D01*
X44963942Y-72163857D01*
X44791020Y-72240848D01*
X44791015Y-72240851D01*
X44637879Y-72352111D01*
X44511216Y-72492785D01*
X44416571Y-72656715D01*
X44416568Y-72656722D01*
X44358077Y-72836740D01*
X44358076Y-72836744D01*
X44338290Y-73025000D01*
X44358076Y-73213256D01*
X44358077Y-73213259D01*
X44395905Y-73329682D01*
X44397900Y-73399523D01*
X44361820Y-73459356D01*
X44299119Y-73490184D01*
X44277974Y-73492000D01*
X42642597Y-73492000D01*
X42575558Y-73472315D01*
X42554916Y-73455681D01*
X41935975Y-72836740D01*
X41297820Y-72198585D01*
X41292480Y-72192495D01*
X41270782Y-72164218D01*
X41145341Y-72067964D01*
X41142043Y-72066598D01*
X40999262Y-72007456D01*
X40999260Y-72007455D01*
X40881861Y-71992000D01*
X40842500Y-71986818D01*
X40807170Y-71991469D01*
X40799072Y-71992000D01*
X35654278Y-71992000D01*
X35587239Y-71972315D01*
X35555902Y-71943486D01*
X35539415Y-71922000D01*
X35483444Y-71849056D01*
X35385000Y-71773518D01*
X35361762Y-71755687D01*
X35220063Y-71696993D01*
X35220061Y-71696992D01*
X35106177Y-71682000D01*
X33843821Y-71682000D01*
X33729945Y-71696991D01*
X33729937Y-71696993D01*
X33588237Y-71755687D01*
X33513152Y-71813301D01*
X33447983Y-71838494D01*
X33379538Y-71824455D01*
X33353573Y-71806051D01*
X33341261Y-71794689D01*
X33341256Y-71794685D01*
X33228158Y-71734292D01*
X33103486Y-71704360D01*
X33103483Y-71704360D01*
X33103479Y-71704359D01*
X32975293Y-71706822D01*
X32851860Y-71741520D01*
X32850966Y-71741899D01*
X32798844Y-71772374D01*
X32793998Y-71774927D01*
X32786273Y-71778571D01*
X32696051Y-71816357D01*
X32688291Y-71819019D01*
X32660651Y-71826500D01*
X32652617Y-71828115D01*
X32556172Y-71840940D01*
X32546900Y-71841759D01*
X32541442Y-71842000D01*
X31007410Y-71842000D01*
X31007407Y-71841999D01*
X30958284Y-71841999D01*
X30952829Y-71841759D01*
X30944368Y-71841012D01*
X30847205Y-71828090D01*
X30839171Y-71826476D01*
X30811871Y-71819087D01*
X30804110Y-71816424D01*
X30713245Y-71778369D01*
X30709942Y-71776812D01*
X30706232Y-71775062D01*
X30701392Y-71772511D01*
X30660252Y-71748456D01*
X30659014Y-71747899D01*
X30648121Y-71741558D01*
X30524699Y-71706863D01*
X30396521Y-71704400D01*
X30271856Y-71734330D01*
X30158767Y-71794718D01*
X30158762Y-71794722D01*
X30146457Y-71806078D01*
X30083840Y-71837075D01*
X30014404Y-71829298D01*
X29986880Y-71813326D01*
X29911762Y-71755687D01*
X29770063Y-71696993D01*
X29770061Y-71696992D01*
X29656177Y-71682000D01*
X28389765Y-71682001D01*
X28389765Y-71680205D01*
X28328696Y-71666490D01*
X28279625Y-71616754D01*
X28265236Y-71567785D01*
X28262491Y-71532894D01*
X28253761Y-71502844D01*
X28253961Y-71432975D01*
X28291904Y-71374305D01*
X28355543Y-71345462D01*
X28372838Y-71344250D01*
X45587855Y-71344250D01*
X45654894Y-71363935D01*
G37*
G04 #@! TD.AperFunction*
G04 #@! TA.AperFunction,Conductor*
G36*
X64704894Y-71363935D02*
G01*
X64750649Y-71416739D01*
X64760593Y-71485897D01*
X64756931Y-71502845D01*
X64750841Y-71523806D01*
X65681346Y-71523806D01*
X65748385Y-71543491D01*
X65794140Y-71596295D01*
X65805346Y-71647806D01*
X65805346Y-71829306D01*
X65785661Y-71896345D01*
X65732857Y-71942100D01*
X65681346Y-71953306D01*
X65320654Y-71953306D01*
X65284354Y-71956162D01*
X65284348Y-71956163D01*
X65128956Y-72001309D01*
X65128951Y-72001312D01*
X65120112Y-72006538D01*
X65056994Y-72023806D01*
X64727252Y-72023806D01*
X64724915Y-72025550D01*
X64681749Y-72033306D01*
X64607992Y-72033306D01*
X64604247Y-72033193D01*
X64542340Y-72029448D01*
X64542333Y-72029448D01*
X64481330Y-72040627D01*
X64477629Y-72041190D01*
X64416072Y-72048665D01*
X64416065Y-72048667D01*
X64406591Y-72052260D01*
X64384993Y-72058281D01*
X64375013Y-72060110D01*
X64318463Y-72085561D01*
X64315004Y-72086994D01*
X64257018Y-72108986D01*
X64254517Y-72110299D01*
X64251776Y-72110974D01*
X64250003Y-72111647D01*
X64249921Y-72111431D01*
X64205422Y-72122398D01*
X64205572Y-72123820D01*
X64199105Y-72124499D01*
X64013947Y-72163855D01*
X64013942Y-72163857D01*
X63841020Y-72240848D01*
X63841015Y-72240851D01*
X63687879Y-72352111D01*
X63561216Y-72492785D01*
X63466571Y-72656715D01*
X63466568Y-72656722D01*
X63408077Y-72836740D01*
X63408076Y-72836744D01*
X63388290Y-73025000D01*
X63408076Y-73213256D01*
X63408077Y-73213259D01*
X63445905Y-73329682D01*
X63447900Y-73399523D01*
X63411820Y-73459356D01*
X63349119Y-73490184D01*
X63327974Y-73492000D01*
X61692597Y-73492000D01*
X61625558Y-73472315D01*
X61604916Y-73455681D01*
X60985975Y-72836740D01*
X60347820Y-72198585D01*
X60342480Y-72192495D01*
X60320782Y-72164218D01*
X60195341Y-72067964D01*
X60192043Y-72066598D01*
X60049262Y-72007456D01*
X60049260Y-72007455D01*
X59931861Y-71992000D01*
X59892500Y-71986818D01*
X59857170Y-71991469D01*
X59849072Y-71992000D01*
X54704278Y-71992000D01*
X54637239Y-71972315D01*
X54605902Y-71943486D01*
X54589415Y-71922000D01*
X54533444Y-71849056D01*
X54435000Y-71773518D01*
X54411762Y-71755687D01*
X54270063Y-71696993D01*
X54270061Y-71696992D01*
X54156177Y-71682000D01*
X52893821Y-71682000D01*
X52779945Y-71696991D01*
X52779937Y-71696993D01*
X52638237Y-71755687D01*
X52563152Y-71813301D01*
X52497983Y-71838494D01*
X52429538Y-71824455D01*
X52403573Y-71806051D01*
X52391261Y-71794689D01*
X52391256Y-71794685D01*
X52278158Y-71734292D01*
X52153486Y-71704360D01*
X52153483Y-71704360D01*
X52153479Y-71704359D01*
X52025293Y-71706822D01*
X51901860Y-71741520D01*
X51900966Y-71741899D01*
X51848844Y-71772374D01*
X51843998Y-71774927D01*
X51836273Y-71778571D01*
X51746051Y-71816357D01*
X51738291Y-71819019D01*
X51710651Y-71826500D01*
X51702617Y-71828115D01*
X51606172Y-71840940D01*
X51596900Y-71841759D01*
X51591442Y-71842000D01*
X50057410Y-71842000D01*
X50057407Y-71841999D01*
X50008284Y-71841999D01*
X50002829Y-71841759D01*
X49994368Y-71841012D01*
X49897205Y-71828090D01*
X49889171Y-71826476D01*
X49861871Y-71819087D01*
X49854110Y-71816424D01*
X49763245Y-71778369D01*
X49759942Y-71776812D01*
X49756232Y-71775062D01*
X49751392Y-71772511D01*
X49710252Y-71748456D01*
X49709014Y-71747899D01*
X49698121Y-71741558D01*
X49574699Y-71706863D01*
X49446521Y-71704400D01*
X49321856Y-71734330D01*
X49208767Y-71794718D01*
X49208762Y-71794722D01*
X49196457Y-71806078D01*
X49133840Y-71837075D01*
X49064404Y-71829298D01*
X49036880Y-71813326D01*
X48961762Y-71755687D01*
X48820063Y-71696993D01*
X48820061Y-71696992D01*
X48706177Y-71682000D01*
X47439765Y-71682001D01*
X47439765Y-71680205D01*
X47378696Y-71666490D01*
X47329625Y-71616754D01*
X47315236Y-71567785D01*
X47312491Y-71532894D01*
X47303761Y-71502844D01*
X47303961Y-71432975D01*
X47341904Y-71374305D01*
X47405543Y-71345462D01*
X47422838Y-71344250D01*
X64637855Y-71344250D01*
X64704894Y-71363935D01*
G37*
G04 #@! TD.AperFunction*
G04 #@! TA.AperFunction,Conductor*
G36*
X77799453Y-54435527D02*
G01*
X77825636Y-54467238D01*
X77848717Y-54507216D01*
X77975379Y-54647888D01*
X78128515Y-54759148D01*
X78128520Y-54759151D01*
X78301442Y-54836142D01*
X78301447Y-54836144D01*
X78486604Y-54875500D01*
X78486605Y-54875500D01*
X78650500Y-54875500D01*
X78717539Y-54895185D01*
X78763294Y-54947989D01*
X78774500Y-54999500D01*
X78774500Y-71931152D01*
X78754815Y-71998191D01*
X78738181Y-72018833D01*
X78478518Y-72278496D01*
X78417195Y-72311981D01*
X78347503Y-72306997D01*
X78291570Y-72265125D01*
X78284103Y-72253932D01*
X78278895Y-72245125D01*
X78261715Y-72177401D01*
X78278898Y-72118886D01*
X78312720Y-72061696D01*
X78312721Y-72061694D01*
X78353160Y-71922500D01*
X77798290Y-71922500D01*
X77793425Y-71922309D01*
X77789500Y-71922000D01*
X77789499Y-71922000D01*
X77789497Y-71922000D01*
X77291136Y-71922001D01*
X77287219Y-71922309D01*
X77282357Y-71922500D01*
X76727470Y-71922500D01*
X76712489Y-71942453D01*
X76656496Y-71984244D01*
X76613329Y-71992000D01*
X75983379Y-71992000D01*
X75983373Y-71992001D01*
X75923766Y-71998408D01*
X75788921Y-72048702D01*
X75788914Y-72048706D01*
X75673705Y-72134952D01*
X75673702Y-72134955D01*
X75587456Y-72250164D01*
X75587452Y-72250171D01*
X75537158Y-72385017D01*
X75530751Y-72444616D01*
X75530751Y-72444623D01*
X75530750Y-72444635D01*
X75530750Y-72476981D01*
X75511065Y-72544020D01*
X75458261Y-72589775D01*
X75389103Y-72599719D01*
X75325547Y-72570694D01*
X75319069Y-72564662D01*
X75318068Y-72563661D01*
X75284583Y-72502338D01*
X75281749Y-72475980D01*
X75281749Y-72444629D01*
X75281748Y-72444623D01*
X75281747Y-72444616D01*
X75275341Y-72385017D01*
X75263068Y-72352112D01*
X75225047Y-72250171D01*
X75225043Y-72250164D01*
X75138797Y-72134955D01*
X75138794Y-72134952D01*
X75023585Y-72048706D01*
X75023578Y-72048702D01*
X74888732Y-71998408D01*
X74888733Y-71998408D01*
X74829133Y-71992001D01*
X74829131Y-71992000D01*
X74829123Y-71992000D01*
X74829115Y-71992000D01*
X74531176Y-71992000D01*
X74508828Y-71989969D01*
X74498856Y-71988142D01*
X74498852Y-71988142D01*
X74436938Y-71991887D01*
X74433194Y-71992000D01*
X74083380Y-71992000D01*
X74083373Y-71992001D01*
X74023766Y-71998408D01*
X73888921Y-72048702D01*
X73888916Y-72048705D01*
X73879448Y-72055793D01*
X73813983Y-72080207D01*
X73745710Y-72065353D01*
X73696307Y-72015946D01*
X73690580Y-72003975D01*
X73676813Y-71970738D01*
X73646438Y-71931152D01*
X73583444Y-71849056D01*
X73485000Y-71773518D01*
X73461762Y-71755687D01*
X73320063Y-71696993D01*
X73320061Y-71696992D01*
X73206177Y-71682000D01*
X71943821Y-71682000D01*
X71829945Y-71696991D01*
X71829937Y-71696993D01*
X71688237Y-71755687D01*
X71613152Y-71813301D01*
X71547983Y-71838494D01*
X71479538Y-71824455D01*
X71453573Y-71806051D01*
X71441261Y-71794689D01*
X71441256Y-71794685D01*
X71328158Y-71734292D01*
X71203486Y-71704360D01*
X71203483Y-71704360D01*
X71203479Y-71704359D01*
X71075293Y-71706822D01*
X70951860Y-71741520D01*
X70950966Y-71741899D01*
X70898844Y-71772374D01*
X70893998Y-71774927D01*
X70886273Y-71778571D01*
X70796051Y-71816357D01*
X70788291Y-71819019D01*
X70760651Y-71826500D01*
X70752617Y-71828115D01*
X70656172Y-71840940D01*
X70646900Y-71841759D01*
X70641442Y-71842000D01*
X69107410Y-71842000D01*
X69107407Y-71841999D01*
X69058284Y-71841999D01*
X69052829Y-71841759D01*
X69044368Y-71841012D01*
X68947205Y-71828090D01*
X68939171Y-71826476D01*
X68911871Y-71819087D01*
X68904110Y-71816424D01*
X68813245Y-71778369D01*
X68809942Y-71776812D01*
X68806232Y-71775062D01*
X68801392Y-71772511D01*
X68760252Y-71748456D01*
X68759014Y-71747899D01*
X68748121Y-71741558D01*
X68624699Y-71706863D01*
X68496521Y-71704400D01*
X68371856Y-71734330D01*
X68258767Y-71794718D01*
X68258762Y-71794722D01*
X68246457Y-71806078D01*
X68183840Y-71837075D01*
X68114404Y-71829298D01*
X68086880Y-71813326D01*
X68011762Y-71755687D01*
X67870063Y-71696993D01*
X67870061Y-71696992D01*
X67756177Y-71682000D01*
X66489765Y-71682001D01*
X66489765Y-71680205D01*
X66428696Y-71666490D01*
X66379625Y-71616754D01*
X66365236Y-71567785D01*
X66362491Y-71532895D01*
X66330418Y-71422500D01*
X76727472Y-71422500D01*
X77290316Y-71422500D01*
X77290316Y-70902568D01*
X77790316Y-70902568D01*
X77790316Y-71422500D01*
X78353160Y-71422500D01*
X78312720Y-71283305D01*
X78231054Y-71145214D01*
X78231047Y-71145205D01*
X78117610Y-71031768D01*
X78117601Y-71031761D01*
X77979507Y-70950093D01*
X77979504Y-70950092D01*
X77825446Y-70905334D01*
X77790316Y-70902568D01*
X77290316Y-70902568D01*
X77290315Y-70902568D01*
X77255185Y-70905334D01*
X77255184Y-70905334D01*
X77101127Y-70950092D01*
X77101124Y-70950093D01*
X76963030Y-71031761D01*
X76963021Y-71031768D01*
X76849584Y-71145205D01*
X76849577Y-71145214D01*
X76767911Y-71283305D01*
X76727472Y-71422500D01*
X66330418Y-71422500D01*
X66317376Y-71377609D01*
X66235067Y-71238431D01*
X66235060Y-71238422D01*
X66120729Y-71124091D01*
X66120720Y-71124084D01*
X65981541Y-71041774D01*
X65949332Y-71032417D01*
X65890446Y-70994810D01*
X65861239Y-70931338D01*
X65870985Y-70862151D01*
X65896240Y-70825665D01*
X67154056Y-69567849D01*
X67156748Y-69565315D01*
X67203183Y-69524179D01*
X67238421Y-69473126D01*
X67240628Y-69470128D01*
X67278878Y-69421307D01*
X67283034Y-69412071D01*
X67294062Y-69392516D01*
X67299818Y-69384180D01*
X67321809Y-69326192D01*
X67323229Y-69322762D01*
X67348695Y-69266182D01*
X67350522Y-69256211D01*
X67356552Y-69234581D01*
X67360140Y-69225121D01*
X67360140Y-69225118D01*
X67361535Y-69213635D01*
X67367613Y-69163575D01*
X67368177Y-69159871D01*
X67379358Y-69098855D01*
X67379357Y-69098854D01*
X67375613Y-69036946D01*
X67375500Y-69033201D01*
X67375500Y-67016518D01*
X67395185Y-66949479D01*
X67411819Y-66928837D01*
X67860319Y-66480337D01*
X67921642Y-66446852D01*
X67991334Y-66451836D01*
X68047267Y-66493708D01*
X68071684Y-66559172D01*
X68072000Y-66568018D01*
X68072000Y-70040500D01*
X69023733Y-70040500D01*
X69090772Y-70060185D01*
X69130465Y-70101379D01*
X69182314Y-70189052D01*
X69182321Y-70189061D01*
X69298438Y-70305178D01*
X69298447Y-70305185D01*
X69439801Y-70388781D01*
X69597514Y-70434600D01*
X69597511Y-70434600D01*
X69599998Y-70434795D01*
X69600000Y-70434795D01*
X69600000Y-70164500D01*
X69619685Y-70097461D01*
X69672489Y-70051706D01*
X69724000Y-70040500D01*
X69976000Y-70040500D01*
X70043039Y-70060185D01*
X70088794Y-70112989D01*
X70100000Y-70164500D01*
X70100000Y-70434795D01*
X70100001Y-70434795D01*
X70102486Y-70434600D01*
X70260198Y-70388781D01*
X70401552Y-70305185D01*
X70401561Y-70305178D01*
X70517678Y-70189061D01*
X70517685Y-70189052D01*
X70569535Y-70101379D01*
X70620604Y-70053696D01*
X70676267Y-70040500D01*
X71628000Y-70040500D01*
X71628000Y-68208702D01*
X73800660Y-68208702D01*
X73810887Y-68423401D01*
X73861563Y-68632291D01*
X73861565Y-68632295D01*
X73922668Y-68766093D01*
X73950854Y-68827810D01*
X74075534Y-69002899D01*
X74075535Y-69002900D01*
X74075540Y-69002906D01*
X74231094Y-69151225D01*
X74231096Y-69151226D01*
X74231097Y-69151227D01*
X74411920Y-69267435D01*
X74611468Y-69347322D01*
X74625187Y-69349966D01*
X74822527Y-69388000D01*
X74822528Y-69388000D01*
X74983612Y-69388000D01*
X74983618Y-69388000D01*
X75143971Y-69372688D01*
X75350209Y-69312131D01*
X75541259Y-69213638D01*
X75710217Y-69080768D01*
X75850976Y-68918324D01*
X75881687Y-68865132D01*
X75921615Y-68795974D01*
X75958448Y-68732177D01*
X76028750Y-68529054D01*
X76059339Y-68316297D01*
X76049112Y-68101596D01*
X75998437Y-67892710D01*
X75909146Y-67697190D01*
X75784466Y-67522101D01*
X75784464Y-67522099D01*
X75784459Y-67522093D01*
X75628905Y-67373774D01*
X75448080Y-67257565D01*
X75248530Y-67177677D01*
X75037473Y-67137000D01*
X75037472Y-67137000D01*
X74876382Y-67137000D01*
X74716029Y-67152312D01*
X74716025Y-67152313D01*
X74509793Y-67212868D01*
X74318736Y-67311364D01*
X74149785Y-67444229D01*
X74149782Y-67444233D01*
X74009021Y-67606678D01*
X73901553Y-67792819D01*
X73831251Y-67995942D01*
X73831250Y-67995944D01*
X73800661Y-68208700D01*
X73800660Y-68208702D01*
X71628000Y-68208702D01*
X71628000Y-66484500D01*
X71593826Y-66450326D01*
X71560341Y-66389003D01*
X71565325Y-66319311D01*
X71607197Y-66263378D01*
X71618379Y-66255917D01*
X71647603Y-66238635D01*
X71761140Y-66125098D01*
X71842874Y-65986893D01*
X71887670Y-65832704D01*
X71890505Y-65796681D01*
X71890504Y-65398320D01*
X71887670Y-65362296D01*
X71842874Y-65208107D01*
X71808874Y-65150617D01*
X71791693Y-65082898D01*
X71808874Y-65024382D01*
X71842874Y-64966893D01*
X71843825Y-64963622D01*
X71887669Y-64812708D01*
X71887670Y-64812702D01*
X71890505Y-64776683D01*
X71890504Y-64417704D01*
X71910188Y-64350665D01*
X71926823Y-64330023D01*
X72120028Y-64136819D01*
X72181351Y-64103334D01*
X72207709Y-64100500D01*
X75362822Y-64100500D01*
X75370920Y-64101030D01*
X75406250Y-64105682D01*
X75406251Y-64105682D01*
X75458504Y-64098802D01*
X75563012Y-64085044D01*
X75709091Y-64024536D01*
X75720517Y-64015768D01*
X75731945Y-64007000D01*
X75810723Y-63946551D01*
X75834532Y-63928282D01*
X75856233Y-63899999D01*
X75861561Y-63893922D01*
X77387672Y-62367811D01*
X77393749Y-62362483D01*
X77422032Y-62340782D01*
X77518286Y-62215341D01*
X77578794Y-62069262D01*
X77594250Y-61951861D01*
X77599432Y-61912500D01*
X77594780Y-61877169D01*
X77594250Y-61869071D01*
X77594250Y-54529240D01*
X77613935Y-54462201D01*
X77666739Y-54416446D01*
X77735897Y-54406502D01*
X77799453Y-54435527D01*
G37*
G04 #@! TD.AperFunction*
G04 #@! TA.AperFunction,Conductor*
G36*
X52763054Y-62532685D02*
G01*
X52808809Y-62585489D01*
X52818753Y-62654647D01*
X52789728Y-62718203D01*
X52783696Y-62724681D01*
X51706206Y-63802169D01*
X51653121Y-63833564D01*
X51580615Y-63854629D01*
X51580613Y-63854630D01*
X51449398Y-63932230D01*
X51381674Y-63949413D01*
X51323156Y-63932230D01*
X51226393Y-63875005D01*
X51226390Y-63875004D01*
X51070997Y-63829857D01*
X51070991Y-63829856D01*
X51034692Y-63827000D01*
X51034690Y-63827000D01*
X50565310Y-63827000D01*
X50565308Y-63827000D01*
X50529008Y-63829856D01*
X50529002Y-63829857D01*
X50373609Y-63875004D01*
X50373608Y-63875004D01*
X50252626Y-63946552D01*
X50184902Y-63963734D01*
X50126385Y-63946551D01*
X50006190Y-63875468D01*
X50006185Y-63875466D01*
X49850913Y-63830355D01*
X49850907Y-63830354D01*
X49829995Y-63828709D01*
X49829995Y-64663000D01*
X49810310Y-64730039D01*
X49757506Y-64775794D01*
X49705995Y-64787000D01*
X49345303Y-64787000D01*
X49309003Y-64789856D01*
X49308997Y-64789857D01*
X49153605Y-64835003D01*
X49153600Y-64835006D01*
X49144761Y-64840232D01*
X49081643Y-64857500D01*
X48743652Y-64857500D01*
X48701130Y-64863821D01*
X48689899Y-64863141D01*
X48689889Y-64863142D01*
X48628886Y-64874321D01*
X48625185Y-64874884D01*
X48563628Y-64882359D01*
X48563621Y-64882361D01*
X48554147Y-64885954D01*
X48532549Y-64891975D01*
X48522569Y-64893804D01*
X48466019Y-64919255D01*
X48462560Y-64920688D01*
X48404571Y-64942681D01*
X48404563Y-64942685D01*
X48396221Y-64948443D01*
X48376689Y-64959460D01*
X48367446Y-64963620D01*
X48318635Y-65001860D01*
X48315620Y-65004079D01*
X48264572Y-65039316D01*
X48264565Y-65039322D01*
X48223435Y-65085748D01*
X48220868Y-65088474D01*
X47145966Y-66163375D01*
X47143240Y-66165942D01*
X47096818Y-66207068D01*
X47061586Y-66258109D01*
X47059368Y-66261124D01*
X47021124Y-66309939D01*
X47021119Y-66309948D01*
X47016960Y-66319188D01*
X47005942Y-66338723D01*
X47000187Y-66347061D01*
X47000183Y-66347067D01*
X47000182Y-66347070D01*
X47000180Y-66347074D01*
X47000179Y-66347077D01*
X46978189Y-66405055D01*
X46976757Y-66408513D01*
X46951305Y-66465068D01*
X46949477Y-66475042D01*
X46943453Y-66496653D01*
X46939860Y-66506127D01*
X46939859Y-66506128D01*
X46932384Y-66567685D01*
X46931821Y-66571386D01*
X46920642Y-66632390D01*
X46920642Y-66632395D01*
X46924387Y-66694302D01*
X46924500Y-66698047D01*
X46924500Y-67625749D01*
X46904815Y-67692788D01*
X46852011Y-67738543D01*
X46782853Y-67748487D01*
X46719297Y-67719462D01*
X46699493Y-67697676D01*
X46574470Y-67522105D01*
X46574459Y-67522093D01*
X46418905Y-67373774D01*
X46238080Y-67257565D01*
X46038530Y-67177677D01*
X45827473Y-67137000D01*
X45827472Y-67137000D01*
X45666382Y-67137000D01*
X45506029Y-67152312D01*
X45506025Y-67152313D01*
X45299793Y-67212868D01*
X45108736Y-67311364D01*
X44939785Y-67444229D01*
X44939782Y-67444233D01*
X44799021Y-67606678D01*
X44691553Y-67792819D01*
X44621251Y-67995942D01*
X44621250Y-67995944D01*
X44590661Y-68208700D01*
X44590660Y-68208702D01*
X44600887Y-68423401D01*
X44651563Y-68632291D01*
X44651565Y-68632295D01*
X44712668Y-68766093D01*
X44740854Y-68827810D01*
X44865534Y-69002899D01*
X44865535Y-69002900D01*
X44865540Y-69002906D01*
X45021094Y-69151225D01*
X45021096Y-69151226D01*
X45021097Y-69151227D01*
X45201920Y-69267435D01*
X45401468Y-69347322D01*
X45415187Y-69349966D01*
X45612527Y-69388000D01*
X45612528Y-69388000D01*
X45773612Y-69388000D01*
X45773618Y-69388000D01*
X45933971Y-69372688D01*
X46011355Y-69349966D01*
X46081221Y-69349966D01*
X46139999Y-69387740D01*
X46169025Y-69451295D01*
X46159082Y-69520454D01*
X46133968Y-69556624D01*
X45783662Y-69906931D01*
X45722339Y-69940416D01*
X45695981Y-69943250D01*
X33651984Y-69943250D01*
X33584945Y-69923565D01*
X33539190Y-69870761D01*
X33527984Y-69819250D01*
X33527984Y-68208702D01*
X35700644Y-68208702D01*
X35710871Y-68423401D01*
X35761547Y-68632291D01*
X35761549Y-68632295D01*
X35822652Y-68766093D01*
X35850838Y-68827810D01*
X35975518Y-69002899D01*
X35975519Y-69002900D01*
X35975524Y-69002906D01*
X36131078Y-69151225D01*
X36131080Y-69151226D01*
X36131081Y-69151227D01*
X36311904Y-69267435D01*
X36511452Y-69347322D01*
X36525171Y-69349966D01*
X36722511Y-69388000D01*
X36722512Y-69388000D01*
X36883596Y-69388000D01*
X36883602Y-69388000D01*
X37043955Y-69372688D01*
X37250193Y-69312131D01*
X37441243Y-69213638D01*
X37610201Y-69080768D01*
X37750960Y-68918324D01*
X37781671Y-68865132D01*
X37821599Y-68795974D01*
X37858432Y-68732177D01*
X37928734Y-68529054D01*
X37959323Y-68316297D01*
X37949096Y-68101596D01*
X37898421Y-67892710D01*
X37809130Y-67697190D01*
X37684450Y-67522101D01*
X37684448Y-67522099D01*
X37684443Y-67522093D01*
X37528889Y-67373774D01*
X37348064Y-67257565D01*
X37148514Y-67177677D01*
X36937457Y-67137000D01*
X36937456Y-67137000D01*
X36776366Y-67137000D01*
X36616013Y-67152312D01*
X36616009Y-67152313D01*
X36409777Y-67212868D01*
X36218720Y-67311364D01*
X36049769Y-67444229D01*
X36049766Y-67444233D01*
X35909005Y-67606678D01*
X35801537Y-67792819D01*
X35731235Y-67995942D01*
X35731234Y-67995944D01*
X35700645Y-68208700D01*
X35700644Y-68208702D01*
X33527984Y-68208702D01*
X33527984Y-66484500D01*
X33493816Y-66450332D01*
X33460331Y-66389009D01*
X33465315Y-66319317D01*
X33507187Y-66263384D01*
X33518370Y-66255923D01*
X33547603Y-66238635D01*
X33661140Y-66125098D01*
X33742874Y-65986893D01*
X33787670Y-65832704D01*
X33790505Y-65796681D01*
X33790504Y-65398320D01*
X33787670Y-65362296D01*
X33742874Y-65208107D01*
X33708874Y-65150617D01*
X33691693Y-65082898D01*
X33708874Y-65024382D01*
X33742874Y-64966893D01*
X33743825Y-64963622D01*
X33787669Y-64812708D01*
X33787670Y-64812702D01*
X33790505Y-64776683D01*
X33790504Y-64417703D01*
X33808181Y-64357500D01*
X48775491Y-64357500D01*
X49329995Y-64357500D01*
X49329995Y-63828710D01*
X49329994Y-63828709D01*
X49309082Y-63830354D01*
X49309076Y-63830355D01*
X49153804Y-63875466D01*
X49153799Y-63875468D01*
X49014620Y-63957778D01*
X49014611Y-63957785D01*
X48900280Y-64072116D01*
X48900273Y-64072125D01*
X48817963Y-64211304D01*
X48775491Y-64357500D01*
X33808181Y-64357500D01*
X33810188Y-64350664D01*
X33826818Y-64330027D01*
X35607528Y-62549319D01*
X35668851Y-62515834D01*
X35695209Y-62513000D01*
X52696015Y-62513000D01*
X52763054Y-62532685D01*
G37*
G04 #@! TD.AperFunction*
G04 #@! TA.AperFunction,Conductor*
G36*
X71019304Y-63326435D02*
G01*
X71065059Y-63379239D01*
X71075003Y-63448397D01*
X71045978Y-63511953D01*
X71039965Y-63518411D01*
X70764698Y-63793677D01*
X70756206Y-63802170D01*
X70703121Y-63833564D01*
X70630615Y-63854629D01*
X70630613Y-63854630D01*
X70499398Y-63932230D01*
X70431674Y-63949413D01*
X70373156Y-63932230D01*
X70276393Y-63875005D01*
X70276390Y-63875004D01*
X70120997Y-63829857D01*
X70120991Y-63829856D01*
X70084692Y-63827000D01*
X70084690Y-63827000D01*
X69615310Y-63827000D01*
X69615308Y-63827000D01*
X69579008Y-63829856D01*
X69579002Y-63829857D01*
X69423609Y-63875004D01*
X69423608Y-63875004D01*
X69302626Y-63946552D01*
X69234902Y-63963734D01*
X69176385Y-63946551D01*
X69056190Y-63875468D01*
X69056185Y-63875466D01*
X68900913Y-63830355D01*
X68900907Y-63830354D01*
X68879995Y-63828709D01*
X68879995Y-64663000D01*
X68860310Y-64730039D01*
X68807506Y-64775794D01*
X68755995Y-64787000D01*
X68395303Y-64787000D01*
X68359003Y-64789856D01*
X68358997Y-64789857D01*
X68203605Y-64835003D01*
X68203600Y-64835006D01*
X68194761Y-64840232D01*
X68131643Y-64857500D01*
X67793652Y-64857500D01*
X67751130Y-64863821D01*
X67739899Y-64863141D01*
X67739889Y-64863142D01*
X67678886Y-64874321D01*
X67675185Y-64874884D01*
X67613628Y-64882359D01*
X67613621Y-64882361D01*
X67604147Y-64885954D01*
X67582549Y-64891975D01*
X67572569Y-64893804D01*
X67516019Y-64919255D01*
X67512560Y-64920688D01*
X67454571Y-64942681D01*
X67454563Y-64942685D01*
X67446221Y-64948443D01*
X67426689Y-64959460D01*
X67417446Y-64963620D01*
X67368635Y-65001860D01*
X67365620Y-65004079D01*
X67314572Y-65039316D01*
X67314565Y-65039322D01*
X67273435Y-65085748D01*
X67270868Y-65088474D01*
X66195966Y-66163375D01*
X66193240Y-66165942D01*
X66146818Y-66207068D01*
X66111586Y-66258109D01*
X66109368Y-66261124D01*
X66071124Y-66309939D01*
X66071119Y-66309948D01*
X66066960Y-66319188D01*
X66055942Y-66338723D01*
X66050187Y-66347061D01*
X66050183Y-66347067D01*
X66050182Y-66347070D01*
X66050180Y-66347074D01*
X66050179Y-66347077D01*
X66028189Y-66405055D01*
X66026757Y-66408513D01*
X66001305Y-66465068D01*
X65999477Y-66475042D01*
X65993453Y-66496653D01*
X65989860Y-66506127D01*
X65989859Y-66506128D01*
X65982384Y-66567685D01*
X65981821Y-66571386D01*
X65970642Y-66632390D01*
X65970642Y-66632395D01*
X65974387Y-66694302D01*
X65974500Y-66698047D01*
X65974500Y-67625749D01*
X65954815Y-67692788D01*
X65902011Y-67738543D01*
X65832853Y-67748487D01*
X65769297Y-67719462D01*
X65749493Y-67697676D01*
X65624470Y-67522105D01*
X65624459Y-67522093D01*
X65468905Y-67373774D01*
X65288080Y-67257565D01*
X65088530Y-67177677D01*
X64877473Y-67137000D01*
X64877472Y-67137000D01*
X64716382Y-67137000D01*
X64556029Y-67152312D01*
X64556025Y-67152313D01*
X64349793Y-67212868D01*
X64158736Y-67311364D01*
X63989785Y-67444229D01*
X63989782Y-67444233D01*
X63849021Y-67606678D01*
X63741553Y-67792819D01*
X63671251Y-67995942D01*
X63671250Y-67995944D01*
X63640661Y-68208700D01*
X63640660Y-68208702D01*
X63650887Y-68423401D01*
X63701563Y-68632291D01*
X63701565Y-68632295D01*
X63762668Y-68766093D01*
X63790854Y-68827810D01*
X63915534Y-69002899D01*
X63915535Y-69002900D01*
X63915540Y-69002906D01*
X64071094Y-69151225D01*
X64071096Y-69151226D01*
X64071097Y-69151227D01*
X64251920Y-69267435D01*
X64451468Y-69347322D01*
X64465187Y-69349966D01*
X64662527Y-69388000D01*
X64662528Y-69388000D01*
X64823612Y-69388000D01*
X64823618Y-69388000D01*
X64983971Y-69372688D01*
X65061355Y-69349966D01*
X65131221Y-69349966D01*
X65189999Y-69387740D01*
X65219025Y-69451295D01*
X65209082Y-69520454D01*
X65183968Y-69556624D01*
X64833662Y-69906931D01*
X64772339Y-69940416D01*
X64745981Y-69943250D01*
X52702000Y-69943250D01*
X52634961Y-69923565D01*
X52589206Y-69870761D01*
X52578000Y-69819250D01*
X52578000Y-68208702D01*
X54750660Y-68208702D01*
X54760887Y-68423401D01*
X54811563Y-68632291D01*
X54811565Y-68632295D01*
X54872668Y-68766093D01*
X54900854Y-68827810D01*
X55025534Y-69002899D01*
X55025535Y-69002900D01*
X55025540Y-69002906D01*
X55181094Y-69151225D01*
X55181096Y-69151226D01*
X55181097Y-69151227D01*
X55361920Y-69267435D01*
X55561468Y-69347322D01*
X55575187Y-69349966D01*
X55772527Y-69388000D01*
X55772528Y-69388000D01*
X55933612Y-69388000D01*
X55933618Y-69388000D01*
X56093971Y-69372688D01*
X56300209Y-69312131D01*
X56491259Y-69213638D01*
X56660217Y-69080768D01*
X56800976Y-68918324D01*
X56831687Y-68865132D01*
X56871615Y-68795974D01*
X56908448Y-68732177D01*
X56978750Y-68529054D01*
X57009339Y-68316297D01*
X56999112Y-68101596D01*
X56948437Y-67892710D01*
X56859146Y-67697190D01*
X56734466Y-67522101D01*
X56734464Y-67522099D01*
X56734459Y-67522093D01*
X56578905Y-67373774D01*
X56398080Y-67257565D01*
X56198530Y-67177677D01*
X55987473Y-67137000D01*
X55987472Y-67137000D01*
X55826382Y-67137000D01*
X55666029Y-67152312D01*
X55666025Y-67152313D01*
X55459793Y-67212868D01*
X55268736Y-67311364D01*
X55099785Y-67444229D01*
X55099782Y-67444233D01*
X54959021Y-67606678D01*
X54851553Y-67792819D01*
X54781251Y-67995942D01*
X54781250Y-67995944D01*
X54750661Y-68208700D01*
X54750660Y-68208702D01*
X52578000Y-68208702D01*
X52578000Y-66484500D01*
X52543826Y-66450326D01*
X52510341Y-66389003D01*
X52515325Y-66319311D01*
X52557197Y-66263378D01*
X52568379Y-66255917D01*
X52597603Y-66238635D01*
X52711140Y-66125098D01*
X52792874Y-65986893D01*
X52837670Y-65832704D01*
X52840505Y-65796681D01*
X52840504Y-65398320D01*
X52837670Y-65362296D01*
X52792874Y-65208107D01*
X52758874Y-65150617D01*
X52741693Y-65082898D01*
X52758874Y-65024382D01*
X52792874Y-64966893D01*
X52793825Y-64963622D01*
X52837669Y-64812708D01*
X52837670Y-64812702D01*
X52840505Y-64776683D01*
X52840504Y-64417703D01*
X52858181Y-64357500D01*
X67825491Y-64357500D01*
X68379995Y-64357500D01*
X68379995Y-63828710D01*
X68379994Y-63828709D01*
X68359082Y-63830354D01*
X68359076Y-63830355D01*
X68203804Y-63875466D01*
X68203799Y-63875468D01*
X68064620Y-63957778D01*
X68064611Y-63957785D01*
X67950280Y-64072116D01*
X67950273Y-64072125D01*
X67867963Y-64211304D01*
X67825491Y-64357500D01*
X52858181Y-64357500D01*
X52860188Y-64350664D01*
X52876818Y-64330027D01*
X53863778Y-63343069D01*
X53925101Y-63309584D01*
X53951459Y-63306750D01*
X70952265Y-63306750D01*
X71019304Y-63326435D01*
G37*
G04 #@! TD.AperFunction*
G04 #@! TA.AperFunction,Conductor*
G36*
X40983915Y-39213935D02*
G01*
X41004557Y-39230569D01*
X41031931Y-39257943D01*
X41065416Y-39319266D01*
X41068250Y-39345624D01*
X41068250Y-40951951D01*
X41068137Y-40955696D01*
X41064392Y-41017606D01*
X41065979Y-41026265D01*
X41075571Y-41078612D01*
X41076134Y-41082313D01*
X41083609Y-41143870D01*
X41083610Y-41143874D01*
X41087201Y-41153343D01*
X41093224Y-41174946D01*
X41095054Y-41184930D01*
X41120509Y-41241490D01*
X41121939Y-41244941D01*
X41143932Y-41302930D01*
X41143933Y-41302931D01*
X41149686Y-41311266D01*
X41160711Y-41330813D01*
X41164870Y-41340055D01*
X41164874Y-41340060D01*
X41203121Y-41388878D01*
X41205341Y-41391896D01*
X41240562Y-41442924D01*
X41240566Y-41442928D01*
X41240567Y-41442929D01*
X41287000Y-41484064D01*
X41289691Y-41486598D01*
X45525899Y-45722806D01*
X45528435Y-45725500D01*
X45569569Y-45771931D01*
X45569573Y-45771935D01*
X45589426Y-45785638D01*
X45620617Y-45807167D01*
X45623607Y-45809367D01*
X45672443Y-45847628D01*
X45681671Y-45851781D01*
X45681680Y-45851785D01*
X45701226Y-45862808D01*
X45709570Y-45868568D01*
X45767544Y-45890554D01*
X45767552Y-45890557D01*
X45771014Y-45891991D01*
X45827568Y-45917444D01*
X45837530Y-45919269D01*
X45859151Y-45925296D01*
X45859167Y-45925302D01*
X45868628Y-45928890D01*
X45885371Y-45930923D01*
X45930189Y-45936365D01*
X45933886Y-45936927D01*
X45994894Y-45948107D01*
X45994895Y-45948106D01*
X45994896Y-45948107D01*
X46056793Y-45944363D01*
X46060537Y-45944250D01*
X60579758Y-45944250D01*
X60583503Y-45944363D01*
X60590848Y-45944807D01*
X60645412Y-45948108D01*
X60683120Y-45941197D01*
X60706427Y-45936927D01*
X60710131Y-45936363D01*
X60727976Y-45934196D01*
X60771678Y-45928890D01*
X60781141Y-45925300D01*
X60802767Y-45919272D01*
X60803699Y-45919101D01*
X60812738Y-45917445D01*
X60869318Y-45891979D01*
X60872754Y-45890557D01*
X60930736Y-45868568D01*
X60939072Y-45862812D01*
X60958627Y-45851784D01*
X60967863Y-45847628D01*
X61016702Y-45809363D01*
X61019682Y-45807171D01*
X61070735Y-45771933D01*
X61111871Y-45725498D01*
X61114405Y-45722806D01*
X61177211Y-45660000D01*
X65651746Y-45660000D01*
X65694218Y-45806195D01*
X65776528Y-45945374D01*
X65776535Y-45945383D01*
X65890866Y-46059714D01*
X65890875Y-46059721D01*
X66030054Y-46142031D01*
X66185339Y-46187145D01*
X66206250Y-46188789D01*
X66206250Y-45660000D01*
X65651746Y-45660000D01*
X61177211Y-45660000D01*
X61764056Y-45073155D01*
X61766748Y-45070621D01*
X61813183Y-45029485D01*
X61848421Y-44978432D01*
X61850613Y-44975452D01*
X61888878Y-44926613D01*
X61893034Y-44917377D01*
X61904062Y-44897822D01*
X61909818Y-44889486D01*
X61931816Y-44831479D01*
X61933234Y-44828058D01*
X61946190Y-44799270D01*
X61949354Y-44793168D01*
X62017494Y-44677952D01*
X62040970Y-44597143D01*
X62072363Y-44544061D01*
X63692107Y-42924319D01*
X63753430Y-42890834D01*
X63779788Y-42888000D01*
X65188148Y-42888000D01*
X65579389Y-42888000D01*
X65731750Y-42888000D01*
X65798789Y-42907685D01*
X65844544Y-42960489D01*
X65855750Y-43012000D01*
X65855750Y-43783333D01*
X65836065Y-43850372D01*
X65819431Y-43871014D01*
X65776137Y-43914307D01*
X65776131Y-43914315D01*
X65693755Y-44053606D01*
X65693754Y-44053609D01*
X65648607Y-44209002D01*
X65648606Y-44209008D01*
X65645750Y-44245308D01*
X65645750Y-44654692D01*
X65648606Y-44690991D01*
X65648607Y-44690997D01*
X65693754Y-44846390D01*
X65693757Y-44846397D01*
X65706160Y-44867370D01*
X65723343Y-44935094D01*
X65706162Y-44993608D01*
X65694218Y-45013804D01*
X65651746Y-45160000D01*
X65957898Y-45160000D01*
X66021016Y-45177267D01*
X66029855Y-45182494D01*
X66029858Y-45182494D01*
X66029860Y-45182496D01*
X66185252Y-45227642D01*
X66185255Y-45227642D01*
X66185257Y-45227643D01*
X66197358Y-45228595D01*
X66221558Y-45230500D01*
X66221560Y-45230500D01*
X66531750Y-45230500D01*
X66598789Y-45250185D01*
X66644544Y-45302989D01*
X66655750Y-45354500D01*
X66655750Y-45781571D01*
X66655219Y-45789673D01*
X66650568Y-45824999D01*
X66650568Y-45825000D01*
X66655750Y-45864360D01*
X66671205Y-45981760D01*
X66671206Y-45981762D01*
X66696811Y-46043577D01*
X66706250Y-46091030D01*
X66706250Y-46188789D01*
X66707253Y-46188711D01*
X66775630Y-46203078D01*
X66815352Y-46236841D01*
X66827969Y-46253284D01*
X66856238Y-46274974D01*
X66862343Y-46280328D01*
X68600919Y-48018904D01*
X68606270Y-48025005D01*
X68627968Y-48053282D01*
X68753409Y-48149536D01*
X68899488Y-48210044D01*
X68977869Y-48220363D01*
X69056249Y-48230682D01*
X69056250Y-48230682D01*
X69091579Y-48226030D01*
X69099678Y-48225500D01*
X71032908Y-48225500D01*
X71099947Y-48245185D01*
X71145702Y-48297989D01*
X71155646Y-48367147D01*
X71132174Y-48423812D01*
X71106647Y-48457910D01*
X71106645Y-48457913D01*
X71056403Y-48592620D01*
X71056401Y-48592627D01*
X71050000Y-48652155D01*
X71050000Y-48900000D01*
X73550000Y-48900000D01*
X73550000Y-48652172D01*
X73549999Y-48652155D01*
X73543598Y-48592627D01*
X73543597Y-48592623D01*
X73508702Y-48499065D01*
X73503718Y-48429373D01*
X73537203Y-48368050D01*
X73598526Y-48334565D01*
X73668217Y-48339549D01*
X73712565Y-48368050D01*
X74769431Y-49424916D01*
X74802916Y-49486239D01*
X74805750Y-49512597D01*
X74805750Y-54462861D01*
X74786065Y-54529900D01*
X74733261Y-54575655D01*
X74664103Y-54585599D01*
X74600547Y-54556574D01*
X74574363Y-54524861D01*
X74564030Y-54506966D01*
X74551283Y-54484886D01*
X74424621Y-54344214D01*
X74423341Y-54343284D01*
X74271484Y-54232953D01*
X74271479Y-54232950D01*
X74098557Y-54155959D01*
X74098552Y-54155957D01*
X73952751Y-54124967D01*
X73913396Y-54116602D01*
X73824483Y-54116602D01*
X73757444Y-54096917D01*
X73711689Y-54044113D01*
X73700483Y-53992602D01*
X73700483Y-53850202D01*
X73697650Y-53814208D01*
X73697649Y-53814202D01*
X73652890Y-53660143D01*
X73652889Y-53660140D01*
X73571221Y-53522046D01*
X73571214Y-53522037D01*
X73457777Y-53408600D01*
X73451609Y-53403816D01*
X73453563Y-53401296D01*
X73415908Y-53360991D01*
X73403384Y-53292253D01*
X73427430Y-53230985D01*
X73493793Y-53142335D01*
X73493792Y-53142335D01*
X73493796Y-53142331D01*
X73544091Y-53007483D01*
X73550500Y-52947873D01*
X73550499Y-51952128D01*
X73544091Y-51892517D01*
X73540908Y-51883984D01*
X73493797Y-51757671D01*
X73493793Y-51757664D01*
X73407547Y-51642455D01*
X73407544Y-51642452D01*
X73292335Y-51556206D01*
X73292328Y-51556202D01*
X73157482Y-51505908D01*
X73157483Y-51505908D01*
X73097883Y-51499501D01*
X73097881Y-51499500D01*
X73097873Y-51499500D01*
X73097864Y-51499500D01*
X71502129Y-51499500D01*
X71502123Y-51499501D01*
X71442516Y-51505908D01*
X71307671Y-51556202D01*
X71307664Y-51556206D01*
X71192455Y-51642452D01*
X71192452Y-51642455D01*
X71106206Y-51757664D01*
X71106202Y-51757671D01*
X71055908Y-51892517D01*
X71054126Y-51900062D01*
X71051984Y-51899555D01*
X71029520Y-51953777D01*
X71008462Y-51974339D01*
X70946716Y-52021718D01*
X70925024Y-52049990D01*
X70919671Y-52056094D01*
X69456096Y-53519668D01*
X69449994Y-53525019D01*
X69421720Y-53546715D01*
X69421718Y-53546718D01*
X69366951Y-53618090D01*
X69310526Y-53659291D01*
X69268578Y-53666602D01*
X68923054Y-53666602D01*
X68919310Y-53666489D01*
X68857398Y-53662744D01*
X68857388Y-53662744D01*
X68847413Y-53664572D01*
X68825070Y-53666602D01*
X68527130Y-53666602D01*
X68527123Y-53666603D01*
X68467516Y-53673010D01*
X68332671Y-53723304D01*
X68332664Y-53723308D01*
X68217455Y-53809554D01*
X68217452Y-53809557D01*
X68131206Y-53924766D01*
X68131202Y-53924773D01*
X68107776Y-53987583D01*
X68065905Y-54043517D01*
X68000440Y-54067934D01*
X67991594Y-54068250D01*
X66507325Y-54068250D01*
X66440286Y-54048565D01*
X66394531Y-53995761D01*
X66383325Y-53944250D01*
X66383325Y-53513190D01*
X66403010Y-53446151D01*
X66455814Y-53400396D01*
X66524972Y-53390452D01*
X66535840Y-53392513D01*
X66542510Y-53394088D01*
X66542517Y-53394091D01*
X66602127Y-53400500D01*
X68197872Y-53400499D01*
X68257483Y-53394091D01*
X68392331Y-53343796D01*
X68507546Y-53257546D01*
X68593796Y-53142331D01*
X68644091Y-53007483D01*
X68650500Y-52947873D01*
X68650499Y-51952128D01*
X68644091Y-51892517D01*
X68640908Y-51883984D01*
X68593797Y-51757671D01*
X68593793Y-51757664D01*
X68507547Y-51642455D01*
X68507544Y-51642452D01*
X68392335Y-51556206D01*
X68392328Y-51556202D01*
X68257482Y-51505908D01*
X68257483Y-51505908D01*
X68197883Y-51499501D01*
X68197881Y-51499500D01*
X68197873Y-51499500D01*
X68197865Y-51499500D01*
X67491519Y-51499500D01*
X67424480Y-51479815D01*
X67403838Y-51463181D01*
X67074943Y-51134286D01*
X66741598Y-50800941D01*
X66739064Y-50798250D01*
X66697929Y-50751817D01*
X66697928Y-50751816D01*
X66697924Y-50751812D01*
X66646896Y-50716591D01*
X66643887Y-50714377D01*
X66595060Y-50676124D01*
X66595055Y-50676120D01*
X66585813Y-50671961D01*
X66566264Y-50660935D01*
X66552086Y-50651148D01*
X66525742Y-50618639D01*
X66524532Y-50619549D01*
X66487329Y-50570000D01*
X66181177Y-50570000D01*
X66118058Y-50552732D01*
X66109220Y-50547506D01*
X66109218Y-50547505D01*
X66109214Y-50547503D01*
X65953822Y-50502357D01*
X65953816Y-50502356D01*
X65917517Y-50499500D01*
X65917515Y-50499500D01*
X65448135Y-50499500D01*
X65448133Y-50499500D01*
X65411833Y-50502356D01*
X65411827Y-50502357D01*
X65256435Y-50547503D01*
X65256430Y-50547506D01*
X65247591Y-50552732D01*
X65184473Y-50570000D01*
X64878321Y-50570000D01*
X64920793Y-50716194D01*
X64932736Y-50736389D01*
X64949917Y-50804113D01*
X64932736Y-50862628D01*
X64920331Y-50883604D01*
X64920329Y-50883609D01*
X64875182Y-51039002D01*
X64875181Y-51039008D01*
X64872325Y-51075308D01*
X64872325Y-51484692D01*
X64875181Y-51520991D01*
X64875182Y-51520997D01*
X64920329Y-51676390D01*
X64920330Y-51676393D01*
X64920331Y-51676395D01*
X64960867Y-51744938D01*
X64965057Y-51752022D01*
X64982325Y-51815143D01*
X64982325Y-53770074D01*
X64962640Y-53837113D01*
X64909836Y-53882868D01*
X64884107Y-53891364D01*
X64807696Y-53907606D01*
X64807692Y-53907607D01*
X64634770Y-53984598D01*
X64634765Y-53984601D01*
X64481629Y-54095861D01*
X64354966Y-54236535D01*
X64260321Y-54400465D01*
X64260318Y-54400472D01*
X64218265Y-54529900D01*
X64201826Y-54580494D01*
X64182040Y-54768750D01*
X64201826Y-54957006D01*
X64201827Y-54957009D01*
X64260318Y-55137027D01*
X64260321Y-55137034D01*
X64354967Y-55300966D01*
X64481629Y-55441638D01*
X64634765Y-55552898D01*
X64634770Y-55552901D01*
X64807692Y-55629892D01*
X64807697Y-55629894D01*
X64992854Y-55669250D01*
X64992855Y-55669250D01*
X65182144Y-55669250D01*
X65182146Y-55669250D01*
X65367303Y-55629894D01*
X65540230Y-55552901D01*
X65600183Y-55509343D01*
X65622771Y-55492932D01*
X65688577Y-55469452D01*
X65695656Y-55469250D01*
X67950500Y-55469250D01*
X68017539Y-55488935D01*
X68063294Y-55541739D01*
X68074500Y-55593250D01*
X68074500Y-55914971D01*
X68074501Y-55914978D01*
X68080908Y-55974585D01*
X68131202Y-56109430D01*
X68131206Y-56109437D01*
X68217452Y-56224646D01*
X68217455Y-56224649D01*
X68332664Y-56310895D01*
X68332671Y-56310899D01*
X68377618Y-56327663D01*
X68467517Y-56361193D01*
X68527127Y-56367602D01*
X69272872Y-56367601D01*
X69332483Y-56361193D01*
X69467331Y-56310898D01*
X69582546Y-56224648D01*
X69668796Y-56109433D01*
X69719091Y-55974585D01*
X69725500Y-55914975D01*
X69725499Y-55793845D01*
X69745183Y-55726807D01*
X69761842Y-55706141D01*
X69763348Y-55704636D01*
X69824682Y-55671171D01*
X69894372Y-55676179D01*
X69950292Y-55718069D01*
X69974687Y-55783541D01*
X69975000Y-55792346D01*
X69975000Y-55914946D01*
X69981401Y-55974474D01*
X69981403Y-55974481D01*
X70031645Y-56109188D01*
X70031649Y-56109195D01*
X70117809Y-56224289D01*
X70117812Y-56224292D01*
X70232906Y-56310452D01*
X70232913Y-56310456D01*
X70367620Y-56360698D01*
X70367627Y-56360700D01*
X70427155Y-56367101D01*
X70427172Y-56367102D01*
X70600000Y-56367102D01*
X70600000Y-55841601D01*
X70619685Y-55774562D01*
X70672489Y-55728807D01*
X70723997Y-55717601D01*
X70876001Y-55717601D01*
X70943039Y-55737286D01*
X70988794Y-55790090D01*
X71000000Y-55841601D01*
X71000000Y-56367102D01*
X71172828Y-56367102D01*
X71172844Y-56367101D01*
X71232372Y-56360700D01*
X71232379Y-56360698D01*
X71367086Y-56310456D01*
X71367093Y-56310452D01*
X71482187Y-56224292D01*
X71482190Y-56224289D01*
X71568350Y-56109195D01*
X71568354Y-56109188D01*
X71618596Y-55974481D01*
X71618598Y-55974474D01*
X71624999Y-55914946D01*
X71625000Y-55914929D01*
X71625000Y-55867102D01*
X71464435Y-55867102D01*
X71397396Y-55847417D01*
X71351641Y-55794613D01*
X71341697Y-55725455D01*
X71370722Y-55661899D01*
X71390130Y-55643831D01*
X71392134Y-55642331D01*
X71457600Y-55617917D01*
X71466439Y-55617602D01*
X73092492Y-55617602D01*
X73159531Y-55637287D01*
X73184641Y-55658629D01*
X73212878Y-55689989D01*
X73212885Y-55689995D01*
X73366015Y-55801250D01*
X73366020Y-55801253D01*
X73538942Y-55878244D01*
X73538947Y-55878246D01*
X73724104Y-55917602D01*
X73724105Y-55917602D01*
X73913394Y-55917602D01*
X73913396Y-55917602D01*
X74098553Y-55878246D01*
X74271480Y-55801253D01*
X74424621Y-55689990D01*
X74551283Y-55549318D01*
X74574363Y-55509341D01*
X74624929Y-55461127D01*
X74693536Y-55447903D01*
X74758401Y-55473871D01*
X74798930Y-55530785D01*
X74805750Y-55571342D01*
X74805750Y-60024903D01*
X74786065Y-60091942D01*
X74769431Y-60112584D01*
X73606334Y-61275681D01*
X73545011Y-61309166D01*
X73518653Y-61312000D01*
X35438540Y-61312000D01*
X35430441Y-61311469D01*
X35395112Y-61306818D01*
X35355751Y-61312000D01*
X35238351Y-61327455D01*
X35238349Y-61327456D01*
X35092272Y-61387963D01*
X34966826Y-61484221D01*
X34945136Y-61512490D01*
X34939783Y-61518594D01*
X32656206Y-63802169D01*
X32603121Y-63833564D01*
X32530615Y-63854629D01*
X32530613Y-63854630D01*
X32399398Y-63932230D01*
X32331674Y-63949413D01*
X32273156Y-63932230D01*
X32176393Y-63875005D01*
X32176390Y-63875004D01*
X32020997Y-63829857D01*
X32020991Y-63829856D01*
X31984692Y-63827000D01*
X31984690Y-63827000D01*
X31515310Y-63827000D01*
X31515308Y-63827000D01*
X31479008Y-63829856D01*
X31479002Y-63829857D01*
X31323609Y-63875004D01*
X31323608Y-63875004D01*
X31202626Y-63946552D01*
X31134902Y-63963734D01*
X31076385Y-63946551D01*
X30956190Y-63875468D01*
X30956185Y-63875466D01*
X30800913Y-63830355D01*
X30800907Y-63830354D01*
X30779995Y-63828709D01*
X30779995Y-64663000D01*
X30760310Y-64730039D01*
X30707506Y-64775794D01*
X30655995Y-64787000D01*
X30295303Y-64787000D01*
X30259003Y-64789856D01*
X30258997Y-64789857D01*
X30103605Y-64835003D01*
X30103600Y-64835006D01*
X30094761Y-64840232D01*
X30031643Y-64857500D01*
X29693652Y-64857500D01*
X29651130Y-64863821D01*
X29639899Y-64863141D01*
X29639889Y-64863142D01*
X29578886Y-64874321D01*
X29575185Y-64874884D01*
X29513628Y-64882359D01*
X29513621Y-64882361D01*
X29504147Y-64885954D01*
X29482549Y-64891975D01*
X29472569Y-64893804D01*
X29416019Y-64919255D01*
X29412560Y-64920688D01*
X29354571Y-64942681D01*
X29354563Y-64942685D01*
X29346221Y-64948443D01*
X29326689Y-64959460D01*
X29317446Y-64963620D01*
X29268635Y-65001860D01*
X29265620Y-65004079D01*
X29214572Y-65039316D01*
X29214565Y-65039322D01*
X29173435Y-65085748D01*
X29170868Y-65088474D01*
X28095966Y-66163375D01*
X28093240Y-66165942D01*
X28046818Y-66207068D01*
X28011586Y-66258109D01*
X28009368Y-66261124D01*
X27971124Y-66309939D01*
X27971119Y-66309948D01*
X27966960Y-66319188D01*
X27955942Y-66338723D01*
X27950187Y-66347061D01*
X27950183Y-66347067D01*
X27950182Y-66347070D01*
X27950180Y-66347074D01*
X27950179Y-66347077D01*
X27928189Y-66405055D01*
X27926757Y-66408513D01*
X27901305Y-66465068D01*
X27899477Y-66475042D01*
X27893453Y-66496653D01*
X27889860Y-66506127D01*
X27889859Y-66506128D01*
X27882384Y-66567685D01*
X27881821Y-66571386D01*
X27870642Y-66632390D01*
X27870642Y-66632395D01*
X27874387Y-66694302D01*
X27874500Y-66698047D01*
X27874500Y-67625772D01*
X27854815Y-67692811D01*
X27802011Y-67738566D01*
X27732853Y-67748510D01*
X27669297Y-67719485D01*
X27649492Y-67697699D01*
X27649130Y-67697190D01*
X27524450Y-67522101D01*
X27524448Y-67522099D01*
X27524443Y-67522093D01*
X27368889Y-67373774D01*
X27188064Y-67257565D01*
X26988514Y-67177677D01*
X26777457Y-67137000D01*
X26777456Y-67137000D01*
X26616366Y-67137000D01*
X26456013Y-67152312D01*
X26456009Y-67152313D01*
X26249777Y-67212868D01*
X26058720Y-67311364D01*
X25889769Y-67444229D01*
X25889766Y-67444233D01*
X25749005Y-67606678D01*
X25641537Y-67792819D01*
X25571235Y-67995942D01*
X25571234Y-67995944D01*
X25553488Y-68119375D01*
X25524463Y-68182931D01*
X25465685Y-68220705D01*
X25395815Y-68220705D01*
X25337037Y-68182931D01*
X25308012Y-68119375D01*
X25306750Y-68101728D01*
X25306750Y-64357500D01*
X29725491Y-64357500D01*
X30279995Y-64357500D01*
X30279995Y-63828710D01*
X30279994Y-63828709D01*
X30259082Y-63830354D01*
X30259076Y-63830355D01*
X30103804Y-63875466D01*
X30103799Y-63875468D01*
X29964620Y-63957778D01*
X29964611Y-63957785D01*
X29850280Y-64072116D01*
X29850273Y-64072125D01*
X29767963Y-64211304D01*
X29725491Y-64357500D01*
X25306750Y-64357500D01*
X25306750Y-54768750D01*
X26082040Y-54768750D01*
X26101826Y-54957006D01*
X26101827Y-54957009D01*
X26160318Y-55137027D01*
X26160321Y-55137034D01*
X26254967Y-55300966D01*
X26381629Y-55441638D01*
X26534765Y-55552898D01*
X26534770Y-55552901D01*
X26707692Y-55629892D01*
X26707697Y-55629894D01*
X26892854Y-55669250D01*
X26892855Y-55669250D01*
X27082144Y-55669250D01*
X27082146Y-55669250D01*
X27267303Y-55629894D01*
X27440230Y-55552901D01*
X27593371Y-55441638D01*
X27720033Y-55300966D01*
X27814679Y-55137034D01*
X27873174Y-54957006D01*
X27892960Y-54768750D01*
X27873174Y-54580494D01*
X27814679Y-54400466D01*
X27720033Y-54236534D01*
X27719844Y-54236324D01*
X27719773Y-54236177D01*
X27716214Y-54231278D01*
X27717110Y-54230626D01*
X27689619Y-54173330D01*
X27688000Y-54153358D01*
X27688000Y-52414379D01*
X27707685Y-52347340D01*
X27724315Y-52326702D01*
X27837819Y-52213197D01*
X27899142Y-52179713D01*
X27968834Y-52184697D01*
X28024767Y-52226569D01*
X28049184Y-52292033D01*
X28049500Y-52300879D01*
X28049500Y-52947870D01*
X28049501Y-52947872D01*
X28055908Y-53007483D01*
X28106202Y-53142328D01*
X28106206Y-53142335D01*
X28192452Y-53257544D01*
X28192455Y-53257547D01*
X28307664Y-53343793D01*
X28307671Y-53343797D01*
X28442517Y-53394091D01*
X28442516Y-53394091D01*
X28449444Y-53394835D01*
X28502127Y-53400500D01*
X30097872Y-53400499D01*
X30157483Y-53394091D01*
X30292331Y-53343796D01*
X30407546Y-53257546D01*
X30493796Y-53142331D01*
X30544091Y-53007483D01*
X30550500Y-52947873D01*
X30550500Y-52947870D01*
X32949500Y-52947870D01*
X32949501Y-52947872D01*
X32955908Y-53007483D01*
X33006202Y-53142328D01*
X33006206Y-53142335D01*
X33092452Y-53257544D01*
X33092455Y-53257547D01*
X33207664Y-53343793D01*
X33207671Y-53343797D01*
X33342517Y-53394091D01*
X33342516Y-53394091D01*
X33349444Y-53394835D01*
X33402127Y-53400500D01*
X34997872Y-53400499D01*
X35057483Y-53394091D01*
X35192331Y-53343796D01*
X35307546Y-53257546D01*
X35393796Y-53142331D01*
X35397960Y-53131165D01*
X35439829Y-53075234D01*
X35505293Y-53050816D01*
X35514141Y-53050500D01*
X49106572Y-53050500D01*
X49114670Y-53051030D01*
X49150000Y-53055682D01*
X49150001Y-53055682D01*
X49202254Y-53048802D01*
X49306762Y-53035044D01*
X49452841Y-52974536D01*
X49487590Y-52947872D01*
X49578282Y-52878282D01*
X49599984Y-52849998D01*
X49605310Y-52843923D01*
X52662416Y-49786819D01*
X52723739Y-49753334D01*
X52750097Y-49750500D01*
X64807017Y-49750500D01*
X64874056Y-49770185D01*
X64919811Y-49822989D01*
X64929755Y-49892147D01*
X64922924Y-49916299D01*
X64922970Y-49916313D01*
X64921101Y-49922743D01*
X64920818Y-49923747D01*
X64920794Y-49923801D01*
X64878321Y-50070000D01*
X66455554Y-50070000D01*
X66498888Y-50077819D01*
X66542508Y-50094088D01*
X66542511Y-50094088D01*
X66542517Y-50094091D01*
X66602127Y-50100500D01*
X68197872Y-50100499D01*
X68257483Y-50094091D01*
X68392331Y-50043796D01*
X68507546Y-49957546D01*
X68593796Y-49842331D01*
X68644091Y-49707483D01*
X68650500Y-49647873D01*
X68650500Y-49400000D01*
X71050000Y-49400000D01*
X71050000Y-49647844D01*
X71056401Y-49707372D01*
X71056403Y-49707379D01*
X71106645Y-49842086D01*
X71106649Y-49842093D01*
X71192809Y-49957187D01*
X71192812Y-49957190D01*
X71307906Y-50043350D01*
X71307913Y-50043354D01*
X71442620Y-50093596D01*
X71442627Y-50093598D01*
X71502155Y-50099999D01*
X71502172Y-50100000D01*
X72050000Y-50100000D01*
X72050000Y-49400000D01*
X72550000Y-49400000D01*
X72550000Y-50100000D01*
X73097828Y-50100000D01*
X73097844Y-50099999D01*
X73157372Y-50093598D01*
X73157379Y-50093596D01*
X73292086Y-50043354D01*
X73292093Y-50043350D01*
X73407187Y-49957190D01*
X73407190Y-49957187D01*
X73493350Y-49842093D01*
X73493354Y-49842086D01*
X73543596Y-49707379D01*
X73543598Y-49707372D01*
X73549999Y-49647844D01*
X73550000Y-49647827D01*
X73550000Y-49400000D01*
X72550000Y-49400000D01*
X72050000Y-49400000D01*
X71050000Y-49400000D01*
X68650500Y-49400000D01*
X68650499Y-48652128D01*
X68644103Y-48592627D01*
X68644091Y-48592516D01*
X68593797Y-48457671D01*
X68593793Y-48457664D01*
X68507547Y-48342455D01*
X68507544Y-48342452D01*
X68392335Y-48256206D01*
X68392328Y-48256202D01*
X68257482Y-48205908D01*
X68257483Y-48205908D01*
X68197883Y-48199501D01*
X68197881Y-48199500D01*
X68197873Y-48199500D01*
X68197864Y-48199500D01*
X66602129Y-48199500D01*
X66602123Y-48199501D01*
X66542516Y-48205908D01*
X66407671Y-48256202D01*
X66407664Y-48256206D01*
X66292455Y-48342452D01*
X66292452Y-48342455D01*
X66206206Y-48457664D01*
X66206204Y-48457668D01*
X66206204Y-48457669D01*
X66202039Y-48468834D01*
X66160171Y-48524766D01*
X66094707Y-48549184D01*
X66085859Y-48549500D01*
X52493428Y-48549500D01*
X52485329Y-48548969D01*
X52450000Y-48544318D01*
X52410639Y-48549500D01*
X52293239Y-48564955D01*
X52293237Y-48564956D01*
X52147157Y-48625464D01*
X52021719Y-48721716D01*
X52000019Y-48749994D01*
X51994668Y-48756096D01*
X48937584Y-51813181D01*
X48876261Y-51846666D01*
X48849903Y-51849500D01*
X35514141Y-51849500D01*
X35447102Y-51829815D01*
X35401347Y-51777011D01*
X35397969Y-51768859D01*
X35393796Y-51757669D01*
X35393793Y-51757665D01*
X35393793Y-51757664D01*
X35307547Y-51642455D01*
X35307544Y-51642452D01*
X35192335Y-51556206D01*
X35192328Y-51556202D01*
X35057482Y-51505908D01*
X35057483Y-51505908D01*
X34997883Y-51499501D01*
X34997881Y-51499500D01*
X34997873Y-51499500D01*
X34997864Y-51499500D01*
X33402129Y-51499500D01*
X33402123Y-51499501D01*
X33342516Y-51505908D01*
X33207671Y-51556202D01*
X33207664Y-51556206D01*
X33092455Y-51642452D01*
X33092452Y-51642455D01*
X33006206Y-51757664D01*
X33006202Y-51757671D01*
X32955908Y-51892517D01*
X32950587Y-51942016D01*
X32949501Y-51952123D01*
X32949500Y-51952135D01*
X32949500Y-52947870D01*
X30550500Y-52947870D01*
X30550499Y-51952128D01*
X30544091Y-51892517D01*
X30540908Y-51883984D01*
X30493797Y-51757671D01*
X30493793Y-51757664D01*
X30407547Y-51642455D01*
X30407544Y-51642452D01*
X30292335Y-51556206D01*
X30292328Y-51556202D01*
X30157482Y-51505908D01*
X30157483Y-51505908D01*
X30097883Y-51499501D01*
X30097881Y-51499500D01*
X30097873Y-51499500D01*
X30097865Y-51499500D01*
X29391519Y-51499500D01*
X29324480Y-51479815D01*
X29303838Y-51463181D01*
X28974943Y-51134286D01*
X28641599Y-50800942D01*
X28639048Y-50798231D01*
X28593648Y-50746985D01*
X28563926Y-50683752D01*
X28567387Y-50630163D01*
X28584865Y-50570000D01*
X28278715Y-50570000D01*
X28215594Y-50552732D01*
X28206760Y-50547507D01*
X28206752Y-50547504D01*
X28051358Y-50502357D01*
X28051352Y-50502356D01*
X28015053Y-50499500D01*
X28015051Y-50499500D01*
X27545671Y-50499500D01*
X27545669Y-50499500D01*
X27509369Y-50502356D01*
X27509363Y-50502357D01*
X27353971Y-50547503D01*
X27353966Y-50547506D01*
X27345127Y-50552732D01*
X27282009Y-50570000D01*
X26975857Y-50570000D01*
X27018329Y-50716194D01*
X27030272Y-50736389D01*
X27047453Y-50804113D01*
X27030272Y-50862628D01*
X27017867Y-50883604D01*
X27017865Y-50883609D01*
X26972718Y-51039002D01*
X26972717Y-51039008D01*
X26971354Y-51056335D01*
X26946469Y-51121623D01*
X26935417Y-51134286D01*
X26508466Y-51561236D01*
X26505740Y-51563803D01*
X26459318Y-51604929D01*
X26424086Y-51655970D01*
X26421868Y-51658985D01*
X26383624Y-51707800D01*
X26383619Y-51707809D01*
X26379460Y-51717049D01*
X26368442Y-51736584D01*
X26362687Y-51744922D01*
X26362683Y-51744928D01*
X26362682Y-51744931D01*
X26362680Y-51744935D01*
X26362679Y-51744938D01*
X26340689Y-51802916D01*
X26339257Y-51806374D01*
X26313805Y-51862929D01*
X26311977Y-51872903D01*
X26305953Y-51894514D01*
X26302360Y-51903988D01*
X26302359Y-51903989D01*
X26294884Y-51965546D01*
X26294321Y-51969247D01*
X26283142Y-52030251D01*
X26283142Y-52030256D01*
X26286887Y-52092163D01*
X26287000Y-52095908D01*
X26287000Y-54153358D01*
X26267315Y-54220397D01*
X26255156Y-54236324D01*
X26254968Y-54236532D01*
X26254964Y-54236537D01*
X26160321Y-54400465D01*
X26160318Y-54400472D01*
X26118265Y-54529900D01*
X26101826Y-54580494D01*
X26082040Y-54768750D01*
X25306750Y-54768750D01*
X25306750Y-50070000D01*
X26975857Y-50070000D01*
X27530361Y-50070000D01*
X28030361Y-50070000D01*
X28355554Y-50070000D01*
X28398888Y-50077819D01*
X28442508Y-50094088D01*
X28442511Y-50094088D01*
X28442517Y-50094091D01*
X28502127Y-50100500D01*
X30097872Y-50100499D01*
X30157483Y-50094091D01*
X30292331Y-50043796D01*
X30407546Y-49957546D01*
X30493796Y-49842331D01*
X30544091Y-49707483D01*
X30550500Y-49647873D01*
X30550500Y-49400000D01*
X32950000Y-49400000D01*
X32950000Y-49647844D01*
X32956401Y-49707372D01*
X32956403Y-49707379D01*
X33006645Y-49842086D01*
X33006649Y-49842093D01*
X33092809Y-49957187D01*
X33092812Y-49957190D01*
X33207906Y-50043350D01*
X33207913Y-50043354D01*
X33342620Y-50093596D01*
X33342627Y-50093598D01*
X33402155Y-50099999D01*
X33402172Y-50100000D01*
X33950000Y-50100000D01*
X33950000Y-49400000D01*
X34450000Y-49400000D01*
X34450000Y-50100000D01*
X34997828Y-50100000D01*
X34997844Y-50099999D01*
X35057372Y-50093598D01*
X35057379Y-50093596D01*
X35192086Y-50043354D01*
X35192093Y-50043350D01*
X35307187Y-49957190D01*
X35307190Y-49957187D01*
X35393350Y-49842093D01*
X35393354Y-49842086D01*
X35443596Y-49707379D01*
X35443598Y-49707372D01*
X35449999Y-49647844D01*
X35450000Y-49647827D01*
X35450000Y-49400000D01*
X34450000Y-49400000D01*
X33950000Y-49400000D01*
X32950000Y-49400000D01*
X30550500Y-49400000D01*
X30550499Y-48900000D01*
X32950000Y-48900000D01*
X33950000Y-48900000D01*
X33950000Y-48200000D01*
X34450000Y-48200000D01*
X34450000Y-48900000D01*
X35450000Y-48900000D01*
X35450000Y-48652172D01*
X35449999Y-48652155D01*
X35443598Y-48592627D01*
X35443596Y-48592620D01*
X35393354Y-48457913D01*
X35393350Y-48457906D01*
X35307190Y-48342812D01*
X35307187Y-48342809D01*
X35192093Y-48256649D01*
X35192086Y-48256645D01*
X35057379Y-48206403D01*
X35057372Y-48206401D01*
X34997844Y-48200000D01*
X34450000Y-48200000D01*
X33950000Y-48200000D01*
X33402155Y-48200000D01*
X33342627Y-48206401D01*
X33342620Y-48206403D01*
X33207913Y-48256645D01*
X33207906Y-48256649D01*
X33092812Y-48342809D01*
X33092809Y-48342812D01*
X33006649Y-48457906D01*
X33006645Y-48457913D01*
X32956403Y-48592620D01*
X32956401Y-48592627D01*
X32950000Y-48652155D01*
X32950000Y-48900000D01*
X30550499Y-48900000D01*
X30550499Y-48652128D01*
X30544103Y-48592627D01*
X30544091Y-48592516D01*
X30493797Y-48457671D01*
X30493793Y-48457664D01*
X30407547Y-48342455D01*
X30407544Y-48342452D01*
X30292335Y-48256206D01*
X30292328Y-48256202D01*
X30157482Y-48205908D01*
X30157483Y-48205908D01*
X30097883Y-48199501D01*
X30097881Y-48199500D01*
X30097873Y-48199500D01*
X30097864Y-48199500D01*
X28502129Y-48199500D01*
X28502123Y-48199501D01*
X28442516Y-48205908D01*
X28307671Y-48256202D01*
X28307664Y-48256206D01*
X28192455Y-48342452D01*
X28192452Y-48342455D01*
X28106206Y-48457664D01*
X28106202Y-48457671D01*
X28055908Y-48592517D01*
X28049501Y-48652116D01*
X28049501Y-48652123D01*
X28049500Y-48652135D01*
X28049500Y-49469278D01*
X28030361Y-49534457D01*
X28030361Y-50070000D01*
X27530361Y-50070000D01*
X27530361Y-49541210D01*
X27530360Y-49541209D01*
X27509448Y-49542854D01*
X27509442Y-49542855D01*
X27354170Y-49587966D01*
X27354165Y-49587968D01*
X27214986Y-49670278D01*
X27214977Y-49670285D01*
X27100646Y-49784616D01*
X27100639Y-49784625D01*
X27018329Y-49923804D01*
X26975857Y-50070000D01*
X25306750Y-50070000D01*
X25306750Y-42410268D01*
X25326435Y-42343229D01*
X25343069Y-42322587D01*
X28435087Y-39230569D01*
X28496410Y-39197084D01*
X28522768Y-39194250D01*
X40916876Y-39194250D01*
X40983915Y-39213935D01*
G37*
G04 #@! TD.AperFunction*
G04 #@! TA.AperFunction,Conductor*
G36*
X73010718Y-42907685D02*
G01*
X73031360Y-42924319D01*
X74752502Y-44645461D01*
X74757853Y-44651562D01*
X74779551Y-44679839D01*
X74854570Y-44737403D01*
X74898990Y-44771488D01*
X74904988Y-44776090D01*
X74904992Y-44776093D01*
X75051071Y-44836601D01*
X75125426Y-44846390D01*
X75207832Y-44857239D01*
X75207833Y-44857239D01*
X75243162Y-44852587D01*
X75251261Y-44852057D01*
X77288988Y-44852057D01*
X77356027Y-44871742D01*
X77376669Y-44888376D01*
X77944431Y-45456138D01*
X77977916Y-45517461D01*
X77980750Y-45543819D01*
X77980750Y-53248547D01*
X77961065Y-53315586D01*
X77948900Y-53331519D01*
X77848716Y-53442785D01*
X77825637Y-53482759D01*
X77775070Y-53530975D01*
X77706463Y-53544197D01*
X77641598Y-53518229D01*
X77601070Y-53461315D01*
X77594250Y-53420759D01*
X77594250Y-47668428D01*
X77594781Y-47660326D01*
X77599432Y-47624999D01*
X77599432Y-47624998D01*
X77578794Y-47468239D01*
X77578792Y-47468234D01*
X77518288Y-47322163D01*
X77518285Y-47322158D01*
X77488775Y-47283700D01*
X77422032Y-47196718D01*
X77393755Y-47175020D01*
X77387654Y-47169669D01*
X75861578Y-45643593D01*
X75856224Y-45637488D01*
X75834536Y-45609222D01*
X75834533Y-45609220D01*
X75834532Y-45609218D01*
X75709091Y-45512964D01*
X75563012Y-45452456D01*
X75563010Y-45452455D01*
X75445611Y-45437000D01*
X75406250Y-45431818D01*
X75370920Y-45436469D01*
X75362822Y-45437000D01*
X70990249Y-45437000D01*
X70923210Y-45417315D01*
X70877455Y-45364511D01*
X70866249Y-45313000D01*
X70866249Y-45205363D01*
X70863395Y-45169088D01*
X70818281Y-45013804D01*
X70806340Y-44993613D01*
X70789156Y-44925889D01*
X70806339Y-44867369D01*
X70818744Y-44846395D01*
X70863893Y-44690993D01*
X70866750Y-44654690D01*
X70866750Y-44245310D01*
X70863893Y-44209007D01*
X70863891Y-44209000D01*
X70863317Y-44205854D01*
X70863504Y-44204071D01*
X70863396Y-44202690D01*
X70863652Y-44202669D01*
X70870635Y-44136369D01*
X70914358Y-44081870D01*
X70970508Y-44060459D01*
X71037814Y-44052377D01*
X71037819Y-44052374D01*
X71041466Y-44051937D01*
X71071035Y-44051938D01*
X71074684Y-44052376D01*
X71074686Y-44052377D01*
X71141980Y-44060458D01*
X71163147Y-44063000D01*
X71163148Y-44063000D01*
X71349353Y-44063000D01*
X71370520Y-44060458D01*
X71437814Y-44052377D01*
X71437815Y-44052376D01*
X71441465Y-44051938D01*
X71471035Y-44051938D01*
X71474684Y-44052376D01*
X71474686Y-44052377D01*
X71541980Y-44060458D01*
X71563147Y-44063000D01*
X71563148Y-44063000D01*
X71749347Y-44063000D01*
X71749352Y-44063000D01*
X71837814Y-44052377D01*
X71978592Y-43996861D01*
X72099172Y-43905422D01*
X72190611Y-43784842D01*
X72246127Y-43644064D01*
X72256750Y-43555602D01*
X72256750Y-43012000D01*
X72276435Y-42944961D01*
X72329239Y-42899206D01*
X72380750Y-42888000D01*
X72454389Y-42888000D01*
X72943679Y-42888000D01*
X73010718Y-42907685D01*
G37*
G04 #@! TD.AperFunction*
G04 #@! TA.AperFunction,Conductor*
G36*
X48442539Y-30088935D02*
G01*
X48488294Y-30141739D01*
X48499500Y-30193250D01*
X48499500Y-30534446D01*
X48502401Y-30571317D01*
X48502402Y-30571323D01*
X48548254Y-30729143D01*
X48548255Y-30729146D01*
X48631917Y-30870612D01*
X48631923Y-30870620D01*
X48748129Y-30986826D01*
X48748133Y-30986829D01*
X48748135Y-30986831D01*
X48889602Y-31070494D01*
X48931224Y-31082586D01*
X49047426Y-31116347D01*
X49047429Y-31116347D01*
X49047431Y-31116348D01*
X49059722Y-31117315D01*
X49084304Y-31119250D01*
X49084306Y-31119250D01*
X49850500Y-31119250D01*
X49917539Y-31138935D01*
X49963294Y-31191739D01*
X49974500Y-31243250D01*
X49974500Y-38149771D01*
X49973969Y-38157873D01*
X49969318Y-38193199D01*
X49969318Y-38193200D01*
X49974500Y-38232560D01*
X49989955Y-38349960D01*
X49989956Y-38349962D01*
X50002647Y-38380602D01*
X50050464Y-38496041D01*
X50146718Y-38621482D01*
X50174995Y-38643180D01*
X50181085Y-38648520D01*
X51619249Y-40086684D01*
X53042044Y-41509479D01*
X53047395Y-41515580D01*
X53069093Y-41543857D01*
X53155534Y-41610185D01*
X53194534Y-41640111D01*
X53194537Y-41640112D01*
X53194538Y-41640113D01*
X53204555Y-41644262D01*
X53340613Y-41700619D01*
X53413555Y-41710222D01*
X53497374Y-41721257D01*
X53497375Y-41721257D01*
X53532704Y-41716605D01*
X53540803Y-41716075D01*
X58647255Y-41716075D01*
X58714294Y-41735760D01*
X58734936Y-41752394D01*
X58879668Y-41897126D01*
X58885019Y-41903227D01*
X58906717Y-41931504D01*
X58950576Y-41965158D01*
X59032158Y-42027758D01*
X59032161Y-42027759D01*
X59032162Y-42027760D01*
X59091316Y-42052262D01*
X59160697Y-42081000D01*
X59200922Y-42107877D01*
X59287402Y-42194357D01*
X59425607Y-42276091D01*
X59450706Y-42283382D01*
X59503788Y-42298805D01*
X59562674Y-42336411D01*
X59591880Y-42399883D01*
X59588270Y-42452475D01*
X59547854Y-42591587D01*
X59546209Y-42612499D01*
X59546210Y-42612500D01*
X60380500Y-42612500D01*
X60447539Y-42632185D01*
X60493294Y-42684989D01*
X60504500Y-42736500D01*
X60504500Y-43097192D01*
X60507356Y-43133491D01*
X60507357Y-43133497D01*
X60552503Y-43288889D01*
X60552505Y-43288893D01*
X60552506Y-43288895D01*
X60557732Y-43297733D01*
X60575000Y-43360852D01*
X60575000Y-43753202D01*
X60557734Y-43816320D01*
X60552507Y-43825157D01*
X60552504Y-43825165D01*
X60507357Y-43980559D01*
X60507356Y-43980565D01*
X60504500Y-44016865D01*
X60504500Y-44300037D01*
X60484815Y-44367076D01*
X60468181Y-44387718D01*
X60390661Y-44465238D01*
X60329338Y-44498723D01*
X60302980Y-44501557D01*
X59546210Y-44501557D01*
X59544485Y-44503423D01*
X59484524Y-44539289D01*
X59453431Y-44543250D01*
X46379019Y-44543250D01*
X46311980Y-44523565D01*
X46291338Y-44506931D01*
X45785963Y-44001556D01*
X59546209Y-44001556D01*
X59546210Y-44001557D01*
X60075000Y-44001557D01*
X60075000Y-43112500D01*
X59546210Y-43112500D01*
X59547854Y-43133410D01*
X59592968Y-43288695D01*
X59675278Y-43427874D01*
X59675285Y-43427883D01*
X59716749Y-43469347D01*
X59750234Y-43530670D01*
X59745250Y-43600362D01*
X59716750Y-43644708D01*
X59675286Y-43686172D01*
X59675278Y-43686182D01*
X59592968Y-43825361D01*
X59592966Y-43825366D01*
X59547855Y-43980638D01*
X59547854Y-43980644D01*
X59546209Y-44001556D01*
X45785963Y-44001556D01*
X42505569Y-40721162D01*
X42472084Y-40659839D01*
X42469250Y-40633481D01*
X42469250Y-39432550D01*
X42488935Y-39365511D01*
X42541739Y-39319756D01*
X42610897Y-39309812D01*
X42658347Y-39327012D01*
X42785257Y-39405292D01*
X42785268Y-39405297D01*
X42946143Y-39458605D01*
X43045433Y-39468749D01*
X43068750Y-39468748D01*
X43068750Y-38743750D01*
X43568750Y-38743750D01*
X43568750Y-39468749D01*
X43592058Y-39468749D01*
X43592072Y-39468748D01*
X43691357Y-39458605D01*
X43852231Y-39405297D01*
X43852242Y-39405292D01*
X43996478Y-39316325D01*
X43996482Y-39316322D01*
X44116322Y-39196482D01*
X44116325Y-39196478D01*
X44205292Y-39052242D01*
X44205297Y-39052231D01*
X44258605Y-38891356D01*
X44268749Y-38792072D01*
X44268750Y-38792059D01*
X44268750Y-38743750D01*
X43568750Y-38743750D01*
X43068750Y-38743750D01*
X43068750Y-37518750D01*
X43568750Y-37518750D01*
X43568750Y-38243750D01*
X44268749Y-38243750D01*
X44268749Y-38195442D01*
X44268748Y-38195427D01*
X44258605Y-38096142D01*
X44205297Y-37935268D01*
X44205292Y-37935257D01*
X44116325Y-37791021D01*
X44116322Y-37791017D01*
X43996482Y-37671177D01*
X43996478Y-37671174D01*
X43852242Y-37582207D01*
X43852231Y-37582202D01*
X43691356Y-37528894D01*
X43592072Y-37518750D01*
X43568750Y-37518750D01*
X43068750Y-37518750D01*
X43068750Y-37517151D01*
X42356508Y-37517151D01*
X42289469Y-37497466D01*
X42243714Y-37444662D01*
X42232508Y-37393151D01*
X42232508Y-37032459D01*
X42229651Y-36996159D01*
X42229650Y-36996153D01*
X42184503Y-36840759D01*
X42184500Y-36840751D01*
X42179274Y-36831914D01*
X42162008Y-36768796D01*
X42162008Y-36536510D01*
X42179276Y-36473389D01*
X42182868Y-36467315D01*
X42201744Y-36435398D01*
X42244365Y-36288697D01*
X42247597Y-36277573D01*
X42247598Y-36277567D01*
X42250500Y-36240696D01*
X42250500Y-35912500D01*
X42550000Y-35912500D01*
X42550000Y-36240644D01*
X42552899Y-36277489D01*
X42552900Y-36277495D01*
X42593473Y-36417149D01*
X42612459Y-36431404D01*
X42654251Y-36487397D01*
X42662008Y-36530566D01*
X42662008Y-37017151D01*
X43190798Y-37017151D01*
X43189153Y-36996240D01*
X43151024Y-36864998D01*
X43149549Y-36863891D01*
X43107757Y-36807898D01*
X43100000Y-36764730D01*
X43100000Y-35912500D01*
X43600000Y-35912500D01*
X43600000Y-36822295D01*
X43600001Y-36822295D01*
X43602486Y-36822100D01*
X43760198Y-36776281D01*
X43901552Y-36692685D01*
X43901561Y-36692678D01*
X44017678Y-36576561D01*
X44017685Y-36576552D01*
X44101282Y-36435196D01*
X44101283Y-36435193D01*
X44147099Y-36277495D01*
X44147100Y-36277489D01*
X44150000Y-36240644D01*
X44150000Y-35912500D01*
X43600000Y-35912500D01*
X43100000Y-35912500D01*
X42550000Y-35912500D01*
X42250500Y-35912500D01*
X42250500Y-35084304D01*
X42247598Y-35047432D01*
X42247597Y-35047426D01*
X42201745Y-34889606D01*
X42201744Y-34889603D01*
X42201744Y-34889602D01*
X42138128Y-34782034D01*
X42114110Y-34741420D01*
X42115928Y-34740344D01*
X42094381Y-34685468D01*
X42108059Y-34616950D01*
X42156609Y-34566704D01*
X42217895Y-34550500D01*
X42582742Y-34550500D01*
X42649781Y-34570185D01*
X42695536Y-34622989D01*
X42705480Y-34692147D01*
X42684814Y-34740857D01*
X42686288Y-34741729D01*
X42598717Y-34889803D01*
X42598716Y-34889806D01*
X42552900Y-35047504D01*
X42552899Y-35047510D01*
X42550000Y-35084356D01*
X42550000Y-35412500D01*
X43100000Y-35412500D01*
X43100000Y-34502703D01*
X43600000Y-34502703D01*
X43600000Y-35412500D01*
X44150000Y-35412500D01*
X44150000Y-35084356D01*
X44147100Y-35047510D01*
X44147099Y-35047504D01*
X44101283Y-34889806D01*
X44101282Y-34889803D01*
X44017685Y-34748447D01*
X44017678Y-34748438D01*
X43901561Y-34632321D01*
X43901552Y-34632314D01*
X43760196Y-34548717D01*
X43760193Y-34548716D01*
X43602494Y-34502900D01*
X43602497Y-34502900D01*
X43600000Y-34502703D01*
X43100000Y-34502703D01*
X43100000Y-34502702D01*
X43073765Y-34478461D01*
X43037887Y-34418507D01*
X43040118Y-34348673D01*
X43064533Y-34308988D01*
X43063298Y-34308031D01*
X43068075Y-34301870D01*
X43068081Y-34301865D01*
X43151744Y-34160398D01*
X43197598Y-34002569D01*
X43200500Y-33965694D01*
X43200500Y-32809306D01*
X43197598Y-32772431D01*
X43151744Y-32614602D01*
X43124500Y-32568534D01*
X43117768Y-32557150D01*
X43100500Y-32494030D01*
X43100500Y-32319096D01*
X43117767Y-32255976D01*
X43135262Y-32226395D01*
X43138230Y-32216181D01*
X43180410Y-32070997D01*
X43180411Y-32070990D01*
X43181774Y-32053667D01*
X43206655Y-31988380D01*
X43217704Y-31975720D01*
X45087856Y-30105569D01*
X45149179Y-30072084D01*
X45175537Y-30069250D01*
X48375500Y-30069250D01*
X48442539Y-30088935D01*
G37*
G04 #@! TD.AperFunction*
G04 #@! TA.AperFunction,Conductor*
G36*
X78036789Y-38175935D02*
G01*
X78082544Y-38228739D01*
X78093750Y-38280250D01*
X78093750Y-39606250D01*
X78491578Y-39606250D01*
X78491594Y-39606249D01*
X78551122Y-39599848D01*
X78551130Y-39599846D01*
X78607165Y-39578946D01*
X78676856Y-39573960D01*
X78738180Y-39607445D01*
X78771666Y-39668767D01*
X78774500Y-39695127D01*
X78774500Y-41187403D01*
X78754815Y-41254442D01*
X78738181Y-41275084D01*
X77662223Y-42351041D01*
X77600900Y-42384526D01*
X77531208Y-42379542D01*
X77475275Y-42337670D01*
X77450858Y-42272206D01*
X77450542Y-42263360D01*
X77450542Y-42255981D01*
X77447688Y-42219707D01*
X77402574Y-42064423D01*
X77332495Y-41945927D01*
X77315312Y-41878203D01*
X77332495Y-41819683D01*
X77402576Y-41701183D01*
X77402576Y-41701182D01*
X77447687Y-41545910D01*
X77447688Y-41545904D01*
X77449333Y-41524992D01*
X76920543Y-41524992D01*
X76920543Y-42376118D01*
X76900858Y-42443157D01*
X76848054Y-42488912D01*
X76796543Y-42500118D01*
X76615043Y-42500118D01*
X76548004Y-42480433D01*
X76502249Y-42427629D01*
X76491043Y-42376118D01*
X76491043Y-42255926D01*
X76488186Y-42219626D01*
X76488185Y-42219620D01*
X76443038Y-42064226D01*
X76443035Y-42064218D01*
X76437809Y-42055381D01*
X76420543Y-41992263D01*
X76420543Y-41773344D01*
X76437810Y-41710225D01*
X76443037Y-41701387D01*
X76443097Y-41701183D01*
X76488185Y-41545989D01*
X76488186Y-41545983D01*
X76488354Y-41543856D01*
X76490579Y-41515582D01*
X76491043Y-41509684D01*
X76491043Y-41040300D01*
X76488186Y-41004000D01*
X76488185Y-41003994D01*
X76443038Y-40848600D01*
X76443035Y-40848592D01*
X76437809Y-40839755D01*
X76420543Y-40776637D01*
X76420543Y-40582718D01*
X76437810Y-40519599D01*
X76443037Y-40510761D01*
X76488186Y-40355359D01*
X76489838Y-40334366D01*
X76920543Y-40334366D01*
X76920543Y-41024992D01*
X77449333Y-41024992D01*
X77447688Y-41004081D01*
X77402574Y-40848796D01*
X77339888Y-40742800D01*
X77322705Y-40675076D01*
X77339888Y-40616558D01*
X77402574Y-40510561D01*
X77402576Y-40510556D01*
X77447687Y-40355284D01*
X77447688Y-40355278D01*
X77449333Y-40334366D01*
X76920543Y-40334366D01*
X76489838Y-40334366D01*
X76491043Y-40319056D01*
X76491043Y-39958366D01*
X76510728Y-39891327D01*
X76563532Y-39845572D01*
X76615043Y-39834366D01*
X77449333Y-39834366D01*
X77447688Y-39813452D01*
X77433566Y-39764845D01*
X77433765Y-39694976D01*
X77471707Y-39636306D01*
X77535345Y-39607462D01*
X77552642Y-39606250D01*
X77593750Y-39606250D01*
X77593750Y-38280250D01*
X77613435Y-38213211D01*
X77666239Y-38167456D01*
X77717750Y-38156250D01*
X77969750Y-38156250D01*
X78036789Y-38175935D01*
G37*
G04 #@! TD.AperFunction*
G04 #@! TA.AperFunction,Conductor*
G36*
X58618038Y-34351231D02*
G01*
X58624516Y-34357263D01*
X59264931Y-34997678D01*
X59298416Y-35059001D01*
X59301250Y-35085359D01*
X59301250Y-35418820D01*
X59283984Y-35481938D01*
X59278757Y-35490775D01*
X59278754Y-35490783D01*
X59233607Y-35646177D01*
X59233606Y-35646183D01*
X59230750Y-35682483D01*
X59230750Y-36151867D01*
X59233606Y-36188166D01*
X59233607Y-36188172D01*
X59278753Y-36343564D01*
X59278755Y-36343568D01*
X59278756Y-36343570D01*
X59283982Y-36352408D01*
X59301250Y-36415527D01*
X59301250Y-36609446D01*
X59283984Y-36672564D01*
X59278757Y-36681401D01*
X59278754Y-36681409D01*
X59233607Y-36836803D01*
X59233606Y-36836809D01*
X59230750Y-36873109D01*
X59230750Y-37342493D01*
X59233606Y-37378792D01*
X59233607Y-37378798D01*
X59278753Y-37534190D01*
X59278755Y-37534194D01*
X59278756Y-37534196D01*
X59283982Y-37543034D01*
X59301250Y-37606153D01*
X59301250Y-37800072D01*
X59283984Y-37863190D01*
X59278757Y-37872027D01*
X59278754Y-37872035D01*
X59233607Y-38027429D01*
X59233606Y-38027435D01*
X59230750Y-38063735D01*
X59230750Y-38424427D01*
X59211065Y-38491466D01*
X59158261Y-38537221D01*
X59106750Y-38548427D01*
X58925250Y-38548427D01*
X58858211Y-38528742D01*
X58812456Y-38475938D01*
X58801250Y-38424427D01*
X58801250Y-35112669D01*
X58801248Y-35112668D01*
X58655059Y-35155140D01*
X58655056Y-35155142D01*
X58515869Y-35237457D01*
X58512993Y-35239688D01*
X58510330Y-35240733D01*
X58509157Y-35241427D01*
X58509045Y-35241237D01*
X58447954Y-35265217D01*
X58379438Y-35251531D01*
X58329198Y-35202976D01*
X58313184Y-35134966D01*
X58330269Y-35078582D01*
X58364829Y-35020145D01*
X58401976Y-34892287D01*
X58409977Y-34864747D01*
X58409978Y-34864741D01*
X58409985Y-34864660D01*
X58412835Y-34828440D01*
X58412835Y-34444944D01*
X58432520Y-34377905D01*
X58485324Y-34332150D01*
X58554482Y-34322206D01*
X58618038Y-34351231D01*
G37*
G04 #@! TD.AperFunction*
G04 #@! TA.AperFunction,Conductor*
G36*
X73687444Y-33420185D02*
G01*
X73708081Y-33436814D01*
X73762402Y-33491135D01*
X73900607Y-33572869D01*
X73908837Y-33575260D01*
X74054791Y-33617664D01*
X74054794Y-33617664D01*
X74054796Y-33617665D01*
X74066803Y-33618610D01*
X74090817Y-33620500D01*
X74090818Y-33620499D01*
X74090819Y-33620500D01*
X74356393Y-33620499D01*
X74489181Y-33620499D01*
X74496384Y-33619932D01*
X74525204Y-33617665D01*
X74679393Y-33572869D01*
X74736882Y-33538869D01*
X74804602Y-33521688D01*
X74863117Y-33538869D01*
X74920607Y-33572869D01*
X74920610Y-33572869D01*
X74920612Y-33572871D01*
X75074791Y-33617664D01*
X75074794Y-33617664D01*
X75074796Y-33617665D01*
X75086803Y-33618610D01*
X75110817Y-33620500D01*
X75110818Y-33620499D01*
X75110819Y-33620500D01*
X75376393Y-33620499D01*
X75509181Y-33620499D01*
X75512015Y-33620275D01*
X75545204Y-33617665D01*
X75699393Y-33572869D01*
X75837598Y-33491135D01*
X75891915Y-33436817D01*
X75953236Y-33403334D01*
X75979595Y-33400500D01*
X76538186Y-33400500D01*
X76605225Y-33420185D01*
X76650980Y-33472989D01*
X76660924Y-33542147D01*
X76644918Y-33587621D01*
X76575468Y-33705054D01*
X76575466Y-33705059D01*
X76530355Y-33860331D01*
X76530354Y-33860337D01*
X76528709Y-33881249D01*
X76528710Y-33881250D01*
X77363000Y-33881250D01*
X77430039Y-33900935D01*
X77475794Y-33953739D01*
X77487000Y-34005250D01*
X77487000Y-34257250D01*
X77467315Y-34324289D01*
X77414511Y-34370044D01*
X77363000Y-34381250D01*
X77274869Y-34381250D01*
X77227417Y-34371811D01*
X77150512Y-34339956D01*
X77150510Y-34339955D01*
X77033111Y-34324500D01*
X76993750Y-34319318D01*
X76958420Y-34323969D01*
X76950322Y-34324500D01*
X75449678Y-34324500D01*
X75441579Y-34323969D01*
X75406250Y-34319318D01*
X75406249Y-34319318D01*
X75249489Y-34339955D01*
X75249484Y-34339957D01*
X75103413Y-34400461D01*
X75103412Y-34400462D01*
X75059604Y-34434077D01*
X74977967Y-34496717D01*
X74956273Y-34524989D01*
X74950921Y-34531092D01*
X73657283Y-35824731D01*
X73651180Y-35830083D01*
X73622906Y-35851779D01*
X73598737Y-35883278D01*
X73526648Y-35977225D01*
X73526648Y-35977226D01*
X73466144Y-36123297D01*
X73466142Y-36123302D01*
X73445833Y-36277569D01*
X73445505Y-36280063D01*
X73450095Y-36314931D01*
X73450156Y-36315389D01*
X73450687Y-36323491D01*
X73450687Y-36528779D01*
X73431002Y-36595818D01*
X73378198Y-36641573D01*
X73309040Y-36651517D01*
X73251762Y-36627583D01*
X73153593Y-36553139D01*
X73012811Y-36497622D01*
X72967176Y-36492142D01*
X72924352Y-36487000D01*
X72924347Y-36487000D01*
X72380750Y-36487000D01*
X72313711Y-36467315D01*
X72267956Y-36414511D01*
X72256750Y-36363000D01*
X72256750Y-35819403D01*
X72256750Y-35819398D01*
X72246127Y-35730936D01*
X72190611Y-35590158D01*
X72190610Y-35590157D01*
X72190610Y-35590156D01*
X72099172Y-35469577D01*
X71978593Y-35378139D01*
X71856249Y-35329893D01*
X71837814Y-35322623D01*
X71837813Y-35322622D01*
X71837811Y-35322622D01*
X71792176Y-35317142D01*
X71749352Y-35312000D01*
X71563148Y-35312000D01*
X71519690Y-35317218D01*
X71471033Y-35323061D01*
X71441467Y-35323061D01*
X71392809Y-35317218D01*
X71349352Y-35312000D01*
X71163148Y-35312000D01*
X71119690Y-35317218D01*
X71071033Y-35323061D01*
X71041467Y-35323061D01*
X70986197Y-35316424D01*
X70949352Y-35312000D01*
X70949348Y-35312000D01*
X70945967Y-35311594D01*
X70881752Y-35284057D01*
X70842619Y-35226175D01*
X70836750Y-35188478D01*
X70836750Y-34826690D01*
X70833893Y-34790390D01*
X70833892Y-34790384D01*
X70788745Y-34634991D01*
X70788745Y-34634990D01*
X70788744Y-34634987D01*
X70778077Y-34616950D01*
X70754516Y-34577109D01*
X70737333Y-34509385D01*
X70759493Y-34443123D01*
X70773561Y-34426314D01*
X71543058Y-33656818D01*
X71604381Y-33623333D01*
X71630739Y-33620499D01*
X71749822Y-33620499D01*
X71785846Y-33617665D01*
X71940035Y-33572869D01*
X72078240Y-33491135D01*
X72132557Y-33436817D01*
X72193878Y-33403334D01*
X72220237Y-33400500D01*
X73620405Y-33400500D01*
X73687444Y-33420185D01*
G37*
G04 #@! TD.AperFunction*
G04 #@! TA.AperFunction,Conductor*
G36*
X67800526Y-33513681D02*
G01*
X67900607Y-33572869D01*
X67908837Y-33575260D01*
X68054791Y-33617664D01*
X68054794Y-33617664D01*
X68054796Y-33617665D01*
X68066803Y-33618610D01*
X68090817Y-33620500D01*
X68090818Y-33620499D01*
X68090819Y-33620500D01*
X68356393Y-33620499D01*
X68489181Y-33620499D01*
X68496384Y-33619932D01*
X68525204Y-33617665D01*
X68679393Y-33572869D01*
X68736882Y-33538869D01*
X68804602Y-33521688D01*
X68863117Y-33538869D01*
X68920607Y-33572869D01*
X68920610Y-33572869D01*
X68920612Y-33572871D01*
X69074791Y-33617664D01*
X69074794Y-33617664D01*
X69074796Y-33617665D01*
X69086803Y-33618610D01*
X69110817Y-33620500D01*
X69110818Y-33620499D01*
X69110819Y-33620500D01*
X69376393Y-33620499D01*
X69509181Y-33620499D01*
X69516384Y-33619932D01*
X69545204Y-33617665D01*
X69558600Y-33613773D01*
X69628465Y-33613971D01*
X69687136Y-33651912D01*
X69715981Y-33715549D01*
X69705842Y-33784680D01*
X69680875Y-33820530D01*
X69662346Y-33839060D01*
X69656244Y-33844411D01*
X69627966Y-33866110D01*
X69580875Y-33927483D01*
X69531714Y-33991551D01*
X69531712Y-33991554D01*
X69471206Y-34137629D01*
X69471204Y-34137636D01*
X69470331Y-34144270D01*
X69442062Y-34208166D01*
X69383736Y-34246635D01*
X69359508Y-34246922D01*
X69346250Y-34256876D01*
X69346250Y-34563027D01*
X69328984Y-34626145D01*
X69323757Y-34634982D01*
X69323754Y-34634990D01*
X69278607Y-34790384D01*
X69278606Y-34790390D01*
X69275750Y-34826690D01*
X69275750Y-35187382D01*
X69256065Y-35254421D01*
X69203261Y-35300176D01*
X69151750Y-35311382D01*
X68970250Y-35311382D01*
X68903211Y-35291697D01*
X68857456Y-35238893D01*
X68846250Y-35187382D01*
X68846250Y-34256876D01*
X68846248Y-34256875D01*
X68700059Y-34299347D01*
X68700056Y-34299349D01*
X68560875Y-34381660D01*
X68560866Y-34381667D01*
X68446535Y-34495998D01*
X68446528Y-34496007D01*
X68362982Y-34637277D01*
X68311913Y-34684961D01*
X68243171Y-34697464D01*
X68178582Y-34670819D01*
X68149518Y-34637277D01*
X68065971Y-34496007D01*
X68065964Y-34495998D01*
X67951633Y-34381667D01*
X67951624Y-34381660D01*
X67812443Y-34299349D01*
X67812440Y-34299347D01*
X67666251Y-34256875D01*
X67666250Y-34256876D01*
X67666250Y-35187382D01*
X67646565Y-35254421D01*
X67593761Y-35300176D01*
X67542250Y-35311382D01*
X67360750Y-35311382D01*
X67293711Y-35291697D01*
X67247956Y-35238893D01*
X67236750Y-35187382D01*
X67236750Y-34826690D01*
X67233893Y-34790390D01*
X67233892Y-34790384D01*
X67188745Y-34634990D01*
X67188742Y-34634982D01*
X67183516Y-34626145D01*
X67166250Y-34563027D01*
X67166250Y-34244915D01*
X67144764Y-34216127D01*
X67139880Y-34146429D01*
X67173325Y-34085282D01*
X67463280Y-33795327D01*
X67469357Y-33789999D01*
X67497640Y-33768298D01*
X67593894Y-33642857D01*
X67622846Y-33572960D01*
X67666685Y-33518558D01*
X67732979Y-33496493D01*
X67800526Y-33513681D01*
G37*
G04 #@! TD.AperFunction*
G04 #@! TA.AperFunction,Conductor*
G36*
X83802019Y-15800633D02*
G01*
X83837198Y-15802938D01*
X83883708Y-15805986D01*
X84065459Y-15818985D01*
X84073100Y-15820015D01*
X84166738Y-15838641D01*
X84189420Y-15843153D01*
X84215023Y-15848722D01*
X84333666Y-15874531D01*
X84340383Y-15876395D01*
X84459437Y-15916809D01*
X84556671Y-15953076D01*
X84591741Y-15966157D01*
X84597499Y-15968643D01*
X84712952Y-16025578D01*
X84834906Y-16092170D01*
X84839634Y-16095032D01*
X84896571Y-16133076D01*
X84946649Y-16166537D01*
X84949358Y-16168454D01*
X85058652Y-16250271D01*
X85062345Y-16253265D01*
X85159502Y-16338469D01*
X85162448Y-16341228D01*
X85258769Y-16437549D01*
X85261526Y-16440492D01*
X85346729Y-16537648D01*
X85349732Y-16541353D01*
X85401564Y-16610592D01*
X85431543Y-16650639D01*
X85433461Y-16653349D01*
X85504962Y-16760357D01*
X85507828Y-16765091D01*
X85574421Y-16887047D01*
X85631355Y-17002499D01*
X85633841Y-17008257D01*
X85670212Y-17105768D01*
X85683196Y-17140578D01*
X85688289Y-17155581D01*
X85723597Y-17259596D01*
X85725472Y-17266352D01*
X85756846Y-17410579D01*
X85779980Y-17526880D01*
X85781015Y-17534560D01*
X85794017Y-17716350D01*
X85799367Y-17797966D01*
X85799500Y-17802023D01*
X85799500Y-83797970D01*
X85799367Y-83802029D01*
X85794013Y-83883649D01*
X85781002Y-84065430D01*
X85779968Y-84073108D01*
X85756830Y-84189415D01*
X85725451Y-84333634D01*
X85723576Y-84340389D01*
X85683166Y-84459422D01*
X85633816Y-84591720D01*
X85631330Y-84597478D01*
X85574392Y-84712933D01*
X85507794Y-84834893D01*
X85504927Y-84839627D01*
X85433442Y-84946609D01*
X85431524Y-84949318D01*
X85349709Y-85058610D01*
X85346688Y-85062335D01*
X85261496Y-85159478D01*
X85258722Y-85162439D01*
X85162439Y-85258722D01*
X85159478Y-85261496D01*
X85062335Y-85346688D01*
X85058610Y-85349709D01*
X84949318Y-85431524D01*
X84946609Y-85433442D01*
X84839627Y-85504927D01*
X84834893Y-85507794D01*
X84712933Y-85574392D01*
X84597478Y-85631330D01*
X84591720Y-85633816D01*
X84459422Y-85683166D01*
X84340389Y-85723576D01*
X84333634Y-85725451D01*
X84189415Y-85756830D01*
X84073108Y-85779968D01*
X84065430Y-85781002D01*
X83883649Y-85794013D01*
X83815454Y-85798486D01*
X83802026Y-85799367D01*
X83797970Y-85799500D01*
X17802035Y-85799500D01*
X17797980Y-85799367D01*
X17716374Y-85794020D01*
X17534563Y-85781020D01*
X17526882Y-85779986D01*
X17410580Y-85756854D01*
X17266349Y-85725480D01*
X17259594Y-85723606D01*
X17140571Y-85683205D01*
X17140466Y-85683166D01*
X17115206Y-85673744D01*
X17008256Y-85633855D01*
X17002497Y-85631369D01*
X16887042Y-85574434D01*
X16765085Y-85507841D01*
X16760350Y-85504975D01*
X16653335Y-85433470D01*
X16650625Y-85431552D01*
X16541356Y-85349755D01*
X16537631Y-85346735D01*
X16440483Y-85261540D01*
X16437521Y-85258765D01*
X16341233Y-85162477D01*
X16338466Y-85159524D01*
X16253263Y-85062367D01*
X16250243Y-85058642D01*
X16168446Y-84949373D01*
X16166528Y-84946663D01*
X16095023Y-84839647D01*
X16092157Y-84834913D01*
X16025565Y-84712957D01*
X16012619Y-84686704D01*
X15968624Y-84597489D01*
X15966148Y-84591755D01*
X15916796Y-84459433D01*
X15876385Y-84340381D01*
X15874522Y-84333669D01*
X15843152Y-84189452D01*
X15820009Y-84073099D01*
X15818980Y-84065456D01*
X15805981Y-83883649D01*
X15801359Y-83813107D01*
X15800633Y-83802020D01*
X15800500Y-83797965D01*
X15800500Y-81875373D01*
X17545723Y-81875373D01*
X17575881Y-82175160D01*
X17575882Y-82175162D01*
X17645728Y-82468252D01*
X17645733Y-82468266D01*
X17754020Y-82749427D01*
X17754024Y-82749436D01*
X17898825Y-83013665D01*
X17898829Y-83013671D01*
X18077551Y-83256234D01*
X18077554Y-83256238D01*
X18077561Y-83256245D01*
X18287019Y-83472823D01*
X18523478Y-83659553D01*
X18523480Y-83659554D01*
X18523485Y-83659558D01*
X18782730Y-83813109D01*
X19060128Y-83930736D01*
X19350729Y-84010340D01*
X19649347Y-84050500D01*
X19649351Y-84050500D01*
X19875252Y-84050500D01*
X20039164Y-84039526D01*
X20100634Y-84035412D01*
X20395903Y-83975396D01*
X20680537Y-83876560D01*
X20949459Y-83740668D01*
X21197869Y-83570144D01*
X21421333Y-83368032D01*
X21615865Y-83137939D01*
X21777993Y-82883970D01*
X21904823Y-82610658D01*
X21994093Y-82322879D01*
X22044209Y-82025770D01*
X22049237Y-81875373D01*
X79545723Y-81875373D01*
X79575881Y-82175160D01*
X79575882Y-82175162D01*
X79645728Y-82468252D01*
X79645733Y-82468266D01*
X79754020Y-82749427D01*
X79754024Y-82749436D01*
X79898825Y-83013665D01*
X79898829Y-83013671D01*
X80077551Y-83256234D01*
X80077554Y-83256238D01*
X80077561Y-83256245D01*
X80287019Y-83472823D01*
X80523478Y-83659553D01*
X80523480Y-83659554D01*
X80523485Y-83659558D01*
X80782730Y-83813109D01*
X81060128Y-83930736D01*
X81350729Y-84010340D01*
X81649347Y-84050500D01*
X81649351Y-84050500D01*
X81875252Y-84050500D01*
X82039164Y-84039526D01*
X82100634Y-84035412D01*
X82395903Y-83975396D01*
X82680537Y-83876560D01*
X82949459Y-83740668D01*
X83197869Y-83570144D01*
X83421333Y-83368032D01*
X83615865Y-83137939D01*
X83777993Y-82883970D01*
X83904823Y-82610658D01*
X83994093Y-82322879D01*
X84044209Y-82025770D01*
X84054277Y-81724631D01*
X84024118Y-81424838D01*
X83954269Y-81131739D01*
X83845977Y-80850566D01*
X83701175Y-80586335D01*
X83522446Y-80343762D01*
X83312980Y-80127176D01*
X83189742Y-80029856D01*
X83076521Y-79940446D01*
X83076517Y-79940443D01*
X83076515Y-79940442D01*
X82817270Y-79786891D01*
X82539872Y-79669264D01*
X82539863Y-79669261D01*
X82249272Y-79589660D01*
X82174616Y-79579620D01*
X81950653Y-79549500D01*
X81724756Y-79549500D01*
X81724748Y-79549500D01*
X81499368Y-79564587D01*
X81499359Y-79564589D01*
X81204094Y-79624604D01*
X80919464Y-79723439D01*
X80919459Y-79723441D01*
X80650546Y-79859328D01*
X80402125Y-80029860D01*
X80178665Y-80231969D01*
X79984132Y-80462064D01*
X79822006Y-80716030D01*
X79822005Y-80716032D01*
X79695181Y-80989333D01*
X79695177Y-80989342D01*
X79695176Y-80989346D01*
X79605907Y-81277118D01*
X79555791Y-81574230D01*
X79545723Y-81875373D01*
X22049237Y-81875373D01*
X22054277Y-81724631D01*
X22024118Y-81424838D01*
X21954269Y-81131739D01*
X21845977Y-80850566D01*
X21701175Y-80586335D01*
X21522446Y-80343762D01*
X21312980Y-80127176D01*
X21189742Y-80029856D01*
X21076521Y-79940446D01*
X21076517Y-79940443D01*
X21076515Y-79940442D01*
X20817270Y-79786891D01*
X20539872Y-79669264D01*
X20539863Y-79669261D01*
X20249272Y-79589660D01*
X20174616Y-79579620D01*
X19950653Y-79549500D01*
X19724756Y-79549500D01*
X19724748Y-79549500D01*
X19499368Y-79564587D01*
X19499359Y-79564589D01*
X19204094Y-79624604D01*
X18919464Y-79723439D01*
X18919459Y-79723441D01*
X18650546Y-79859328D01*
X18402125Y-80029860D01*
X18178665Y-80231969D01*
X17984132Y-80462064D01*
X17822006Y-80716030D01*
X17822005Y-80716032D01*
X17695181Y-80989333D01*
X17695177Y-80989342D01*
X17695176Y-80989346D01*
X17605907Y-81277118D01*
X17555791Y-81574230D01*
X17545723Y-81875373D01*
X15800500Y-81875373D01*
X15800500Y-69098855D01*
X23901892Y-69098855D01*
X23913071Y-69159862D01*
X23913634Y-69163563D01*
X23921109Y-69225120D01*
X23921110Y-69225124D01*
X23924701Y-69234593D01*
X23930724Y-69256196D01*
X23932554Y-69266180D01*
X23958009Y-69322740D01*
X23959439Y-69326191D01*
X23981432Y-69384180D01*
X23981433Y-69384181D01*
X23987186Y-69392516D01*
X23998211Y-69412063D01*
X24002370Y-69421305D01*
X24002372Y-69421307D01*
X24035683Y-69463826D01*
X24040621Y-69470128D01*
X24042841Y-69473146D01*
X24078062Y-69524174D01*
X24078066Y-69524178D01*
X24078067Y-69524179D01*
X24124500Y-69565314D01*
X24127191Y-69567848D01*
X25682149Y-71122806D01*
X25684685Y-71125500D01*
X25721360Y-71166898D01*
X25725820Y-71171932D01*
X25776856Y-71207160D01*
X25779872Y-71209380D01*
X25806240Y-71230037D01*
X25828693Y-71247628D01*
X25835595Y-71250734D01*
X25837932Y-71251786D01*
X25857483Y-71262813D01*
X25865820Y-71268568D01*
X25923808Y-71290559D01*
X25927246Y-71291984D01*
X25983818Y-71317445D01*
X25993792Y-71319272D01*
X26015406Y-71325298D01*
X26024877Y-71328890D01*
X26086423Y-71336363D01*
X26090120Y-71336925D01*
X26151144Y-71348108D01*
X26206127Y-71344781D01*
X26213053Y-71344363D01*
X26216798Y-71344250D01*
X26537855Y-71344250D01*
X26604894Y-71363935D01*
X26650649Y-71416739D01*
X26660593Y-71485897D01*
X26656931Y-71502845D01*
X26650841Y-71523806D01*
X27581346Y-71523806D01*
X27648385Y-71543491D01*
X27694140Y-71596295D01*
X27705346Y-71647806D01*
X27705346Y-71829306D01*
X27685661Y-71896345D01*
X27632857Y-71942100D01*
X27581346Y-71953306D01*
X27220654Y-71953306D01*
X27184354Y-71956162D01*
X27184348Y-71956163D01*
X27028956Y-72001309D01*
X27028951Y-72001312D01*
X27020112Y-72006538D01*
X26956994Y-72023806D01*
X26650842Y-72023806D01*
X26693314Y-72170000D01*
X26705257Y-72190195D01*
X26722438Y-72257919D01*
X26705257Y-72316434D01*
X26692852Y-72337410D01*
X26692850Y-72337415D01*
X26647703Y-72492808D01*
X26647702Y-72492814D01*
X26644846Y-72529114D01*
X26644846Y-72938498D01*
X26647702Y-72974797D01*
X26647703Y-72974803D01*
X26692850Y-73130196D01*
X26692851Y-73130199D01*
X26692852Y-73130201D01*
X26734314Y-73200310D01*
X26737578Y-73205828D01*
X26754846Y-73268949D01*
X26754846Y-75237337D01*
X26735161Y-75304376D01*
X26682357Y-75350131D01*
X26681282Y-75350616D01*
X26534770Y-75415848D01*
X26534765Y-75415851D01*
X26381629Y-75527111D01*
X26254966Y-75667785D01*
X26160321Y-75831715D01*
X26160318Y-75831722D01*
X26104962Y-76002091D01*
X26101826Y-76011744D01*
X26082040Y-76200000D01*
X26101826Y-76388256D01*
X26101827Y-76388259D01*
X26160318Y-76568277D01*
X26160321Y-76568284D01*
X26254967Y-76732216D01*
X26381629Y-76872888D01*
X26534765Y-76984148D01*
X26534770Y-76984151D01*
X26707692Y-77061142D01*
X26707697Y-77061144D01*
X26892854Y-77100500D01*
X26892855Y-77100500D01*
X27082144Y-77100500D01*
X27082146Y-77100500D01*
X27267303Y-77061144D01*
X27440230Y-76984151D01*
X27593371Y-76872888D01*
X27720033Y-76732216D01*
X27814679Y-76568284D01*
X27873174Y-76388256D01*
X27878364Y-76338869D01*
X27904947Y-76274258D01*
X27913994Y-76264161D01*
X27934402Y-76243753D01*
X27937094Y-76241219D01*
X27983529Y-76200083D01*
X28018782Y-76149009D01*
X28020959Y-76146050D01*
X28059224Y-76097211D01*
X28063383Y-76087969D01*
X28074408Y-76068422D01*
X28080164Y-76060084D01*
X28102166Y-76002066D01*
X28103581Y-75998649D01*
X28129040Y-75942086D01*
X28130866Y-75932119D01*
X28136894Y-75910494D01*
X28140486Y-75901026D01*
X28147961Y-75839463D01*
X28148525Y-75835759D01*
X28152802Y-75812412D01*
X28159703Y-75774760D01*
X28155959Y-75712861D01*
X28155846Y-75709117D01*
X28155846Y-75113064D01*
X28175531Y-75046025D01*
X28228335Y-75000270D01*
X28296028Y-74990125D01*
X28393823Y-75003000D01*
X29656176Y-75002999D01*
X29656178Y-75002999D01*
X29723095Y-74994189D01*
X29770063Y-74988007D01*
X29911763Y-74929312D01*
X29986849Y-74871696D01*
X30052015Y-74846503D01*
X30120460Y-74860541D01*
X30146426Y-74878945D01*
X30158743Y-74890312D01*
X30158745Y-74890313D01*
X30158747Y-74890315D01*
X30230966Y-74928878D01*
X30271843Y-74950706D01*
X30396515Y-74980638D01*
X30524706Y-74978176D01*
X30648136Y-74943477D01*
X30660674Y-74936178D01*
X30661015Y-74936094D01*
X30701163Y-74912619D01*
X30705996Y-74910073D01*
X30710741Y-74907835D01*
X30713746Y-74906419D01*
X30717256Y-74904948D01*
X30804109Y-74868573D01*
X30811829Y-74865924D01*
X30839161Y-74858521D01*
X30847165Y-74856912D01*
X30944881Y-74843917D01*
X30950463Y-74843423D01*
X30952538Y-74843240D01*
X30957997Y-74842999D01*
X32541717Y-74842999D01*
X32547171Y-74843239D01*
X32555631Y-74843986D01*
X32574561Y-74846503D01*
X32652818Y-74856909D01*
X32660808Y-74858514D01*
X32688131Y-74865910D01*
X32695860Y-74868560D01*
X32786255Y-74906419D01*
X32786752Y-74906627D01*
X32790102Y-74908206D01*
X32793737Y-74909920D01*
X32798594Y-74912477D01*
X32840761Y-74937133D01*
X32841900Y-74937634D01*
X32851879Y-74943443D01*
X32975301Y-74978138D01*
X33093994Y-74980417D01*
X33103478Y-74980600D01*
X33103478Y-74980599D01*
X33103482Y-74980600D01*
X33228144Y-74950670D01*
X33341235Y-74890280D01*
X33353912Y-74878580D01*
X33416527Y-74847581D01*
X33485963Y-74855354D01*
X33513495Y-74871330D01*
X33588493Y-74928878D01*
X33730064Y-74987518D01*
X33730069Y-74987520D01*
X33843853Y-75002500D01*
X34225000Y-75002500D01*
X34225000Y-74342500D01*
X34725000Y-74342500D01*
X34725000Y-75002500D01*
X34780942Y-75002500D01*
X34780943Y-75002499D01*
X34864925Y-74991950D01*
X34997758Y-74936929D01*
X35064596Y-74885007D01*
X35064609Y-74884996D01*
X35532496Y-74417109D01*
X35532507Y-74417096D01*
X35584427Y-74350261D01*
X35584427Y-74350260D01*
X35587642Y-74342500D01*
X34725000Y-74342500D01*
X34225000Y-74342500D01*
X34225000Y-73966500D01*
X34244685Y-73899461D01*
X34297489Y-73853706D01*
X34349000Y-73842500D01*
X35650000Y-73842500D01*
X35650000Y-73726353D01*
X35635020Y-73612569D01*
X35635018Y-73612564D01*
X35576378Y-73470993D01*
X35576375Y-73470988D01*
X35536020Y-73418396D01*
X35510826Y-73353227D01*
X35524864Y-73284782D01*
X35536015Y-73267431D01*
X35555903Y-73241511D01*
X35612332Y-73200310D01*
X35654278Y-73193000D01*
X40542403Y-73193000D01*
X40609442Y-73212685D01*
X40630084Y-73229319D01*
X41887169Y-74486404D01*
X41892520Y-74492505D01*
X41914218Y-74520782D01*
X41988192Y-74577544D01*
X42039659Y-74617036D01*
X42039661Y-74617036D01*
X42039663Y-74617038D01*
X42086159Y-74636297D01*
X42185738Y-74677544D01*
X42254442Y-74686589D01*
X42342499Y-74698182D01*
X42342500Y-74698182D01*
X42377829Y-74693530D01*
X42385928Y-74693000D01*
X46895722Y-74693000D01*
X46962761Y-74712685D01*
X46994098Y-74741514D01*
X47066556Y-74835944D01*
X47188237Y-74929312D01*
X47329937Y-74988007D01*
X47443823Y-75003000D01*
X48706176Y-75002999D01*
X48706178Y-75002999D01*
X48773095Y-74994189D01*
X48820063Y-74988007D01*
X48961763Y-74929312D01*
X49036849Y-74871696D01*
X49102015Y-74846503D01*
X49170460Y-74860541D01*
X49196426Y-74878945D01*
X49208743Y-74890312D01*
X49208745Y-74890313D01*
X49208747Y-74890315D01*
X49280966Y-74928878D01*
X49321843Y-74950706D01*
X49446515Y-74980638D01*
X49574706Y-74978176D01*
X49698136Y-74943477D01*
X49710674Y-74936178D01*
X49711015Y-74936094D01*
X49751163Y-74912619D01*
X49755996Y-74910073D01*
X49760741Y-74907835D01*
X49763746Y-74906419D01*
X49767256Y-74904948D01*
X49854109Y-74868573D01*
X49861829Y-74865924D01*
X49889161Y-74858521D01*
X49897165Y-74856912D01*
X49994881Y-74843917D01*
X50000463Y-74843423D01*
X50002538Y-74843240D01*
X50007997Y-74842999D01*
X51591717Y-74842999D01*
X51597171Y-74843239D01*
X51605631Y-74843986D01*
X51624561Y-74846503D01*
X51702818Y-74856909D01*
X51710808Y-74858514D01*
X51738131Y-74865910D01*
X51745860Y-74868560D01*
X51836255Y-74906419D01*
X51836752Y-74906627D01*
X51840102Y-74908206D01*
X51843737Y-74909920D01*
X51848594Y-74912477D01*
X51890761Y-74937133D01*
X51891900Y-74937634D01*
X51901879Y-74943443D01*
X52025301Y-74978138D01*
X52143994Y-74980417D01*
X52153478Y-74980600D01*
X52153478Y-74980599D01*
X52153482Y-74980600D01*
X52278144Y-74950670D01*
X52391235Y-74890280D01*
X52403912Y-74878580D01*
X52466527Y-74847581D01*
X52535963Y-74855354D01*
X52563495Y-74871330D01*
X52638493Y-74928878D01*
X52780064Y-74987518D01*
X52780069Y-74987520D01*
X52893853Y-75002500D01*
X53275000Y-75002500D01*
X53275000Y-74342500D01*
X53775000Y-74342500D01*
X53775000Y-75002500D01*
X53830942Y-75002500D01*
X53830943Y-75002499D01*
X53914925Y-74991950D01*
X54047758Y-74936929D01*
X54114596Y-74885007D01*
X54114609Y-74884996D01*
X54582496Y-74417109D01*
X54582507Y-74417096D01*
X54634427Y-74350261D01*
X54634427Y-74350260D01*
X54637642Y-74342500D01*
X53775000Y-74342500D01*
X53275000Y-74342500D01*
X53275000Y-73966500D01*
X53294685Y-73899461D01*
X53347489Y-73853706D01*
X53399000Y-73842500D01*
X54700000Y-73842500D01*
X54700000Y-73726353D01*
X54685020Y-73612569D01*
X54685018Y-73612564D01*
X54626378Y-73470993D01*
X54626375Y-73470988D01*
X54586020Y-73418396D01*
X54560826Y-73353227D01*
X54574864Y-73284782D01*
X54586015Y-73267431D01*
X54605903Y-73241511D01*
X54662332Y-73200310D01*
X54704278Y-73193000D01*
X59592403Y-73193000D01*
X59659442Y-73212685D01*
X59680084Y-73229319D01*
X60937169Y-74486404D01*
X60942520Y-74492505D01*
X60964218Y-74520782D01*
X61038192Y-74577544D01*
X61089659Y-74617036D01*
X61089661Y-74617036D01*
X61089663Y-74617038D01*
X61136159Y-74636297D01*
X61235738Y-74677544D01*
X61304442Y-74686589D01*
X61392499Y-74698182D01*
X61392500Y-74698182D01*
X61427829Y-74693530D01*
X61435928Y-74693000D01*
X65945722Y-74693000D01*
X66012761Y-74712685D01*
X66044098Y-74741514D01*
X66116556Y-74835944D01*
X66238237Y-74929312D01*
X66379937Y-74988007D01*
X66493823Y-75003000D01*
X67756176Y-75002999D01*
X67756178Y-75002999D01*
X67823095Y-74994189D01*
X67870063Y-74988007D01*
X68011763Y-74929312D01*
X68086849Y-74871696D01*
X68152015Y-74846503D01*
X68220460Y-74860541D01*
X68246426Y-74878945D01*
X68258743Y-74890312D01*
X68258745Y-74890313D01*
X68258747Y-74890315D01*
X68330966Y-74928878D01*
X68371843Y-74950706D01*
X68496515Y-74980638D01*
X68624706Y-74978176D01*
X68748136Y-74943477D01*
X68760674Y-74936178D01*
X68761015Y-74936094D01*
X68801163Y-74912619D01*
X68805996Y-74910073D01*
X68810741Y-74907835D01*
X68813746Y-74906419D01*
X68817256Y-74904948D01*
X68904109Y-74868573D01*
X68911829Y-74865924D01*
X68939161Y-74858521D01*
X68947165Y-74856912D01*
X69044881Y-74843917D01*
X69050463Y-74843423D01*
X69052538Y-74843240D01*
X69057997Y-74842999D01*
X70641717Y-74842999D01*
X70647171Y-74843239D01*
X70655631Y-74843986D01*
X70674561Y-74846503D01*
X70752818Y-74856909D01*
X70760808Y-74858514D01*
X70788131Y-74865910D01*
X70795860Y-74868560D01*
X70886255Y-74906419D01*
X70886752Y-74906627D01*
X70890102Y-74908206D01*
X70893737Y-74909920D01*
X70898594Y-74912477D01*
X70940761Y-74937133D01*
X70941900Y-74937634D01*
X70951879Y-74943443D01*
X71075301Y-74978138D01*
X71193994Y-74980417D01*
X71203478Y-74980600D01*
X71203478Y-74980599D01*
X71203482Y-74980600D01*
X71328144Y-74950670D01*
X71441235Y-74890280D01*
X71453912Y-74878580D01*
X71516527Y-74847581D01*
X71585963Y-74855354D01*
X71613495Y-74871330D01*
X71688493Y-74928878D01*
X71830064Y-74987518D01*
X71830069Y-74987520D01*
X71943853Y-75002500D01*
X72325000Y-75002500D01*
X72325000Y-73966500D01*
X72344685Y-73899461D01*
X72397489Y-73853706D01*
X72449000Y-73842500D01*
X72701000Y-73842500D01*
X72768039Y-73862185D01*
X72813794Y-73914989D01*
X72825000Y-73966500D01*
X72825000Y-75002500D01*
X72880942Y-75002500D01*
X72880943Y-75002499D01*
X72964925Y-74991950D01*
X73097758Y-74936929D01*
X73164596Y-74885007D01*
X73164609Y-74884996D01*
X73555150Y-74494455D01*
X73616473Y-74460970D01*
X73686164Y-74465954D01*
X73742096Y-74507823D01*
X73773704Y-74550046D01*
X73810437Y-74577544D01*
X73888914Y-74636293D01*
X73888921Y-74636297D01*
X73933868Y-74653061D01*
X74023767Y-74686591D01*
X74083377Y-74693000D01*
X74581750Y-74692999D01*
X74648789Y-74712683D01*
X74694544Y-74765487D01*
X74705750Y-74816999D01*
X74705750Y-75584608D01*
X74686065Y-75651647D01*
X74673906Y-75667574D01*
X74673718Y-75667782D01*
X74673714Y-75667787D01*
X74579071Y-75831715D01*
X74579068Y-75831722D01*
X74523712Y-76002091D01*
X74520576Y-76011744D01*
X74500790Y-76200000D01*
X74520576Y-76388256D01*
X74520577Y-76388259D01*
X74579068Y-76568277D01*
X74579071Y-76568284D01*
X74673717Y-76732216D01*
X74800379Y-76872888D01*
X74953515Y-76984148D01*
X74953520Y-76984151D01*
X75126442Y-77061142D01*
X75126447Y-77061144D01*
X75311604Y-77100500D01*
X75311605Y-77100500D01*
X75500894Y-77100500D01*
X75500896Y-77100500D01*
X75686053Y-77061144D01*
X75858980Y-76984151D01*
X76012121Y-76872888D01*
X76138783Y-76732216D01*
X76233429Y-76568284D01*
X76291924Y-76388256D01*
X76311710Y-76200000D01*
X76291924Y-76011744D01*
X76233429Y-75831716D01*
X76138783Y-75667784D01*
X76138594Y-75667574D01*
X76138523Y-75667427D01*
X76134964Y-75662528D01*
X76135860Y-75661876D01*
X76108369Y-75604580D01*
X76106750Y-75584608D01*
X76106750Y-74793362D01*
X76126435Y-74726323D01*
X76143069Y-74705681D01*
X76156250Y-74692500D01*
X76156250Y-74166999D01*
X76175935Y-74099960D01*
X76228739Y-74054205D01*
X76280250Y-74042999D01*
X76432250Y-74042999D01*
X76499289Y-74062684D01*
X76545044Y-74115488D01*
X76556250Y-74166999D01*
X76556250Y-74692500D01*
X76729078Y-74692500D01*
X76729094Y-74692499D01*
X76788622Y-74686098D01*
X76788629Y-74686096D01*
X76923336Y-74635854D01*
X76923343Y-74635850D01*
X77038437Y-74549690D01*
X77038440Y-74549687D01*
X77124600Y-74434593D01*
X77124604Y-74434586D01*
X77174846Y-74299879D01*
X77174848Y-74299872D01*
X77181249Y-74240344D01*
X77181250Y-74240327D01*
X77181250Y-74192500D01*
X77020685Y-74192500D01*
X76953646Y-74172815D01*
X76907891Y-74120011D01*
X76897947Y-74050853D01*
X76926972Y-73987297D01*
X76946380Y-73969229D01*
X76948384Y-73967729D01*
X77013850Y-73943315D01*
X77022689Y-73943000D01*
X78220322Y-73943000D01*
X78228420Y-73943530D01*
X78263750Y-73948182D01*
X78263751Y-73948182D01*
X78316004Y-73941302D01*
X78420512Y-73927544D01*
X78566591Y-73867036D01*
X78642028Y-73809151D01*
X78692032Y-73770782D01*
X78713733Y-73742499D01*
X78719061Y-73736422D01*
X79768922Y-72686561D01*
X79774999Y-72681233D01*
X79803282Y-72659532D01*
X79899536Y-72534091D01*
X79960044Y-72388012D01*
X79975500Y-72270611D01*
X79980682Y-72231250D01*
X79980033Y-72226324D01*
X79976031Y-72195923D01*
X79975500Y-72187821D01*
X79975500Y-44890274D01*
X79976031Y-44882172D01*
X79977981Y-44867365D01*
X79980682Y-44846846D01*
X79974004Y-44796125D01*
X79960044Y-44690085D01*
X79960044Y-44690084D01*
X79899536Y-44544005D01*
X79899535Y-44544004D01*
X79899535Y-44544003D01*
X79826463Y-44448773D01*
X79826448Y-44448755D01*
X79803281Y-44418563D01*
X79775013Y-44396872D01*
X79768917Y-44391527D01*
X78639726Y-43262337D01*
X78634375Y-43256236D01*
X78633819Y-43255511D01*
X78622911Y-43241295D01*
X78597716Y-43176129D01*
X78611753Y-43107684D01*
X78633602Y-43078131D01*
X79768922Y-41942811D01*
X79774999Y-41937483D01*
X79803282Y-41915782D01*
X79899536Y-41790341D01*
X79960044Y-41644262D01*
X79975500Y-41526861D01*
X79980682Y-41487500D01*
X79980565Y-41486615D01*
X79978148Y-41468250D01*
X79976030Y-41452169D01*
X79975500Y-41444071D01*
X79975500Y-33579327D01*
X79976031Y-33571225D01*
X79976777Y-33565563D01*
X79980682Y-33535899D01*
X79980002Y-33530736D01*
X79960044Y-33379138D01*
X79960042Y-33379133D01*
X79959406Y-33377598D01*
X79929790Y-33306097D01*
X79899538Y-33233062D01*
X79899537Y-33233061D01*
X79899536Y-33233058D01*
X79861320Y-33183254D01*
X79803282Y-33107617D01*
X79775005Y-33085919D01*
X79768904Y-33080568D01*
X79460762Y-32772426D01*
X79094421Y-32406085D01*
X79089081Y-32399995D01*
X79067383Y-32371718D01*
X78941942Y-32275464D01*
X78887844Y-32253056D01*
X78795863Y-32214956D01*
X78795861Y-32214955D01*
X78639102Y-32194318D01*
X78639101Y-32194318D01*
X78603771Y-32198969D01*
X78595673Y-32199500D01*
X77824500Y-32199500D01*
X77757461Y-32179815D01*
X77711706Y-32127011D01*
X77700500Y-32075500D01*
X77700499Y-30302129D01*
X77700498Y-30302123D01*
X77700497Y-30302116D01*
X77694091Y-30242517D01*
X77684350Y-30216401D01*
X77643797Y-30107671D01*
X77643793Y-30107664D01*
X77557547Y-29992455D01*
X77557544Y-29992452D01*
X77442335Y-29906206D01*
X77442328Y-29906202D01*
X77381167Y-29883391D01*
X77325233Y-29841520D01*
X77300816Y-29776056D01*
X77300500Y-29767209D01*
X77300500Y-26332790D01*
X77320185Y-26265751D01*
X77372989Y-26219996D01*
X77381146Y-26216616D01*
X77442331Y-26193796D01*
X77557546Y-26107546D01*
X77643796Y-25992331D01*
X77694091Y-25857483D01*
X77700500Y-25797873D01*
X77700499Y-24002128D01*
X77694091Y-23942517D01*
X77690353Y-23932495D01*
X77643797Y-23807670D01*
X77643793Y-23807664D01*
X77557547Y-23692455D01*
X77557544Y-23692452D01*
X77442335Y-23606206D01*
X77442328Y-23606202D01*
X77307482Y-23555908D01*
X77307483Y-23555908D01*
X77247883Y-23549501D01*
X77247881Y-23549500D01*
X77247873Y-23549500D01*
X77247864Y-23549500D01*
X76152129Y-23549500D01*
X76152123Y-23549501D01*
X76092516Y-23555908D01*
X75957671Y-23606202D01*
X75957664Y-23606206D01*
X75842455Y-23692452D01*
X75842452Y-23692455D01*
X75756206Y-23807664D01*
X75756203Y-23807670D01*
X75705908Y-23942517D01*
X75700119Y-23996371D01*
X75699501Y-24002123D01*
X75699500Y-24002135D01*
X75699500Y-25797870D01*
X75699501Y-25797876D01*
X75705908Y-25857483D01*
X75756202Y-25992328D01*
X75756206Y-25992335D01*
X75842452Y-26107544D01*
X75842455Y-26107547D01*
X75957664Y-26193793D01*
X75957669Y-26193796D01*
X76018833Y-26216608D01*
X76074766Y-26258478D01*
X76099184Y-26323942D01*
X76099500Y-26332790D01*
X76099500Y-29767209D01*
X76079815Y-29834248D01*
X76027011Y-29880003D01*
X76018833Y-29883391D01*
X75957671Y-29906202D01*
X75957664Y-29906206D01*
X75842455Y-29992452D01*
X75842452Y-29992455D01*
X75756206Y-30107664D01*
X75756202Y-30107671D01*
X75705908Y-30242517D01*
X75700078Y-30296752D01*
X75699501Y-30302123D01*
X75699500Y-30302135D01*
X75699500Y-31299902D01*
X75679815Y-31366941D01*
X75663181Y-31387583D01*
X75088335Y-31962428D01*
X75035250Y-31993823D01*
X74920609Y-32027129D01*
X74920606Y-32027131D01*
X74863119Y-32061128D01*
X74795395Y-32078309D01*
X74736881Y-32061128D01*
X74679395Y-32027132D01*
X74679388Y-32027129D01*
X74525208Y-31982335D01*
X74525202Y-31982334D01*
X74489183Y-31979500D01*
X74489181Y-31979500D01*
X74223607Y-31979500D01*
X74090819Y-31979501D01*
X74054792Y-31982335D01*
X74048563Y-31983473D01*
X74048148Y-31981202D01*
X73988719Y-31981030D01*
X73930051Y-31943084D01*
X73901211Y-31879444D01*
X73900000Y-31862155D01*
X73900000Y-31450000D01*
X72774000Y-31450000D01*
X72706961Y-31430315D01*
X72661206Y-31377511D01*
X72650000Y-31326000D01*
X72650000Y-29850000D01*
X73150000Y-29850000D01*
X73150000Y-30950000D01*
X73900000Y-30950000D01*
X73900000Y-30302172D01*
X73899999Y-30302155D01*
X73893598Y-30242627D01*
X73893596Y-30242620D01*
X73843354Y-30107913D01*
X73843350Y-30107906D01*
X73757190Y-29992812D01*
X73757187Y-29992809D01*
X73642093Y-29906649D01*
X73642086Y-29906645D01*
X73507379Y-29856403D01*
X73507372Y-29856401D01*
X73447844Y-29850000D01*
X73150000Y-29850000D01*
X72650000Y-29850000D01*
X72352155Y-29850000D01*
X72292627Y-29856401D01*
X72292620Y-29856403D01*
X72157913Y-29906645D01*
X72157906Y-29906649D01*
X72042812Y-29992809D01*
X72042809Y-29992812D01*
X71956649Y-30107906D01*
X71956645Y-30107913D01*
X71916182Y-30216401D01*
X71874311Y-30272335D01*
X71808846Y-30296752D01*
X71740573Y-30281900D01*
X71691168Y-30232495D01*
X71683818Y-30216401D01*
X71643354Y-30107913D01*
X71643350Y-30107906D01*
X71557190Y-29992812D01*
X71557187Y-29992809D01*
X71442093Y-29906649D01*
X71442086Y-29906645D01*
X71307379Y-29856403D01*
X71307372Y-29856401D01*
X71247844Y-29850000D01*
X70950000Y-29850000D01*
X70950000Y-31326000D01*
X70930315Y-31393039D01*
X70877511Y-31438794D01*
X70826000Y-31450000D01*
X69700000Y-31450000D01*
X69700000Y-31862154D01*
X69680315Y-31929193D01*
X69627511Y-31974948D01*
X69558353Y-31984892D01*
X69551447Y-31983401D01*
X69551434Y-31983473D01*
X69545202Y-31982334D01*
X69509183Y-31979500D01*
X69509181Y-31979500D01*
X69243607Y-31979500D01*
X69110819Y-31979501D01*
X69074794Y-31982335D01*
X68920611Y-32027129D01*
X68920604Y-32027132D01*
X68863119Y-32061128D01*
X68795395Y-32078309D01*
X68736881Y-32061128D01*
X68679395Y-32027132D01*
X68679388Y-32027129D01*
X68525208Y-31982335D01*
X68525202Y-31982334D01*
X68489183Y-31979500D01*
X68489181Y-31979500D01*
X68223607Y-31979500D01*
X68090819Y-31979501D01*
X68054792Y-31982335D01*
X68048563Y-31983473D01*
X68048121Y-31981056D01*
X67989214Y-31980884D01*
X67930547Y-31942936D01*
X67901710Y-31879296D01*
X67900499Y-31862010D01*
X67900499Y-30950000D01*
X69700000Y-30950000D01*
X70450000Y-30950000D01*
X70450000Y-29850000D01*
X70152155Y-29850000D01*
X70092627Y-29856401D01*
X70092620Y-29856403D01*
X69957913Y-29906645D01*
X69957906Y-29906649D01*
X69842812Y-29992809D01*
X69842809Y-29992812D01*
X69756649Y-30107906D01*
X69756645Y-30107913D01*
X69706403Y-30242620D01*
X69706401Y-30242627D01*
X69700000Y-30302155D01*
X69700000Y-30950000D01*
X67900499Y-30950000D01*
X67900499Y-30302129D01*
X67900498Y-30302123D01*
X67900497Y-30302116D01*
X67894091Y-30242517D01*
X67884350Y-30216401D01*
X67843797Y-30107671D01*
X67843793Y-30107664D01*
X67757547Y-29992455D01*
X67757544Y-29992452D01*
X67642335Y-29906206D01*
X67642328Y-29906202D01*
X67581167Y-29883391D01*
X67525233Y-29841520D01*
X67500816Y-29776056D01*
X67500500Y-29767209D01*
X67500500Y-26332790D01*
X67520185Y-26265751D01*
X67572989Y-26219996D01*
X67581146Y-26216616D01*
X67642331Y-26193796D01*
X67757546Y-26107546D01*
X67843796Y-25992331D01*
X67894091Y-25857483D01*
X67900500Y-25797873D01*
X67900499Y-25150000D01*
X69700000Y-25150000D01*
X69700000Y-25797844D01*
X69706401Y-25857372D01*
X69706403Y-25857379D01*
X69756645Y-25992086D01*
X69756649Y-25992093D01*
X69842809Y-26107187D01*
X69842812Y-26107190D01*
X69957906Y-26193350D01*
X69957913Y-26193354D01*
X70092620Y-26243596D01*
X70092627Y-26243598D01*
X70152155Y-26249999D01*
X70152172Y-26250000D01*
X70450000Y-26250000D01*
X70450000Y-25150000D01*
X69700000Y-25150000D01*
X67900499Y-25150000D01*
X67900499Y-24650000D01*
X69700000Y-24650000D01*
X70450000Y-24650000D01*
X70450000Y-23550000D01*
X70950000Y-23550000D01*
X70950000Y-26250000D01*
X71247828Y-26250000D01*
X71247844Y-26249999D01*
X71307372Y-26243598D01*
X71307379Y-26243596D01*
X71442086Y-26193354D01*
X71442093Y-26193350D01*
X71557187Y-26107190D01*
X71557190Y-26107187D01*
X71643350Y-25992093D01*
X71643354Y-25992086D01*
X71683818Y-25883598D01*
X71725689Y-25827664D01*
X71791153Y-25803247D01*
X71859426Y-25818099D01*
X71908832Y-25867504D01*
X71916182Y-25883598D01*
X71956645Y-25992086D01*
X71956649Y-25992093D01*
X72042809Y-26107187D01*
X72042812Y-26107190D01*
X72157906Y-26193350D01*
X72157913Y-26193354D01*
X72292620Y-26243596D01*
X72292627Y-26243598D01*
X72352155Y-26249999D01*
X72352172Y-26250000D01*
X72650000Y-26250000D01*
X72650000Y-25150000D01*
X73150000Y-25150000D01*
X73150000Y-26250000D01*
X73447828Y-26250000D01*
X73447844Y-26249999D01*
X73507372Y-26243598D01*
X73507379Y-26243596D01*
X73642086Y-26193354D01*
X73642093Y-26193350D01*
X73757187Y-26107190D01*
X73757190Y-26107187D01*
X73843350Y-25992093D01*
X73843354Y-25992086D01*
X73893596Y-25857379D01*
X73893598Y-25857372D01*
X73899999Y-25797844D01*
X73900000Y-25797827D01*
X73900000Y-25150000D01*
X73150000Y-25150000D01*
X72650000Y-25150000D01*
X72650000Y-23550000D01*
X73150000Y-23550000D01*
X73150000Y-24650000D01*
X73900000Y-24650000D01*
X73900000Y-24002172D01*
X73899999Y-24002155D01*
X73893598Y-23942627D01*
X73893596Y-23942620D01*
X73843354Y-23807913D01*
X73843350Y-23807906D01*
X73757190Y-23692812D01*
X73757187Y-23692809D01*
X73642093Y-23606649D01*
X73642086Y-23606645D01*
X73507379Y-23556403D01*
X73507372Y-23556401D01*
X73447844Y-23550000D01*
X73150000Y-23550000D01*
X72650000Y-23550000D01*
X72352155Y-23550000D01*
X72292627Y-23556401D01*
X72292620Y-23556403D01*
X72157913Y-23606645D01*
X72157906Y-23606649D01*
X72042812Y-23692809D01*
X72042809Y-23692812D01*
X71956649Y-23807906D01*
X71956645Y-23807913D01*
X71916182Y-23916401D01*
X71874311Y-23972335D01*
X71808846Y-23996752D01*
X71740573Y-23981900D01*
X71691168Y-23932495D01*
X71683818Y-23916401D01*
X71643354Y-23807913D01*
X71643350Y-23807906D01*
X71557190Y-23692812D01*
X71557187Y-23692809D01*
X71442093Y-23606649D01*
X71442086Y-23606645D01*
X71307379Y-23556403D01*
X71307372Y-23556401D01*
X71247844Y-23550000D01*
X70950000Y-23550000D01*
X70450000Y-23550000D01*
X70152155Y-23550000D01*
X70092627Y-23556401D01*
X70092620Y-23556403D01*
X69957913Y-23606645D01*
X69957906Y-23606649D01*
X69842812Y-23692809D01*
X69842809Y-23692812D01*
X69756649Y-23807906D01*
X69756645Y-23807913D01*
X69706403Y-23942620D01*
X69706401Y-23942627D01*
X69700000Y-24002155D01*
X69700000Y-24650000D01*
X67900499Y-24650000D01*
X67900499Y-24002128D01*
X67894091Y-23942517D01*
X67890353Y-23932495D01*
X67843797Y-23807670D01*
X67843793Y-23807664D01*
X67757547Y-23692455D01*
X67757544Y-23692452D01*
X67642335Y-23606206D01*
X67642328Y-23606202D01*
X67507482Y-23555908D01*
X67507483Y-23555908D01*
X67447883Y-23549501D01*
X67447881Y-23549500D01*
X67447873Y-23549500D01*
X67447864Y-23549500D01*
X66352129Y-23549500D01*
X66352123Y-23549501D01*
X66292516Y-23555908D01*
X66157671Y-23606202D01*
X66157664Y-23606206D01*
X66042455Y-23692452D01*
X66042452Y-23692455D01*
X65956206Y-23807664D01*
X65956203Y-23807670D01*
X65905908Y-23942517D01*
X65900119Y-23996371D01*
X65899501Y-24002123D01*
X65899500Y-24002135D01*
X65899500Y-25797870D01*
X65899501Y-25797876D01*
X65905908Y-25857483D01*
X65956202Y-25992328D01*
X65956206Y-25992335D01*
X66042452Y-26107544D01*
X66042455Y-26107547D01*
X66157664Y-26193793D01*
X66157669Y-26193796D01*
X66218833Y-26216608D01*
X66274766Y-26258478D01*
X66299184Y-26323942D01*
X66299500Y-26332790D01*
X66299500Y-29767209D01*
X66279815Y-29834248D01*
X66227011Y-29880003D01*
X66218833Y-29883391D01*
X66157671Y-29906202D01*
X66157664Y-29906206D01*
X66042455Y-29992452D01*
X66042452Y-29992455D01*
X65956206Y-30107664D01*
X65956202Y-30107671D01*
X65905908Y-30242517D01*
X65900078Y-30296752D01*
X65899501Y-30302123D01*
X65899500Y-30302135D01*
X65899500Y-31299902D01*
X65879815Y-31366941D01*
X65863181Y-31387583D01*
X65655454Y-31595310D01*
X65649352Y-31600661D01*
X65621075Y-31622360D01*
X65585864Y-31668250D01*
X65583637Y-31671152D01*
X65524822Y-31747801D01*
X65524821Y-31747802D01*
X65519875Y-31754249D01*
X65518501Y-31753195D01*
X65475058Y-31794610D01*
X65406449Y-31807825D01*
X65341588Y-31781850D01*
X65301065Y-31724932D01*
X65294250Y-31684388D01*
X65294250Y-24255928D01*
X65294781Y-24247826D01*
X65295088Y-24245499D01*
X65299432Y-24212500D01*
X65296311Y-24188796D01*
X65278794Y-24055739D01*
X65278794Y-24055738D01*
X65218286Y-23909659D01*
X65218285Y-23909658D01*
X65218285Y-23909657D01*
X65145213Y-23814427D01*
X65145198Y-23814409D01*
X65122032Y-23784218D01*
X65122031Y-23784217D01*
X65093763Y-23762526D01*
X65087667Y-23757181D01*
X63161570Y-21831085D01*
X63156229Y-21824994D01*
X63134532Y-21796718D01*
X63009091Y-21700464D01*
X62863012Y-21639956D01*
X62863010Y-21639955D01*
X62745611Y-21624500D01*
X62706250Y-21619318D01*
X62670920Y-21623969D01*
X62662822Y-21624500D01*
X59574678Y-21624500D01*
X59566579Y-21623969D01*
X59531250Y-21619318D01*
X59491889Y-21624500D01*
X59374489Y-21639955D01*
X59374487Y-21639956D01*
X59228407Y-21700464D01*
X59102969Y-21796716D01*
X59081269Y-21824994D01*
X59075918Y-21831096D01*
X57232346Y-23674668D01*
X57226244Y-23680019D01*
X57197970Y-23701715D01*
X57197968Y-23701718D01*
X57116669Y-23807669D01*
X57110496Y-23815714D01*
X57101713Y-23827160D01*
X57041206Y-23973237D01*
X57041205Y-23973239D01*
X57024182Y-24102546D01*
X57020568Y-24130000D01*
X57022655Y-24145856D01*
X57025219Y-24165326D01*
X57025750Y-24173428D01*
X57025750Y-24597941D01*
X57006065Y-24664980D01*
X56989431Y-24685622D01*
X56958173Y-24716879D01*
X56958167Y-24716887D01*
X56874505Y-24858353D01*
X56874504Y-24858356D01*
X56828652Y-25016176D01*
X56828651Y-25016182D01*
X56825750Y-25053054D01*
X56825750Y-26484446D01*
X56828651Y-26521317D01*
X56828652Y-26521323D01*
X56874504Y-26679143D01*
X56874505Y-26679146D01*
X56874506Y-26679148D01*
X56911931Y-26742431D01*
X56958167Y-26820612D01*
X56958173Y-26820620D01*
X57074379Y-26936826D01*
X57074383Y-26936829D01*
X57074385Y-26936831D01*
X57215852Y-27020494D01*
X57257474Y-27032586D01*
X57373676Y-27066347D01*
X57373679Y-27066347D01*
X57373681Y-27066348D01*
X57385972Y-27067315D01*
X57410554Y-27069250D01*
X57410556Y-27069250D01*
X57841946Y-27069250D01*
X57860381Y-27067799D01*
X57878819Y-27066348D01*
X57878821Y-27066347D01*
X57878823Y-27066347D01*
X57920441Y-27054255D01*
X58036648Y-27020494D01*
X58178115Y-26936831D01*
X58178120Y-26936825D01*
X58184281Y-26932048D01*
X58186183Y-26934500D01*
X58234829Y-26907905D01*
X58304524Y-26912854D01*
X58336945Y-26933690D01*
X58338219Y-26932048D01*
X58344382Y-26936828D01*
X58344385Y-26936831D01*
X58485852Y-27020494D01*
X58527474Y-27032586D01*
X58643676Y-27066347D01*
X58643679Y-27066347D01*
X58643681Y-27066348D01*
X58655972Y-27067315D01*
X58680554Y-27069250D01*
X58680556Y-27069250D01*
X59111946Y-27069250D01*
X59130381Y-27067799D01*
X59148819Y-27066348D01*
X59148821Y-27066347D01*
X59148823Y-27066347D01*
X59190441Y-27054255D01*
X59306648Y-27020494D01*
X59448115Y-26936831D01*
X59448120Y-26936825D01*
X59454281Y-26932048D01*
X59456183Y-26934500D01*
X59504829Y-26907905D01*
X59574524Y-26912854D01*
X59606945Y-26933690D01*
X59608219Y-26932048D01*
X59614382Y-26936828D01*
X59614385Y-26936831D01*
X59755852Y-27020494D01*
X59797474Y-27032586D01*
X59913676Y-27066347D01*
X59913679Y-27066347D01*
X59913681Y-27066348D01*
X59925972Y-27067315D01*
X59950554Y-27069250D01*
X59950556Y-27069250D01*
X60381946Y-27069250D01*
X60400381Y-27067799D01*
X60418819Y-27066348D01*
X60418821Y-27066347D01*
X60418823Y-27066347D01*
X60460441Y-27054255D01*
X60576648Y-27020494D01*
X60718115Y-26936831D01*
X60718120Y-26936826D01*
X60724276Y-26932051D01*
X60726089Y-26934388D01*
X60775199Y-26907548D01*
X60844893Y-26912506D01*
X60877246Y-26933301D01*
X60878528Y-26931650D01*
X60884697Y-26936435D01*
X61026051Y-27020031D01*
X61183764Y-27065850D01*
X61183761Y-27065850D01*
X61186248Y-27066045D01*
X61186250Y-27066045D01*
X61186250Y-26018750D01*
X61686250Y-26018750D01*
X61686250Y-27066045D01*
X61686251Y-27066045D01*
X61688736Y-27065850D01*
X61846448Y-27020031D01*
X61987802Y-26936435D01*
X61987811Y-26936428D01*
X62103928Y-26820311D01*
X62103935Y-26820302D01*
X62187532Y-26678946D01*
X62187533Y-26678943D01*
X62233349Y-26521245D01*
X62233350Y-26521239D01*
X62236250Y-26484394D01*
X62236250Y-26018750D01*
X61686250Y-26018750D01*
X61186250Y-26018750D01*
X61186250Y-25642750D01*
X61205935Y-25575711D01*
X61258739Y-25529956D01*
X61310250Y-25518750D01*
X62236250Y-25518750D01*
X62236250Y-25053106D01*
X62233350Y-25016260D01*
X62233349Y-25016254D01*
X62187533Y-24858556D01*
X62187532Y-24858553D01*
X62103935Y-24717197D01*
X62103928Y-24717188D01*
X62011421Y-24624681D01*
X61977936Y-24563358D01*
X61982920Y-24493666D01*
X62024792Y-24437733D01*
X62090256Y-24413316D01*
X62099102Y-24413000D01*
X62406153Y-24413000D01*
X62473192Y-24432685D01*
X62493834Y-24449319D01*
X63189202Y-25144687D01*
X63222687Y-25206010D01*
X63225521Y-25232368D01*
X63225521Y-35777328D01*
X63205836Y-35844367D01*
X63153032Y-35890122D01*
X63083874Y-35900066D01*
X63020318Y-35871041D01*
X63013840Y-35865009D01*
X62073069Y-34924238D01*
X62039584Y-34862915D01*
X62036750Y-34836557D01*
X62036750Y-34139558D01*
X62056435Y-34072519D01*
X62073070Y-34051876D01*
X62104326Y-34020620D01*
X62104331Y-34020615D01*
X62187994Y-33879148D01*
X62233848Y-33721319D01*
X62236750Y-33684444D01*
X62236750Y-32253056D01*
X62233848Y-32216181D01*
X62233492Y-32214956D01*
X62191668Y-32070997D01*
X62187994Y-32058352D01*
X62104331Y-31916885D01*
X62104329Y-31916883D01*
X62104326Y-31916879D01*
X61988120Y-31800673D01*
X61988112Y-31800667D01*
X61846646Y-31717005D01*
X61846643Y-31717004D01*
X61688823Y-31671152D01*
X61688817Y-31671151D01*
X61651946Y-31668250D01*
X61651944Y-31668250D01*
X61220556Y-31668250D01*
X61220554Y-31668250D01*
X61183682Y-31671151D01*
X61183676Y-31671152D01*
X61025856Y-31717004D01*
X61025853Y-31717005D01*
X60884387Y-31800667D01*
X60878219Y-31805452D01*
X60876322Y-31803006D01*
X60827608Y-31829607D01*
X60757916Y-31824623D01*
X60725546Y-31803819D01*
X60724281Y-31805452D01*
X60718112Y-31800667D01*
X60576646Y-31717005D01*
X60576643Y-31717004D01*
X60418823Y-31671152D01*
X60418817Y-31671151D01*
X60381946Y-31668250D01*
X60381944Y-31668250D01*
X59950556Y-31668250D01*
X59950554Y-31668250D01*
X59913682Y-31671151D01*
X59913676Y-31671152D01*
X59755856Y-31717004D01*
X59755853Y-31717005D01*
X59614387Y-31800667D01*
X59608219Y-31805452D01*
X59606322Y-31803006D01*
X59557608Y-31829607D01*
X59487916Y-31824623D01*
X59455546Y-31803819D01*
X59454281Y-31805452D01*
X59448112Y-31800667D01*
X59306646Y-31717005D01*
X59306643Y-31717004D01*
X59148823Y-31671152D01*
X59148817Y-31671151D01*
X59111946Y-31668250D01*
X59111944Y-31668250D01*
X58680556Y-31668250D01*
X58680554Y-31668250D01*
X58643682Y-31671151D01*
X58643676Y-31671152D01*
X58485856Y-31717004D01*
X58485853Y-31717005D01*
X58344387Y-31800667D01*
X58338219Y-31805452D01*
X58336322Y-31803006D01*
X58287608Y-31829607D01*
X58217916Y-31824623D01*
X58185546Y-31803819D01*
X58184281Y-31805452D01*
X58178112Y-31800667D01*
X58036646Y-31717005D01*
X58036643Y-31717004D01*
X57878823Y-31671152D01*
X57878817Y-31671151D01*
X57841946Y-31668250D01*
X57841944Y-31668250D01*
X57410556Y-31668250D01*
X57410554Y-31668250D01*
X57373682Y-31671151D01*
X57373676Y-31671152D01*
X57215856Y-31717004D01*
X57215853Y-31717005D01*
X57074387Y-31800667D01*
X57074379Y-31800673D01*
X56958173Y-31916879D01*
X56958167Y-31916887D01*
X56874505Y-32058353D01*
X56874504Y-32058356D01*
X56828652Y-32216176D01*
X56828651Y-32216182D01*
X56825750Y-32253054D01*
X56825750Y-33684446D01*
X56828651Y-33721317D01*
X56828652Y-33721323D01*
X56874504Y-33879143D01*
X56874505Y-33879146D01*
X56874506Y-33879148D01*
X56905067Y-33930824D01*
X56922335Y-33993944D01*
X56922335Y-34095395D01*
X56905069Y-34158513D01*
X56899842Y-34167350D01*
X56899839Y-34167358D01*
X56854692Y-34322752D01*
X56854691Y-34322758D01*
X56851835Y-34359058D01*
X56851835Y-34828442D01*
X56854691Y-34864741D01*
X56854692Y-34864747D01*
X56899838Y-35020139D01*
X56899840Y-35020143D01*
X56899841Y-35020145D01*
X56905067Y-35028983D01*
X56922335Y-35092102D01*
X56922335Y-35398254D01*
X56941591Y-35412712D01*
X56943106Y-35412717D01*
X57001777Y-35450657D01*
X57030622Y-35514295D01*
X57031835Y-35531595D01*
X57031835Y-38538906D01*
X57031304Y-38547008D01*
X57026653Y-38582334D01*
X57026653Y-38582335D01*
X57031835Y-38621695D01*
X57047290Y-38739095D01*
X57047291Y-38739097D01*
X57089187Y-38840244D01*
X57107799Y-38885176D01*
X57204053Y-39010617D01*
X57232399Y-39032367D01*
X57238489Y-39037708D01*
X57658210Y-39457429D01*
X58054176Y-39853395D01*
X58087661Y-39914718D01*
X58082677Y-39984410D01*
X58040805Y-40040343D01*
X57975341Y-40064760D01*
X57966495Y-40065076D01*
X53983873Y-40065076D01*
X53916834Y-40045391D01*
X53896192Y-40028757D01*
X51661819Y-37794384D01*
X51628334Y-37733061D01*
X51625500Y-37706703D01*
X51625500Y-34843750D01*
X55893545Y-34843750D01*
X55895189Y-34864660D01*
X55940303Y-35019945D01*
X56022613Y-35159124D01*
X56022620Y-35159133D01*
X56136951Y-35273464D01*
X56136960Y-35273471D01*
X56276139Y-35355781D01*
X56422335Y-35398254D01*
X56422335Y-34843750D01*
X55893545Y-34843750D01*
X51625500Y-34843750D01*
X51625500Y-34343749D01*
X55893544Y-34343749D01*
X55893545Y-34343750D01*
X56422335Y-34343750D01*
X56422335Y-33789244D01*
X56422333Y-33789243D01*
X56276144Y-33831715D01*
X56276141Y-33831717D01*
X56136960Y-33914028D01*
X56136951Y-33914035D01*
X56022620Y-34028366D01*
X56022613Y-34028375D01*
X55940303Y-34167554D01*
X55940301Y-34167559D01*
X55895190Y-34322831D01*
X55895189Y-34322837D01*
X55893544Y-34343749D01*
X51625500Y-34343749D01*
X51625500Y-31243250D01*
X51645185Y-31176211D01*
X51697989Y-31130456D01*
X51749500Y-31119250D01*
X52515696Y-31119250D01*
X52534131Y-31117799D01*
X52552569Y-31116348D01*
X52552571Y-31116347D01*
X52552573Y-31116347D01*
X52594191Y-31104255D01*
X52710398Y-31070494D01*
X52851865Y-30986831D01*
X52968081Y-30870615D01*
X53051744Y-30729148D01*
X53097598Y-30571319D01*
X53100500Y-30534444D01*
X53100500Y-30103056D01*
X53097598Y-30066181D01*
X53076178Y-29992455D01*
X53051745Y-29908356D01*
X53051745Y-29908355D01*
X53051744Y-29908354D01*
X53051744Y-29908352D01*
X53050574Y-29906374D01*
X53050130Y-29904624D01*
X53048647Y-29901196D01*
X53049200Y-29900956D01*
X53033396Y-29838651D01*
X53048753Y-29786353D01*
X53048184Y-29786107D01*
X53050182Y-29781488D01*
X53050581Y-29780132D01*
X53051281Y-29778947D01*
X53097100Y-29621236D01*
X53097295Y-29618751D01*
X53097295Y-29618750D01*
X52831815Y-29618750D01*
X52768694Y-29601482D01*
X52710396Y-29567005D01*
X52710393Y-29567004D01*
X52552573Y-29521152D01*
X52552567Y-29521151D01*
X52515696Y-29518250D01*
X52515694Y-29518250D01*
X51849000Y-29518250D01*
X51781961Y-29498565D01*
X51736206Y-29445761D01*
X51725000Y-29394250D01*
X51725000Y-29343250D01*
X51744685Y-29276211D01*
X51797489Y-29230456D01*
X51849000Y-29219250D01*
X52515696Y-29219250D01*
X52534131Y-29217799D01*
X52552569Y-29216348D01*
X52552571Y-29216347D01*
X52552573Y-29216347D01*
X52594191Y-29204255D01*
X52710398Y-29170494D01*
X52768694Y-29136018D01*
X52831815Y-29118750D01*
X53097295Y-29118750D01*
X53097295Y-29118748D01*
X53097100Y-29116261D01*
X53097099Y-29116255D01*
X53051283Y-28958556D01*
X53051281Y-28958551D01*
X53050578Y-28957362D01*
X53050310Y-28956308D01*
X53048184Y-28951394D01*
X53048976Y-28951050D01*
X53033395Y-28889638D01*
X53049009Y-28836464D01*
X53048646Y-28836307D01*
X53049920Y-28833362D01*
X53050579Y-28831119D01*
X53051742Y-28829151D01*
X53051744Y-28829148D01*
X53097598Y-28671319D01*
X53100500Y-28634444D01*
X53100500Y-28203056D01*
X53097598Y-28166181D01*
X53051744Y-28008352D01*
X52968081Y-27866885D01*
X52968079Y-27866883D01*
X52968076Y-27866879D01*
X52851870Y-27750673D01*
X52851862Y-27750667D01*
X52710396Y-27667005D01*
X52710393Y-27667004D01*
X52552573Y-27621152D01*
X52552567Y-27621151D01*
X52515696Y-27618250D01*
X52515694Y-27618250D01*
X51762597Y-27618250D01*
X51695558Y-27598565D01*
X51674916Y-27581931D01*
X51661819Y-27568834D01*
X51628334Y-27507511D01*
X51625500Y-27481153D01*
X51625500Y-24816322D01*
X51645185Y-24749283D01*
X51661815Y-24728645D01*
X51737820Y-24652640D01*
X51799142Y-24619156D01*
X51868834Y-24624140D01*
X51924767Y-24666012D01*
X51949184Y-24731476D01*
X51949500Y-24740322D01*
X51949500Y-25732856D01*
X51944577Y-25767449D01*
X51934177Y-25803247D01*
X51903584Y-25908549D01*
X51900750Y-25944567D01*
X51900751Y-26442931D01*
X51903585Y-26478955D01*
X51948379Y-26633138D01*
X51948381Y-26633143D01*
X52030113Y-26771345D01*
X52030119Y-26771353D01*
X52143646Y-26884880D01*
X52143650Y-26884883D01*
X52143652Y-26884885D01*
X52281857Y-26966619D01*
X52307944Y-26974198D01*
X52436041Y-27011414D01*
X52436044Y-27011414D01*
X52436046Y-27011415D01*
X52448053Y-27012360D01*
X52472067Y-27014250D01*
X52472068Y-27014249D01*
X52472069Y-27014250D01*
X52737643Y-27014249D01*
X52870431Y-27014249D01*
X52877634Y-27013682D01*
X52906454Y-27011415D01*
X53060643Y-26966619D01*
X53118619Y-26932331D01*
X53186343Y-26915148D01*
X53244862Y-26932331D01*
X53302055Y-26966154D01*
X53441250Y-27006594D01*
X53441250Y-26451723D01*
X53441441Y-26446856D01*
X53441686Y-26443750D01*
X53941250Y-26443750D01*
X53941250Y-27006593D01*
X54080444Y-26966154D01*
X54218535Y-26884488D01*
X54218544Y-26884481D01*
X54331981Y-26771044D01*
X54331988Y-26771035D01*
X54413656Y-26632941D01*
X54413657Y-26632938D01*
X54458416Y-26478878D01*
X54458417Y-26478872D01*
X54461181Y-26443750D01*
X53941250Y-26443750D01*
X53441686Y-26443750D01*
X53441750Y-26442933D01*
X53441749Y-25944570D01*
X53441684Y-25943750D01*
X53941250Y-25943750D01*
X54461181Y-25943750D01*
X54458417Y-25908627D01*
X54458416Y-25908621D01*
X54413657Y-25754561D01*
X54413656Y-25754558D01*
X54331988Y-25616464D01*
X54331981Y-25616455D01*
X54218544Y-25503018D01*
X54218535Y-25503011D01*
X54080441Y-25421343D01*
X54080438Y-25421341D01*
X53941251Y-25380903D01*
X53941250Y-25380904D01*
X53941250Y-25943750D01*
X53441684Y-25943750D01*
X53441441Y-25940656D01*
X53441250Y-25935791D01*
X53441250Y-25380904D01*
X53441248Y-25380903D01*
X53309095Y-25419298D01*
X53239226Y-25419099D01*
X53180556Y-25381157D01*
X53151712Y-25317519D01*
X53150500Y-25300222D01*
X53150500Y-24369499D01*
X53170185Y-24302460D01*
X53222989Y-24256705D01*
X53274500Y-24245499D01*
X53597870Y-24245499D01*
X53597872Y-24245499D01*
X53606711Y-24244548D01*
X53639094Y-24241068D01*
X53665606Y-24241068D01*
X53702166Y-24244999D01*
X53702182Y-24245000D01*
X53800000Y-24245000D01*
X53800051Y-24244948D01*
X53819685Y-24178084D01*
X53849686Y-24145859D01*
X53907546Y-24102546D01*
X53993796Y-23987331D01*
X54044091Y-23852483D01*
X54050500Y-23792873D01*
X54050499Y-22247128D01*
X54044091Y-22187517D01*
X54030074Y-22149935D01*
X54025090Y-22080243D01*
X54058575Y-22018920D01*
X54070762Y-22008232D01*
X54100451Y-21985451D01*
X54100453Y-21985448D01*
X54100512Y-21985403D01*
X54165681Y-21960208D01*
X54234126Y-21974246D01*
X54284117Y-22023059D01*
X54300000Y-22083778D01*
X54300000Y-24245000D01*
X54397828Y-24245000D01*
X54397844Y-24244999D01*
X54457372Y-24238598D01*
X54457379Y-24238596D01*
X54592086Y-24188354D01*
X54592093Y-24188350D01*
X54707187Y-24102190D01*
X54707190Y-24102187D01*
X54793350Y-23987093D01*
X54793354Y-23987086D01*
X54843596Y-23852379D01*
X54843598Y-23852372D01*
X54849999Y-23792844D01*
X54850000Y-23792827D01*
X54850000Y-23699550D01*
X54869685Y-23632511D01*
X54870000Y-23632167D01*
X54870000Y-22821110D01*
X54894457Y-22860610D01*
X54983962Y-22928201D01*
X55091840Y-22958895D01*
X55203521Y-22948546D01*
X55303922Y-22898552D01*
X55370000Y-22826069D01*
X55370000Y-23628366D01*
X55371944Y-23628069D01*
X55371945Y-23628069D01*
X55562660Y-23557436D01*
X55562664Y-23557434D01*
X55735267Y-23449850D01*
X55882668Y-23309735D01*
X55882669Y-23309733D01*
X55998856Y-23142804D01*
X56079059Y-22955907D01*
X56120000Y-22756690D01*
X56120000Y-22355000D01*
X55420000Y-22355000D01*
X55420000Y-21855000D01*
X56120000Y-21855000D01*
X56120000Y-21504286D01*
X56104581Y-21352661D01*
X56043700Y-21158618D01*
X56043695Y-21158608D01*
X55944994Y-20980784D01*
X55944994Y-20980783D01*
X55812521Y-20826469D01*
X55812520Y-20826468D01*
X55651695Y-20701981D01*
X55469093Y-20612411D01*
X55370000Y-20586753D01*
X55370000Y-21388889D01*
X55345543Y-21349390D01*
X55256038Y-21281799D01*
X55148160Y-21251105D01*
X55036479Y-21261454D01*
X54936078Y-21311448D01*
X54870000Y-21383930D01*
X54870000Y-20581633D01*
X54868053Y-20581931D01*
X54868047Y-20581933D01*
X54677342Y-20652562D01*
X54677335Y-20652565D01*
X54504732Y-20760149D01*
X54357331Y-20900264D01*
X54357330Y-20900266D01*
X54241142Y-21067197D01*
X54241140Y-21067200D01*
X54237760Y-21075078D01*
X54193232Y-21128921D01*
X54126663Y-21150142D01*
X54059189Y-21132005D01*
X54048332Y-21124556D01*
X53980233Y-21072302D01*
X53980232Y-21072301D01*
X53980230Y-21072300D01*
X53889731Y-21034814D01*
X53840236Y-21014313D01*
X53826171Y-21012461D01*
X53727727Y-20999500D01*
X53727720Y-20999500D01*
X53652280Y-20999500D01*
X53652272Y-20999500D01*
X53539764Y-21014313D01*
X53539763Y-21014313D01*
X53399769Y-21072300D01*
X53399766Y-21072302D01*
X53295354Y-21152420D01*
X53230185Y-21177614D01*
X53161740Y-21163575D01*
X53132187Y-21141725D01*
X52971245Y-20980783D01*
X52707691Y-20717229D01*
X52705156Y-20714536D01*
X52664022Y-20668105D01*
X52664021Y-20668104D01*
X52664017Y-20668100D01*
X52612989Y-20632879D01*
X52609980Y-20630665D01*
X52561153Y-20592412D01*
X52561148Y-20592408D01*
X52551906Y-20588249D01*
X52532359Y-20577224D01*
X52524024Y-20571471D01*
X52524025Y-20571471D01*
X52524023Y-20571470D01*
X52466031Y-20549476D01*
X52462583Y-20548047D01*
X52406023Y-20522592D01*
X52396039Y-20520762D01*
X52374436Y-20514739D01*
X52364967Y-20511148D01*
X52364963Y-20511147D01*
X52303406Y-20503672D01*
X52299705Y-20503109D01*
X52238701Y-20491930D01*
X52238696Y-20491930D01*
X52176790Y-20495675D01*
X52173045Y-20495788D01*
X49408998Y-20495788D01*
X49405253Y-20495675D01*
X49343346Y-20491930D01*
X49343339Y-20491930D01*
X49282336Y-20503109D01*
X49278635Y-20503672D01*
X49217078Y-20511147D01*
X49217071Y-20511149D01*
X49207597Y-20514742D01*
X49185999Y-20520763D01*
X49176019Y-20522592D01*
X49119469Y-20548043D01*
X49116010Y-20549476D01*
X49058021Y-20571469D01*
X49058013Y-20571473D01*
X49049671Y-20577231D01*
X49030139Y-20588248D01*
X49020896Y-20592408D01*
X48972085Y-20630648D01*
X48969070Y-20632867D01*
X48918022Y-20668104D01*
X48918015Y-20668110D01*
X48876885Y-20714536D01*
X48874318Y-20717262D01*
X48457651Y-21133929D01*
X48396328Y-21167414D01*
X48326636Y-21162430D01*
X48294483Y-21144623D01*
X48200234Y-21072302D01*
X48200230Y-21072300D01*
X48109731Y-21034814D01*
X48060236Y-21014313D01*
X48046171Y-21012461D01*
X47947727Y-20999500D01*
X47947720Y-20999500D01*
X47872280Y-20999500D01*
X47872272Y-20999500D01*
X47759764Y-21014313D01*
X47759763Y-21014313D01*
X47619769Y-21072300D01*
X47597821Y-21089142D01*
X47548743Y-21126800D01*
X47483575Y-21151994D01*
X47415131Y-21137956D01*
X47365141Y-21089142D01*
X47364839Y-21088602D01*
X47304994Y-20980784D01*
X47304994Y-20980783D01*
X47172521Y-20826469D01*
X47172520Y-20826468D01*
X47011695Y-20701981D01*
X46829093Y-20612411D01*
X46730000Y-20586753D01*
X46730000Y-21388889D01*
X46705543Y-21349390D01*
X46616038Y-21281799D01*
X46508160Y-21251105D01*
X46396479Y-21261454D01*
X46296078Y-21311448D01*
X46230000Y-21383930D01*
X46230000Y-20581633D01*
X46228053Y-20581931D01*
X46228047Y-20581933D01*
X46037342Y-20652562D01*
X46037335Y-20652565D01*
X45864732Y-20760149D01*
X45717331Y-20900264D01*
X45717330Y-20900266D01*
X45601143Y-21067195D01*
X45520940Y-21254092D01*
X45480000Y-21453309D01*
X45480000Y-21855000D01*
X46180000Y-21855000D01*
X46180000Y-22355000D01*
X45480000Y-22355000D01*
X45480000Y-22705713D01*
X45495418Y-22857338D01*
X45556299Y-23051381D01*
X45556304Y-23051391D01*
X45655005Y-23229215D01*
X45655005Y-23229216D01*
X45787478Y-23383530D01*
X45787479Y-23383531D01*
X45948304Y-23508018D01*
X46130907Y-23597589D01*
X46230000Y-23623244D01*
X46230000Y-22821110D01*
X46254457Y-22860610D01*
X46343962Y-22928201D01*
X46451840Y-22958895D01*
X46563521Y-22948546D01*
X46663922Y-22898552D01*
X46739484Y-22815666D01*
X46757175Y-22770000D01*
X47300000Y-22770000D01*
X47300000Y-22083779D01*
X47319685Y-22016740D01*
X47372489Y-21970985D01*
X47441647Y-21961041D01*
X47499487Y-21985404D01*
X47529230Y-22008227D01*
X47570433Y-22064655D01*
X47574587Y-22134401D01*
X47569926Y-22149933D01*
X47555908Y-22187517D01*
X47549501Y-22247116D01*
X47549500Y-22247127D01*
X47549500Y-22958895D01*
X47549501Y-23146000D01*
X47529817Y-23213039D01*
X47477013Y-23258794D01*
X47425501Y-23270000D01*
X46730000Y-23270000D01*
X46730000Y-23644200D01*
X46744824Y-23667047D01*
X46750000Y-23702500D01*
X46750000Y-23792844D01*
X46756401Y-23852372D01*
X46756403Y-23852379D01*
X46806645Y-23987086D01*
X46806649Y-23987093D01*
X46892809Y-24102187D01*
X46892812Y-24102190D01*
X47007906Y-24188350D01*
X47007913Y-24188354D01*
X47127990Y-24233140D01*
X47183924Y-24275011D01*
X47208341Y-24340475D01*
X47193489Y-24408748D01*
X47172338Y-24437003D01*
X46546162Y-25063181D01*
X46484839Y-25096666D01*
X46458481Y-25099500D01*
X46430154Y-25099500D01*
X46363115Y-25079815D01*
X46317360Y-25027011D01*
X46312448Y-25014504D01*
X46287380Y-24938855D01*
X46259814Y-24855666D01*
X46167712Y-24706344D01*
X46043656Y-24582288D01*
X45894334Y-24490186D01*
X45727797Y-24435001D01*
X45727795Y-24435000D01*
X45625010Y-24424500D01*
X44774998Y-24424500D01*
X44774980Y-24424501D01*
X44672203Y-24435000D01*
X44672200Y-24435001D01*
X44505668Y-24490185D01*
X44505663Y-24490187D01*
X44356342Y-24582289D01*
X44232289Y-24706342D01*
X44140187Y-24855663D01*
X44140185Y-24855668D01*
X44139229Y-24858553D01*
X44085001Y-25022203D01*
X44085001Y-25022204D01*
X44085000Y-25022204D01*
X44074500Y-25124983D01*
X44074500Y-26475001D01*
X44074501Y-26475018D01*
X44085000Y-26577796D01*
X44085001Y-26577799D01*
X44118584Y-26679143D01*
X44140186Y-26744334D01*
X44232288Y-26893656D01*
X44356344Y-27017712D01*
X44505666Y-27109814D01*
X44672203Y-27164999D01*
X44774991Y-27175500D01*
X45625008Y-27175499D01*
X45625016Y-27175498D01*
X45625019Y-27175498D01*
X45681302Y-27169748D01*
X45727797Y-27164999D01*
X45894334Y-27109814D01*
X46043656Y-27017712D01*
X46167712Y-26893656D01*
X46259814Y-26744334D01*
X46312448Y-26585493D01*
X46352219Y-26528051D01*
X46416735Y-26501228D01*
X46430153Y-26500500D01*
X46776952Y-26500500D01*
X46780697Y-26500613D01*
X46788042Y-26501057D01*
X46842606Y-26504358D01*
X46880314Y-26497447D01*
X46903621Y-26493177D01*
X46907325Y-26492613D01*
X46925170Y-26490446D01*
X46968872Y-26485140D01*
X46978335Y-26481550D01*
X46999961Y-26475522D01*
X47017313Y-26472343D01*
X47017611Y-26473972D01*
X47078415Y-26472959D01*
X47137814Y-26509750D01*
X47164543Y-26557907D01*
X47186341Y-26632938D01*
X47186343Y-26632941D01*
X47268011Y-26771035D01*
X47268018Y-26771044D01*
X47381455Y-26884481D01*
X47381464Y-26884488D01*
X47519555Y-26966154D01*
X47658750Y-27006594D01*
X47658750Y-26067750D01*
X47678435Y-26000711D01*
X47731239Y-25954956D01*
X47782750Y-25943750D01*
X48034250Y-25943750D01*
X48101289Y-25963435D01*
X48147044Y-26016239D01*
X48158250Y-26067750D01*
X48158251Y-26442932D01*
X48158559Y-26446841D01*
X48158750Y-26451708D01*
X48158750Y-27006594D01*
X48297944Y-26966155D01*
X48297946Y-26966154D01*
X48355136Y-26932332D01*
X48422859Y-26915148D01*
X48481379Y-26932331D01*
X48539357Y-26966619D01*
X48565444Y-26974198D01*
X48693541Y-27011414D01*
X48693544Y-27011414D01*
X48693546Y-27011415D01*
X48705553Y-27012360D01*
X48729567Y-27014250D01*
X48729568Y-27014249D01*
X48729569Y-27014250D01*
X48995143Y-27014249D01*
X49127931Y-27014249D01*
X49130765Y-27014025D01*
X49163954Y-27011415D01*
X49318143Y-26966619D01*
X49456348Y-26884885D01*
X49569885Y-26771348D01*
X49651619Y-26633143D01*
X49687468Y-26509750D01*
X49696414Y-26478958D01*
X49696414Y-26478956D01*
X49696415Y-26478954D01*
X49699250Y-26442931D01*
X49699249Y-26323845D01*
X49718933Y-26256807D01*
X49735560Y-26236173D01*
X49762822Y-26208911D01*
X49824144Y-26175429D01*
X49893836Y-26180415D01*
X49949768Y-26222287D01*
X49974184Y-26287752D01*
X49974500Y-26296596D01*
X49974500Y-27481153D01*
X49954815Y-27548192D01*
X49938181Y-27568834D01*
X49925084Y-27581931D01*
X49863761Y-27615416D01*
X49837403Y-27618250D01*
X49084304Y-27618250D01*
X49047432Y-27621151D01*
X49047426Y-27621152D01*
X48889606Y-27667004D01*
X48889603Y-27667005D01*
X48748137Y-27750667D01*
X48748129Y-27750673D01*
X48631923Y-27866879D01*
X48631917Y-27866887D01*
X48548255Y-28008353D01*
X48548254Y-28008356D01*
X48502402Y-28166176D01*
X48502401Y-28166182D01*
X48499500Y-28203054D01*
X48499500Y-28544250D01*
X48479815Y-28611289D01*
X48427011Y-28657044D01*
X48375500Y-28668250D01*
X45175537Y-28668250D01*
X45108498Y-28648565D01*
X45087856Y-28631931D01*
X43430123Y-26974198D01*
X43396638Y-26912875D01*
X43401622Y-26843183D01*
X43412258Y-26821433D01*
X43459814Y-26744334D01*
X43514999Y-26577797D01*
X43525500Y-26475009D01*
X43525499Y-25124992D01*
X43522605Y-25096666D01*
X43514999Y-25022203D01*
X43514998Y-25022200D01*
X43513004Y-25016182D01*
X43459814Y-24855666D01*
X43367712Y-24706344D01*
X43243656Y-24582288D01*
X43094334Y-24490186D01*
X42927797Y-24435001D01*
X42927795Y-24435000D01*
X42825010Y-24424500D01*
X41974998Y-24424500D01*
X41974980Y-24424501D01*
X41872203Y-24435000D01*
X41872200Y-24435001D01*
X41705668Y-24490185D01*
X41705663Y-24490187D01*
X41556342Y-24582289D01*
X41432289Y-24706342D01*
X41340187Y-24855663D01*
X41340185Y-24855668D01*
X41339229Y-24858553D01*
X41287551Y-25014506D01*
X41247781Y-25071949D01*
X41183265Y-25098772D01*
X41169847Y-25099500D01*
X39908156Y-25099500D01*
X39841117Y-25079815D01*
X39835271Y-25075818D01*
X39752734Y-25015851D01*
X39752729Y-25015848D01*
X39579807Y-24938857D01*
X39579802Y-24938855D01*
X39434001Y-24907865D01*
X39394646Y-24899500D01*
X39205354Y-24899500D01*
X39172897Y-24906398D01*
X39020197Y-24938855D01*
X39020192Y-24938857D01*
X38847270Y-25015848D01*
X38847265Y-25015851D01*
X38694129Y-25127111D01*
X38567466Y-25267785D01*
X38472821Y-25431715D01*
X38472818Y-25431722D01*
X38414327Y-25611740D01*
X38414326Y-25611744D01*
X38394540Y-25800000D01*
X38414326Y-25988256D01*
X38414327Y-25988259D01*
X38472818Y-26168277D01*
X38472821Y-26168284D01*
X38567467Y-26332216D01*
X38675072Y-26451723D01*
X38694129Y-26472888D01*
X38847265Y-26584148D01*
X38847270Y-26584151D01*
X39020192Y-26661142D01*
X39020197Y-26661144D01*
X39205354Y-26700500D01*
X39205355Y-26700500D01*
X39394644Y-26700500D01*
X39394646Y-26700500D01*
X39579803Y-26661144D01*
X39752730Y-26584151D01*
X39788852Y-26557907D01*
X39835271Y-26524182D01*
X39901077Y-26500702D01*
X39908156Y-26500500D01*
X41169846Y-26500500D01*
X41236885Y-26520185D01*
X41282640Y-26572989D01*
X41287552Y-26585496D01*
X41318584Y-26679143D01*
X41340186Y-26744334D01*
X41432288Y-26893656D01*
X41556344Y-27017712D01*
X41680154Y-27094078D01*
X41726878Y-27146024D01*
X41728123Y-27148703D01*
X41735457Y-27164999D01*
X41751759Y-27201222D01*
X41753189Y-27204673D01*
X41775182Y-27262662D01*
X41775183Y-27262663D01*
X41780936Y-27270998D01*
X41791961Y-27290545D01*
X41796120Y-27299787D01*
X41796124Y-27299792D01*
X41834371Y-27348610D01*
X41836591Y-27351628D01*
X41871812Y-27402656D01*
X41871816Y-27402660D01*
X41871817Y-27402661D01*
X41918250Y-27443796D01*
X41920941Y-27446330D01*
X43018861Y-28544250D01*
X43755680Y-29281069D01*
X43789165Y-29342392D01*
X43784181Y-29412084D01*
X43755680Y-29456431D01*
X42257054Y-30955056D01*
X42195731Y-30988541D01*
X42179103Y-30990993D01*
X42161776Y-30992356D01*
X42161770Y-30992357D01*
X42006377Y-31037504D01*
X42006372Y-31037506D01*
X41985396Y-31049911D01*
X41917671Y-31067092D01*
X41859157Y-31049911D01*
X41838959Y-31037966D01*
X41838958Y-31037965D01*
X41692769Y-30995493D01*
X41692768Y-30995494D01*
X41692768Y-31301645D01*
X41675502Y-31364763D01*
X41670275Y-31373600D01*
X41670272Y-31373608D01*
X41625125Y-31529002D01*
X41625124Y-31529008D01*
X41622268Y-31565308D01*
X41622268Y-32034692D01*
X41625124Y-32070991D01*
X41625125Y-32070997D01*
X41670272Y-32226390D01*
X41670272Y-32226392D01*
X41670274Y-32226395D01*
X41675498Y-32235229D01*
X41692768Y-32298352D01*
X41692768Y-32505413D01*
X41675500Y-32568534D01*
X41648257Y-32614597D01*
X41648254Y-32614605D01*
X41602402Y-32772426D01*
X41602401Y-32772432D01*
X41599500Y-32809304D01*
X41599500Y-33965696D01*
X41602401Y-34002567D01*
X41602402Y-34002573D01*
X41648254Y-34160393D01*
X41648255Y-34160396D01*
X41648256Y-34160398D01*
X41652372Y-34167358D01*
X41735890Y-34308580D01*
X41734071Y-34309655D01*
X41755619Y-34364532D01*
X41741941Y-34433050D01*
X41693391Y-34483296D01*
X41632105Y-34499500D01*
X41234304Y-34499500D01*
X41197432Y-34502401D01*
X41197426Y-34502402D01*
X41039606Y-34548254D01*
X41039603Y-34548255D01*
X40898137Y-34631917D01*
X40898129Y-34631923D01*
X40781923Y-34748129D01*
X40781917Y-34748137D01*
X40698255Y-34889603D01*
X40698254Y-34889606D01*
X40652402Y-35047426D01*
X40652401Y-35047432D01*
X40649500Y-35084304D01*
X40649500Y-36240696D01*
X40652401Y-36277567D01*
X40652402Y-36277573D01*
X40698254Y-36435393D01*
X40698255Y-36435396D01*
X40698256Y-36435398D01*
X40728773Y-36487000D01*
X40732232Y-36492848D01*
X40749500Y-36555969D01*
X40749500Y-36756130D01*
X40732232Y-36819250D01*
X40719515Y-36840753D01*
X40719512Y-36840760D01*
X40674365Y-36996153D01*
X40674364Y-36996159D01*
X40671508Y-37032459D01*
X40671508Y-37501843D01*
X40674364Y-37538142D01*
X40674365Y-37538148D01*
X40702404Y-37634655D01*
X40702205Y-37704524D01*
X40664263Y-37763194D01*
X40600625Y-37792038D01*
X40583328Y-37793250D01*
X28204286Y-37793250D01*
X28200542Y-37793137D01*
X28138647Y-37789393D01*
X28138640Y-37789393D01*
X28077652Y-37800569D01*
X28073951Y-37801132D01*
X28012375Y-37808610D01*
X28002892Y-37812206D01*
X27981288Y-37818228D01*
X27979785Y-37818504D01*
X27971315Y-37820056D01*
X27971313Y-37820057D01*
X27914777Y-37845502D01*
X27911319Y-37846934D01*
X27853319Y-37868932D01*
X27844974Y-37874692D01*
X27825433Y-37885714D01*
X27816191Y-37889873D01*
X27767379Y-37928114D01*
X27764364Y-37930333D01*
X27713322Y-37965566D01*
X27713315Y-37965572D01*
X27672185Y-38011998D01*
X27669618Y-38014724D01*
X24127216Y-41557125D01*
X24124490Y-41559692D01*
X24078068Y-41600818D01*
X24042836Y-41651859D01*
X24040618Y-41654874D01*
X24002374Y-41703689D01*
X24002369Y-41703698D01*
X23998210Y-41712938D01*
X23987192Y-41732473D01*
X23981437Y-41740811D01*
X23981433Y-41740817D01*
X23981432Y-41740820D01*
X23981430Y-41740824D01*
X23981429Y-41740827D01*
X23959439Y-41798805D01*
X23958007Y-41802263D01*
X23932555Y-41858818D01*
X23930727Y-41868792D01*
X23924703Y-41890403D01*
X23921110Y-41899877D01*
X23921109Y-41899878D01*
X23913634Y-41961435D01*
X23913071Y-41965136D01*
X23901892Y-42026140D01*
X23901892Y-42026145D01*
X23905637Y-42088052D01*
X23905750Y-42091797D01*
X23905750Y-69033201D01*
X23905637Y-69036946D01*
X23901892Y-69098853D01*
X23901892Y-69098855D01*
X15800500Y-69098855D01*
X15800500Y-32050000D01*
X40663978Y-32050000D01*
X40665622Y-32070910D01*
X40710736Y-32226195D01*
X40793046Y-32365374D01*
X40793053Y-32365383D01*
X40907384Y-32479714D01*
X40907393Y-32479721D01*
X41046572Y-32562031D01*
X41192768Y-32604504D01*
X41192768Y-32050000D01*
X40663978Y-32050000D01*
X15800500Y-32050000D01*
X15800500Y-31549999D01*
X40663977Y-31549999D01*
X40663978Y-31550000D01*
X41192768Y-31550000D01*
X41192768Y-30995494D01*
X41192766Y-30995493D01*
X41046577Y-31037965D01*
X41046574Y-31037967D01*
X40907393Y-31120278D01*
X40907384Y-31120285D01*
X40793053Y-31234616D01*
X40793046Y-31234625D01*
X40710736Y-31373804D01*
X40710734Y-31373809D01*
X40665623Y-31529081D01*
X40665622Y-31529087D01*
X40663977Y-31549999D01*
X15800500Y-31549999D01*
X15800500Y-19875373D01*
X17545723Y-19875373D01*
X17575881Y-20175160D01*
X17575882Y-20175162D01*
X17645728Y-20468252D01*
X17645730Y-20468259D01*
X17645731Y-20468261D01*
X17659283Y-20503448D01*
X17754020Y-20749427D01*
X17754024Y-20749436D01*
X17898825Y-21013665D01*
X17898829Y-21013671D01*
X17999382Y-21150142D01*
X18077554Y-21256238D01*
X18077561Y-21256245D01*
X18287019Y-21472823D01*
X18523478Y-21659553D01*
X18523480Y-21659554D01*
X18523485Y-21659558D01*
X18782730Y-21813109D01*
X19060128Y-21930736D01*
X19350729Y-22010340D01*
X19649347Y-22050500D01*
X19649351Y-22050500D01*
X19875252Y-22050500D01*
X20039164Y-22039526D01*
X20100634Y-22035412D01*
X20395903Y-21975396D01*
X20680537Y-21876560D01*
X20949459Y-21740668D01*
X21197869Y-21570144D01*
X21421333Y-21368032D01*
X21615865Y-21137939D01*
X21777993Y-20883970D01*
X21904823Y-20610658D01*
X21994093Y-20322879D01*
X22044209Y-20025770D01*
X22049237Y-19875373D01*
X79545723Y-19875373D01*
X79575881Y-20175160D01*
X79575882Y-20175162D01*
X79645728Y-20468252D01*
X79645730Y-20468259D01*
X79645731Y-20468261D01*
X79659283Y-20503448D01*
X79754020Y-20749427D01*
X79754024Y-20749436D01*
X79898825Y-21013665D01*
X79898829Y-21013671D01*
X79999382Y-21150142D01*
X80077554Y-21256238D01*
X80077561Y-21256245D01*
X80287019Y-21472823D01*
X80523478Y-21659553D01*
X80523480Y-21659554D01*
X80523485Y-21659558D01*
X80782730Y-21813109D01*
X81060128Y-21930736D01*
X81350729Y-22010340D01*
X81649347Y-22050500D01*
X81649351Y-22050500D01*
X81875252Y-22050500D01*
X82039164Y-22039526D01*
X82100634Y-22035412D01*
X82395903Y-21975396D01*
X82680537Y-21876560D01*
X82949459Y-21740668D01*
X83197869Y-21570144D01*
X83421333Y-21368032D01*
X83615865Y-21137939D01*
X83777993Y-20883970D01*
X83904823Y-20610658D01*
X83994093Y-20322879D01*
X84044209Y-20025770D01*
X84054277Y-19724631D01*
X84024118Y-19424838D01*
X83954269Y-19131739D01*
X83845977Y-18850566D01*
X83701175Y-18586335D01*
X83522446Y-18343762D01*
X83312980Y-18127176D01*
X83189742Y-18029856D01*
X83076521Y-17940446D01*
X83076517Y-17940443D01*
X83076515Y-17940442D01*
X82817270Y-17786891D01*
X82539872Y-17669264D01*
X82539863Y-17669261D01*
X82249272Y-17589660D01*
X82134954Y-17574286D01*
X81950653Y-17549500D01*
X81724756Y-17549500D01*
X81724748Y-17549500D01*
X81499368Y-17564587D01*
X81499359Y-17564589D01*
X81204094Y-17624604D01*
X80919464Y-17723439D01*
X80919459Y-17723441D01*
X80650546Y-17859328D01*
X80402125Y-18029860D01*
X80178665Y-18231969D01*
X79984132Y-18462064D01*
X79822006Y-18716030D01*
X79822005Y-18716032D01*
X79711795Y-18953531D01*
X79695177Y-18989342D01*
X79695176Y-18989346D01*
X79605907Y-19277118D01*
X79555791Y-19574230D01*
X79545723Y-19875373D01*
X22049237Y-19875373D01*
X22054277Y-19724631D01*
X22024118Y-19424838D01*
X21954269Y-19131739D01*
X21845977Y-18850566D01*
X21701175Y-18586335D01*
X21522446Y-18343762D01*
X21456634Y-18275713D01*
X45480000Y-18275713D01*
X45495418Y-18427338D01*
X45556299Y-18621381D01*
X45556304Y-18621391D01*
X45655005Y-18799215D01*
X45655005Y-18799216D01*
X45787478Y-18953530D01*
X45787479Y-18953531D01*
X45948304Y-19078018D01*
X46130907Y-19167589D01*
X46230000Y-19193244D01*
X46230000Y-18391110D01*
X46254457Y-18430610D01*
X46343962Y-18498201D01*
X46451840Y-18528895D01*
X46563521Y-18518546D01*
X46663922Y-18468552D01*
X46730000Y-18396069D01*
X46730000Y-19198366D01*
X46731944Y-19198069D01*
X46731945Y-19198069D01*
X46922660Y-19127436D01*
X46922664Y-19127434D01*
X47095267Y-19019850D01*
X47242668Y-18879735D01*
X47242669Y-18879733D01*
X47358856Y-18712804D01*
X47439059Y-18525907D01*
X47480000Y-18326690D01*
X47480000Y-18275713D01*
X54120000Y-18275713D01*
X54135418Y-18427338D01*
X54196299Y-18621381D01*
X54196304Y-18621391D01*
X54295005Y-18799215D01*
X54295005Y-18799216D01*
X54427478Y-18953530D01*
X54427479Y-18953531D01*
X54588304Y-19078018D01*
X54770907Y-19167589D01*
X54870000Y-19193244D01*
X54870000Y-18391110D01*
X54894457Y-18430610D01*
X54983962Y-18498201D01*
X55091840Y-18528895D01*
X55203521Y-18518546D01*
X55303922Y-18468552D01*
X55370000Y-18396069D01*
X55370000Y-19198365D01*
X55371944Y-19198069D01*
X55371945Y-19198069D01*
X55562660Y-19127436D01*
X55562664Y-19127434D01*
X55735267Y-19019850D01*
X55882668Y-18879735D01*
X55882669Y-18879733D01*
X55998856Y-18712804D01*
X56079059Y-18525907D01*
X56120000Y-18326690D01*
X56120000Y-18175000D01*
X55420000Y-18175000D01*
X55420000Y-17675000D01*
X56120000Y-17675000D01*
X56120000Y-17574286D01*
X56104581Y-17422661D01*
X56043700Y-17228618D01*
X56043695Y-17228608D01*
X55944994Y-17050784D01*
X55944994Y-17050783D01*
X55812521Y-16896469D01*
X55812520Y-16896468D01*
X55651695Y-16771981D01*
X55469093Y-16682411D01*
X55370000Y-16656753D01*
X55370000Y-17458889D01*
X55345543Y-17419390D01*
X55256038Y-17351799D01*
X55148160Y-17321105D01*
X55036479Y-17331454D01*
X54936078Y-17381448D01*
X54870000Y-17453930D01*
X54870000Y-16651633D01*
X54868053Y-16651931D01*
X54868047Y-16651933D01*
X54677342Y-16722562D01*
X54677335Y-16722565D01*
X54504732Y-16830149D01*
X54357331Y-16970264D01*
X54357330Y-16970266D01*
X54241143Y-17137195D01*
X54160940Y-17324092D01*
X54120000Y-17523309D01*
X54120000Y-17675000D01*
X54820000Y-17675000D01*
X54820000Y-18175000D01*
X54120000Y-18175000D01*
X54120000Y-18275713D01*
X47480000Y-18275713D01*
X47480000Y-18175000D01*
X46780000Y-18175000D01*
X46780000Y-17675000D01*
X47480000Y-17675000D01*
X47480000Y-17574286D01*
X47464581Y-17422661D01*
X47403700Y-17228618D01*
X47403695Y-17228608D01*
X47304994Y-17050784D01*
X47304994Y-17050783D01*
X47172521Y-16896469D01*
X47172520Y-16896468D01*
X47011695Y-16771981D01*
X46829093Y-16682411D01*
X46730000Y-16656753D01*
X46730000Y-17458889D01*
X46705543Y-17419390D01*
X46616038Y-17351799D01*
X46508160Y-17321105D01*
X46396479Y-17331454D01*
X46296078Y-17381448D01*
X46230000Y-17453930D01*
X46230000Y-16651633D01*
X46228053Y-16651931D01*
X46228047Y-16651933D01*
X46037342Y-16722562D01*
X46037335Y-16722565D01*
X45864732Y-16830149D01*
X45717331Y-16970264D01*
X45717330Y-16970266D01*
X45601143Y-17137195D01*
X45520940Y-17324092D01*
X45480000Y-17523309D01*
X45480000Y-17675000D01*
X46180000Y-17675000D01*
X46180000Y-18175000D01*
X45480000Y-18175000D01*
X45480000Y-18275713D01*
X21456634Y-18275713D01*
X21312980Y-18127176D01*
X21189742Y-18029856D01*
X21076521Y-17940446D01*
X21076517Y-17940443D01*
X21076515Y-17940442D01*
X20817270Y-17786891D01*
X20539872Y-17669264D01*
X20539863Y-17669261D01*
X20249272Y-17589660D01*
X20134954Y-17574286D01*
X19950653Y-17549500D01*
X19724756Y-17549500D01*
X19724748Y-17549500D01*
X19499368Y-17564587D01*
X19499359Y-17564589D01*
X19204094Y-17624604D01*
X18919464Y-17723439D01*
X18919459Y-17723441D01*
X18650546Y-17859328D01*
X18402125Y-18029860D01*
X18178665Y-18231969D01*
X17984132Y-18462064D01*
X17822006Y-18716030D01*
X17822005Y-18716032D01*
X17711795Y-18953531D01*
X17695177Y-18989342D01*
X17695176Y-18989346D01*
X17605907Y-19277118D01*
X17555791Y-19574230D01*
X17545723Y-19875373D01*
X15800500Y-19875373D01*
X15800500Y-17802035D01*
X15800633Y-17797980D01*
X15802393Y-17771103D01*
X15805989Y-17716244D01*
X15818986Y-17534536D01*
X15820014Y-17526903D01*
X15843153Y-17410579D01*
X15844118Y-17406141D01*
X15874533Y-17266323D01*
X15876392Y-17259625D01*
X15916815Y-17140543D01*
X15966159Y-17008251D01*
X15968633Y-17002520D01*
X16025583Y-16887036D01*
X16092179Y-16765076D01*
X16095019Y-16760384D01*
X16166563Y-16653311D01*
X16168428Y-16650676D01*
X16250291Y-16541321D01*
X16253244Y-16537678D01*
X16338503Y-16440459D01*
X16341198Y-16437581D01*
X16437581Y-16341198D01*
X16440459Y-16338503D01*
X16537678Y-16253244D01*
X16541321Y-16250291D01*
X16650676Y-16168428D01*
X16653311Y-16166563D01*
X16760384Y-16095019D01*
X16765076Y-16092179D01*
X16887036Y-16025583D01*
X17002520Y-15968633D01*
X17008251Y-15966159D01*
X17140543Y-15916815D01*
X17259625Y-15876392D01*
X17266323Y-15874533D01*
X17410579Y-15843153D01*
X17416728Y-15841929D01*
X17526903Y-15820014D01*
X17534536Y-15818986D01*
X17716244Y-15805989D01*
X17769211Y-15802517D01*
X17797981Y-15800633D01*
X17802036Y-15800500D01*
X83797964Y-15800500D01*
X83802019Y-15800633D01*
G37*
G04 #@! TD.AperFunction*
M02*
