G04 #@! TF.GenerationSoftware,KiCad,Pcbnew,7.0.9*
G04 #@! TF.CreationDate,2023-11-15T15:13:25+00:00*
G04 #@! TF.ProjectId,analog,616e616c-6f67-42e6-9b69-6361645f7063,1*
G04 #@! TF.SameCoordinates,Original*
G04 #@! TF.FileFunction,Legend,Top*
G04 #@! TF.FilePolarity,Positive*
%FSLAX46Y46*%
G04 Gerber Fmt 4.6, Leading zero omitted, Abs format (unit mm)*
G04 Created by KiCad (PCBNEW 7.0.9) date 2023-11-15 15:13:25*
%MOMM*%
%LPD*%
G01*
G04 APERTURE LIST*
%ADD10C,0.150000*%
%ADD11C,1.750000*%
%ADD12C,4.000000*%
%ADD13C,0.650000*%
%ADD14O,1.000000X1.600000*%
%ADD15O,1.000000X2.100000*%
G04 APERTURE END LIST*
D10*
X62850000Y-61262500D02*
X62850000Y-75262500D01*
X62850000Y-75262500D02*
X76850000Y-75262500D01*
X76850000Y-61262500D02*
X62850000Y-61262500D01*
X76850000Y-61262500D02*
X76850000Y-75262500D01*
X43800000Y-61262500D02*
X43800000Y-75262500D01*
X43800000Y-75262500D02*
X57800000Y-75262500D01*
X57800000Y-61262500D02*
X43800000Y-61262500D01*
X57800000Y-61262500D02*
X57800000Y-75262500D01*
X24749984Y-61262500D02*
X24749984Y-75262500D01*
X24749984Y-75262500D02*
X38749984Y-75262500D01*
X38749984Y-61262500D02*
X24749984Y-61262500D01*
X38749984Y-61262500D02*
X38749984Y-75262500D01*
%LPC*%
D11*
X64770000Y-68262500D03*
X74930000Y-68262500D03*
D12*
X19800000Y-19800000D03*
X81800000Y-19800000D03*
D11*
X45720000Y-68262500D03*
X55880000Y-68262500D03*
D12*
X19800000Y-81800000D03*
X81800000Y-81800000D03*
D11*
X26669984Y-68262500D03*
X36829984Y-68262500D03*
D13*
X47910000Y-21575000D03*
X53690000Y-21575000D03*
D14*
X46480000Y-17925000D03*
D15*
X46480000Y-22105000D03*
D14*
X55120000Y-17925000D03*
D15*
X55120000Y-22105000D03*
%LPD*%
M02*
